<?xml version="1.0" encoding="UTF-8"?>
<svg version="1.1" xmlns="http://www.w3.org/2000/svg" width="960" height="1259">
<path d="M0 0 C2.38267026 -0.00697958 4.76534034 -0.01402054 7.14801025 -0.02111816 C14.71586338 -0.04038531 22.28368752 -0.04529348 29.8515625 -0.046875 C31.78333973 -0.04775871 31.78333973 -0.04775871 33.75414276 -0.04866028 C71.06736546 -0.06071439 108.23369456 0.13001338 145.45581055 2.97528076 C148.54342087 3.20816788 151.63176999 3.42652725 154.72070312 3.64111328 C260.78875943 11.05307432 366.08385568 28.75421535 490.71484375 61.5234375 C491.56028748 61.75102249 492.4057312 61.97860748 493.27679443 62.21308899 C510.03819012 66.76475262 510.03819012 66.76475262 511.4765625 68.203125 C511.57699133 70.13761666 511.60580673 72.07583342 511.60799026 74.01292896 C511.61183141 75.28360842 511.61567255 76.55428787 511.6196301 77.86347276 C511.61884967 79.29226742 511.61797084 80.72106202 511.61700439 82.14985657 C511.61958593 83.65378766 511.6225985 85.15771806 511.6260078 86.6616475 C511.63410963 90.81583 511.63586918 94.96999526 511.63660526 99.12418473 C511.63845097 103.59881121 511.64599715 108.07342864 511.65274048 112.54804993 C511.6663598 122.35641614 511.6723577 132.16477829 511.67675114 141.9731524 C511.67951466 148.11424041 511.68375292 154.25532685 511.68825531 160.3964138 C511.70046618 177.4355589 511.71075308 194.47470274 511.7141304 211.51385212 C511.71434997 212.60619965 511.71456953 213.69854717 511.71479575 214.82399614 C511.71501403 215.91888848 511.71523231 217.01378082 511.7154572 218.14185172 C511.71590065 220.3602742 511.71634722 222.57869667 511.71679688 224.79711914 C511.7170183 225.89752068 511.71723973 226.99792221 511.71746787 228.13166925 C511.72139245 245.85251517 511.73876593 263.57331937 511.7621564 281.29414926 C511.78603861 299.53731521 511.7983403 317.78046044 511.79949832 336.02364224 C511.80040715 346.24534615 511.80603776 356.46699558 511.82431793 366.68868446 C511.96521394 448.81393917 511.96521394 448.81393917 508.69154072 482.00508285 C508.45603107 484.41304839 508.23161793 486.82189727 508.00884247 489.23107338 C505.70802333 514.01600593 502.39096822 538.62274681 498.4765625 563.203125 C498.35774719 563.94973389 498.23893188 564.69634277 498.11651611 565.46557617 C489.72028582 617.91093732 476.90629438 669.71276094 460.4765625 720.203125 C460.20821594 721.03007874 459.93986938 721.85703247 459.66339111 722.70904541 C448.20438738 757.9562101 434.93018297 792.50470151 419.4765625 826.203125 C418.65309326 828.00015869 418.65309326 828.00015869 417.81298828 829.83349609 C387.99591354 894.75788899 351.75292769 956.3057916 308.4765625 1013.203125 C308.05165527 1013.76451172 307.62674805 1014.32589844 307.18896484 1014.90429688 C300.63841271 1023.55528368 293.83815593 1031.98767207 286.96484375 1040.3828125 C285.66246871 1041.97574365 284.36590218 1043.5734202 283.0703125 1045.171875 C274.57584462 1055.63607457 265.80239524 1065.8420277 256.69140625 1075.7734375 C254.83649433 1077.80827915 253.02227452 1079.86633747 251.2265625 1081.953125 C240.10594216 1094.69589173 228.16552624 1106.67402201 216.19726562 1118.61279297 C213.5808561 1121.22378855 210.96990704 1123.8401606 208.359375 1126.45703125 C206.67219593 1128.14355028 204.98470708 1129.82975949 203.296875 1131.515625 C202.52900665 1132.28551758 201.76113831 1133.05541016 200.97000122 1133.84863281 C196.8488629 1137.95209742 192.64675717 1141.89755959 188.23271179 1145.68508911 C185.47110678 1148.07225263 182.82588316 1150.5810657 180.1640625 1153.078125 C175.29416438 1157.61339044 170.28001726 1161.88993051 165.08984375 1166.05859375 C162.47808627 1168.20187456 159.97290948 1170.4269283 157.4765625 1172.703125 C152.30126047 1177.40720644 146.92716503 1181.82305159 141.4765625 1186.203125 C140.61538818 1186.89776855 140.61538818 1186.89776855 139.73681641 1187.60644531 C114.66153563 1207.82952244 88.7114975 1226.76760326 61.9140625 1244.640625 C61.25908783 1245.07763733 60.60411316 1245.51464966 59.92929077 1245.96490479 C56.84108733 1248.02351338 53.74892593 1250.07556938 50.64672852 1252.11303711 C48.77133336 1253.34948362 46.90372729 1254.59812204 45.05444336 1255.87329102 C38.94123387 1259.98589424 33.02192011 1260.88722909 25.74755859 1259.80371094 C18.67684801 1257.93379608 12.61699348 1253.06183646 6.76660156 1248.84912109 C4.63893576 1247.31983294 2.48714881 1245.84030776 0.3125 1244.37890625 C-3.66573907 1241.69981316 -7.59707066 1238.95747086 -11.5234375 1236.203125 C-12.89192474 1235.24869456 -14.26041436 1234.29426753 -15.62890625 1233.33984375 C-41.27177748 1215.39910636 -66.13145115 1196.39264211 -89.94482422 1176.08081055 C-93.24007174 1173.27262867 -96.5832168 1170.53621011 -99.9609375 1167.828125 C-104.97518774 1163.75221398 -109.70386037 1159.41459706 -114.40209961 1154.98291016 C-117.31258199 1152.23936318 -120.25356535 1149.54962587 -123.27685547 1146.93041992 C-135.63298699 1136.14246206 -147.29505715 1124.59530328 -158.87231445 1112.98461914 C-161.11228936 1110.7392092 -163.35766446 1108.49929661 -165.60351562 1106.25976562 C-167.05761292 1104.80500854 -168.51140053 1103.34994182 -169.96484375 1101.89453125 C-170.95092369 1100.91148766 -170.95092369 1100.91148766 -171.95692444 1099.90858459 C-175.77564468 1096.07071308 -179.41450768 1092.12585268 -182.9443512 1088.02032471 C-185.5119782 1085.06552039 -188.21265746 1082.23758473 -190.8984375 1079.390625 C-195.62540126 1074.34401556 -200.09852893 1069.16978352 -204.421875 1063.76953125 C-206.50345177 1061.22753137 -208.6738213 1058.80783165 -210.8984375 1056.390625 C-214.96216529 1051.93112546 -218.68227727 1047.26788773 -222.37548828 1042.50317383 C-225.26075236 1038.78690972 -228.22202016 1035.16088367 -231.2734375 1031.578125 C-235.63973612 1026.37454883 -239.76033675 1021.01191081 -243.8359375 1015.578125 C-244.40344727 1014.82192871 -244.97095703 1014.06573242 -245.55566406 1013.28662109 C-247.55746489 1010.6011572 -249.54270821 1007.90417766 -251.5234375 1005.203125 C-251.98490173 1004.57463654 -252.44636597 1003.94614807 -252.92181396 1003.2986145 C-261.42632241 991.69291747 -269.57025552 979.87973252 -277.5234375 967.890625 C-278.09059479 967.03739655 -278.65775208 966.18416809 -279.24209595 965.30508423 C-287.58188311 952.75251315 -295.86092375 940.18455793 -303.5234375 927.203125 C-304.10561035 926.21699219 -304.6877832 925.23085938 -305.28759766 924.21484375 C-309.77206559 916.58507645 -314.17440497 908.91082808 -318.5234375 901.203125 C-319.0484082 900.27322754 -319.57337891 899.34333008 -320.11425781 898.38525391 C-363.01696557 821.88420715 -394.70361241 739.41611822 -444.7109375 491.015625 C-444.78993286 490.22369751 -444.86892822 489.43177002 -444.95031738 488.61584473 C-447.85430961 459.14655634 -448.82929602 429.7068782 -448.75556874 400.11355102 C-448.74672647 395.63491586 -448.74986866 391.15628429 -448.75137329 386.67764282 C-448.75240936 378.96363727 -448.74626892 371.24966621 -448.73489761 363.53566933 C-448.71846864 352.38327143 -448.71341708 341.23088978 -448.71092163 330.0784811 C-448.7065714 311.97345392 -448.69333586 293.86844502 -448.67431641 275.76342773 C-448.65588771 258.20223073 -448.64176567 240.64103874 -448.63330078 223.07983398 C-448.63277533 221.99280193 -448.63224989 220.90576987 -448.63170852 219.78579745 C-448.62909797 214.33111554 -448.62657067 208.87643359 -448.62408471 203.42175162 C-448.60343566 158.34886344 -448.5682842 113.27599517 -448.5234375 68.203125 C-447.26447019 67.72391893 -446.00481209 67.2465275 -444.74487305 66.7698822 C-444.04347702 66.50383651 -443.34208099 66.23779081 -442.61943054 65.96368313 C-439.56724786 64.85615925 -436.46837676 63.99583793 -433.3359375 63.14453125 C-432.65769928 62.95962631 -431.97946106 62.77472137 -431.28067017 62.58421326 C-429.02961188 61.97287658 -426.77677705 61.36849604 -424.5234375 60.765625 C-423.72911316 60.55236572 -422.93478882 60.33910645 -422.11639404 60.11938477 C-324.09064031 33.84269822 -224.03947491 14.88463478 -79.9609375 3.015625 C-78.6780484 2.9306778 -77.3951593 2.84573059 -76.07339478 2.75820923 C-72.32655454 2.51256361 -68.57939774 2.27262853 -64.83203125 2.03515625 C-63.76018585 1.96554688 -62.68834045 1.8959375 -61.58401489 1.82421875 C-41.06447794 0.55251576 -20.55616343 0.0375945 0 0 Z " fill="#010000" transform="translate(448.5234375,-0.203125)"/>
<path d="M0 0 C1.55078125 1.5390625 1.55078125 1.5390625 3.3125 3.625 C3.93898438 4.35847656 4.56546875 5.09195313 5.2109375 5.84765625 C6.64121104 7.56835651 8.04409436 9.31181086 9.4375 11.0625 C12.06280669 14.07199792 14.82447812 16.58976055 17.86328125 19.16796875 C19.24091694 20.34915913 20.59501133 21.55865626 21.91796875 22.80078125 C50.48230029 49.48660743 92.70119481 69.78532705 131.8671875 72.4453125 C137.8617677 72.95039319 140.54234682 74.44926012 144.69140625 78.86328125 C145.65551026 80.00709653 146.61217447 81.15721159 147.5625 82.3125 C148.62743197 83.58087377 149.69254103 84.84909886 150.7578125 86.1171875 C151.29696289 86.76397461 151.83611328 87.41076172 152.39160156 88.07714844 C154.8808201 91.05302658 157.40904118 93.9949657 159.9375 96.9375 C160.42935791 97.51153564 160.92121582 98.08557129 161.42797852 98.67700195 C165.64730806 103.59966712 169.89428366 108.49810645 174.14428711 113.39428711 C177.77819843 117.58317609 181.39493745 121.78626736 185 126 C191.30001579 133.3622941 197.64780541 140.68272422 204 148 C210.84997718 155.89068588 217.68775898 163.79085299 224.48071289 171.73071289 C228.13726358 176.00158809 231.81443006 180.2541534 235.5 184.5 C239.68330355 189.31924518 243.85134439 194.15089536 248 199 C254.30001579 206.3622941 260.64780541 213.68272422 267 221 C273.84997718 228.89068588 280.68775898 236.79085299 287.48071289 244.73071289 C291.13726358 249.00158809 294.81443006 253.2541534 298.5 257.5 C302.68330355 262.31924518 306.85134439 267.15089536 311 272 C317.30001579 279.3622941 323.64780541 286.68272422 330 294 C336.84589149 301.88597946 343.68369601 309.7780405 350.4675293 317.7175293 C353.10588353 320.80222002 355.75791311 323.87387367 358.4296875 326.9296875 C363.85139703 333.1347619 369.20509522 339.28713331 374 346 C371.03 351.445 371.03 351.445 368 357 C367.34 357 366.68 357 366 357 C364.58561594 355.42713316 363.24395599 353.78860004 361.9375 352.125 C358.88974135 348.31164438 355.79499659 344.60191191 352.5 341 C349.40444804 337.60401318 346.44848793 334.13828469 343.5625 330.5625 C339.70058325 325.78715598 335.62325776 321.26332315 331.46484375 316.74609375 C329.07292703 314.08124834 326.80745116 311.35168175 324.5625 308.5625 C321.34056899 304.56776014 317.99344505 300.75445651 314.5 297 C310.21044887 292.38995664 306.19589328 287.62217044 302.24609375 282.71484375 C299.9116941 279.89326505 297.48009402 277.19409288 295 274.5 C291.72581577 270.94329756 288.59357567 267.32838189 285.5625 263.5625 C282.34056899 259.56776014 278.99344505 255.75445651 275.5 252 C271.21044887 247.38995664 267.19589328 242.62217044 263.24609375 237.71484375 C260.9116941 234.89326505 258.48009402 232.19409288 256 229.5 C252.72581577 225.94329756 249.59357567 222.32838189 246.5625 218.5625 C243.34056899 214.56776014 239.99344505 210.75445651 236.5 207 C232.21044887 202.38995664 228.19589328 197.62217044 224.24609375 192.71484375 C221.9116941 189.89326505 219.48009402 187.19409288 217 184.5 C213.72581577 180.94329756 210.59357567 177.32838189 207.5625 173.5625 C204.34056899 169.56776014 200.99344505 165.75445651 197.5 162 C193.21044887 157.38995664 189.19589328 152.62217044 185.24609375 147.71484375 C182.9116941 144.89326505 180.48009402 142.19409288 178 139.5 C173.9206894 135.0665167 170.06657841 130.50254353 166.30078125 125.80078125 C163.2830122 122.12719822 160.14560583 118.56420353 157 115 C154.88047456 132.3786062 154.88047456 132.3786062 159.35546875 148.43359375 C161.76942835 151.201622 164.53550234 153.49179205 167.44433594 155.72314453 C169.8615211 157.70711792 171.65900023 160.09487212 173.5625 162.5625 C176.73478143 166.51494468 180.04842302 170.29134004 183.5 174 C187.78960407 178.60998943 191.80411122 183.37783516 195.75390625 188.28515625 C198.0883059 191.10673495 200.51990598 193.80590712 203 196.5 C207.09351091 200.94727112 210.92442499 205.54717463 214.71875 210.25 C217.86194258 214.03905407 221.20158595 217.63269352 224.53515625 221.25390625 C226.92707297 223.91875166 229.19254884 226.64831825 231.4375 229.4375 C234.65943101 233.43223986 238.00655495 237.24554349 241.5 241 C245.78955113 245.61004336 249.80410672 250.37782956 253.75390625 255.28515625 C256.0883059 258.10673495 258.51990598 260.80590712 261 263.5 C264.27418423 267.05670244 267.40642433 270.67161811 270.4375 274.4375 C273.65943101 278.43223986 277.00655495 282.24554349 280.5 286 C284.78955113 290.61004336 288.80410672 295.37782956 292.75390625 300.28515625 C295.0883059 303.10673495 297.51990598 305.80590712 300 308.5 C303.27418423 312.05670244 306.40642433 315.67161811 309.4375 319.4375 C312.65943101 323.43223986 316.00655495 327.24554349 319.5 331 C323.78955113 335.61004336 327.80410672 340.37782956 331.75390625 345.28515625 C334.87170229 349.05362276 338.191284 352.6218934 341.50390625 356.21875 C344.83741066 359.93307729 347.97062274 363.7927195 351.08984375 367.6875 C352.89457696 369.96728722 352.89457696 369.96728722 354.7578125 371.66796875 C356 373 356 373 355.9375 375.3125 C354.78377213 378.61985323 353.04122059 381.16862951 351 384 C345.96591903 380.25670903 342.32817853 375.85037112 338.421875 370.9609375 C336.03684093 368.04504101 333.55411384 365.26827866 331 362.5 C327.72581577 358.94329756 324.59357567 355.32838189 321.5625 351.5625 C318.34056899 347.56776014 314.99344505 343.75445651 311.5 340 C307.21044887 335.38995664 303.19589328 330.62217044 299.24609375 325.71484375 C296.9116941 322.89326505 294.48009402 320.19409288 292 317.5 C287.90648909 313.05272888 284.07557501 308.45282537 280.28125 303.75 C277.13805742 299.96094593 273.79841405 296.36730648 270.46484375 292.74609375 C268.07292703 290.08124834 265.80745116 287.35168175 263.5625 284.5625 C260.34056899 280.56776014 256.99344505 276.75445651 253.5 273 C249.21044887 268.38995664 245.19589328 263.62217044 241.24609375 258.71484375 C238.9116941 255.89326505 236.48009402 253.19409288 234 250.5 C230.72581577 246.94329756 227.59357567 243.32838189 224.5625 239.5625 C221.34056899 235.56776014 217.99344505 231.75445651 214.5 228 C210.21044887 223.38995664 206.19589328 218.62217044 202.24609375 213.71484375 C199.9116941 210.89326505 197.48009402 208.19409288 195 205.5 C191.72581577 201.94329756 188.59357567 198.32838189 185.5625 194.5625 C181.79092572 189.88332763 177.82256632 185.44342786 173.71704102 181.05883789 C171.30756486 178.47653198 169.05300908 175.87557232 167 173 C166.93941406 174.2065625 166.87882812 175.413125 166.81640625 176.65625 C166.73192182 178.27084124 166.64727789 179.88542414 166.5625 181.5 C166.50352539 182.68722656 166.50352539 182.68722656 166.44335938 183.8984375 C166.40146484 184.68476562 166.35957031 185.47109375 166.31640625 186.28125 C166.25743164 187.46823486 166.25743164 187.46823486 166.19726562 188.67919922 C166 191 166 191 165.55273438 193.13720703 C164.97262128 195.91145756 164.58681882 198.1850744 165.8996582 200.77441406 C167.29210559 202.59851755 168.77621662 204.22900613 170.375 205.875 C170.92647705 206.47868408 171.4779541 207.08236816 172.04614258 207.7043457 C173.67946664 209.48729446 175.33814944 211.24368528 177 213 C178.56732441 214.724795 180.13043735 216.45343555 181.6875 218.1875 C182.40421875 218.97640625 183.1209375 219.7653125 183.859375 220.578125 C186.12642499 223.14303557 188.28630745 225.7748351 190.4375 228.4375 C194.29941675 233.21284402 198.37674224 237.73667685 202.53515625 242.25390625 C204.92707297 244.91875166 207.19254884 247.64831825 209.4375 250.4375 C212.65943101 254.43223986 216.00655495 258.24554349 219.5 262 C223.78955113 266.61004336 227.80410672 271.37782956 231.75390625 276.28515625 C234.0883059 279.10673495 236.51990598 281.80590712 239 284.5 C242.27418423 288.05670244 245.40642433 291.67161811 248.4375 295.4375 C251.65943101 299.43223986 255.00655495 303.24554349 258.5 307 C262.78955113 311.61004336 266.80410672 316.37782956 270.75390625 321.28515625 C273.0883059 324.10673495 275.51990598 326.80590712 278 329.5 C282.09351091 333.94727112 285.92442499 338.54717463 289.71875 343.25 C292.86194258 347.03905407 296.20158595 350.63269352 299.53515625 354.25390625 C301.92707297 356.91875166 304.19254884 359.64831825 306.4375 362.4375 C309.65943317 366.43224254 313.00657611 370.24552109 316.5 374 C320.79731237 378.61888503 324.82770879 383.3921988 328.78515625 388.30859375 C332.37560806 392.67159427 336.18059741 396.83748323 340 401 C337.03 405.95 337.03 405.95 334 411 C325.58913889 402.68122861 317.68263132 393.9725732 310.27734375 384.74609375 C307.78173453 381.73680853 305.16233195 378.86062978 302.5 376 C298.21039593 371.39001057 294.19588878 366.62216484 290.24609375 361.71484375 C287.9116941 358.89326505 285.48009402 356.19409288 283 353.5 C279.72581577 349.94329756 276.59357567 346.32838189 273.5625 342.5625 C270.34056899 338.56776014 266.99344505 334.75445651 263.5 331 C259.21044887 326.38995664 255.19589328 321.62217044 251.24609375 316.71484375 C248.9116941 313.89326505 246.48009402 311.19409288 244 308.5 C240.72581577 304.94329756 237.59357567 301.32838189 234.5625 297.5625 C231.34056899 293.56776014 227.99344505 289.75445651 224.5 286 C220.21044887 281.38995664 216.19589328 276.62217044 212.24609375 271.71484375 C209.9116941 268.89326505 207.48009402 266.19409288 205 263.5 C201.72581577 259.94329756 198.59357567 256.32838189 195.5625 252.5625 C192.34056899 248.56776014 188.99344505 244.75445651 185.5 241 C181.22061586 236.40088325 177.21491317 231.64482899 173.2734375 226.75 C168.76475586 221.29619953 164.00352251 216.00352251 159 211 C158.55269531 211.54269531 158.10539062 212.08539062 157.64453125 212.64453125 C151.46271286 219.95990269 151.46271286 219.95990269 147 222 C146.34 222 145.68 222 145 222 C149.52270595 227.64792023 154.09892732 233.17642106 159 238.5 C163.09351091 242.94727112 166.92442499 247.54717463 170.71875 252.25 C173.86194258 256.03905407 177.20158595 259.63269352 180.53515625 263.25390625 C182.92707297 265.91875166 185.19254884 268.64831825 187.4375 271.4375 C190.65943101 275.43223986 194.00655495 279.24554349 197.5 283 C201.78955113 287.61004336 205.80410672 292.37782956 209.75390625 297.28515625 C212.0883059 300.10673495 214.51990598 302.80590712 217 305.5 C221.09351091 309.94727112 224.92442499 314.54717463 228.71875 319.25 C231.86194258 323.03905407 235.20158595 326.63269352 238.53515625 330.25390625 C240.92707297 332.91875166 243.19254884 335.64831825 245.4375 338.4375 C248.65943101 342.43223986 252.00655495 346.24554349 255.5 350 C259.78955113 354.61004336 263.80410672 359.37782956 267.75390625 364.28515625 C270.0883059 367.10673495 272.51990598 369.80590712 275 372.5 C278.27418423 376.05670244 281.40642433 379.67161811 284.4375 383.4375 C287.65943101 387.43223986 291.00655495 391.24554349 294.5 395 C298.78210017 399.6020357 302.79246484 404.35872649 306.73046875 409.26171875 C309.94933449 413.14541046 313.3812938 416.81820135 316.8359375 420.4921875 C318.89749773 422.88121578 320.47074474 425.24734052 322 428 C321.04956626 429.33897583 320.08940853 430.67105427 319.125 432 C318.59132813 432.7425 318.05765625 433.485 317.5078125 434.25 C316.76144531 435.11625 316.76144531 435.11625 316 436 C315.34 436 314.68 436 314 436 C312.60674046 434.44759659 311.28619872 432.82970015 310 431.1875 C306.78254658 427.16052706 303.49961778 423.28942988 300 419.5 C296.72581577 415.94329756 293.59357567 412.32838189 290.5625 408.5625 C287.34056899 404.56776014 283.99344505 400.75445651 280.5 397 C276.21044887 392.38995664 272.19589328 387.62217044 268.24609375 382.71484375 C265.9116941 379.89326505 263.48009402 377.19409288 261 374.5 C256.90648909 370.05272888 253.07557501 365.45282537 249.28125 360.75 C246.13805742 356.96094593 242.79841405 353.36730648 239.46484375 349.74609375 C237.07292703 347.08124834 234.80745116 344.35168175 232.5625 341.5625 C229.34056899 337.56776014 225.99344505 333.75445651 222.5 330 C218.21044887 325.38995664 214.19589328 320.62217044 210.24609375 315.71484375 C207.9116941 312.89326505 205.48009402 310.19409288 203 307.5 C199.72581577 303.94329756 196.59357567 300.32838189 193.5625 296.5625 C190.34056899 292.56776014 186.99344505 288.75445651 183.5 285 C179.21044887 280.38995664 175.19589328 275.62217044 171.24609375 270.71484375 C168.9116941 267.89326505 166.48009402 265.19409288 164 262.5 C160.72581577 258.94329756 157.59357567 255.32838189 154.5625 251.5625 C150.43543224 246.44581563 146.0604299 241.62762444 141.578125 236.82421875 C139 234 139 234 137.7824707 232.29345703 C136.45069646 230.36539499 136.45069646 230.36539499 134 228 C130.89180776 227.63173745 130.89180776 227.63173745 127.6875 228.5 C126.553125 228.73460937 125.41875 228.96921875 124.25 229.2109375 C123.1775 229.47132813 122.105 229.73171875 121 230 C120.13375 230.19851563 119.2675 230.39703125 118.375 230.6015625 C116.5745149 231.03239286 114.78526994 231.5099259 113 232 C113.81791016 232.89138672 113.81791016 232.89138672 114.65234375 233.80078125 C118.68510604 238.23337296 122.61695532 242.70632605 126.375 247.375 C130.05571847 251.92780507 133.92648648 256.23417411 137.91137695 260.5168457 C141.71385014 264.62760957 145.24263299 268.92266523 148.75390625 273.28515625 C151.0883059 276.10673495 153.51990598 278.80590712 156 281.5 C159.27418423 285.05670244 162.40642433 288.67161811 165.4375 292.4375 C168.65943101 296.43223986 172.00655495 300.24554349 175.5 304 C179.78955113 308.61004336 183.80410672 313.37782956 187.75390625 318.28515625 C190.0883059 321.10673495 192.51990598 323.80590712 195 326.5 C198.27418423 330.05670244 201.40642433 333.67161811 204.4375 337.4375 C207.65943101 341.43223986 211.00655495 345.24554349 214.5 349 C218.78955113 353.61004336 222.80410672 358.37782956 226.75390625 363.28515625 C229.0883059 366.10673495 231.51990598 368.80590712 234 371.5 C238.09351091 375.94727112 241.92442499 380.54717463 245.71875 385.25 C248.86194258 389.03905407 252.20158595 392.63269352 255.53515625 396.25390625 C257.92707297 398.91875166 260.19254884 401.64831825 262.4375 404.4375 C265.65943101 408.43223986 269.00655495 412.24554349 272.5 416 C276.78508821 420.605247 280.79557182 425.36808919 284.7421875 430.26953125 C287.14510921 433.17548675 289.64357792 435.9668733 292.1875 438.75 C293.0125 439.65363281 293.8375 440.55726563 294.6875 441.48828125 C296.11393644 443.03760326 297.54958711 444.57856925 299 446.10546875 C300.6875 447.9375 300.6875 447.9375 303 451 C302.5677915 455.39988252 299.8266412 457.8109689 297 461 C293.40962298 458.29783472 290.64104835 455.53381082 287.875 452 C284.55286934 447.85009592 281.12256172 443.88397719 277.5 440 C273.20986124 435.39053293 269.19585018 430.62211689 265.24609375 425.71484375 C262.9116941 422.89326505 260.48009402 420.19409288 258 417.5 C253.90648909 413.05272888 250.07557501 408.45282537 246.28125 403.75 C243.13805742 399.96094593 239.79841405 396.36730648 236.46484375 392.74609375 C234.07292703 390.08124834 231.80745116 387.35168175 229.5625 384.5625 C226.34056899 380.56776014 222.99344505 376.75445651 219.5 373 C215.21044887 368.38995664 211.19589328 363.62217044 207.24609375 358.71484375 C204.9116941 355.89326505 202.48009402 353.19409288 200 350.5 C196.72581577 346.94329756 193.59357567 343.32838189 190.5625 339.5625 C187.34056899 335.56776014 183.99344505 331.75445651 180.5 328 C176.21044887 323.38995664 172.19589328 318.62217044 168.24609375 313.71484375 C165.9116941 310.89326505 163.48009402 308.19409288 161 305.5 C157.72581577 301.94329756 154.59357567 298.32838189 151.5625 294.5625 C148.34056899 290.56776014 144.99344505 286.75445651 141.5 283 C137.21044887 278.38995664 133.19589328 273.62217044 129.24609375 268.71484375 C126.9116941 265.89326505 124.48009402 263.19409288 122 260.5 C117.91756506 256.06476204 114.09344271 251.48111392 110.31640625 246.78515625 C106.98773109 242.78288747 103.44094012 239.00203237 99.87109375 235.21484375 C98 233 98 233 98 231 C97.10861328 231.01740234 97.10861328 231.01740234 96.19921875 231.03515625 C90.46785926 231.09755052 84.93682696 230.75044663 79.25 230.0234375 C78.13625 230.01183594 78.13625 230.01183594 77 230 C76.34 230.66 75.68 231.32 75 232 C75.1479147 236.2063242 78.23944407 238.71693281 81 241.5625 C84.67645459 245.45384721 88.20720667 249.3848897 91.5625 253.5625 C94.59357567 257.32838189 97.72581577 260.94329756 101 264.5 C104.27418423 268.05670244 107.40642433 271.67161811 110.4375 275.4375 C113.65943101 279.43223986 117.00655495 283.24554349 120.5 287 C124.78955113 291.61004336 128.80410672 296.37782956 132.75390625 301.28515625 C135.0883059 304.10673495 137.51990598 306.80590712 140 309.5 C143.27418423 313.05670244 146.40642433 316.67161811 149.4375 320.4375 C152.65943101 324.43223986 156.00655495 328.24554349 159.5 332 C163.78955113 336.61004336 167.80410672 341.37782956 171.75390625 346.28515625 C174.0883059 349.10673495 176.51990598 351.80590712 179 354.5 C183.09351091 358.94727112 186.92442499 363.54717463 190.71875 368.25 C193.86194258 372.03905407 197.20158595 375.63269352 200.53515625 379.25390625 C202.92707297 381.91875166 205.19254884 384.64831825 207.4375 387.4375 C210.65943101 391.43223986 214.00655495 395.24554349 217.5 399 C221.78955113 403.61004336 225.80410672 408.37782956 229.75390625 413.28515625 C232.0883059 416.10673495 234.51990598 418.80590712 237 421.5 C240.27418423 425.05670244 243.40642433 428.67161811 246.4375 432.4375 C249.65943101 436.43223986 253.00655495 440.24554349 256.5 444 C260.78136312 448.60124358 264.78974767 453.35853764 268.73046875 458.2578125 C271.96330753 462.16392751 275.38707675 465.87273828 278.8359375 469.58984375 C280.69220978 471.65720836 282.3791142 473.74644587 284 476 C282.4722133 479.43752007 280.49818944 482.18953688 278 485 C277.34 485 276.68 485 276 485 C274.60674046 483.44759659 273.28619872 481.82970015 272 480.1875 C268.78254658 476.16052706 265.49961778 472.28942988 262 468.5 C257.90648909 464.05272888 254.07557501 459.45282537 250.28125 454.75 C247.13805742 450.96094593 243.79841405 447.36730648 240.46484375 443.74609375 C238.07292703 441.08124834 235.80745116 438.35168175 233.5625 435.5625 C230.34056899 431.56776014 226.99344505 427.75445651 223.5 424 C219.21044887 419.38995664 215.19589328 414.62217044 211.24609375 409.71484375 C208.9116941 406.89326505 206.48009402 404.19409288 204 401.5 C200.72581577 397.94329756 197.59357567 394.32838189 194.5625 390.5625 C191.34056899 386.56776014 187.99344505 382.75445651 184.5 379 C180.21044887 374.38995664 176.19589328 369.62217044 172.24609375 364.71484375 C169.9116941 361.89326505 167.48009402 359.19409288 165 356.5 C161.72581577 352.94329756 158.59357567 349.32838189 155.5625 345.5625 C152.34056899 341.56776014 148.99344505 337.75445651 145.5 334 C141.21044887 329.38995664 137.19589328 324.62217044 133.24609375 319.71484375 C130.9116941 316.89326505 128.48009402 314.19409288 126 311.5 C122.72581577 307.94329756 119.59357567 304.32838189 116.5625 300.5625 C113.34056899 296.56776014 109.99344505 292.75445651 106.5 289 C102.21044887 284.38995664 98.19589328 279.62217044 94.24609375 274.71484375 C91.9116941 271.89326505 89.48009402 269.19409288 87 266.5 C82.85818487 261.99858542 78.9593002 257.35195362 75.1171875 252.59375 C72.16876275 248.98165769 69.10168208 245.48066574 66 242 C61.93501119 243.37184347 59.32603439 245.22068459 56.1875 248.125 C55.39730469 248.84945312 54.60710937 249.57390625 53.79296875 250.3203125 C53.20128906 250.87460937 52.60960937 251.42890625 52 252 C53.41919832 256.46033758 55.86616643 259.32849178 59.0625 262.625 C62.71762369 266.49572987 66.2250808 270.40860503 69.5625 274.5625 C72.59357567 278.32838189 75.72581577 281.94329756 79 285.5 C82.27418423 289.05670244 85.40642433 292.67161811 88.4375 296.4375 C91.65943101 300.43223986 95.00655495 304.24554349 98.5 308 C102.78955113 312.61004336 106.80410672 317.37782956 110.75390625 322.28515625 C113.0883059 325.10673495 115.51990598 327.80590712 118 330.5 C121.27418423 334.05670244 124.40642433 337.67161811 127.4375 341.4375 C130.65943101 345.43223986 134.00655495 349.24554349 137.5 353 C141.78955113 357.61004336 145.80410672 362.37782956 149.75390625 367.28515625 C152.0883059 370.10673495 154.51990598 372.80590712 157 375.5 C160.27418423 379.05670244 163.40642433 382.67161811 166.4375 386.4375 C169.65943101 390.43223986 173.00655495 394.24554349 176.5 398 C180.78955113 402.61004336 184.80410672 407.37782956 188.75390625 412.28515625 C191.0883059 415.10673495 193.51990598 417.80590712 196 420.5 C199.27418423 424.05670244 202.40642433 427.67161811 205.4375 431.4375 C208.65943101 435.43223986 212.00655495 439.24554349 215.5 443 C219.78955113 447.61004336 223.80410672 452.37782956 227.75390625 457.28515625 C230.0883059 460.10673495 232.51990598 462.80590712 235 465.5 C238.29331699 469.07792463 241.44651321 472.71539666 244.5 476.5 C248.4125712 481.3490909 252.5406944 485.95409609 256.7578125 490.5390625 C259.26581051 493.29174324 261.65523691 496.10812552 264 499 C262.68775452 502.93673644 261.08089673 505.22719294 258 508 C254.18511059 506.48601922 252.36923371 504.27002932 249.875 501.0625 C246.70458529 497.07609331 243.45622104 493.2415477 240 489.5 C236.72581577 485.94329756 233.59357567 482.32838189 230.5625 478.5625 C227.34056899 474.56776014 223.99344505 470.75445651 220.5 467 C216.21044887 462.38995664 212.19589328 457.62217044 208.24609375 452.71484375 C205.9116941 449.89326505 203.48009402 447.19409288 201 444.5 C197.72581577 440.94329756 194.59357567 437.32838189 191.5625 433.5625 C188.34056899 429.56776014 184.99344505 425.75445651 181.5 422 C177.21044887 417.38995664 173.19589328 412.62217044 169.24609375 407.71484375 C166.9116941 404.89326505 164.48009402 402.19409288 162 399.5 C157.90648909 395.05272888 154.07557501 390.45282537 150.28125 385.75 C147.13805742 381.96094593 143.79841405 378.36730648 140.46484375 374.74609375 C138.07292703 372.08124834 135.80745116 369.35168175 133.5625 366.5625 C130.34056899 362.56776014 126.99344505 358.75445651 123.5 355 C119.21044887 350.38995664 115.19589328 345.62217044 111.24609375 340.71484375 C108.9116941 337.89326505 106.48009402 335.19409288 104 332.5 C100.72581577 328.94329756 97.59357567 325.32838189 94.5625 321.5625 C91.34056899 317.56776014 87.99344505 313.75445651 84.5 310 C80.21044887 305.38995664 76.19589328 300.62217044 72.24609375 295.71484375 C69.9116941 292.89326505 67.48009402 290.19409288 65 287.5 C60.87849602 283.02121394 57.00570363 278.39521217 53.18359375 273.66015625 C49.90659887 269.6679675 46.46764396 265.82669157 43 262 C38.86186295 262.53176995 36.72917682 264.77932166 33.75 267.5625 C32.41195312 268.80193359 32.41195312 268.80193359 31.046875 270.06640625 C30.37140625 270.70449219 29.6959375 271.34257813 29 272 C30.44716069 276.69677301 33.21062692 279.67769993 36.5625 283.125 C40.39054654 287.15888624 44.082238 291.21847733 47.5625 295.5625 C52.43335818 301.63316516 57.69127755 307.31420941 63 313 C59.61036029 314.1298799 58.29863695 313.59116474 55.00878906 312.51391602 C52.84896097 311.96135912 50.95865368 311.9378587 48.734375 311.90234375 C42.77855193 311.27913071 40.09068311 307.82625707 36.375 303.4375 C35.75882812 302.74591797 35.14265625 302.05433594 34.5078125 301.34179688 C32.64899525 299.2467224 30.82432095 297.12512427 29 295 C27.19043558 292.94611206 25.37845814 290.89439251 23.56494141 288.84399414 C21.95897823 286.95166343 20.46911906 284.9998031 19 283 C14.87019644 283.52823069 12.81786764 285.75579489 9.875 288.5625 C5.20904836 293 5.20904836 293 3 293 C9.04691033 299.96075208 15.2092678 306.81414261 21.3984375 313.6484375 C22.17445313 314.50695312 22.95046875 315.36546875 23.75 316.25 C24.49507813 317.06984375 25.24015625 317.8896875 26.0078125 318.734375 C27.65282537 320.60517395 29.14191913 322.50317216 30.625 324.5 C35.02320325 329.12968764 41.59606189 329.32453541 47.6875 330.3125 C59.37190537 332.36670699 70.96393054 336.39992047 78.59130859 345.9440918 C82.97618615 352.34358121 83.55399787 359.76249019 83.5 367.3125 C83.49500488 368.23240723 83.49000977 369.15231445 83.48486328 370.10009766 C83.23741048 379.78488839 80.6105128 388.37731335 73.7578125 395.48828125 C67.69665013 400.70088089 60.81796514 403.63134925 53.375 406.3125 C52.67076904 406.56717041 51.96653809 406.82184082 51.2409668 407.08422852 C50.55043213 407.32069092 49.85989746 407.55715332 49.1484375 407.80078125 C48.54177246 408.00872314 47.93510742 408.21666504 47.31005859 408.4309082 C41.19871455 409.93646125 35.10625352 410.11730743 28.84375 410.0703125 C27.31118653 410.07889198 25.7786327 410.08936611 24.24609375 410.1015625 C21.86920402 410.11825621 19.49451601 410.12494155 17.11767578 410.09960938 C6.26181103 409.72756234 6.26181103 409.72756234 -3.09375 414.5546875 C-4.81190455 416.38160655 -4.81190455 416.38160655 -6 418 C-4.28877436 421.63401577 -2.20066113 424.12637103 0.5625 427.0625 C3.9953483 430.75363459 7.27938092 434.50410259 10.4375 438.4375 C13.65943101 442.43223986 17.00655495 446.24554349 20.5 450 C24.78955113 454.61004336 28.80410672 459.37782956 32.75390625 464.28515625 C35.0883059 467.10673495 37.51990598 469.80590712 40 472.5 C43.27418423 476.05670244 46.40642433 479.67161811 49.4375 483.4375 C52.65943101 487.43223986 56.00655495 491.24554349 59.5 495 C63.78955113 499.61004336 67.80410672 504.37782956 71.75390625 509.28515625 C74.0883059 512.10673495 76.51990598 514.80590712 79 517.5 C82.27418423 521.05670244 85.40642433 524.67161811 88.4375 528.4375 C91.65943101 532.43223986 95.00655495 536.24554349 98.5 540 C102.78955113 544.61004336 106.80410672 549.37782956 110.75390625 554.28515625 C113.0883059 557.10673495 115.51990598 559.80590712 118 562.5 C122.09351091 566.94727112 125.92442499 571.54717463 129.71875 576.25 C132.85313421 580.02843576 136.18256346 583.61253385 139.5078125 587.22265625 C142.80941431 590.90202754 145.90876796 594.72703588 148.9921875 598.58984375 C150.88718853 600.86458234 152.87226334 602.94382399 155 605 C153.45840505 609.24184088 150.29584103 611.38784894 146.8125 614 C145.53057155 614.98218805 144.24934386 615.96529127 142.96875 616.94921875 C142.30875 617.45372559 141.64875 617.95823242 140.96875 618.47802734 C138.48784201 620.39593166 136.05416472 622.36806732 133.62060547 624.34545898 C124.32026613 631.8914675 114.68547627 638.95938878 105 646 C104.20561523 646.57991699 103.41123047 647.15983398 102.59277344 647.75732422 C75.74884909 667.35371918 75.74884909 667.35371918 70 669 C67.81860352 668.10058594 67.81860352 668.10058594 65.62890625 666.484375 C64.81494385 665.8980127 64.00098145 665.31165039 63.16235352 664.70751953 C61.87542603 663.73854736 61.87542603 663.73854736 60.5625 662.75 C59.666521 662.09757324 58.77054199 661.44514648 57.84741211 660.77294922 C56.04415689 659.45887408 54.24596585 658.137819 52.453125 656.80957031 C50.42306193 655.31207554 48.38035833 653.84289736 46.3125 652.3984375 C36.45816489 645.50514059 26.94092106 638.16468955 17.40283203 630.84326172 C15.32220027 629.24716644 13.23835696 627.65545584 11.15234375 626.06640625 C1.47539429 618.68316934 -7.90205587 610.96836976 -17.16845703 603.07958984 C-20.52739607 600.22503775 -23.93205139 597.44083724 -27.375 594.6875 C-32.64826087 590.402493 -37.59381939 585.80695987 -42.52294922 581.13549805 C-46.27598696 577.58135401 -50.1051166 574.1418308 -54.00610352 570.75097656 C-64.61098788 561.43810394 -74.63604914 551.46352138 -84.625 541.5 C-85.54877441 540.58081787 -86.47254883 539.66163574 -87.42431641 538.71459961 C-91.94721841 534.18138641 -96.34638318 529.60529171 -100.49169922 524.72265625 C-102.08873357 522.89865586 -103.76930707 521.19700117 -105.5 519.5 C-108.53594925 516.51127663 -111.34508659 513.38293521 -114.125 510.15625 C-116.17359094 507.80037042 -118.27203002 505.4949254 -120.375 503.1875 C-124.25681223 498.88603239 -127.94345949 494.45795646 -131.5859375 489.953125 C-134.81858893 485.99861937 -138.13107081 482.1139547 -141.45849609 478.23901367 C-145.87181188 473.0673333 -146.19590251 469.84486602 -146.39453125 463.17578125 C-146.46076687 461.2837496 -146.52769421 459.39174208 -146.59521484 457.49975586 C-146.64751251 455.98960403 -146.64751251 455.98960403 -146.7008667 454.44894409 C-149.01634612 389.39334069 -152.87402238 330.28755648 -188 274 C-188.52303711 273.1534082 -189.04607422 272.30681641 -189.58496094 271.43457031 C-198.12820126 257.62197942 -207.18284985 244.13879971 -216.1875 230.625 C-216.78678314 229.72548615 -217.38606628 228.82597229 -218.00350952 227.89920044 C-228.52170665 212.12307405 -239.15396101 196.43758906 -250.20898438 181.03125 C-259.9159361 167.31179841 -262.57544139 154.71969455 -261 138 C-259.49704663 129.79637953 -255.44238023 122.32637736 -249 117 C-237.26474192 108.9157111 -221.85837221 107.39822909 -208 107 C-208.04640625 106.29875 -208.0928125 105.5975 -208.140625 104.875 C-208.38994109 98.32154859 -208.02019446 93.34761716 -204 88 C-196.36118156 80.74312248 -182.92690329 81.6084231 -173 81 C-172.90203125 80.34773437 -172.8040625 79.69546875 -172.703125 79.0234375 C-171.37572851 71.26503385 -169.01184221 66.1541019 -162.75311279 61.0519104 C-159.67548186 59.20525683 -156.4424497 59.3862283 -152.9765625 59.51171875 C-152.23038666 59.51879349 -151.48421082 59.52586823 -150.71542358 59.53315735 C-148.35089408 59.56096823 -145.9888037 59.623672 -143.625 59.6875 C-142.01435732 59.7126005 -140.40367721 59.73541061 -138.79296875 59.75585938 C-134.86105088 59.8107499 -130.93093777 59.89692151 -127 60 C-127.01160156 58.69289063 -127.02320313 57.38578125 -127.03515625 56.0390625 C-127.10573277 44.31784679 -126.79957567 32.69379414 -126 21 C-110.52870437 20.87889761 -95.08569958 21.0008143 -79.62057495 21.4307251 C-77.05972616 21.50007512 -74.49880237 21.56341571 -71.93774414 21.62451172 C-70.67514519 21.65472412 -70.67514519 21.65472412 -69.38703918 21.68554688 C-67.70311386 21.72575881 -66.01918443 21.76579919 -64.33525085 21.80566406 C-59.61648953 21.92148818 -54.90131598 22.07517075 -50.18501282 22.26589966 C-48.07782672 22.3455991 -45.97103319 22.40723239 -43.86303711 22.4609375 C-41.32376022 22.52663432 -38.78500573 22.62229455 -36.24829102 22.75390625 C-30.1055614 22.95958232 -30.1055614 22.95958232 -24.78295898 20.30444336 C-23.01548098 18.28549964 -21.53271571 16.19859726 -20 14 C-5.80060499 0 -5.80060499 0 0 0 Z " fill="#FEFDFD" transform="translate(409,533)"/>
<path d="M0 0 C1.12960144 0.06979065 2.25920288 0.1395813 3.42303467 0.21148682 C38.30750773 2.38458462 38.30750773 2.38458462 48 4 C48 14.23 48 24.46 48 35 C43.68342251 34.28057042 40.48817489 33.58673613 36.5 32.109375 C35.45884033 31.73176025 34.41768066 31.35414551 33.3449707 30.96508789 C32.24113037 30.56410889 31.13729004 30.16312988 30 29.75 C21.52203259 26.74675455 13.09076634 24.039333 4.3125 22.0625 C3.07983398 21.7826123 3.07983398 21.7826123 1.82226562 21.49707031 C-11.6697451 18.61970345 -24.99723105 17.55535376 -38.75 17.5625 C-39.95455338 17.56189575 -39.95455338 17.56189575 -41.18344116 17.5612793 C-90.37579332 17.70230649 -136.52201574 38.42162435 -172 72 C-172.93199219 72.86753906 -173.86398437 73.73507813 -174.82421875 74.62890625 C-203.35017037 101.75325299 -222.54825732 139.86609636 -231 178 C-231.19609863 178.83112305 -231.39219727 179.66224609 -231.59423828 180.51855469 C-237.89546658 207.93894473 -237.50513704 240.68046533 -231.8125 268.1875 C-231.59110352 269.26483398 -231.36970703 270.34216797 -231.14160156 271.45214844 C-224.28126463 303.72539317 -209.98120172 335.08401219 -189.1484375 360.72607422 C-186 364.67770981 -186 364.67770981 -186 368 C-188.16015625 369.83203125 -188.16015625 369.83203125 -191.0625 371.8125 C-198.98335404 377.10212138 -198.98335404 377.10212138 -205.38583374 384.02319336 C-207.79342821 387.45310476 -209.61891265 389.67119413 -213.7913208 390.66455078 C-217.27896994 390.83130914 -220.67683043 390.7415532 -224.1640625 390.5625 C-226.16946998 390.50997856 -228.17487787 390.45747064 -230.18029976 390.40550232 C-232.31734934 390.34260123 -234.45283572 390.25991127 -236.58898926 390.171875 C-241.0308084 389.99128241 -245.47270457 389.88026453 -249.91699219 389.78125 C-258.29470268 389.58783386 -266.66997607 389.33708087 -275.04571533 389.07287598 C-279.00954154 388.94886035 -282.97352756 388.83017053 -286.9375 388.7109375 C-294.62515897 388.478961 -302.3126314 388.24142807 -310 388 C-309.99419922 389.16450684 -309.98839844 390.32901367 -309.98242188 391.52880859 C-309.95211383 400.24318881 -310.01206907 408.92136719 -310.5 417.625 C-310.57154297 419.00558594 -310.57154297 419.00558594 -310.64453125 420.4140625 C-310.75888187 422.60959448 -310.87876813 424.80483723 -311 427 C-312.48995483 426.99830811 -312.48995483 426.99830811 -314.01000977 426.99658203 C-317.72119221 427.00027342 -321.43108901 427.04324744 -325.1418457 427.09765625 C-326.74299804 427.11574289 -328.34430552 427.1233981 -329.94555664 427.12011719 C-340.34653032 426.71752095 -340.34653032 426.71752095 -349.47265625 430.83984375 C-354.04372114 435.78498311 -355.21825191 441.48543259 -356 448 C-357.52656486 449.52656486 -359.02970978 449.2666174 -361.15625 449.4296875 C-362.44402344 449.53990234 -362.44402344 449.53990234 -363.7578125 449.65234375 C-365.55426963 449.79820993 -367.35114576 449.93902424 -369.1484375 450.07421875 C-374.97865127 450.58457871 -380.69596904 451.38310125 -386 454 C-389.90901673 458.69082008 -391.07056688 462.71402645 -391.5625 468.6875 C-391.64628906 469.68136719 -391.73007812 470.67523437 -391.81640625 471.69921875 C-391.87699219 472.45847656 -391.93757812 473.21773437 -392 474 C-393.23234375 474.18175781 -394.4646875 474.36351562 -395.734375 474.55078125 C-419.09735672 477.08649937 -419.09735672 477.08649937 -437.68359375 489.8359375 C-442.83028985 498.29667827 -444.45969307 505.78887137 -444.5625 515.5625 C-444.57716309 516.41215332 -444.59182617 517.26180664 -444.60693359 518.13720703 C-444.41315945 530.34964751 -439.5370208 539.60003524 -432.4375 549.25 C-431.10206413 551.10880018 -429.76744792 552.96818948 -428.43359375 554.828125 C-427.37410522 556.29499756 -427.37410522 556.29499756 -426.29321289 557.79150391 C-417.3039942 570.36856257 -408.75754408 583.26077801 -400.1875 596.125 C-399.61695892 596.98127991 -399.04641785 597.83755981 -398.45858765 598.7197876 C-389.80823741 611.71066842 -381.19288295 624.71377587 -373 638 C-372.3915625 638.98532715 -371.783125 639.9706543 -371.15625 640.98583984 C-364.42293126 651.93596732 -357.85074721 662.96142311 -351.8125 674.3125 C-351.3791333 675.11695557 -350.9457666 675.92141113 -350.49926758 676.75024414 C-345.48579553 686.3840333 -342.58326059 696.56641695 -340.5 707.1875 C-340.29133301 708.25009033 -340.08266602 709.31268066 -339.86767578 710.4074707 C-332.01318339 752.12361899 -329.59905354 795.63332404 -330 838 C-333.76963284 834.37274538 -337.05307916 830.57360973 -340.25 826.4375 C-340.73033691 825.82036133 -341.21067383 825.20322266 -341.70556641 824.56738281 C-345.7869664 819.30847392 -349.82487499 814.01818106 -353.77490234 808.65966797 C-354.6134277 807.52369838 -355.45505358 806.39001274 -356.29931641 805.25830078 C-405.37811734 739.36143611 -443.61392472 666.15226167 -474 590 C-474.36383789 589.09846191 -474.72767578 588.19692383 -475.10253906 587.26806641 C-476.95741356 582.66711493 -478.73632729 578.05858229 -480.375 573.375 C-482.10491887 568.46392333 -483.92735731 563.60334838 -485.8125 558.75 C-489.70505013 548.56742536 -492.72922708 538.101536 -495.87255859 527.66992188 C-496.69668462 524.98731849 -497.53683094 522.31357126 -498.39697266 519.64257812 C-502.07136813 508.21983809 -505.35605626 496.7376693 -508.375 485.125 C-508.72733704 483.77455093 -508.72733704 483.77455093 -509.08679199 482.39682007 C-516.90757809 452.32459999 -522.95034272 421.99602059 -528.23510742 391.38525391 C-528.7320264 388.51454519 -529.24525524 385.64760626 -529.7746582 382.78271484 C-531.61195165 372.78241388 -533.02525221 362.76404694 -534.25268555 352.67138672 C-534.56150473 350.13318022 -534.87687486 347.59585474 -535.19335938 345.05859375 C-535.71641629 340.84262959 -536.22146231 336.62478093 -536.71612549 332.40539551 C-536.89666543 330.87559997 -537.08035295 329.34617014 -537.26824951 327.81726074 C-541.34282491 294.55326189 -541.28225247 261.16920196 -541.20278788 227.71470213 C-541.1900877 221.44348321 -541.18909512 215.17226129 -541.18673706 208.90103149 C-541.18092569 197.75109737 -541.16656894 186.60119734 -541.14745162 175.45127864 C-541.13020914 165.33991677 -541.11778123 155.228561 -541.10986328 145.1171875 C-541.10933783 144.4480721 -541.10881239 143.77895671 -541.10827102 143.08956508 C-541.10566014 139.73138253 -541.10313291 136.37319992 -541.10064721 133.01501727 C-541.07987166 105.34332395 -541.04480683 77.67166413 -541 50 C-536.21470274 48.76107179 -531.42884318 47.52434651 -526.64248085 46.28953934 C-525.01891917 45.87037026 -523.39550478 45.45063024 -521.77224922 45.03027725 C-510.02508097 41.98882371 -498.27266782 39.14595381 -486.375 36.75 C-484.7731399 36.42073998 -483.17141783 36.09080779 -481.56982422 35.76025391 C-477.72940855 34.96983246 -473.88707171 34.18936318 -470.04370117 33.41345215 C-467.0853062 32.81495234 -464.1287121 32.2077052 -461.171875 31.6015625 C-455.12078754 30.36861387 -449.06239633 29.17596774 -443 28 C-441.82469727 27.77103027 -440.64939453 27.54206055 -439.43847656 27.30615234 C-410.76845863 21.7464684 -381.9516081 16.85200895 -353 13 C-351.71754395 12.82645996 -350.43508789 12.65291992 -349.11376953 12.47412109 C-329.1497972 9.77791715 -309.16134823 7.40490032 -289.125 5.3125 C-288.15090179 5.21003967 -287.17680359 5.10757935 -286.17318726 5.00201416 C-196.01905199 -4.43734135 -104.79029209 -5.89298171 0 0 Z " fill="#C01015" transform="translate(593,166)"/>
<path d="M0 0 C1.0335965 0.40370819 2.06719299 0.80741638 3.1321106 1.22335815 C6.42745697 2.51271208 9.71765674 3.814653 13.0078125 5.1171875 C15.17935452 5.96959877 17.35122694 6.82116882 19.5234375 7.671875 C20.58661194 8.08910828 21.64978638 8.50634155 22.74517822 8.93621826 C24.86550242 9.76731335 26.98671405 10.59614806 29.10882568 11.42266846 C33.90876552 13.29856225 38.67856413 15.208702 43.39941406 17.27636719 C44.20661896 17.61965057 45.01382385 17.96293396 45.8454895 18.31661987 C47.31422566 18.94391885 48.77395139 19.59303562 50.22067261 20.26956177 C55.06801909 22.30622616 57.96424191 21.90231974 62.81298828 19.97402954 C63.57853027 19.65002167 64.34407227 19.32601379 65.1328125 18.9921875 C66.69157368 18.41965294 68.25275488 17.85366851 69.81616211 17.29394531 C71.47310147 16.67937106 73.12940815 16.06308899 74.78515625 15.4453125 C75.68416153 15.11102234 76.58316681 14.77673218 77.50941467 14.43231201 C79.40474761 13.72710523 81.2997987 13.02114053 83.19458008 12.31445312 C86.03062546 11.25698548 88.86777516 10.20252553 91.70507812 9.1484375 C93.56514489 8.45583852 95.42517119 7.76313086 97.28515625 7.0703125 C98.19663422 6.73197388 99.10811218 6.39363525 100.04721069 6.04504395 C104.50624625 4.38176041 108.94172045 2.67929756 113.34814453 0.88085938 C114.1677919 0.5494696 114.98743927 0.21807983 115.83192444 -0.12335205 C117.36455346 -0.74654723 118.89295021 -1.38029788 120.41600037 -2.02655029 C125.47386583 -4.07671836 128.2208516 -4.20720338 133.17480469 -2.16674805 C135.41837987 -1.0228307 137.65670668 0.12700716 139.8828125 1.3046875 C141.13276001 1.96585571 141.13276001 1.96585571 142.40795898 2.64038086 C155.1809527 9.56407099 166.58109878 18.02236976 177.1328125 27.9921875 C178.48289708 29.14282777 179.83692839 30.2888571 181.1953125 31.4296875 C182.5150959 32.60908746 183.82641919 33.79797269 185.1328125 34.9921875 C185.90200516 35.68520966 186.67119781 36.37823181 187.46369934 37.09225464 C191.83648475 41.41579969 194.68924549 44.60366903 195.0534668 50.89501953 C195.00598362 53.0565641 194.90889778 55.21743041 194.76953125 57.375 C194.71341927 59.13023483 194.71341927 59.13023483 194.65617371 60.92092896 C194.52769865 64.61492156 194.3347044 68.30154749 194.1328125 71.9921875 C194.02759693 74.3393785 193.92549359 76.68671129 193.82666016 79.03417969 C193.77688019 80.1830365 193.72710022 81.33189331 193.67581177 82.51556396 C193.47793075 87.13886185 193.28693609 91.76242418 193.10131836 96.38623047 C192.99615061 98.7328374 192.87203849 101.07866222 192.73022461 103.42333984 C191.29322075 118.57199237 191.29322075 118.57199237 196.83879089 132.10317993 C199.11670138 134.57366104 201.6172196 136.76751785 204.1328125 138.9921875 C205.9016871 141.07583436 207.50311862 143.2307812 209.1328125 145.4296875 C209.59179932 146.03039062 210.05078613 146.63109375 210.52368164 147.25 C211.05916626 147.95769531 211.05916626 147.95769531 211.60546875 148.6796875 C214.2248934 152.12452242 216.89256642 155.53008129 219.5703125 158.9296875 C220.022854 159.50444824 220.47539551 160.07920898 220.94165039 160.67138672 C221.86457936 161.8432303 222.78767645 163.01494148 223.7109375 164.18652344 C225.18661101 166.06050718 226.66003727 167.93623778 228.1328125 169.8125 C228.62467041 170.43906494 229.11652832 171.06562988 229.62329102 171.71118164 C230.55877949 172.90299427 231.49417033 174.09488353 232.42944336 175.28686523 C234.36127948 177.74679248 236.24569571 180.10621287 238.44921875 182.33203125 C243.57688803 190.43398665 238.74863987 204.92829525 236.91650391 213.67578125 C233.66390191 227.44006334 228.79650226 241.0236609 222.8828125 253.8671875 C222.57827148 254.53218262 222.27373047 255.19717773 221.95996094 255.88232422 C219.48433925 260.94706698 217.03111915 264.8672868 211.61669922 266.96875 C208.49457294 267.92415476 205.36116634 268.75624464 202.1953125 269.5546875 C199.91532456 270.1600055 197.63537626 270.76547288 195.35546875 271.37109375 C194.26766113 271.65355957 193.17985352 271.93602539 192.05908203 272.22705078 C188.73284283 273.09676826 185.43327669 274.02972423 182.1328125 274.9921875 C175.53297848 276.88255092 168.92797395 278.75436902 162.3203125 280.6171875 C161.25748047 280.91882813 160.19464844 281.22046875 159.09960938 281.53125 C157.55950195 281.964375 157.55950195 281.964375 155.98828125 282.40625 C154.99747559 282.68629883 154.00666992 282.96634766 152.98583984 283.25488281 C149.64269072 284.11884913 146.28781539 284.71187385 142.8684082 285.18505859 C140.88762227 285.87991529 140.88762227 285.87991529 140.06860352 288.27148438 C139.75979248 289.16931641 139.45098145 290.06714844 139.1328125 290.9921875 C138.22638588 292.55959903 137.27840236 294.10349016 136.296875 295.625 C135.73339355 296.50373779 135.16991211 297.38247559 134.58935547 298.2878418 C133.98494629 299.22152588 133.38053711 300.15520996 132.7578125 301.1171875 C131.4814603 303.10526942 130.20542393 305.09355414 128.9296875 307.08203125 C127.9696582 308.57452393 127.9696582 308.57452393 126.99023438 310.09716797 C124.80145922 313.50864218 122.63046803 316.93080165 120.47363281 320.36254883 C119.49473043 321.90997763 118.50440334 323.45023672 117.50292969 324.9831543 C114.91211045 328.97895569 112.63740633 332.9346141 110.6328125 337.2578125 C104.7294339 349.33014297 104.7294339 349.33014297 98.51660156 352.20117188 C90.86994194 354.46289573 83.05989547 354.78335459 75.1328125 354.9921875 C73.92206055 355.03778809 72.71130859 355.08338867 71.46386719 355.13037109 C58.00717808 355.58178217 44.3886306 355.6180752 31.1328125 352.9921875 C30.26881836 352.97518799 29.40482422 352.95818848 28.51464844 352.94067383 C24.04190858 352.49908115 20.68689204 351.59511101 17.4753418 348.28262329 C13.65017531 343.51631007 10.4032933 338.36602433 7.17733765 333.18301392 C5.36581637 330.27742657 3.50820424 327.40658594 1.63598633 324.53979492 C-3.58450977 316.5106318 -8.67966382 308.43169346 -13.43359375 300.1171875 C-19.40235849 289.88912192 -23.93330837 282.75884448 -35.7421875 279.4296875 C-38.72493264 278.73433582 -41.7053936 278.13960199 -44.71972656 277.59765625 C-50.26791014 276.53036682 -55.67589858 274.93827428 -61.1171875 273.4296875 C-63.29404141 272.85069923 -65.4711211 272.2725591 -67.6484375 271.6953125 C-75.51584328 269.57305551 -83.31106217 267.20052587 -91.02685547 264.57836914 C-93.0798628 263.89324101 -93.0798628 263.89324101 -96.109375 263.28125 C-100.07262466 261.42873954 -101.40156182 258.45181816 -103.2421875 254.6796875 C-103.61939941 253.93710693 -103.99661133 253.19452637 -104.38525391 252.42944336 C-114.07210325 232.8231794 -121.53651786 210.79080351 -123.8671875 188.9921875 C-124.03734375 187.9196875 -124.2075 186.8471875 -124.3828125 185.7421875 C-123.57861523 179.89348006 -120.08256669 176.3012848 -116.4296875 171.8046875 C-114.94118735 169.91553704 -113.45290422 168.02621556 -111.96484375 166.13671875 C-110.89000732 164.7902124 -110.89000732 164.7902124 -109.79345703 163.41650391 C-107.59305993 160.64718284 -105.47017484 157.83595316 -103.3671875 154.9921875 C-100.57189775 151.247042 -97.74939345 147.52448338 -94.91015625 143.8125 C-94.19472656 142.87664062 -93.47929687 141.94078125 -92.7421875 140.9765625 C-91.31279973 139.10814848 -89.88187524 137.24090882 -88.44921875 135.375 C-87.78664063 134.50875 -87.1240625 133.6425 -86.44140625 132.75 C-85.84932373 131.9780127 -85.25724121 131.20602539 -84.6472168 130.41064453 C-83.76610229 129.2135083 -83.76610229 129.2135083 -82.8671875 127.9921875 C-82.14128418 127.06833252 -81.41538086 126.14447754 -80.66748047 125.19262695 C-78.49826838 121.33634796 -78.33925229 118.32445771 -78.48828125 114.02734375 C-78.50169052 113.21942886 -78.51509979 112.41151398 -78.52891541 111.57911682 C-78.71693659 103.82744537 -79.29742082 96.096487 -79.83984375 88.36328125 C-80.33286241 81.08212861 -80.33286241 81.08212861 -80.50704384 78.48267174 C-80.73653402 75.09878776 -80.98388298 71.71770664 -81.2644043 68.33764648 C-81.59222448 64.37004397 -81.8421654 60.39921624 -82.08984375 56.42578125 C-82.25795311 54.62396645 -82.25795311 54.62396645 -82.42945862 52.78575134 C-82.78742104 46.07247956 -82.16765201 42.53045878 -77.61499023 37.42993164 C-76.05433904 35.92754412 -74.47207774 34.44722281 -72.8671875 32.9921875 C-71.46329091 31.52067158 -70.06623361 30.04256337 -68.6796875 28.5546875 C-57.43061752 17.51859475 -44.36695426 9.00283804 -30.8671875 0.9921875 C-30.24440918 0.6209375 -29.62163086 0.2496875 -28.97998047 -0.1328125 C-18.05409559 -6.5205408 -11.28318288 -4.50004425 0 0 Z " fill="#FEFEFE" transform="translate(502.8671875,228.0078125)"/>
<path d="M0 0 C13.38071416 1.87085214 26.73037867 3.87285173 40.0625 6.0625 C41.64775638 6.32114795 43.23304287 6.57961146 44.81835938 6.83789062 C53.21521417 8.20781521 61.60782605 9.60130434 70 11 C70 229.46 70 447.92 70 673 C66.70962086 670.36769669 64.39530987 668.51164131 61.8125 665.4375 C58.93295763 662.06862363 55.99008441 658.77139736 53 655.5 C49.54424587 651.71065874 46.1347711 647.88916302 42.76953125 644.01953125 C39.22423046 639.97334911 35.60541001 635.99256813 32 632 C23.43139793 622.51127959 23.43139793 622.51127959 19.5625 618.0625 C15.95248524 613.91518072 12.24288589 609.861365 8.52734375 605.80859375 C7.69332031 604.88175781 6.85929688 603.95492187 6 603 C5.49457892 602.51482509 4.98915785 602.02965018 4.46842098 601.529773 C0.55784657 597.53949609 -0.69686371 594.67025887 -0.82110882 589.10172439 C-0.81045297 588.23080854 -0.79979712 587.35989269 -0.78881836 586.46258545 C-0.80100057 585.5210651 -0.81318277 584.57954476 -0.82573414 583.60949349 C-0.85895243 580.46410251 -0.84945027 577.3203346 -0.83984375 574.17480469 C-0.85452729 571.91576967 -0.87170039 569.65674966 -0.89117432 567.39775085 C-0.93560703 561.2673241 -0.94146753 555.13743498 -0.93767929 549.00686932 C-0.93743985 543.8852449 -0.95456975 538.76373431 -0.97123432 533.64214158 C-1.01190407 520.86451207 -1.01400275 508.08727993 -0.99962008 495.30963305 C-0.98847638 484.23026891 -1.03009251 473.15183075 -1.09634101 462.07268295 C-1.16392839 450.68064564 -1.19318989 439.28918351 -1.18490696 427.89689374 C-1.18077563 421.50734343 -1.19167058 415.11871494 -1.24069214 408.72933197 C-1.28529495 402.71720518 -1.28141928 396.70700068 -1.2408371 390.69486427 C-1.23402801 388.49348513 -1.24414835 386.29197578 -1.27280426 384.09077263 C-1.49521947 365.73330017 -1.49521947 365.73330017 3.53319073 359.72572923 C5.55899222 357.65457614 7.7540379 355.82646285 10 354 C25.31905847 335.92561198 36.82641169 310.60531614 43 287.875 C43.25418701 286.94067139 43.50837402 286.00634277 43.77026367 285.04370117 C49.03161307 264.98407933 51.21977305 244.81009597 51.1875 224.125 C51.18609512 222.96149017 51.18609512 222.96149017 51.18466187 221.7744751 C51.05375454 171.65954108 37.48677382 123.61948329 6 84 C5.50154068 83.60726898 5.00308136 83.21453796 4.48951721 82.80990601 C1.2273675 79.96211509 0.10478202 77.7157392 -0.52757263 73.39628601 C-0.77471044 68.75490121 -0.67497244 64.11739631 -0.5859375 59.47265625 C-0.57473577 57.75631701 -0.5662002 56.03995848 -0.56021118 54.32359314 C-0.53738932 49.82354014 -0.47852506 45.32466385 -0.4119873 40.82507324 C-0.35042023 36.22664302 -0.32316552 31.62802116 -0.29296875 27.02929688 C-0.228774 18.0190165 -0.12647644 9.0096064 0 0 Z " fill="#C81218" transform="translate(713,178)"/>
<path d="M0 0 C9.01361265 1.93148843 18.01602806 3.87730692 27 5.9375 C28.05960938 6.17662109 29.11921875 6.41574219 30.2109375 6.66210938 C35.99365789 7.98877465 41.70884903 9.45591183 47.41015625 11.09985352 C48.65031494 11.45668716 49.89047363 11.81352081 51.16821289 12.1811676 C52.10270264 12.45138229 53.03719238 12.72159698 54 13 C54.09199769 42.13755239 54.16241821 71.27509422 54.20426132 100.41276303 C54.2092619 103.88219057 54.21443941 107.35161781 54.21972656 110.82104492 C54.2207758 111.5115108 54.22182505 112.20197668 54.22290608 112.91336577 C54.24013368 123.974986 54.27156929 135.03651984 54.30861118 146.09808946 C54.34652028 157.51709101 54.3680411 168.93603299 54.37635398 180.35509628 C54.38148906 186.74003148 54.39321865 193.12477338 54.42292023 199.50964546 C54.65452433 251.38303628 51.44055604 303.45048616 41.66894531 354.49902344 C40.98525465 358.07717092 40.31579723 361.65777621 39.64787292 365.2388916 C35.03278672 389.95909305 30.39717057 414.66645877 24 439 C23.62488281 440.43666016 23.62488281 440.43666016 23.2421875 441.90234375 C19.72316097 455.33713195 15.99493923 468.65779197 11.69091797 481.86230469 C10.57495056 485.31509997 9.50939244 488.7833286 8.4375 492.25 C6.06950142 499.87094643 3.5528871 507.43910885 1 515 C0.67 515 0.34 515 0 515 C0 345.05 0 175.1 0 0 Z " fill="#D5161C" transform="translate(854,203)"/>
<path d="M0 0 C5.18673851 1.17666482 9.39589217 5.0480412 13.5625 8.1875 C14.81063477 9.11755859 14.81063477 9.11755859 16.08398438 10.06640625 C18.72713004 12.0383711 21.36411311 14.01834578 24 16 C25.67566375 17.25666711 27.35144302 18.5131802 29.02734375 19.76953125 C31.52234248 21.64065782 34.01672561 23.51257757 36.50927734 25.38696289 C42.20856285 29.67001863 47.93933797 33.90783825 53.6875 38.125 C62.55099678 44.63026778 71.29232234 51.28806408 80 58 C79.40276316 62.90640999 78.39765933 67.42810607 76.94628906 72.15014648 C76.73959595 72.82772507 76.53290283 73.50530365 76.31994629 74.20341492 C75.64013052 76.4275284 74.95295069 78.64929077 74.265625 80.87109375 C73.78534331 82.43688079 73.30551328 84.00280644 72.82611084 85.56886292 C71.56351921 89.68884551 70.29461141 93.80685647 69.02441406 97.92449951 C67.74927289 102.06237684 66.48046533 106.20219468 65.2109375 110.34179688 C63.33418711 116.45726418 61.45547774 122.57212272 59.57128906 128.68530273 C59.19458069 129.90773178 58.81787231 131.13016083 58.42974854 132.38963318 C56.29809512 139.26336232 54.14658751 146.13091996 52 153 C19.66 153 -12.68 153 -46 153 C-47.65 147.39 -49.3 141.78 -51 136 C-51.93742625 133.07533593 -52.88068629 130.16714689 -53.87841797 127.26464844 C-54.12459366 126.53867966 -54.37076935 125.81271088 -54.62440491 125.06474304 C-55.14460625 123.53127091 -55.66617949 121.9982635 -56.18911362 120.46572113 C-57.01701872 118.03651625 -57.83904156 115.60538994 -58.65945435 113.17364502 C-60.98712586 106.2750242 -63.31879984 99.37781802 -65.66894531 92.48681641 C-67.11797109 88.2366819 -68.55529437 83.98274567 -69.98501968 79.72608185 C-70.5284765 78.11546716 -71.07631137 76.50632264 -71.62865829 74.89873505 C-72.39617078 72.66359762 -73.14868017 70.4239244 -73.89794922 68.18261719 C-74.24221199 67.19768532 -74.24221199 67.19768532 -74.59342957 66.19285583 C-75.83017292 62.4329301 -76.27799303 59.7872543 -75 56 C-73.45629883 54.3059082 -73.45629883 54.3059082 -71.45703125 52.80078125 C-70.35234497 51.95507568 -70.35234497 51.95507568 -69.2253418 51.09228516 C-68.429104 50.50495605 -67.63286621 49.91762695 -66.8125 49.3125 C-65.99241455 48.69165527 -65.1723291 48.07081055 -64.32739258 47.43115234 C-59.12798114 43.51526491 -53.85687851 39.70340911 -48.53125 35.96118164 C-43.18986082 32.19003399 -38.00240054 28.22608414 -32.8125 24.25 C-25.71247295 18.81140642 -18.57783021 13.42686132 -11.375 8.125 C-10.57553955 7.5362207 -9.7760791 6.94744141 -8.95239258 6.34082031 C-5.9974953 4.17155687 -3.05073019 2.03382013 0 0 Z " fill="#000000" transform="translate(560,316)"/>
<path d="M0 0 C0 31.35 0 62.7 0 95 C-7.81522446 88.30123617 -7.81522446 88.30123617 -11.3125 83.8125 C-14.42143679 79.9118136 -17.61720656 76.16600405 -21 72.5 C-25.09351091 68.05272888 -28.92442499 63.45282537 -32.71875 58.75 C-35.06718968 55.91900422 -37.50909902 53.20616402 -40 50.5 C-43.29331699 46.92207537 -46.44651321 43.28460334 -49.5 39.5 C-53.41369281 34.64951902 -57.54611739 30.04531593 -61.7578125 25.453125 C-69 17.52961672 -69 17.52961672 -69 15 C-68.2565332 14.90501221 -67.51306641 14.81002441 -66.74707031 14.7121582 C-46.99555795 12.14811365 -28.04044821 8.98119854 -9.3762207 1.87939453 C-5.97917163 0.5987125 -3.6928976 0 0 0 Z " fill="#BC0F14" transform="translate(640,593)"/>
<path d="M0 0 C1.40245972 -0.03323364 1.40245972 -0.03323364 2.83325195 -0.06713867 C8.93369864 -0.04801159 12.65141926 0.73042615 17.5625 4.4375 C21.90166576 9.75961964 21.17944614 15.90609687 20.5625 22.4375 C19.1344814 26.31355047 17.14819305 29.23616575 14.5625 32.4375 C15.160625 32.664375 15.75875 32.89125 16.375 33.125 C19.39785493 34.93871296 20.21594741 36.13844614 21.5625 39.4375 C22.48990502 46.56622775 21.84723853 52.55437938 17.5625 58.4375 C8.84817205 67.7894617 -5.05028585 68.93426715 -17.1484375 69.66015625 C-23.70889964 69.8267022 -23.70889964 69.8267022 -26.4375 69.4375 C-28.73357873 65.99338191 -28.69436002 64.6935376 -28.7121582 60.63671875 C-28.72645622 58.84971558 -28.72645622 58.84971558 -28.74104309 57.02661133 C-28.74013168 55.73907959 -28.73922028 54.45154785 -28.73828125 53.125 C-28.74216838 51.79125841 -28.74650309 50.45751805 -28.75126648 49.1237793 C-28.7587259 46.329549 -28.75843918 43.53544506 -28.75317383 40.74121094 C-28.74737469 37.1597878 -28.76432151 33.57888106 -28.7875185 29.99754333 C-28.80224588 27.24374364 -28.80312903 24.49006867 -28.80000877 21.73623657 C-28.80077207 19.77359747 -28.81465113 17.81097772 -28.82868958 15.84838867 C-28.82246078 14.65705322 -28.81623199 13.46571777 -28.80981445 12.23828125 C-28.81044388 11.18809814 -28.8110733 10.13791504 -28.8117218 9.0559082 C-28.4375 6.4375 -28.4375 6.4375 -27.0756073 4.63427734 C-20.05771942 -0.49288937 -8.33237975 0.1075101 0 0 Z " fill="#C4B18C" transform="translate(268.4375,60.5625)"/>
<path d="M0 0 C5.54233254 3.86129418 8.46667235 8.94348986 10.125 15.48046875 C10.57216837 19.7585591 10.58962672 23.99461668 10.5625 28.29296875 C10.5924707 29.96069336 10.5924707 29.96069336 10.62304688 31.66210938 C10.61731772 41.45323626 8.74656506 50.71836919 1.83984375 58.046875 C-4.22076056 63.11348498 -10.88979635 64.67400741 -18.625 64.73046875 C-19.3159375 64.75109375 -20.006875 64.77171875 -20.71875 64.79296875 C-27.01212747 64.84028738 -31.54358488 63.32391326 -36.5625 59.35546875 C-43.03181475 51.3125369 -43.47766339 43.56076349 -43.3125 33.48046875 C-43.31958984 32.26101562 -43.32667969 31.0415625 -43.33398438 29.78515625 C-43.26104339 19.39387165 -41.95822953 11.85780514 -34.69921875 4.203125 C-25.09385282 -4.86746681 -11.45819368 -6.55540888 0 0 Z " fill="#D3BF9C" transform="translate(341.875,57.51953125)"/>
<path d="M0 0 C7.63895716 4.11328463 12.10350319 10.08627575 15.17529297 18.06591797 C16.70140781 23.49541712 16.57477902 28.89780481 16.5 34.5 C16.51546875 35.65886719 16.5309375 36.81773438 16.546875 38.01171875 C16.51103999 45.94021578 15.77877018 53.81214421 10.25 59.93945312 C4.66200096 65.10705872 -0.59273655 66.40538605 -8.0859375 66.25390625 C-16.87043239 65.4885012 -24.04480182 62.31819508 -30.125 55.875 C-36.75094412 47.52215477 -37.63868613 38.88990284 -37.5 28.5 C-37.51546875 27.34113281 -37.5309375 26.18226562 -37.546875 24.98828125 C-37.51103999 17.05978422 -36.77877018 9.18785579 -31.25 3.06054688 C-22.24293274 -5.26890537 -10.82021629 -4.42731954 0 0 Z " fill="#C9B691" transform="translate(714,64)"/>
<path d="M0 0 C4.21593437 4.34368996 5.26496333 8.04373424 5.4375 14 C5.26154271 19.91656385 4.72527309 25.22080215 0.59765625 29.72265625 C-3.27855153 33.125 -3.27855153 33.125 -5.9375 33.125 C-4.71094957 35.60549281 -3.48191486 38.08467125 -2.25 40.5625 C-1.88712891 41.29299561 -1.52425781 42.02349121 -1.15039062 42.77612305 C1.16930456 47.41808857 3.58798719 51.96866111 6.25 56.42578125 C7.0625 58.125 7.0625 58.125 7.0625 61.125 C1.7825 61.125 -3.4975 61.125 -8.9375 61.125 C-10.94258053 57.50272653 -12.94175066 53.87740928 -14.9375 50.25 C-15.50984375 49.21746094 -16.0821875 48.18492188 -16.671875 47.12109375 C-17.21328125 46.13496094 -17.7546875 45.14882812 -18.3125 44.1328125 C-18.81523437 43.22160645 -19.31796875 42.31040039 -19.8359375 41.37158203 C-20.9375 39.125 -20.9375 39.125 -20.9375 37.125 C-23.5775 37.125 -26.2175 37.125 -28.9375 37.125 C-28.93226318 37.84679443 -28.92702637 38.56858887 -28.92163086 39.31225586 C-28.90092642 42.56232849 -28.88786082 45.81238728 -28.875 49.0625 C-28.86662109 50.19880859 -28.85824219 51.33511719 -28.84960938 52.50585938 C-28.84638672 53.58544922 -28.84316406 54.66503906 -28.83984375 55.77734375 C-28.83460693 56.77757568 -28.82937012 57.77780762 -28.82397461 58.80834961 C-28.9375 61.125 -28.9375 61.125 -29.9375 62.125 C-32.29063555 62.19771741 -34.64583668 62.20870868 -37 62.1875 C-38.93552734 62.17396484 -38.93552734 62.17396484 -40.91015625 62.16015625 C-41.90917969 62.14855469 -42.90820312 62.13695313 -43.9375 62.125 C-44.00692772 53.68462582 -44.06027414 45.2443704 -44.09293652 36.80378151 C-44.10861071 32.88471028 -44.12988048 28.96583401 -44.16381836 25.046875 C-44.19635001 21.26675875 -44.2143398 17.48683033 -44.22213173 13.70658493 C-44.22768645 12.26242489 -44.23853321 10.81827544 -44.25469017 9.3741951 C-44.27637964 7.35584743 -44.27772467 5.33731183 -44.27807617 3.31884766 C-44.28473801 2.16857086 -44.29139984 1.01829407 -44.29826355 -0.1668396 C-44.17921158 -1.06053253 -44.06015961 -1.95422546 -43.9375 -2.875 C-32.49482085 -10.50345277 -10.86061344 -6.93230645 0 0 Z " fill="#F3DABB" transform="translate(470.9375,53.875)"/>
<path d="M0 0 C1.05445313 0.07089844 2.10890625 0.14179687 3.1953125 0.21484375 C4.76925781 0.29412109 4.76925781 0.29412109 6.375 0.375 C10.34492168 1.42276448 11.12908697 2.68437593 13.3203125 6.15234375 C15.12758733 9.43945688 16.79925014 12.7820677 18.4453125 16.15234375 C18.88746094 17.04179688 19.32960938 17.93125 19.78515625 18.84765625 C21.78851259 22.90278841 23.67745005 26.93557018 25.3203125 31.15234375 C25.9803125 31.15234375 26.6403125 31.15234375 27.3203125 31.15234375 C27.536875 30.3634375 27.7534375 29.57453125 27.9765625 28.76171875 C29.75449414 23.98611167 32.23935789 19.78396437 34.8203125 15.40234375 C35.31917969 14.53996094 35.81804688 13.67757812 36.33203125 12.7890625 C40.04581767 6.42683858 40.04581767 6.42683858 42.3203125 4.15234375 C45.32421875 4.140625 45.32421875 4.140625 48.8828125 4.46484375 C50.05972656 4.56410156 51.23664062 4.66335937 52.44921875 4.765625 C55.3203125 5.15234375 55.3203125 5.15234375 56.3203125 6.15234375 C56.41440729 8.17728606 56.43774372 10.20554245 56.43383789 12.23266602 C56.43376236 13.53393936 56.43368683 14.83521271 56.43360901 16.17591858 C56.42850159 17.60686277 56.42328558 19.03780657 56.41796875 20.46875 C56.41610453 21.92463635 56.41468065 23.38052332 56.41368103 24.83641052 C56.40985615 28.67513754 56.40002614 32.51382694 56.38897705 36.35253906 C56.37876228 40.26692191 56.37418327 44.18131081 56.36914062 48.09570312 C56.35840384 55.78126718 56.34132779 63.4668002 56.3203125 71.15234375 C54.19558674 71.20621004 52.07047598 71.24507446 49.9453125 71.27734375 C48.76195312 71.30054687 47.57859375 71.32375 46.359375 71.34765625 C43.3203125 71.15234375 43.3203125 71.15234375 41.3203125 69.15234375 C41.07461978 66.36017584 40.94668112 63.6599377 40.90625 60.86328125 C40.88688385 60.04485748 40.8675177 59.22643372 40.8475647 58.38320923 C40.78770168 55.76469399 40.74135718 53.14613494 40.6953125 50.52734375 C40.65713886 48.75388689 40.61808749 46.9804487 40.578125 45.20703125 C40.48199479 40.85562 40.39798899 36.50412196 40.3203125 32.15234375 C39.75441406 33.07917969 39.18851563 34.00601563 38.60546875 34.9609375 C37.86465674 36.17061787 37.12376732 37.38025084 36.3828125 38.58984375 C36.00962891 39.20150391 35.63644531 39.81316406 35.25195312 40.44335938 C32.43359375 45.0390625 32.43359375 45.0390625 31.3203125 46.15234375 C27.87504021 46.77121673 24.75153386 46.88455142 21.3203125 46.15234375 C18.84590704 43.87328609 17.67652519 41.19479808 16.3203125 38.15234375 C15.55027384 36.69359065 14.77948052 35.23523558 14.0078125 33.77734375 C12.3203125 30.15234375 12.3203125 30.15234375 12.3203125 28.15234375 C11.6603125 28.15234375 11.0003125 28.15234375 10.3203125 28.15234375 C10.3203125 41.02234375 10.3203125 53.89234375 10.3203125 67.15234375 C5.7003125 67.15234375 1.0803125 67.15234375 -3.6796875 67.15234375 C-5.48013707 65.35189418 -4.81675294 62.62310964 -4.82495117 60.19555664 C-4.83133102 58.92075943 -4.83771088 57.64596222 -4.84428406 56.33253479 C-4.84581261 54.93002358 -4.84692664 53.52751186 -4.84765625 52.125 C-4.85086715 50.69632432 -4.85423109 49.26764897 -4.85774231 47.838974 C-4.86373989 44.8403141 -4.86558157 41.84168305 -4.86499023 38.84301758 C-4.86488859 34.99476426 -4.87854047 31.14669535 -4.89576244 27.29848576 C-4.90686456 24.34658453 -4.90891 21.39472813 -4.90838051 18.44280815 C-4.90956335 17.02379152 -4.91400204 15.60477384 -4.92171288 14.18577766 C-4.93147604 12.20338426 -4.92738003 10.22093709 -4.92260742 8.23852539 C-4.92403244 7.10902969 -4.92545746 5.979534 -4.92692566 4.81581116 C-4.58228649 1.10305418 -3.73483035 0.21233001 0 0 Z " fill="#D8C2A0" transform="translate(609.6796875,52.84765625)"/>
<path d="M0 0 C1.15113281 -0.04898438 2.30226563 -0.09796875 3.48828125 -0.1484375 C6.6875 0.375 6.6875 0.375 8.65087891 2.50537109 C10.79308542 5.5237714 12.65130118 8.59026375 14.47265625 11.8125 C14.81501816 12.41505615 15.15738007 13.0176123 15.51011658 13.63842773 C16.59420034 15.54831738 17.67227647 17.46151552 18.75 19.375 C19.83260271 21.28771881 20.91642949 23.19973897 22.00059509 25.11157227 C22.98296024 26.8453777 23.96238829 28.58084631 24.94165039 30.31640625 C26.06393566 32.28256341 27.21966934 34.23019967 28.41577148 36.15234375 C29.6875 38.375 29.6875 38.375 29.6875 40.375 C30.3475 40.375 31.0075 40.375 31.6875 40.375 C31.6875 27.175 31.6875 13.975 31.6875 0.375 C35.9775 0.375 40.2675 0.375 44.6875 0.375 C46.48794957 2.17544957 45.82456544 4.90423411 45.83276367 7.33178711 C45.83914352 8.60658432 45.84552338 9.88138153 45.85209656 11.19480896 C45.85362511 12.59732017 45.85473914 13.99983189 45.85546875 15.40234375 C45.85867965 16.83101943 45.86204359 18.25969478 45.86555481 19.68836975 C45.87155239 22.68702965 45.87339407 25.6856607 45.87280273 28.68432617 C45.87270109 32.53257949 45.88635297 36.3806484 45.90357494 40.22885799 C45.91467706 43.18075922 45.9167225 46.13261562 45.91619301 49.0845356 C45.91737585 50.50355223 45.92181454 51.92256991 45.92952538 53.34156609 C45.93928854 55.32395949 45.93519253 57.30640666 45.93041992 59.28881836 C45.93184494 60.41831406 45.93326996 61.54780975 45.93473816 62.71153259 C45.6875 65.375 45.6875 65.375 43.6875 67.375 C40.859375 67.88671875 40.859375 67.88671875 37.4375 68.0625 C36.31859375 68.14886719 35.1996875 68.23523438 34.046875 68.32421875 C28.72954715 66.82176448 27.29873784 63.01867542 24.6875 58.375 C24.07938477 57.34238037 23.47126953 56.30976074 22.84472656 55.24584961 C20.85005991 51.84489811 18.88938148 48.42557586 16.9375 45 C15.61084981 42.67883846 14.28215135 40.35886601 12.953125 38.0390625 C12.37336914 37.02279785 11.79361328 36.0065332 11.19628906 34.95947266 C10.08791609 33.06089074 8.90697075 31.20420612 7.6875 29.375 C7.3575 41.585 7.0275 53.795 6.6875 66.375 C2.0675 66.375 -2.5525 66.375 -7.3125 66.375 C-7.33505381 57.91732269 -7.3534167 49.45966859 -7.36431217 41.00196934 C-7.36954031 37.07511342 -7.37663669 33.14827906 -7.38793945 29.22143555 C-7.3987708 25.43485743 -7.40477736 21.6483001 -7.40737724 17.86170769 C-7.40923105 16.41395681 -7.41285081 14.96620712 -7.41823006 13.51846504 C-7.42544367 11.49742865 -7.42590808 9.47637152 -7.42602539 7.45532227 C-7.428246 6.30282486 -7.43046661 5.15032745 -7.43275452 3.96290588 C-7.20536701 -0.93052747 -4.30386154 0.12447208 0 0 Z " fill="#F3DBBC" transform="translate(495.3125,48.625)"/>
<path d="M0 0 C12.02514166 -2.06990143 12.02514166 -2.06990143 16.74316406 1.21289062 C20.16447651 4.51579699 22.92093445 8.3399028 25.67724609 12.20068359 C27.51023999 14.69406953 29.57506842 16.92913187 31.6875 19.1875 C34.71712868 22.52227114 37.60608092 25.93287639 40.4375 29.4375 C44.29825137 34.211403 48.37437075 38.73388428 52.53125 43.25 C55.72881296 46.81184229 58.71388343 50.52565833 61.71875 54.25 C64.06718968 57.08099578 66.50909902 59.79383598 69 62.5 C73.09351091 66.94727112 76.92442499 71.54717463 80.71875 76.25 C83.86194258 80.03905407 87.20158595 83.63269352 90.53515625 87.25390625 C92.92707297 89.91875166 95.19254884 92.64831825 97.4375 95.4375 C100.65943101 99.43223986 104.00655495 103.24554349 107.5 107 C111.78955113 111.61004336 115.80410672 116.37782956 119.75390625 121.28515625 C122.0883059 124.10673495 124.51990598 126.80590712 127 129.5 C131.10344976 133.95861697 134.95560334 138.56248755 138.75 143.28515625 C141.80068206 146.96610075 145.05620806 150.44038318 148.34765625 153.90625 C150 156 150 156 150 159 C148.25 160.60546875 148.25 160.60546875 146 162.1875 C145.2575 162.71730469 144.515 163.24710938 143.75 163.79296875 C143.1725 164.19128906 142.595 164.58960938 142 165 C135.51081348 158.09357306 129.21244809 151.14082592 123.27734375 143.74609375 C120.78173453 140.73680853 118.16233195 137.86062978 115.5 135 C111.21039593 130.39001057 107.19588878 125.62216484 103.24609375 120.71484375 C100.9116941 117.89326505 98.48009402 115.19409288 96 112.5 C92.72581577 108.94329756 89.59357567 105.32838189 86.5625 101.5625 C83.34056899 97.56776014 79.99344505 93.75445651 76.5 90 C72.21044887 85.38995664 68.19589328 80.62217044 64.24609375 75.71484375 C61.9116941 72.89326505 59.48009402 70.19409288 57 67.5 C53.72581577 63.94329756 50.59357567 60.32838189 47.5625 56.5625 C44.34056899 52.56776014 40.99344505 48.75445651 37.5 45 C33.21044887 40.38995664 29.19589328 35.62217044 25.24609375 30.71484375 C22.12712131 26.94495533 18.80628153 23.37535549 15.4921875 19.77734375 C12.19058569 16.09797246 9.09123204 12.27296412 6.0078125 8.41015625 C4.03951264 5.96121763 4.03951264 5.96121763 1.7421875 3.80859375 C0 2 0 2 0 0 Z " fill="#FAF8F8" transform="translate(437,962)"/>
<path d="M0 0 C3.89969536 3.10974281 7.10506154 6.10958568 10.1875 10.0625 C13.48715321 14.19399856 16.89667611 18.13705618 20.5 22 C24.79016515 26.60944016 28.80415207 31.37788591 32.75390625 36.28515625 C35.0883059 39.10673495 37.51990598 41.80590712 40 44.5 C43.27418423 48.05670244 46.40642433 51.67161811 49.4375 55.4375 C52.65943101 59.43223986 56.00655495 63.24554349 59.5 67 C63.78955113 71.61004336 67.80410672 76.37782956 71.75390625 81.28515625 C74.0883059 84.10673495 76.51990598 86.80590712 79 89.5 C82.27418423 93.05670244 85.40642433 96.67161811 88.4375 100.4375 C91.65943101 104.43223986 95.00655495 108.24554349 98.5 112 C102.78955113 116.61004336 106.80410672 121.37782956 110.75390625 126.28515625 C113.0883059 129.10673495 115.51990598 131.80590712 118 134.5 C122.10120977 138.9561831 125.9478745 143.56151769 129.75 148.2734375 C133.35688653 152.64428264 137.16939044 156.82526949 141 161 C139.4169423 165.2742558 136.49431596 167.26531794 133 170 C126.51081348 163.09357306 120.21244809 156.14082592 114.27734375 148.74609375 C111.78173453 145.73680853 109.16233195 142.86062978 106.5 140 C102.21039593 135.39001057 98.19588878 130.62216484 94.24609375 125.71484375 C91.9116941 122.89326505 89.48009402 120.19409288 87 117.5 C82.90648909 113.05272888 79.07557501 108.45282537 75.28125 103.75 C72.13805742 99.96094593 68.79841405 96.36730648 65.46484375 92.74609375 C63.07292703 90.08124834 60.80745116 87.35168175 58.5625 84.5625 C55.34056899 80.56776014 51.99344505 76.75445651 48.5 73 C44.21044887 68.38995664 40.19589328 63.62217044 36.24609375 58.71484375 C33.9116941 55.89326505 31.48009402 53.19409288 29 50.5 C25.72581577 46.94329756 22.59357567 43.32838189 19.5625 39.5625 C15.43543224 34.44581563 11.0604299 29.62762444 6.578125 24.82421875 C5.72734375 23.89222656 4.8765625 22.96023438 4 22 C3.52280518 21.53980469 3.04561035 21.07960938 2.55395508 20.60546875 C-0.18381468 17.78185896 -1.32212861 15.7719455 -1.26953125 11.9140625 C-1.14469329 10.48171113 -0.99178727 9.05155916 -0.8125 7.625 C-0.74224609 6.88894531 -0.67199219 6.15289063 -0.59960938 5.39453125 C-0.42421369 3.5938022 -0.21547947 1.79637339 0 0 Z " fill="#FBF8F8" transform="translate(512,894)"/>
<path d="M0 0 C5.39414646 4.79479685 6.49970701 14.3572659 8.203125 21.140625 C8.59984406 22.70753082 8.59984406 22.70753082 9.00457764 24.30609131 C9.55825194 26.50064075 10.10942011 28.69582386 10.65820312 30.89160156 C11.50148681 34.25593172 12.35978534 37.61620647 13.21875 40.9765625 C13.75612903 43.11435211 14.29261872 45.25236551 14.828125 47.390625 C15.08636047 48.39482483 15.34459595 49.39902466 15.61065674 50.43365479 C15.84129822 51.36852722 16.0719397 52.30339966 16.30957031 53.26660156 C16.61909637 54.4961557 16.61909637 54.4961557 16.93487549 55.75054932 C17.27098947 58.14982896 16.99914068 59.71526412 16.25 62 C14.87705778 62.34171006 13.50149882 62.67291117 12.125 63 C11.35929687 63.185625 10.59359375 63.37125 9.8046875 63.5625 C6.91526648 64.0573244 4.17602801 64.06784992 1.25 64 C0.74564306 62.0636296 0.24666126 60.12585854 -0.25 58.1875 C-0.5284375 57.10855469 -0.806875 56.02960938 -1.09375 54.91796875 C-1.75 52 -1.75 52 -1.75 49 C-3.32201172 49.433125 -3.32201172 49.433125 -4.92578125 49.875 C-6.30463366 50.25019793 -7.68354289 50.62518705 -9.0625 51 C-9.75279297 51.19078125 -10.44308594 51.3815625 -11.15429688 51.578125 C-14.10787949 52.37716184 -16.67559219 53 -19.75 53 C-19.89695312 54.12019531 -20.04390625 55.24039063 -20.1953125 56.39453125 C-20.42046498 57.86740373 -20.64710565 59.34004927 -20.875 60.8125 C-20.9678125 61.55048828 -21.060625 62.28847656 -21.15625 63.04882812 C-21.5078125 65.20703125 -21.5078125 65.20703125 -22.75 69 C-26.4097774 71.59062895 -29.69789171 72.38837106 -34.125 72.6875 C-34.99898437 72.75324219 -35.87296875 72.81898438 -36.7734375 72.88671875 C-37.42570312 72.92410156 -38.07796875 72.96148437 -38.75 73 C-38.03456985 65.47856985 -36.26332974 58.27402883 -34.5 50.9375 C-33.85908053 48.25719405 -33.22122999 45.57617641 -32.5859375 42.89453125 C-32.42763458 42.22681702 -32.26933167 41.55910278 -32.10623169 40.87115479 C-31.11636879 36.66014433 -30.20461616 32.43991607 -29.3515625 28.19921875 C-29.14176758 27.16740479 -28.93197266 26.13559082 -28.71582031 25.07250977 C-28.33460426 23.17068274 -27.96582706 21.26629987 -27.61230469 19.35913086 C-26.23773061 12.56595519 -23.95123737 6.46249028 -18.3125 2.125 C-12.10754813 -0.59912521 -6.65121849 -2.41862491 0 0 Z " fill="#A4956B" transform="translate(90.75,92)"/>
<path d="M0 0 C1.56324232 0.11534604 3.12559683 0.24275126 4.6875 0.375 C5.99267578 0.47941406 5.99267578 0.47941406 7.32421875 0.5859375 C10 1 10 1 15 3 C15.33 11.25 15.66 19.5 16 28 C22.16221148 29.27442372 22.16221148 29.27442372 28.32568359 30.54272461 C29.09219238 30.70264893 29.85870117 30.86257324 30.6484375 31.02734375 C31.43395996 31.18968506 32.21948242 31.35202637 33.02880859 31.51928711 C35 32 35 32 37 33 C37 25.08 37 17.16 37 9 C40 8 40 8 52 11 C52 32.78 52 54.56 52 77 C39.9147061 75.79147061 39.9147061 75.79147061 37 73 C36.43237305 70.1809082 36.43237305 70.1809082 36.51171875 66.80078125 C36.52783203 65.59228516 36.54394531 64.38378906 36.56054688 63.13867188 C36.62338867 61.2447168 36.62338867 61.2447168 36.6875 59.3125 C36.71005859 58.03826172 36.73261719 56.76402344 36.75585938 55.45117188 C36.81487738 52.2996104 36.89717025 49.15038721 37 46 C35.25203125 45.80083984 35.25203125 45.80083984 33.46875 45.59765625 C27.22337407 44.81698426 21.14238158 43.35841131 15 42 C15 50.91 15 59.82 15 69 C2.625 67.625 2.625 67.625 0 65 C-0.09409479 62.97505769 -0.11743122 60.9468013 -0.11352539 58.91967773 C-0.11344986 57.61840439 -0.11337433 56.31713104 -0.11329651 54.97642517 C-0.10818909 53.54548098 -0.10297308 52.11453718 -0.09765625 50.68359375 C-0.09579203 49.2277074 -0.09436815 47.77182043 -0.09336853 46.31593323 C-0.08954365 42.47720621 -0.07971364 38.63851681 -0.06866455 34.79980469 C-0.05844978 30.88542184 -0.05387077 26.97103294 -0.04882812 23.05664062 C-0.03809134 15.37107657 -0.02101529 7.68554355 0 0 Z " fill="#A5966C" transform="translate(856,88)"/>
<path d="M0 0 C1.85696582 1.74876466 3.51544317 3.46437317 5.1875 5.375 C5.91151001 6.18312134 5.91151001 6.18312134 6.65014648 7.00756836 C10.48663703 11.32417298 14.1331614 15.78665507 17.75390625 20.28515625 C20.0883059 23.10673495 22.51990598 25.80590712 25 28.5 C29.09351091 32.94727112 32.92442499 37.54717463 36.71875 42.25 C39.06718968 45.08099578 41.50909902 47.79383598 44 50.5 C48.09351091 54.94727112 51.92442499 59.54717463 55.71875 64.25 C58.86194258 68.03905407 62.20158595 71.63269352 65.53515625 75.25390625 C67.92707297 77.91875166 70.19254884 80.64831825 72.4375 83.4375 C75.65943101 87.43223986 79.00655495 91.24554349 82.5 95 C86.78955113 99.61004336 90.80410672 104.37782956 94.75390625 109.28515625 C97.0883059 112.10673495 99.51990598 114.80590712 102 117.5 C106.08093328 121.93360653 109.90143381 126.51823547 113.68359375 131.20703125 C117.62230778 135.95607093 121.80736675 140.47475702 126 145 C124.31847927 148.74020498 122.30960527 150.56134348 119 153 C115.18371168 151.45427224 113.02974257 149.11228755 110.3125 146.0625 C109.87679687 145.57523438 109.44109375 145.08796875 108.9921875 144.5859375 C105.29119613 140.41293563 101.78332365 136.09059833 98.28125 131.75 C95.13805742 127.96094593 91.79841405 124.36730648 88.46484375 120.74609375 C86.07292703 118.08124834 83.80745116 115.35168175 81.5625 112.5625 C78.34056899 108.56776014 74.99344505 104.75445651 71.5 101 C67.21044887 96.38995664 63.19589328 91.62217044 59.24609375 86.71484375 C56.9116941 83.89326505 54.48009402 81.19409288 52 78.5 C47.90648909 74.05272888 44.07557501 69.45282537 40.28125 64.75 C37.13805742 60.96094593 33.79841405 57.36730648 30.46484375 53.74609375 C28.07292703 51.08124834 25.80745116 48.35168175 23.5625 45.5625 C20.34056899 41.56776014 16.99344505 37.75445651 13.5 34 C9.22038461 29.40063473 5.21139682 24.64765355 1.27734375 19.74609375 C-2.00468862 15.78851441 -5.50693445 12.05436589 -9.03125 8.3125 C-11 6 -11 6 -12 3 C-10.75823305 2.29773859 -9.50614401 1.61370891 -8.25 0.9375 C-7.20585937 0.36322266 -7.20585937 0.36322266 -6.140625 -0.22265625 C-3.4610847 -1.19570099 -2.58881256 -1.20352766 0 0 Z " fill="#FAF8F8" transform="translate(484,953)"/>
<path d="M0 0 C3.59037702 2.70216528 6.35895165 5.46618918 9.125 9 C12.44713066 13.14990408 15.87743828 17.11602281 19.5 21 C23.79013876 25.60946707 27.80414982 30.37788311 31.75390625 35.28515625 C34.0883059 38.10673495 36.51990598 40.80590712 39 43.5 C42.27418423 47.05670244 45.40642433 50.67161811 48.4375 54.4375 C51.65943101 58.43223986 55.00655495 62.24554349 58.5 66 C62.78955113 70.61004336 66.80410672 75.37782956 70.75390625 80.28515625 C73.0883059 83.10673495 75.51990598 85.80590712 78 88.5 C82.09351091 92.94727112 85.92442499 97.54717463 89.71875 102.25 C92.86194258 106.03905407 96.20158595 109.63269352 99.53515625 113.25390625 C101.92707297 115.91875166 104.19254884 118.64831825 106.4375 121.4375 C110.56456776 126.55418437 114.9395701 131.37237556 119.421875 136.17578125 C126.96606669 144.44010032 126.96606669 144.44010032 127.125 147.0625 C125.51093535 149.842278 123.34943654 151.83128935 121 154 C117.18371168 152.45427224 115.02974257 150.11228755 112.3125 147.0625 C111.87679687 146.57523438 111.44109375 146.08796875 110.9921875 145.5859375 C107.29119613 141.41293563 103.78332365 137.09059833 100.28125 132.75 C97.13805742 128.96094593 93.79841405 125.36730648 90.46484375 121.74609375 C88.07292703 119.08124834 85.80745116 116.35168175 83.5625 113.5625 C80.34056899 109.56776014 76.99344505 105.75445651 73.5 102 C69.21044887 97.38995664 65.19589328 92.62217044 61.24609375 87.71484375 C58.9116941 84.89326505 56.48009402 82.19409288 54 79.5 C49.90648909 75.05272888 46.07557501 70.45282537 42.28125 65.75 C39.13805742 61.96094593 35.79841405 58.36730648 32.46484375 54.74609375 C30.07292703 52.08124834 27.80745116 49.35168175 25.5625 46.5625 C22.34056252 42.56775211 18.99338154 38.75452374 15.5 35 C11.16181419 30.33616757 7.07935173 25.52103304 3.08203125 20.55859375 C0.14942344 16.95473237 -2.90924631 13.46840205 -6 10 C-4.6302836 6.00499382 -2.74277578 3.19990508 0 0 Z " fill="#FBF8F8" transform="translate(504,931)"/>
<path d="M0 0 C1.93166016 0.01740234 1.93166016 0.01740234 3.90234375 0.03515625 C5.19269531 0.04417969 6.48304688 0.05320313 7.8125 0.0625 C8.81152344 0.07410156 9.81054688 0.08570313 10.83984375 0.09765625 C10.94160799 7.21423065 11.01146204 14.33061605 11.05957031 21.44775391 C11.0796344 23.86677055 11.10689218 26.28573901 11.14160156 28.70458984 C11.19034716 32.18989993 11.21286539 35.67456641 11.23046875 39.16015625 C11.25111389 40.23442871 11.27175903 41.30870117 11.29302979 42.41552734 C11.29526404 49.96194057 10.08108366 55.08356595 5.234375 61.0859375 C-3.49781577 68.39510459 -13.23258938 69.17492542 -24.27539062 68.36083984 C-29.74648032 67.59687162 -32.84427454 64.44816642 -36.53515625 60.66015625 C-40.63308538 54.19803724 -40.42742952 47.98266793 -40.35546875 40.57421875 C-40.35263885 39.47290619 -40.34980896 38.37159363 -40.34689331 37.23690796 C-40.33573103 33.73204517 -40.31063336 30.22744133 -40.28515625 26.72265625 C-40.27512136 24.34114953 -40.2659964 21.9596388 -40.2578125 19.578125 C-40.23580457 13.75120286 -40.20130162 7.92447341 -40.16015625 2.09765625 C-35.21015625 2.09765625 -30.26015625 2.09765625 -25.16015625 2.09765625 C-25.14557373 3.4952417 -25.13099121 4.89282715 -25.1159668 6.33276367 C-25.05794794 11.52328947 -24.98071462 16.7133831 -24.89770508 21.90356445 C-24.86447274 24.14893575 -24.83643556 26.39439025 -24.8137207 28.63989258 C-24.78014423 31.86966368 -24.72782552 35.09867352 -24.671875 38.328125 C-24.66548508 39.3303862 -24.65909515 40.3326474 -24.6525116 41.36528015 C-24.55560076 48.24451108 -24.55560076 48.24451108 -21.16015625 54.09765625 C-16.68196189 55.25136056 -12.29690498 54.58483428 -8.09765625 52.78515625 C-5.71019062 50.7057507 -5.23022608 49.08672209 -5.00866699 45.95932007 C-4.98987488 44.7214122 -4.98987488 44.7214122 -4.97070312 43.45849609 C-4.94562683 42.05221451 -4.94562683 42.05221451 -4.92004395 40.61752319 C-4.90646851 39.60807648 -4.89289307 38.59862976 -4.87890625 37.55859375 C-4.86049683 36.52199615 -4.8420874 35.48539856 -4.82312012 34.41738892 C-4.74432109 29.97465473 -4.67650907 25.53176877 -4.60791016 21.08886719 C-4.55633437 17.84952949 -4.49903973 14.61032839 -4.44140625 11.37109375 C-4.42783081 10.35759857 -4.41425537 9.34410339 -4.40026855 8.29989624 C-4.37519226 6.90307114 -4.37519226 6.90307114 -4.34960938 5.47802734 C-4.33081726 4.24250626 -4.33081726 4.24250626 -4.31164551 2.98202515 C-4.04944758 -0.27944455 -3.35277015 0.10360847 0 0 Z " fill="#E5CEAD" transform="translate(403.16015625,49.90234375)"/>
<path d="M0 0 C5.52677733 -0.19392201 9.75614911 0.2520497 15 2 C15.01213028 2.86657478 15.01213028 2.86657478 15.02450562 3.75065613 C15.11063351 9.76929555 15.21014079 15.78760874 15.31738281 21.8059082 C15.35564079 24.05129513 15.39049921 26.29674269 15.421875 28.54223633 C15.46759417 31.77186737 15.52557807 35.00108222 15.5859375 38.23046875 C15.59748871 39.23272995 15.60903992 40.23499115 15.62094116 41.2676239 C15.64081085 42.20822159 15.66068054 43.14881927 15.68115234 44.11791992 C15.69447601 44.94176682 15.70779968 45.76561371 15.7215271 46.61442566 C16.04561047 49.39072807 16.7560799 51.49908209 18 54 C22.32279442 56.91537298 25.83458248 57.58476425 31 57 C33.10358381 55.45737187 33.84054159 54.31891683 35 52 C35.11805177 50.4892243 35.17696449 48.97361169 35.20532227 47.45849609 C35.22526749 46.51767181 35.24521271 45.57684753 35.26576233 44.60751343 C35.28247482 43.58976837 35.29918732 42.57202332 35.31640625 41.5234375 C35.33718735 40.48305328 35.35796844 39.44266907 35.37937927 38.37075806 C35.44489872 35.03890751 35.50377092 31.7069765 35.5625 28.375 C35.60568294 26.11978326 35.64929715 23.86457473 35.69335938 21.609375 C35.80058252 16.07300236 35.90234446 10.53654922 36 5 C46.55808656 5.77904328 46.55808656 5.77904328 51 8 C51.10192421 14.67100892 51.17168442 21.34181493 51.21972656 28.01342773 C51.23976707 30.28010563 51.26700711 32.54673232 51.30175781 34.81323242 C51.35060868 38.08264856 51.37304512 41.35137757 51.390625 44.62109375 C51.41127014 45.62458359 51.43191528 46.62807343 51.45318604 47.66197205 C51.45559475 55.31819514 49.87829488 61.37891935 45.0625 67.4375 C38.99808465 72.03175405 32.27483385 71.53478942 25 71 C16.93245999 69.63824502 9.57316568 66.30947596 4.28564453 59.93237305 C-2.26286989 49.02132162 -0.64874325 36.52884832 -0.375 24.25 C-0.34486036 21.89586747 -0.31749164 19.54169774 -0.29296875 17.1875 C-0.22729924 11.45751317 -0.12726899 5.72893239 0 0 Z " fill="#BDAB84" transform="translate(741,68)"/>
<path d="M0 0 C1 1 1 1 1.09765625 3.50390625 C1.08605469 4.51324219 1.07445312 5.52257813 1.0625 6.5625 C1.05347656 7.57441406 1.04445313 8.58632813 1.03515625 9.62890625 C1.02355469 10.41136719 1.01195312 11.19382812 1 12 C0.31373535 11.98952637 -0.3725293 11.97905273 -1.07958984 11.96826172 C-4.17802289 11.92678126 -7.27639761 11.90069931 -10.375 11.875 C-11.45523438 11.85824219 -12.53546875 11.84148438 -13.6484375 11.82421875 C-15.1953125 11.81455078 -15.1953125 11.81455078 -16.7734375 11.8046875 C-17.72653809 11.79421387 -18.67963867 11.78374023 -19.66162109 11.77294922 C-22.1923213 11.76868133 -22.1923213 11.76868133 -24 14 C-24.46396693 16.89223503 -24.46396693 16.89223503 -24.625 20.125 C-24.75 22.08333333 -24.875 24.04166667 -25 26 C-24.27820557 25.99476318 -23.55641113 25.98952637 -22.81274414 25.98413086 C-19.56267151 25.96342642 -16.31261272 25.95036082 -13.0625 25.9375 C-11.92619141 25.92912109 -10.78988281 25.92074219 -9.61914062 25.91210938 C-8.53955078 25.90888672 -7.45996094 25.90566406 -6.34765625 25.90234375 C-4.84730835 25.89448853 -4.84730835 25.89448853 -3.31665039 25.88647461 C-1 26 -1 26 0 27 C0.07226502 28.85287502 0.0838122 30.70833878 0.0625 32.5625 C0.05347656 33.57441406 0.04445313 34.58632812 0.03515625 35.62890625 C0.02355469 36.41136719 0.01195312 37.19382813 0 38 C-16.70842825 38.18451025 -16.70842825 38.18451025 -25 37 C-24.88623383 39.12563103 -24.75864369 41.2505261 -24.625 43.375 C-24.55539062 44.55835938 -24.48578125 45.74171875 -24.4140625 46.9609375 C-24.29782654 50.10562319 -24.29782654 50.10562319 -22 52 C-19.69459224 52.44677017 -19.69459224 52.44677017 -17.02734375 52.59765625 C-15.55491211 52.71657227 -15.55491211 52.71657227 -14.05273438 52.83789062 C-12.51069336 52.94907227 -12.51069336 52.94907227 -10.9375 53.0625 C-8.90464834 53.21613838 -6.87207246 53.37348651 -4.83984375 53.53515625 C-3.93613037 53.600979 -3.03241699 53.66680176 -2.10131836 53.73461914 C0 54 0 54 1 55 C1.07226502 56.85287502 1.0838122 58.70833878 1.0625 60.5625 C1.05347656 61.57441406 1.04445313 62.58632812 1.03515625 63.62890625 C1.02355469 64.41136719 1.01195312 65.19382812 1 66 C-3.33310328 66.116965 -7.6657958 66.1875089 -12 66.25 C-13.22074219 66.28351563 -14.44148437 66.31703125 -15.69921875 66.3515625 C-22.98699238 66.43034924 -27.84595715 66.01701842 -34 62 C-39.78111729 56.06674805 -40.30902455 50.44075242 -40.30078125 42.53515625 C-40.30506638 41.62422714 -40.3093515 40.71329803 -40.31376648 39.77476501 C-40.31949698 37.85253733 -40.32001949 35.93028796 -40.31567383 34.00805664 C-40.3125145 31.07595637 -40.33598672 28.14486625 -40.36132812 25.21289062 C-40.3636014 23.3411471 -40.36430448 21.46940088 -40.36328125 19.59765625 C-40.372491 18.7256105 -40.38170074 17.85356476 -40.39118958 16.95509338 C-40.34753014 11.17747115 -39.49807173 6.87346502 -35.5703125 2.35546875 C-26.31734221 -5.12193157 -10.8806144 -2.9459371 0 0 Z " fill="#E8D0B0" transform="translate(593,52)"/>
<path d="M0 0 C0 3.63 0 7.26 0 11 C-6.12328382 13.24520407 -11.81607472 14.53986732 -18.30078125 15.27734375 C-21.66108255 16.17699026 -22.94091455 17.20858393 -25 20 C-25.69157955 22.80178374 -25.69157955 22.80178374 -25.75 25.75 C-25.80671875 26.73484375 -25.8634375 27.7196875 -25.921875 28.734375 C-25.96054688 29.85585937 -25.96054688 29.85585937 -26 31 C-25.36835938 30.79503906 -24.73671875 30.59007813 -24.0859375 30.37890625 C-16.40532372 28.06586838 -8.9960422 27.33851857 -1 27 C-0.97312721 28.81242052 -0.95366285 30.62495233 -0.9375 32.4375 C-0.92589844 33.44683594 -0.91429687 34.45617187 -0.90234375 35.49609375 C-1 38 -1 38 -2 39 C-3.70085798 39.36749582 -5.41324186 39.68202458 -7.12890625 39.97265625 C-8.06033447 40.13258057 -8.9917627 40.29250488 -9.95141602 40.45727539 C-11.14307373 40.65699951 -12.33473145 40.85672363 -13.5625 41.0625 C-17.336875 41.701875 -21.11125 42.34125 -25 43 C-25.33 52.24 -25.66 61.48 -26 71 C-36 73 -36 73 -41 73 C-41.1274123 65.63528035 -41.21460754 58.2708479 -41.2746582 50.90527344 C-41.29970793 48.40288674 -41.33375742 45.90057252 -41.37719727 43.3984375 C-41.43826661 39.78887993 -41.46630674 36.18029481 -41.48828125 32.5703125 C-41.51408768 31.46261505 -41.5398941 30.3549176 -41.56648254 29.21365356 C-41.56950288 20.73344476 -39.65022563 13.96310212 -33.8125 7.625 C-23.14921708 1.46399209 -12.18312693 -0.35313411 0 0 Z " fill="#A5966C" transform="translate(156,78)"/>
<path d="M0 0 C0.02686553 1.97909398 0.04633375 3.95828971 0.0625 5.9375 C0.07410156 7.03964844 0.08570313 8.14179687 0.09765625 9.27734375 C0 12 0 12 -1 13 C-4.51968277 13.38142485 -8.0361172 13.72140761 -11.56640625 13.98632812 C-16.48913765 14.46669829 -19.49370274 15.22348058 -23 19 C-24.70305381 22.53421012 -25.25575459 25.36687148 -25.265625 29.2734375 C-25.26820313 30.2634375 -25.27078125 31.2534375 -25.2734375 32.2734375 C-25.26570312 33.29695313 -25.25796875 34.32046875 -25.25 35.375 C-25.25773438 36.39078125 -25.26546875 37.4065625 -25.2734375 38.453125 C-25.25895766 44.02786332 -24.8679545 48.73711231 -23 54 C-21.2709226 54.02725341 -19.54171824 54.04650987 -17.8125 54.0625 C-16.36810547 54.07990234 -16.36810547 54.07990234 -14.89453125 54.09765625 C-12.13627449 54.00459765 -9.69270851 53.566886 -7 53 C-4.66698014 52.96175377 -2.33288492 52.95425716 0 53 C0 56.63 0 60.26 0 64 C-8.38172568 68.72815295 -17.45981165 70.06445616 -27 69 C-32.41171518 67.26509677 -35.82983892 63.52880154 -39 59 C-41.62440105 52.43699139 -41.3305547 46.16022328 -41.3125 39.1875 C-41.32861328 37.95451172 -41.34472656 36.72152344 -41.36132812 35.45117188 C-41.36714039 24.56479051 -39.71146019 16.01519385 -32 8 C-22.61788711 -0.24821231 -11.97525243 -0.37618594 0 0 Z " fill="#B2A27A" transform="translate(207,70)"/>
<path d="M0 0 C2.85690462 0.30432245 5.66313799 0.68320689 8.5 1.125 C9.37188965 1.25825684 10.2437793 1.39151367 11.14208984 1.52880859 C18.6711334 2.71704966 26.150075 4.13671606 33.625 5.625 C34.72134766 5.8430127 35.81769531 6.06102539 36.94726562 6.28564453 C44.73846211 7.86923106 44.73846211 7.86923106 47 9 C47 12.96 47 16.92 47 21 C41.64115428 20.42289354 36.34026607 19.76289515 31 19 C31 36.16 31 53.32 31 71 C23 71 23 71 16 69 C16 51.18 16 33.36 16 15 C12.04 14.67 8.08 14.34 4 14 C1.525 13.01 1.525 13.01 -1 12 C-1.02687279 10.18757948 -1.04633715 8.37504767 -1.0625 6.5625 C-1.07410156 5.55316406 -1.08570313 4.54382813 -1.09765625 3.50390625 C-1 1 -1 1 0 0 Z " fill="#AE9E75" transform="translate(801,77)"/>
<path d="M0 0 C0.84304688 -0.0515625 1.68609375 -0.103125 2.5546875 -0.15625 C5.59093314 0.61896165 7.26425098 1.8293397 9.15234375 4.33789062 C11.3520853 9.22767757 10.79103016 14.74514485 10.6875 20 C10.69845703 21.21042969 10.70941406 22.42085937 10.72070312 23.66796875 C10.66714626 30.15906065 10.62899598 34.63127365 6.125 39.5 C3.07716978 41.89472374 -0.22145999 41.86167591 -3.9765625 41.75 C-6.72646261 41.38787324 -8.03114187 40.556611 -9.875 38.5 C-12.51823172 32.94718288 -12.24273028 27.66613494 -12.25 21.625 C-12.27449219 20.56152344 -12.29898437 19.49804688 -12.32421875 18.40234375 C-12.34854811 11.87396442 -11.84730542 7.76294617 -7.875 2.5 C-4.74565289 0.41376859 -3.63145713 0.13245436 0 0 Z " fill="#040403" transform="translate(325.875,67.5)"/>
<path d="M0 0 C3.97517354 2.1604204 5.67310086 4.68488413 7.38037109 8.83520508 C8.62084908 13.16905785 8.4288652 17.5886955 8.375 22.0625 C8.38660156 23.02994141 8.39820313 23.99738281 8.41015625 24.99414062 C8.38804825 30.37743843 8.12947617 34.40863238 5 39 C0.96839035 41.68773977 -2.26423878 41.67415933 -7 41 C-11.12184593 38.63213106 -12.55419471 36.43618282 -14 32 C-14.41322042 27.6745923 -14.3244057 23.3431994 -14.3125 19 C-14.32861328 17.824375 -14.34472656 16.64875 -14.36132812 15.4375 C-14.36197266 14.303125 -14.36261719 13.16875 -14.36328125 12 C-14.36626221 10.96875 -14.36924316 9.9375 -14.37231445 8.875 C-13.94329314 5.56211149 -12.9629787 3.67991607 -11 1 C-7.52954285 -0.73522857 -3.79456421 -0.46034575 0 0 Z " fill="#040403" transform="translate(707,75)"/>
<path d="M0 0 C0.73476563 -0.01417969 1.46953125 -0.02835937 2.2265625 -0.04296875 C4.69484316 0.22181045 6.27371792 0.87993364 8.375 2.1875 C10.12286445 5.68322891 9.2286987 9.47220327 8.375 13.1875 C5.43595212 16.98377017 -0.05655839 17.55915447 -4.625 18.1875 C-6.605 18.1875 -8.585 18.1875 -10.625 18.1875 C-10.625 12.5775 -10.625 6.9675 -10.625 1.1875 C-3.69589552 0.03264925 -3.69589552 0.03264925 0 0 Z " fill="#090806" transform="translate(265.625,98.8125)"/>
<path d="M0 0 C12.2920399 -0.40523208 12.2920399 -0.40523208 17 3 C19 5 19 5 19.4375 8.3125 C19 12 19 12 16.75 14.875 C12.74969374 17.96614575 9.72273016 18.12793066 4.75 18.0625 C3.1825 18.041875 1.615 18.02125 0 18 C0 12.06 0 6.12 0 0 Z " fill="#080706" transform="translate(442,61)"/>
<path d="M0 0 C1.70309083 3.0817834 1.81929416 4.89984004 1.3125 8.375 C-0.30089481 11.26498666 -1.30475109 12.22887933 -4.4296875 13.421875 C-5.46351563 13.65390625 -6.49734375 13.8859375 -7.5625 14.125 C-8.59117187 14.36734375 -9.61984375 14.6096875 -10.6796875 14.859375 C-13.6875 15.375 -13.6875 15.375 -18.6875 15.375 C-18.6875 10.095 -18.6875 4.815 -18.6875 -0.625 C-5.42160405 -3.27817919 -5.42160405 -3.27817919 0 0 Z " fill="#0C0B08" transform="translate(273.6875,74.625)"/>
<path d="M0 0 C0.66 0 1.32 0 2 0 C4.39335807 8.34892351 6.46379668 16.28669603 7 25 C3.04 25.66 -0.92 26.32 -5 27 C-4.41117785 17.72605107 -2.24113144 8.9853735 0 0 Z " fill="#070604" transform="translate(79,105)"/>
</svg>
