<?xml version="1.0" encoding="UTF-8"?>
<svg version="1.1" xmlns="http://www.w3.org/2000/svg" width="194" height="259">
<path d="M0 0 C64.02 0 128.04 0 194 0 C194 85.47 194 170.94 194 259 C129.98 259 65.96 259 0 259 C0 173.53 0 88.06 0 0 Z " fill="#010101" transform="translate(0,0)"/>
<path d="M0 0 C1.74864475 1.74864475 1.12244143 4.03373396 1.12908131 6.36370426 C1.12616847 7.13898108 1.12325563 7.9142579 1.12025452 8.71302795 C1.12110894 9.53059285 1.12196337 10.34815775 1.12284368 11.19049734 C1.12450099 13.95132011 1.11897304 16.71208315 1.11352539 19.47290039 C1.11324355 21.44346617 1.1134012 23.41403206 1.1139679 25.38459778 C1.11425598 30.75214509 1.1083575 36.11967027 1.10139394 41.48721242 C1.0951622 47.08997947 1.09455674 52.69274698 1.09336853 58.29551697 C1.09025468 68.91319558 1.08204057 79.53086396 1.07201904 90.14853805 C1.06085957 102.23297324 1.05534787 114.31740891 1.05032361 126.40184796 C1.039858 151.26790433 1.02225753 176.13395159 1 201 C0.34 201 -0.32 201 -1 201 C-1 201.66 -1 202.32 -1 203 C-3.46014205 205.54697059 -6.2918546 207.72212069 -9 210 C-9.84820312 210.75796875 -10.69640625 211.5159375 -11.5703125 212.296875 C-20.02997205 219.69613154 -29.25485667 225.43812719 -39 231 C-39.6801416 231.39477539 -40.3602832 231.78955078 -41.06103516 232.19628906 C-42.92209451 233.26439144 -44.79818463 234.29539527 -46.6875 235.3125 C-48.27111328 236.17294922 -48.27111328 236.17294922 -49.88671875 237.05078125 C-55.28212996 238.69580625 -59.33863244 236.41450592 -64.12890625 233.96875 C-65.61256142 233.15631975 -67.0902396 232.33290148 -68.5625 231.5 C-69.34898926 231.05712646 -70.13547852 230.61425293 -70.94580078 230.15795898 C-82.15497977 223.73567862 -92.02659751 216.34362567 -101.37890625 207.4453125 C-103.87186654 204.96517754 -103.87186654 204.96517754 -106.62581825 203.35135937 C-109.37237936 200.63120022 -109.5930467 199.05102653 -109.65006864 195.25371391 C-109.62924551 194.10492965 -109.62924551 194.10492965 -109.60800171 192.93293762 C-109.6129794 192.11351502 -109.61795709 191.29409241 -109.62308562 190.44983882 C-109.63367527 187.70015607 -109.60848947 184.95196518 -109.58349609 182.20239258 C-109.58372275 180.23300539 -109.58613593 178.26361742 -109.59057617 176.29423523 C-109.59629024 170.9431203 -109.57096629 165.59254859 -109.53990126 160.24153733 C-109.51239652 154.64995086 -109.51236337 149.05836416 -109.50918579 143.46672058 C-109.49997827 134.07903618 -109.47243016 124.69155535 -109.43212891 115.30395508 C-109.37526907 102.04677266 -109.35297828 88.78969263 -109.33684421 75.5324074 C-109.32440477 66.36730589 -109.30371734 57.20222004 -109.2814641 48.03713775 C-109.27609581 45.80992109 -109.27095984 43.58270387 -109.26605177 41.35548615 C-109.25178185 35.01036392 -109.2324046 28.66530073 -109.20457458 22.32022285 C-109.19682834 20.39363967 -109.1907773 18.46704886 -109.18649673 16.54045486 C-109.18031636 13.92229513 -109.16798226 11.30423883 -109.15390015 8.68611145 C-109.15340239 7.91356311 -109.15290463 7.14101477 -109.15239179 6.34505588 C-109.11426519 1.11426519 -109.11426519 1.11426519 -108 0 C-105.6920872 -0.3770874 -103.40252341 -0.69446183 -101.08203125 -0.97265625 C-100.00799545 -1.10411797 -100.00799545 -1.10411797 -98.91226196 -1.23823547 C-66.28425425 -5.15217005 -32.46202802 -6.21058092 0 0 Z " fill="#FBFBFB" transform="translate(151,12)"/>
<path d="M0 0 C64.02 0 128.04 0 194 0 C194 85.47 194 170.94 194 259 C129.98 259 65.96 259 0 259 C0 173.53 0 88.06 0 0 Z M53 6 C50.16841775 6.34889334 47.3344583 6.67543311 44.5 7 C39.7465441 7.55923011 35.15098489 8.35645478 30.49414062 9.42919922 C27.71015679 10.06633256 24.91893636 10.66197823 22.125 11.25390625 C21.12082031 11.46853516 20.11664062 11.68316406 19.08203125 11.90429688 C16.99665733 12.3496524 14.91070027 12.79228463 12.82421875 13.23242188 C11.83035156 13.44576172 10.83648437 13.65910156 9.8125 13.87890625 C8.91144531 14.0704126 8.01039062 14.26191895 7.08203125 14.45922852 C5.02537832 14.80574242 5.02537832 14.80574242 4 16 C3.89703818 17.7996212 3.86478487 19.60331193 3.85955811 21.40586853 C3.85384796 22.57918732 3.84813782 23.7525061 3.84225464 24.96138 C3.84113678 26.26052841 3.84001892 27.55967682 3.83886719 28.89819336 C3.83424098 30.27126194 3.82921659 31.64432924 3.82382202 33.01739502 C3.81066818 36.75962293 3.80424611 40.50183287 3.79981136 44.24408031 C3.7968826 46.58377433 3.79277794 48.92346343 3.78830719 51.26315498 C3.77461817 58.58770569 3.76496105 65.91224515 3.7611053 73.23680776 C3.75663501 81.68241414 3.73914114 90.12785782 3.7101047 98.57341474 C3.68843427 105.10432607 3.678398 111.63519184 3.67706418 118.16613871 C3.67601905 122.0643692 3.67017501 125.96244706 3.65224457 129.86063957 C3.63567325 133.53537791 3.63365188 137.20985047 3.64238358 140.88461304 C3.64351216 142.86271611 3.62986086 144.8408107 3.6156311 146.81886292 C3.66645675 157.75850855 6.3821891 166.40589786 11.0625 176.1875 C11.64741211 177.41243164 11.64741211 177.41243164 12.24414062 178.66210938 C27.45082975 209.67988704 53.05147405 232.48474379 82.94580078 248.87255859 C84.71173387 249.84178595 86.4646536 250.83465679 88.21484375 251.83203125 C89.50068359 252.53392578 89.50068359 252.53392578 90.8125 253.25 C91.84310547 253.81460938 91.84310547 253.81460938 92.89453125 254.390625 C99.12100191 256.1927204 104.82074972 252.3069605 110.125 249.4375 C111.39186646 248.75868774 111.39186646 248.75868774 112.68432617 248.06616211 C119.40287072 244.41884211 125.82235506 240.51346304 132 236 C132.52835449 235.61827637 133.05670898 235.23655273 133.60107422 234.84326172 C158.88016888 216.41227601 177.39369243 192.41946298 188 163 C188.34961226 162.06712599 188.69922451 161.13425198 189.05943108 160.17310905 C190.02710883 156.90854547 190.24656016 154.32025085 190.24050903 150.92556763 C190.24325836 149.73092392 190.24600769 148.53628021 190.24884033 147.30543518 C190.24164978 146.0085527 190.23445923 144.71167023 190.22705078 143.37548828 C190.22648617 141.98545846 190.2268042 140.59542804 190.22793579 139.20539856 C190.22850836 135.44342452 190.21676963 131.68157866 190.20278788 127.91963434 C190.1902645 123.98385427 190.18910875 120.04807109 190.18673706 116.11227417 C190.18052701 108.6644678 190.16412263 101.21672032 190.14403808 93.76893985 C190.12166429 85.28771281 190.11068193 76.80648292 190.10064721 68.3252337 C190.07975598 50.8834551 190.04458925 33.44173378 190 16 C187.12374166 15.1906313 184.24679057 14.38388386 181.36938477 13.57861328 C180.56038979 13.35067581 179.75139481 13.12273834 178.91788483 12.88789368 C172.9664757 11.22544034 167.04181923 9.8563065 160.9375 8.875 C160.04345459 8.73023727 159.14940918 8.58547455 158.22827148 8.43632507 C138.74785371 5.35079662 119.7193129 3.52037146 99.9765625 3.66381836 C96.47372771 3.68767896 92.97164719 3.68430961 89.46875 3.67773438 C77.14276805 3.69346792 65.2003866 4.23203091 53 6 Z " fill="#F9F9F9" transform="translate(0,0)"/>
<path d="M0 0 C2.01902771 1.25712585 2.01902771 1.25712585 3.81811523 3.04174805 C4.50159531 3.70631516 5.18507538 4.37088226 5.88926697 5.05558777 C6.60514481 5.78361099 7.32102264 6.51163422 8.05859375 7.26171875 C8.80714127 8.00452591 9.55568878 8.74733307 10.32691956 9.51264954 C11.90331272 11.08496366 13.47216966 12.66486482 15.03393555 14.25170898 C17.43241071 16.68234248 19.86123882 19.07928689 22.29492188 21.47460938 C23.82224044 23.00589196 25.34769718 24.53903431 26.87109375 26.07421875 C27.6011412 26.79212082 28.33118866 27.51002289 29.08335876 28.24967957 C29.74477371 28.93000748 30.40618866 29.61033539 31.08764648 30.3112793 C31.96984108 31.20063423 31.96984108 31.20063423 32.86985779 32.10795593 C34 34 34 34 33.77015686 36.61799622 C32.51658326 40.49515062 29.97173674 42.28117703 27 45 C22.99482604 43.39626852 20.3228902 40.57886014 17.359375 37.5546875 C16.83232971 37.02481232 16.30528442 36.49493713 15.76226807 35.94900513 C14.08674325 34.26232175 12.41832278 32.56880436 10.75 30.875 C9.61244149 29.72740612 8.47442564 28.58026539 7.3359375 27.43359375 C4.55196535 24.62761863 1.7743424 21.81549536 -1 19 C-4.41059403 20.60535287 -6.61792484 22.40518901 -9.25 25.125 C-10.30960938 26.21167969 -10.30960938 26.21167969 -11.390625 27.3203125 C-11.92171875 27.87460937 -12.4528125 28.42890625 -13 29 C-11.496703 32.53697781 -9.45816654 34.75810017 -6.71801758 37.4296875 C-5.392033 38.73123779 -5.392033 38.73123779 -4.03926086 40.05908203 C-3.56739161 40.51784729 -3.09552235 40.97661255 -2.60935402 41.44927979 C-1.12922425 42.88989839 0.34318462 44.3379977 1.81355286 45.78857422 C5.99326414 49.91030667 10.18260324 54.022048 14.38647461 58.11914062 C16.9605226 60.62886473 19.52233033 63.15054063 22.07674599 65.68023682 C23.05259611 66.64180444 24.03310179 67.59867058 25.01823997 68.55072021 C26.3921261 69.87906426 27.74960482 71.22431572 29.10620117 72.5703125 C29.88404465 73.33102051 30.66188812 74.09172852 31.46330261 74.87548828 C33 77 33 77 32.84516907 79.15673828 C31.75573864 81.53271898 30.33264913 82.95822264 28.4375 84.75 C27.79683594 85.36359375 27.15617187 85.9771875 26.49609375 86.609375 C26.00238281 87.06828125 25.50867188 87.5271875 25 88 C18.81865131 82.89551178 13.20177122 77.31705058 7.5625 71.625 C6.64017578 70.69816406 5.71785156 69.77132812 4.76757812 68.81640625 C2.50941375 66.54654154 0.25363058 64.27436462 -2 62 C-5.41059403 63.60535287 -7.61792484 65.40518901 -10.25 68.125 C-11.30960938 69.21167969 -11.30960938 69.21167969 -12.390625 70.3203125 C-12.92171875 70.87460938 -13.4528125 71.42890625 -14 72 C-11.56621635 77.68665245 -6.74944818 81.57855128 -2.4375 85.875 C-1.13329102 87.20337891 -1.13329102 87.20337891 0.19726562 88.55859375 C4.84797524 93.21277146 9.41440364 97.28117951 15.03198242 100.72607422 C22.90032684 105.81936552 27.08680903 113.26042709 30 122 C30.94250013 131.14688647 29.12092616 139.31861075 24 147 C20.54798361 145.52278578 18.35038064 143.56205999 15.75 140.875 C15.04359375 140.15054688 14.3371875 139.42609375 13.609375 138.6796875 C12.81273438 137.84824219 12.81273438 137.84824219 12 137 C12.31839844 136.30519531 12.63679688 135.61039063 12.96484375 134.89453125 C14.83823422 129.65610733 14.85727833 124.46679797 14 119 C11.52420367 114.27547742 8.15469277 111.68426238 3.625 109 C-3.48521013 107.03856272 -9.10491341 107.36112155 -15.73828125 110.68359375 C-25.41143159 116.31373479 -31.28151742 123.38297508 -35 134 C-35.99225061 140.42655335 -34.75986898 145.70619674 -31 151 C-26.84969813 155.47211672 -22.86773749 157.08752551 -16.875 157.375 C-11.07394298 157.35569532 -6.97614616 154.80346263 -2 152 C1.3 155.3 4.6 158.6 8 162 C1.27956978 168.72043022 -5.55848821 172.2414204 -15.1875 172.5 C-26.05821343 171.94797158 -33.63551497 167.79073287 -41.015625 159.82421875 C-48.72402224 150.447828 -49.95638354 141.95978389 -49.20703125 130.02099609 C-48.00473905 118.28446915 -40.30196971 109.37761444 -31.6875 101.9296875 C-26.52471554 98.22268819 -20.76837325 95.62571755 -15 93 C-17.97 90.03 -20.94 87.06 -24 84 C-27.80266452 85.90133226 -29.54736902 87.36651872 -32.40625 90.38671875 C-33.23253906 91.24201172 -34.05882813 92.09730469 -34.91015625 92.97851562 C-36.64258124 94.79063739 -38.36912197 96.60840224 -40.08984375 98.43164062 C-40.91613281 99.28306641 -41.74242188 100.13449219 -42.59375 101.01171875 C-43.34333984 101.80022217 -44.09292969 102.58872559 -44.86523438 103.40112305 C-47 105 -47 105 -49.15307617 104.84008789 C-51.46015317 103.7906957 -52.99203904 102.51297272 -54.8125 100.75 C-55.43769531 100.16734375 -56.06289063 99.5846875 -56.70703125 98.984375 C-58 97 -58 97 -57.82887268 94.65242004 C-56.81433604 91.40586916 -55.4449368 89.96201218 -53.03100586 87.5769043 C-52.19020981 86.73641037 -51.34941376 85.89591644 -50.48313904 85.029953 C-49.11283287 83.69061455 -49.11283287 83.69061455 -47.71484375 82.32421875 C-46.78402481 81.3990596 -45.85320587 80.47390045 -44.8941803 79.52070618 C-42.42543803 77.06719977 -39.94491957 74.62594545 -37.46173096 72.18707275 C-34.92753232 69.69387104 -32.40468971 67.18923604 -29.88085938 64.68554688 C-24.93161028 59.77913236 -19.96982274 54.88557146 -15 50 C-16.76229689 46.22480438 -18.76875188 43.69270677 -22 41 C-26.04119447 41.17574986 -27.96939036 43.6927149 -30.625 46.5078125 C-31.49640625 47.41144531 -32.3678125 48.31507812 -33.265625 49.24609375 C-35.0924465 51.16947581 -36.91535394 53.09658283 -38.734375 55.02734375 C-39.60578125 55.92839844 -40.4771875 56.82945313 -41.375 57.7578125 C-42.16648437 58.5945752 -42.95796875 59.43133789 -43.7734375 60.29345703 C-46 62 -46 62 -48.16674805 61.8581543 C-50.46845772 60.78071263 -52.00077786 59.46870893 -53.8125 57.6875 C-54.43769531 57.09324219 -55.06289063 56.49898437 -55.70703125 55.88671875 C-57 54 -57 54 -56.86882019 52.19732666 C-55.64513513 49.10251391 -53.72734624 47.32232668 -51.3918457 44.95605469 C-50.91365891 44.46779205 -50.43547211 43.97952942 -49.9427948 43.47647095 C-48.36170107 41.86691013 -46.76955469 40.26887514 -45.17578125 38.671875 C-44.07034837 37.55680114 -42.96514219 36.4415025 -41.8601532 35.32598877 C-39.54271637 32.99059439 -37.21916617 30.66148044 -34.8918457 28.3359375 C-31.91165357 25.35605042 -28.95263907 22.3560565 -25.99854755 19.35032272 C-23.72252154 17.04093249 -21.43298126 14.74531548 -19.13942528 12.45334625 C-18.04257171 11.35295382 -16.9505767 10.24769603 -15.86361122 9.1375351 C-14.34133024 7.58583617 -12.8011767 6.05433532 -11.25512695 4.52636719 C-10.3832222 3.65018738 -9.51131744 2.77400757 -8.61299133 1.87127686 C-5.41425204 -0.41947961 -3.85503033 -0.62657735 0 0 Z " fill="#C70000" transform="translate(109,31)"/>
<path d="M0 0 C2.01902771 1.25712585 2.01902771 1.25712585 3.81811523 3.04174805 C4.50159531 3.70631516 5.18507538 4.37088226 5.88926697 5.05558777 C6.60514481 5.78361099 7.32102264 6.51163422 8.05859375 7.26171875 C8.80714127 8.00452591 9.55568878 8.74733307 10.32691956 9.51264954 C11.90331272 11.08496366 13.47216966 12.66486482 15.03393555 14.25170898 C17.43241071 16.68234248 19.86123882 19.07928689 22.29492188 21.47460938 C23.82224044 23.00589196 25.34769718 24.53903431 26.87109375 26.07421875 C27.6011412 26.79212082 28.33118866 27.51002289 29.08335876 28.24967957 C29.74477371 28.93000748 30.40618866 29.61033539 31.08764648 30.3112793 C31.96984108 31.20063423 31.96984108 31.20063423 32.86985779 32.10795593 C34 34 34 34 33.77015686 36.61799622 C32.51658326 40.49515062 29.97173674 42.28117703 27 45 C22.99482604 43.39626852 20.3228902 40.57886014 17.359375 37.5546875 C16.83232971 37.02481232 16.30528442 36.49493713 15.76226807 35.94900513 C14.08674325 34.26232175 12.41832278 32.56880436 10.75 30.875 C9.61244149 29.72740612 8.47442564 28.58026539 7.3359375 27.43359375 C4.55196535 24.62761863 1.7743424 21.81549536 -1 19 C-4.41059403 20.60535287 -6.61792484 22.40518901 -9.25 25.125 C-10.30960938 26.21167969 -10.30960938 26.21167969 -11.390625 27.3203125 C-11.92171875 27.87460937 -12.4528125 28.42890625 -13 29 C-11.496703 32.53697781 -9.45816654 34.75810017 -6.71801758 37.4296875 C-5.392033 38.73123779 -5.392033 38.73123779 -4.03926086 40.05908203 C-3.56739161 40.51784729 -3.09552235 40.97661255 -2.60935402 41.44927979 C-1.12922425 42.88989839 0.34318462 44.3379977 1.81355286 45.78857422 C5.99326414 49.91030667 10.18260324 54.022048 14.38647461 58.11914062 C16.9605226 60.62886473 19.52233033 63.15054063 22.07674599 65.68023682 C23.05259611 66.64180444 24.03310179 67.59867058 25.01823997 68.55072021 C26.3921261 69.87906426 27.74960482 71.22431572 29.10620117 72.5703125 C29.88404465 73.33102051 30.66188812 74.09172852 31.46330261 74.87548828 C33 77 33 77 32.84516907 79.15673828 C31.75573864 81.53271898 30.33264913 82.95822264 28.4375 84.75 C27.79683594 85.36359375 27.15617187 85.9771875 26.49609375 86.609375 C26.00238281 87.06828125 25.50867188 87.5271875 25 88 C18.81865131 82.89551178 13.20177122 77.31705058 7.5625 71.625 C6.64017578 70.69816406 5.71785156 69.77132812 4.76757812 68.81640625 C2.50941375 66.54654154 0.25363058 64.27436462 -2 62 C-5.41059403 63.60535287 -7.61792484 65.40518901 -10.25 68.125 C-11.30960938 69.21167969 -11.30960938 69.21167969 -12.390625 70.3203125 C-12.92171875 70.87460938 -13.4528125 71.42890625 -14 72 C-11.56621635 77.68665245 -6.74944818 81.57855128 -2.4375 85.875 C-1.13329102 87.20337891 -1.13329102 87.20337891 0.19726562 88.55859375 C4.84797524 93.21277146 9.41440364 97.28117951 15.03198242 100.72607422 C22.90032684 105.81936552 27.08680903 113.26042709 30 122 C30.94250013 131.14688647 29.12092616 139.31861075 24 147 C20.54798361 145.52278578 18.35038064 143.56205999 15.75 140.875 C15.04359375 140.15054688 14.3371875 139.42609375 13.609375 138.6796875 C12.81273438 137.84824219 12.81273438 137.84824219 12 137 C12.31839844 136.30519531 12.63679688 135.61039063 12.96484375 134.89453125 C14.83823422 129.65610733 14.85727833 124.46679797 14 119 C11.52420367 114.27547742 8.15469277 111.68426238 3.625 109 C-3.48521013 107.03856272 -9.10491341 107.36112155 -15.73828125 110.68359375 C-25.41143159 116.31373479 -31.28151742 123.38297508 -35 134 C-35.99225061 140.42655335 -34.75986898 145.70619674 -31 151 C-26.84969813 155.47211672 -22.86773749 157.08752551 -16.875 157.375 C-11.07394298 157.35569532 -6.97614616 154.80346263 -2 152 C1.3 155.3 4.6 158.6 8 162 C1.27956978 168.72043022 -5.55848821 172.2414204 -15.1875 172.5 C-26.05821343 171.94797158 -33.63551497 167.79073287 -41.015625 159.82421875 C-48.72402224 150.447828 -49.95638354 141.95978389 -49.20703125 130.02099609 C-48.00473905 118.28446915 -40.30196971 109.37761444 -31.6875 101.9296875 C-26.52471554 98.22268819 -20.76837325 95.62571755 -15 93 C-17.97 90.03 -20.94 87.06 -24 84 C-27.80266452 85.90133226 -29.54736902 87.36651872 -32.40625 90.38671875 C-33.23253906 91.24201172 -34.05882813 92.09730469 -34.91015625 92.97851562 C-36.64258124 94.79063739 -38.36912197 96.60840224 -40.08984375 98.43164062 C-40.91613281 99.28306641 -41.74242188 100.13449219 -42.59375 101.01171875 C-43.34333984 101.80022217 -44.09292969 102.58872559 -44.86523438 103.40112305 C-47 105 -47 105 -49.15307617 104.84008789 C-51.46015317 103.7906957 -52.99203904 102.51297272 -54.8125 100.75 C-55.43769531 100.16734375 -56.06289063 99.5846875 -56.70703125 98.984375 C-58 97 -58 97 -57.82887268 94.65242004 C-56.81433604 91.40586916 -55.4449368 89.96201218 -53.03100586 87.5769043 C-52.19020981 86.73641037 -51.34941376 85.89591644 -50.48313904 85.029953 C-49.11283287 83.69061455 -49.11283287 83.69061455 -47.71484375 82.32421875 C-46.78402481 81.3990596 -45.85320587 80.47390045 -44.8941803 79.52070618 C-42.42543803 77.06719977 -39.94491957 74.62594545 -37.46173096 72.18707275 C-34.92753232 69.69387104 -32.40468971 67.18923604 -29.88085938 64.68554688 C-24.93161028 59.77913236 -19.96982274 54.88557146 -15 50 C-16.76229689 46.22480438 -18.76875188 43.69270677 -22 41 C-26.04119447 41.17574986 -27.96939036 43.6927149 -30.625 46.5078125 C-31.49640625 47.41144531 -32.3678125 48.31507812 -33.265625 49.24609375 C-35.0924465 51.16947581 -36.91535394 53.09658283 -38.734375 55.02734375 C-39.60578125 55.92839844 -40.4771875 56.82945313 -41.375 57.7578125 C-42.16648437 58.5945752 -42.95796875 59.43133789 -43.7734375 60.29345703 C-46 62 -46 62 -48.16674805 61.8581543 C-50.46845772 60.78071263 -52.00077786 59.46870893 -53.8125 57.6875 C-54.43769531 57.09324219 -55.06289063 56.49898437 -55.70703125 55.88671875 C-57 54 -57 54 -56.86882019 52.19732666 C-55.64513513 49.10251391 -53.72734624 47.32232668 -51.3918457 44.95605469 C-50.91365891 44.46779205 -50.43547211 43.97952942 -49.9427948 43.47647095 C-48.36170107 41.86691013 -46.76955469 40.26887514 -45.17578125 38.671875 C-44.07034837 37.55680114 -42.96514219 36.4415025 -41.8601532 35.32598877 C-39.54271637 32.99059439 -37.21916617 30.66148044 -34.8918457 28.3359375 C-31.91165357 25.35605042 -28.95263907 22.3560565 -25.99854755 19.35032272 C-23.72252154 17.04093249 -21.43298126 14.74531548 -19.13942528 12.45334625 C-18.04257171 11.35295382 -16.9505767 10.24769603 -15.86361122 9.1375351 C-14.34133024 7.58583617 -12.8011767 6.05433532 -11.25512695 4.52636719 C-10.3832222 3.65018738 -9.51131744 2.77400757 -8.61299133 1.87127686 C-5.41425204 -0.41947961 -3.85503033 -0.62657735 0 0 Z M-6.41717529 2.81590271 C-7.76286591 4.17824791 -7.76286591 4.17824791 -9.13574219 5.56811523 C-9.63375839 6.06540131 -10.1317746 6.56268738 -10.6448822 7.07504272 C-12.29100409 8.72465306 -13.91870595 10.39127695 -15.546875 12.05859375 C-16.68349802 13.20454038 -17.82122873 14.34938933 -18.96002197 15.49317932 C-21.95662912 18.50889161 -24.93792164 21.53931607 -27.9163208 24.57299805 C-30.95728007 27.66507353 -34.01241522 30.74307035 -37.06640625 33.82226562 C-43.05827442 39.86778353 -49.03404461 45.92890945 -55 52 C-54.09827532 53.17825358 -53.17798498 54.34231577 -52.25 55.5 C-51.73953125 56.1496875 -51.2290625 56.799375 -50.703125 57.46875 C-48.88595704 59.44572515 -48.88595704 59.44572515 -45 59 C-42.49223458 57.04705948 -42.49223458 57.04705948 -40.015625 54.40625 C-39.32493927 53.70707458 -39.32493927 53.70707458 -38.62030029 52.99377441 C-37.15387258 51.5049818 -35.70197017 50.00288278 -34.25 48.5 C-33.25743702 47.48737217 -32.2639575 46.47564185 -31.26953125 45.46484375 C-28.83563843 42.98688309 -26.41458252 40.49679722 -24 38 C-20.58940597 39.60535287 -18.38207516 41.40518901 -15.75 44.125 C-15.04359375 44.84945312 -14.3371875 45.57390625 -13.609375 46.3203125 C-13.07828125 46.87460938 -12.5471875 47.42890625 -12 48 C-13.48343 51.44677 -15.43050188 53.67343301 -18.08251953 56.30957031 C-18.92324005 57.15013977 -19.76396057 57.99070923 -20.63015747 58.85675049 C-21.53853363 59.75480408 -22.44690979 60.65285767 -23.3828125 61.578125 C-24.31221649 62.5046991 -25.24162048 63.43127319 -26.19918823 64.38592529 C-28.6640385 66.84315789 -31.13483666 69.29432361 -33.60693359 71.7442627 C-36.13090765 74.24773809 -38.64919388 76.75692063 -41.16796875 79.265625 C-46.10643597 84.18267525 -51.051212 89.09333788 -56 94 C-54.38617243 97.40212299 -52.41396234 100.10324519 -50 103 C-46.33247995 101.4608199 -44.01419427 99.24514548 -41.234375 96.4296875 C-40.34492187 95.53378906 -39.45546875 94.63789062 -38.5390625 93.71484375 C-37.15847656 92.30912109 -37.15847656 92.30912109 -35.75 90.875 C-34.80515144 89.92011363 -33.85984367 88.96568141 -32.9140625 88.01171875 C-30.60481662 85.67890913 -28.30036797 83.34155914 -26 81 C-21.99625569 82.83692389 -19.28042066 85.49117916 -16.25 88.625 C-15.74339844 89.140625 -15.23679688 89.65625 -14.71484375 90.1875 C-13.47196098 91.45383339 -12.23534724 92.7263144 -11 94 C-11.92619141 94.34611328 -11.92619141 94.34611328 -12.87109375 94.69921875 C-28.48470928 100.71176781 -38.57240476 108.66931938 -45.72265625 123.99609375 C-49.14394155 132.04186867 -49.15287991 139.9158465 -46.0625 148.125 C-41.59770221 157.72117102 -34.73016608 164.79922549 -25 169 C-17.04853148 171.65048951 -8.65872086 170.48554156 -1.12109375 167.16796875 C1.11110575 165.93882022 3.07055022 164.66693961 5 163 C5 162.34 5 161.68 5 161 C3.44294806 159.42159428 3.44294806 159.42159428 1.5 157.875 C0.8503125 157.33617187 0.200625 156.79734375 -0.46875 156.2421875 C-0.9740625 155.83226562 -1.479375 155.42234375 -2 155 C-3.0828125 155.433125 -3.0828125 155.433125 -4.1875 155.875 C-5.115625 156.24625 -6.04375 156.6175 -7 157 C-7.7734375 157.34417969 -8.546875 157.68835938 -9.34375 158.04296875 C-14.49948595 159.90055009 -20.20465907 160.08191767 -25.3515625 158.08984375 C-30.84303433 154.89162701 -33.76329857 150.90624836 -36.25 145.0625 C-38.41860869 136.20734786 -35.53786681 129.46314508 -31.1875 121.8125 C-25.41692283 114.3931865 -18.53247482 107.88366269 -9 106 C-2.25566281 105.41859162 3.08315398 106.62601256 9 110 C13.16589663 113.54015496 16.02069352 117.55940847 17 123 C16.85615747 127.04916733 16.44611502 130.82894808 15 134.625 C15 137.84907861 16.20445494 138.56148275 18.4375 140.8125 C19.61144579 141.88995709 20.79505926 142.95732061 22 144 C25.97125297 140.42587232 27.66483597 137.40093465 28.40625 132.08984375 C28.72722602 121.2970252 25.13784418 113.07002532 18 105 C15.72161987 103.19255232 15.72161987 103.19255232 13.25 101.625 C4.90836987 96.16257769 -2.01791366 89.1232407 -9 82.0625 C-10.16208984 80.89364258 -10.16208984 80.89364258 -11.34765625 79.70117188 C-13.23410757 77.8030758 -15.11816245 75.90266851 -17 74 C-15.16307611 69.99625569 -12.50882084 67.28042066 -9.375 64.25 C-8.859375 63.74339844 -8.34375 63.23679688 -7.8125 62.71484375 C-6.54616661 61.47196098 -5.2736856 60.23534724 -4 59 C0.00517396 60.60373148 2.6771098 63.42113986 5.640625 66.4453125 C6.16767029 66.97518768 6.69471558 67.50506287 7.23773193 68.05099487 C8.91325675 69.73767825 10.58167722 71.43119564 12.25 73.125 C13.38755851 74.27259388 14.52557436 75.41973461 15.6640625 76.56640625 C18.44803465 79.37238137 21.2256576 82.18450464 24 85 C26.31 83.02 28.62 81.04 31 79 C26.13899546 73.13629916 20.88993778 67.77540514 15.48046875 62.41796875 C14.58129227 61.52257889 13.68211578 60.62718903 12.75569153 59.70466614 C9.90204124 56.86317138 7.04526527 54.02485438 4.1875 51.1875 C0.40716482 47.43398466 -3.36959849 43.67691945 -7.14453125 39.91796875 C-8.01737259 39.05342575 -8.89021393 38.18888275 -9.789505 37.29814148 C-10.59091415 36.50003555 -11.3923233 35.70192963 -12.21801758 34.87963867 C-12.92606033 34.17683273 -13.63410309 33.47402679 -14.36360168 32.74992371 C-16 31 -16 31 -17 29 C-16.45859375 28.78601563 -15.9171875 28.57203125 -15.359375 28.3515625 C-12.1607203 26.51922057 -9.79035516 24.00203394 -7.25 21.375 C-6.74339844 20.859375 -6.23679688 20.34375 -5.71484375 19.8125 C-4.47196098 18.54616661 -3.23534724 17.2736856 -2 16 C4.18134869 21.10448822 9.79822878 26.68294942 15.4375 32.375 C16.35982422 33.30183594 17.28214844 34.22867188 18.23242188 35.18359375 C20.49058625 37.45345846 22.74636942 39.72563538 25 42 C28.96862941 40.10462441 28.96862941 40.10462441 32 37 C31.57447861 33.70370119 30.41659357 32.03869854 28.10424805 29.71606445 C27.49659103 29.09895096 26.88893402 28.48183746 26.26286316 27.84602356 C25.27229668 26.86456612 25.27229668 26.86456612 24.26171875 25.86328125 C23.584543 25.18323532 22.90736725 24.50318939 22.20967102 23.80253601 C20.77668847 22.36751301 19.33991452 20.93626749 17.8996582 19.50854492 C15.69583572 17.32077501 13.50845141 15.11748734 11.32226562 12.91210938 C9.92804423 11.51987041 8.53289249 10.12856235 7.13671875 8.73828125 C6.48241379 8.07790359 5.82810883 7.41752594 5.15397644 6.73713684 C4.53686295 6.12947983 3.91974945 5.52182281 3.28393555 4.89575195 C2.47571602 4.09111259 2.47571602 4.09111259 1.65116882 3.2702179 C-1.59816696 0.77055559 -2.99655501 0.24616204 -6.41717529 2.81590271 Z " fill="#170909" transform="translate(109,31)"/>
<path d="M0 0 C2.01229858 1.27058411 2.01229858 1.27058411 3.80224609 3.07348633 C4.48249847 3.74450882 5.16275085 4.41553131 5.86361694 5.10688782 C6.93272812 6.20833382 6.93272812 6.20833382 8.0234375 7.33203125 C9.14270126 8.45335701 9.14270126 8.45335701 10.28457642 9.59733582 C11.85652991 11.17834317 13.42119465 12.76662638 14.97900391 14.36157227 C17.37129502 16.80871008 19.78680874 19.23090554 22.20703125 21.65039062 C23.73059153 23.18869426 25.25277563 24.72836238 26.7734375 26.26953125 C27.49832367 26.99775589 28.22320984 27.72598053 28.97006226 28.47627258 C29.63140167 29.15675156 30.29274109 29.83723053 30.97412109 30.53833008 C31.56003021 31.13567459 32.14593933 31.7330191 32.74960327 32.34846497 C34 34 34 34 34 37 C33.34 37 32.68 37 32 37 C31.59773193 36.31518555 31.19546387 35.63037109 30.78100586 34.92480469 C28.48454675 31.153512 25.61653837 28.31107818 22.50390625 25.203125 C21.87395248 24.56888611 21.24399872 23.93464722 20.59495544 23.28118896 C19.26694122 21.94745085 17.93632425 20.61629983 16.60327148 19.28759766 C14.56407564 17.25157319 12.53859251 15.20255441 10.51367188 13.15234375 C9.21956094 11.85596081 7.9246655 10.56036042 6.62890625 9.265625 C6.02462296 8.65213196 5.42033966 8.03863892 4.79774475 7.40655518 C4.22712814 6.84216736 3.65651154 6.27777954 3.06860352 5.69628906 C2.57135269 5.19840881 2.07410187 4.70052856 1.56178284 4.18756104 C-0.42408477 2.677531 -1.47857989 2.06140348 -4 2 C-6.53768944 3.80407095 -6.53768944 3.80407095 -9.04394531 6.47631836 C-9.53220795 6.96385086 -10.02047058 7.45138336 -10.52352905 7.95368958 C-12.13719107 9.57083977 -13.73241937 11.20498852 -15.328125 12.83984375 C-16.44232765 13.96337011 -17.55763815 15.08579881 -18.67401123 16.20716858 C-21.61143786 19.16369954 -24.53354374 22.1349366 -27.45275879 25.10943604 C-30.43339326 28.14118849 -33.42820617 31.15886168 -36.421875 34.17773438 C-42.29525709 40.10476477 -48.15253607 46.04739844 -54 52 C-52.02 54.31 -50.04 56.62 -48 59 C-44.2345098 57.1172549 -42.35356586 55.58807351 -39.453125 52.6484375 C-38.60878906 51.79765625 -37.76445313 50.946875 -36.89453125 50.0703125 C-36.02183594 49.18085937 -35.14914063 48.29140625 -34.25 47.375 C-33.36183594 46.4778125 -32.47367188 45.580625 -31.55859375 44.65625 C-29.36783031 42.44192996 -27.18187237 40.22307565 -25 38 C-25 42.92580211 -28.96641182 45.4373557 -32.26953125 48.77734375 C-33.00357178 49.50800049 -33.00357178 49.50800049 -33.75244141 50.25341797 C-35.24462824 51.74463175 -36.71423018 53.25586527 -38.18359375 54.76953125 C-39.1263004 55.71744423 -40.07027025 56.66410296 -41.015625 57.609375 C-41.87446289 58.47530273 -42.73330078 59.34123047 -43.61816406 60.23339844 C-46 62 -46 62 -48.18920898 61.86743164 C-50.46805982 60.77578313 -52.01089489 59.45876228 -53.8125 57.6875 C-54.43769531 57.09324219 -55.06289063 56.49898437 -55.70703125 55.88671875 C-57 54 -57 54 -56.86882019 52.19732666 C-55.64513513 49.10251391 -53.72734624 47.32232668 -51.3918457 44.95605469 C-50.91365891 44.46779205 -50.43547211 43.97952942 -49.9427948 43.47647095 C-48.36170107 41.86691013 -46.76955469 40.26887514 -45.17578125 38.671875 C-44.07034837 37.55680114 -42.96514219 36.4415025 -41.8601532 35.32598877 C-39.54271637 32.99059439 -37.21916617 30.66148044 -34.8918457 28.3359375 C-31.91165357 25.35605042 -28.95263907 22.3560565 -25.99854755 19.35032272 C-23.72252154 17.04093249 -21.43298126 14.74531548 -19.13942528 12.45334625 C-18.04257171 11.35295382 -16.9505767 10.24769603 -15.86361122 9.1375351 C-14.34133024 7.58583617 -12.8011767 6.05433532 -11.25512695 4.52636719 C-10.3832222 3.65018738 -9.51131744 2.77400757 -8.61299133 1.87127686 C-5.41428738 -0.4194543 -3.85490182 -0.62939855 0 0 Z M-24 37 C-22 38 -22 38 -22 38 Z " fill="#0F0000" transform="translate(109,31)"/>
<path d="M0 0 C4.10447392 0.51776621 5.95699523 2.64627444 8.75 5.5625 C9.54921875 6.38878906 10.3484375 7.21507813 11.171875 8.06640625 C11.77515625 8.70449219 12.3784375 9.34257813 13 10 C11.51657 13.44677 9.56949812 15.67343301 6.91748047 18.30957031 C6.07675995 19.15013977 5.23603943 19.99070923 4.36984253 20.85675049 C3.46146637 21.75480408 2.55309021 22.65285767 1.6171875 23.578125 C0.68778351 24.5046991 -0.24162048 25.43127319 -1.19918823 26.38592529 C-3.6640385 28.84315789 -6.13483666 31.29432361 -8.60693359 33.7442627 C-11.13090765 36.24773809 -13.64919388 38.75692063 -16.16796875 41.265625 C-21.10643597 46.18267525 -26.051212 51.09333788 -31 56 C-29.38617243 59.40212299 -27.41396234 62.10324519 -25 65 C-28.45665176 65 -28.86186799 64.61368545 -31.25 62.3125 C-31.79140625 61.81363281 -32.3328125 61.31476563 -32.890625 60.80078125 C-34 59 -34 59 -33.81739807 56.66389465 C-32.81622321 53.40107271 -31.45269991 51.9696826 -29.03100586 49.5769043 C-28.19020981 48.73641037 -27.34941376 47.89591644 -26.48313904 47.029953 C-25.56960159 46.1370607 -24.65606415 45.2441684 -23.71484375 44.32421875 C-22.31861534 42.93648003 -22.31861534 42.93648003 -20.8941803 41.52070618 C-18.42543803 39.06719977 -15.94491957 36.62594545 -13.46173096 34.18707275 C-10.92753232 31.69387104 -8.40468971 29.18923604 -5.88085938 26.68554688 C-0.93161028 21.77913236 4.03017726 16.88557146 9 12 C7.50551812 8.82044277 6.14898874 7.05537798 3.375 4.875 C1.4609375 3.3671875 1.4609375 3.3671875 0 2 C0 1.34 0 0.68 0 0 Z " fill="#1A0909" transform="translate(85,69)"/>
<path d="M0 0 C3.20815804 1.60407902 4.66358318 2.41713934 7.015625 4.8203125 C7.54414062 5.35527344 8.07265625 5.89023438 8.6171875 6.44140625 C9.15601563 6.99699219 9.69484375 7.55257812 10.25 8.125 C11.08144531 8.96998047 11.08144531 8.96998047 11.9296875 9.83203125 C13.29104485 11.21686028 14.64614859 12.60783204 16 14 C15.34 14.66 14.68 15.32 14 16 C11.375 15.625 11.375 15.625 9 15 C9.66 14.34 10.32 13.68 11 13 C8.03 10.03 5.06 7.06 2 4 C-1.7654902 5.8827451 -3.64643414 7.41192649 -6.546875 10.3515625 C-7.39121094 11.20234375 -8.23554687 12.053125 -9.10546875 12.9296875 C-10.41451172 14.26386719 -10.41451172 14.26386719 -11.75 15.625 C-12.63816406 16.5221875 -13.52632812 17.419375 -14.44140625 18.34375 C-16.63216969 20.55807004 -18.81812763 22.77692435 -21 25 C-21.99 24.67 -22.98 24.34 -24 24 C-16.08 16.08 -8.16 8.16 0 0 Z " fill="#222121" transform="translate(83,111)"/>
<path d="M0 0 C2 1 2 1 2 1 Z M-1 1 C-0.01 1.66 0.98 2.32 2 3 C1.46890625 3.45890625 0.9378125 3.9178125 0.390625 4.390625 C-3.18324699 7.49493717 -6.71854059 10.58181312 -10 14 C-8.4608199 17.66752005 -6.24514548 19.98580573 -3.4296875 22.765625 C-2.53378906 23.65507813 -1.63789062 24.54453125 -0.71484375 25.4609375 C0.69087891 26.84152344 0.69087891 26.84152344 2.125 28.25 C3.07988637 29.19484856 4.03431859 30.14015633 4.98828125 31.0859375 C7.32109087 33.39518338 9.65844086 35.69963203 12 38 C10.515 38.495 10.515 38.495 9 39 C1.41 31.41 -6.18 23.82 -14 16 C-11.96986589 11.93973179 -9.57604446 9.34542624 -6.375 6.25 C-5.859375 5.74339844 -5.34375 5.23679687 -4.8125 4.71484375 C-3.54616661 3.47196098 -2.2736856 2.23534724 -1 1 Z " fill="#242424" transform="translate(105,89)"/>
<path d="M0 0 C3.90851199 1.58431453 6.52367356 4.26635095 9.421875 7.2265625 C9.92672424 7.73424164 10.43157349 8.24192078 10.95172119 8.76498413 C12.55592096 10.38033842 14.15300856 12.00252209 15.75 13.625 C16.83938107 14.72441698 17.9292199 15.82338059 19.01953125 16.921875 C21.68501885 19.6093602 24.34415143 22.30299021 27 25 C29.46800047 23.84826645 31.04783565 22.95216435 33 21 C33.99 21.33 34.98 21.66 36 22 C33.69 24.31 31.38 26.62 29 29 C25.03220787 27.01610394 22.45896436 24.749343 19.39453125 21.66015625 C18.86985764 21.13739609 18.34518402 20.61463593 17.80461121 20.07603455 C16.70036991 18.97315058 15.59863563 17.8677515 14.49926758 16.76000977 C12.81484308 15.064858 11.11999487 13.38065892 9.42382812 11.69726562 C8.35092046 10.6230367 7.27863317 9.54818773 6.20703125 8.47265625 C5.69977005 7.96944351 5.19250885 7.46623077 4.6698761 6.94776917 C2.38424908 4.63132083 1.04490817 3.1347245 0 0 Z " fill="#202020" transform="translate(107,47)"/>
<path d="M0 0 C7.9858184 0.72069977 12.54490721 6.07822406 17.6484375 11.87109375 C21.64590271 17.11625265 24.62982693 23.28184611 24 30 C23.34 30 22.68 30 22 30 C21.84144531 29.3709375 21.68289062 28.741875 21.51953125 28.09375 C20.06283807 22.749859 18.31108974 18.36826223 15.18359375 13.7890625 C14 12 14 12 13.09765625 9.8984375 C11.71322982 7.50402027 10.51659703 7.07001297 8 6 C6.57260711 5.16388117 5.15571885 4.30956632 3.75 3.4375 C3.04359375 3.00308594 2.3371875 2.56867188 1.609375 2.12109375 C1.07828125 1.75113281 0.5471875 1.38117188 0 1 C0 0.67 0 0.34 0 0 Z " fill="#1D1818" transform="translate(115,128)"/>
<path d="M0 0 C2 1 2 1 2 1 Z M-1 1 C-0.01 1.66 0.98 2.32 2 3 C1.46890625 3.45890625 0.9378125 3.9178125 0.390625 4.390625 C-3.18324699 7.49493717 -6.71854059 10.58181312 -10 14 C-10.99 13.67 -11.98 13.34 -13 13 C-9.04 9.04 -5.08 5.08 -1 1 Z " fill="#1E1D1D" transform="translate(105,89)"/>
<path d="M0 0 C5.23589631 0.4222497 7.61710401 1.95695114 11.375 5.5625 C12.24898437 6.38878906 13.12296875 7.21507812 14.0234375 8.06640625 C14.67570313 8.70449219 15.32796875 9.34257812 16 10 C15.34 10.66 14.68 11.32 14 12 C13.7525 11.38125 13.505 10.7625 13.25 10.125 C11.74063344 7.55907686 10.65467684 7.24675002 8 6 C6.57260711 5.16388117 5.15571885 4.30956632 3.75 3.4375 C3.04359375 3.00308594 2.3371875 2.56867188 1.609375 2.12109375 C1.07828125 1.75113281 0.5471875 1.38117188 0 1 C0 0.67 0 0.34 0 0 Z " fill="#180101" transform="translate(115,128)"/>
<path d="M0 0 C0.99 0.33 1.98 0.66 3 1 C3.2236337 2.41433206 3.42826476 3.83167618 3.625 5.25 C3.74101563 6.03890625 3.85703125 6.8278125 3.9765625 7.640625 C4.00319395 10.32152459 3.36592084 11.72694089 2 14 C0.12175109 12.12175109 0.60897603 8.96064724 0.4375 6.4375 C0.35371094 5.23996094 0.26992187 4.04242188 0.18359375 2.80859375 C0.12300781 1.88175781 0.06242187 0.95492187 0 0 Z " fill="#311C1C" transform="translate(123,149)"/>
<path d="M0 0 C2 0 2 0 3.76171875 1.64453125 C4.39722656 2.35996094 5.03273438 3.07539062 5.6875 3.8125 C6.65236328 4.87404297 6.65236328 4.87404297 7.63671875 5.95703125 C8.08660156 6.63121094 8.53648438 7.30539063 9 8 C8.67 8.99 8.34 9.98 8 11 C6.65772182 9.73861805 5.32641323 8.46555441 4 7.1875 C3.2575 6.47980469 2.515 5.77210937 1.75 5.04296875 C0 3 0 3 0 0 Z " fill="#232020" transform="translate(52,82)"/>
<path d="M0 0 C0.66 0.33 1.32 0.66 2 1 C1.27683594 1.81404297 1.27683594 1.81404297 0.5390625 2.64453125 C-0.09257813 3.35996094 -0.72421875 4.07539063 -1.375 4.8125 C-2.31472656 5.87404297 -2.31472656 5.87404297 -3.2734375 6.95703125 C-5.140599 9.08803819 -5.140599 9.08803819 -7 12 C-7.66 11.67 -8.32 11.34 -9 11 C-6.36113346 6.7973607 -3.63559661 3.43361902 0 0 Z " fill="#0C0505" transform="translate(84,145)"/>
<path d="M0 0 C0.66 0 1.32 0 2 0 C3.7265625 1.96875 3.7265625 1.96875 5.625 4.5 C6.25664063 5.3353125 6.88828125 6.170625 7.5390625 7.03125 C8.02117188 7.6809375 8.50328125 8.330625 9 9 C6 9 6 9 4.39453125 7.79296875 C3.87246094 7.26316406 3.35039063 6.73335937 2.8125 6.1875 C2.01779297 5.40439453 2.01779297 5.40439453 1.20703125 4.60546875 C0 3 0 3 0 0 Z " fill="#190000" transform="translate(51,125)"/>
<path d="M0 0 C3.94139078 1.66751148 6.7892812 4.22710649 10 7 C9.67 7.66 9.34 8.32 9 9 C1.33257403 3.9977221 1.33257403 3.9977221 0 0 Z " fill="#100303" transform="translate(75,181)"/>
<path d="M0 0 C0.66 0 1.32 0 2 0 C1.39009109 3.55780196 0.4216319 6.6828589 -1 10 C-1.66 9.67 -2.32 9.34 -3 9 C-2.01 6.03 -1.02 3.06 0 0 Z " fill="#231818" transform="translate(64,148)"/>
<path d="M0 0 C4.7517398 0.43197635 6.92000054 1.32769295 10 5 C5.59885603 4.49701212 3.28804981 2.91227269 0 0 Z " fill="#140D0D" transform="translate(115,128)"/>
<path d="M0 0 C0.99 0.33 1.98 0.66 3 1 C1.37660195 2.70884005 -0.29319053 4.37446717 -2 6 C-2.66 6 -3.32 6 -4 6 C-2.84826645 3.53199953 -1.95216435 1.95216435 0 0 Z " fill="#1D1818" transform="translate(140,68)"/>
</svg>
