<?xml version="1.0" encoding="UTF-8"?>
<svg version="1.1" xmlns="http://www.w3.org/2000/svg" width="225" height="225">
<path d="M0 0 C74.25 0 148.5 0 225 0 C225 74.25 225 148.5 225 225 C150.75 225 76.5 225 0 225 C0 150.75 0 76.5 0 0 Z " fill="#F7F9FB" transform="translate(0,0)"/>
<path d="M0 0 C33.99 0 67.98 0 103 0 C103 74.25 103 148.5 103 225 C69.01 225 35.02 225 0 225 C0 224.67 0 224.34 0 224 C0.969375 223.84144531 1.93875 223.68289062 2.9375 223.51953125 C33.63329841 218.27784167 61.47120244 205.09372967 80.26782227 179.39379883 C98.84736978 152.97345861 105.28963438 121.00239583 100.234375 89.12109375 C96.3427751 70.13871375 86.54516743 52.57410299 74 38 C73.55575684 37.48260254 73.11151367 36.96520508 72.65380859 36.43212891 C54.33197582 15.61593605 27.1242464 4.16056436 0 1 C0 0.67 0 0.34 0 0 Z " fill="#FCFDFE" transform="translate(122,0)"/>
<path d="M0 0 C34.65 0 69.3 0 105 0 C105 0.33 105 0.66 105 1 C103.09541016 1.23783203 103.09541016 1.23783203 101.15234375 1.48046875 C76.6222561 4.72128592 55.68899175 13.59548839 37 30 C36.18402344 30.71542969 35.36804687 31.43085938 34.52734375 32.16796875 C15.96877669 49.61367641 2.75019015 75.63694909 1.89086914 101.25317383 C1.82939878 105.08601686 1.81438648 108.91667991 1.8125 112.75 C1.80025391 114.04421875 1.78800781 115.3384375 1.77539062 116.671875 C1.75804523 128.14296481 3.01019168 138.57811677 7.125 149.3125 C7.43139404 150.12154785 7.73778809 150.9305957 8.0534668 151.76416016 C19.60384153 181.43843602 40.89060015 203.19707973 70.04296875 216.0546875 C81.22613792 220.65650247 92.9850823 223.03893304 105 224 C105 224.33 105 224.66 105 225 C70.35 225 35.7 225 0 225 C0 150.75 0 76.5 0 0 Z " fill="#FCFDFE" transform="translate(0,0)"/>
<path d="M0 0 C5.92607198 1.41407055 9.65633693 4.64955544 14.1875 8.5 C15.59683521 9.67806624 17.00696028 10.85518838 18.41796875 12.03125 C19.34258911 12.81338867 19.34258911 12.81338867 20.28588867 13.61132812 C22.16100316 15.17432721 22.16100316 15.17432721 25 17 C25.33 15.68 25.66 14.36 26 13 C30.80105214 11.77273718 35.51698488 11.81628793 40.4375 11.8125 C41.27087891 11.80025391 42.10425781 11.78800781 42.96289062 11.77539062 C47.71699654 11.76411607 51.53191689 12.16191053 56 14 C56 14.99 56 15.98 56 17 C56.49628906 16.56429687 56.99257812 16.12859375 57.50390625 15.6796875 C58.92852694 14.43077904 60.35578944 13.18488001 61.78515625 11.94140625 C63.13874237 10.75492952 64.48256467 9.55704107 65.80859375 8.33984375 C70.40243649 4.19159315 75.58782524 0 82 0 C83.5121867 3.02437339 83.17263369 5.66241534 83 9 C82.69835937 9.5671875 82.39671875 10.134375 82.0859375 10.71875 C80.50673065 14.03622051 80.04506082 17.53106878 79.4375 21.125 C78.11993243 28.76013514 78.11993243 28.76013514 77 31 C76.43347569 35.72722742 76.35151251 39.00700352 79 43.0625 C79.99 44.0215625 79.99 44.0215625 81 45 C80.34 45.99 79.68 46.98 79 48 C78.773125 48.94875 78.54625 49.8975 78.3125 50.875 C76.51969522 55.14358281 73.86648313 56.6601969 70 59 C69.030625 59.598125 68.06125 60.19625 67.0625 60.8125 C66.381875 61.204375 65.70125 61.59625 65 62 C67.02450921 62 69.02400526 61.40533225 71 61 C71 63.125 71 63.125 70 66 C68.17527688 67.53349549 66.23435032 68.82695951 64.26953125 70.17578125 C60.78600791 72.97579054 58.31118549 76.44823952 55.6640625 80.0234375 C54.84035156 81.00183594 54.84035156 81.00183594 54 82 C53.34 82 52.68 82 52 82 C51.71125 81.195625 51.4225 80.39125 51.125 79.5625 C50.26737432 76.8673532 50.26737432 76.8673532 48 76 C48 74.35 48 72.7 48 71 C48.99 71.99 49.98 72.98 51 74 C50.83628906 73.46890625 50.67257813 72.9378125 50.50390625 72.390625 C49.88643623 69.46123236 49.90498075 66.74177064 49.9375 63.75 C49.94652344 62.67234375 49.95554688 61.5946875 49.96484375 60.484375 C49.97644531 59.66453125 49.98804688 58.8446875 50 58 C49.34 60.97 48.68 63.94 48 67 C45.55864712 63.33797068 45 61.41214305 45 57 C46.68815634 54.04701704 48.73399634 51.52872873 51 49 C51.66 50.32 52.32 51.64 53 53 C52.67 53.33 52.34 53.66 52 54 C55.40080577 53.89592083 55.40080577 53.89592083 59 53 C60.78969026 50.57327433 60.78969026 50.57327433 62 48 C62.99 47.67 63.98 47.34 65 47 C56.24774597 46.07045074 56.24774597 46.07045074 47.890625 47.99609375 C43.6739096 52.77090384 44.35651338 60.00767416 44.625 66.01953125 C45.09163868 70.97270643 46.13996921 75.39420948 48 80 C48.66 80 49.32 80 50 80 C51.52491998 83.04983996 51.23562548 85.6423369 51 89 C49.9375 90.9375 49.9375 90.9375 48 92 C44.3125 92.1875 44.3125 92.1875 41 92 C41 91.01 41 90.02 41 89 C41.639375 88.525625 42.27875 88.05125 42.9375 87.5625 C45.44315448 86.00341733 45.44315448 86.00341733 46 82 C42.7 82 39.4 82 36 82 C36.27034634 84.43717258 36.27034634 84.43717258 37 87 C37.99 87.66 38.98 88.32 40 89 C40 89.99 40 90.98 40 92 C34.6 92.36 34.6 92.36 32.125 90.875 C30.50969474 88.18282457 30.73800273 86.07846795 31 83 C31.33 82.34 31.66 81.68 32 81 C32.99 81 33.98 81 35 81 C35.185625 79.6696875 35.185625 79.6696875 35.375 78.3125 C35.7282736 75.80886538 36.11043256 73.31295771 36.51171875 70.81640625 C36.69347656 69.68074219 36.87523437 68.54507813 37.0625 67.375 C37.23910156 66.28960937 37.41570312 65.20421875 37.59765625 64.0859375 C37.95547289 61.34151863 38.0770065 58.76196647 38 56 C37.01 55.505 37.01 55.505 36 55 C36.18175781 55.70253906 36.36351562 56.40507813 36.55078125 57.12890625 C37.61429818 63.92616663 35.46276568 71.66717396 33 78 C32.34 78 31.68 78 31 78 C30.505 79.98 30.505 79.98 30 82 C23.55049327 76.72807175 23.55049327 76.72807175 21.0625 73.4375 C18.59291538 70.5189 15.96375285 69.07759959 12.609375 67.30859375 C12.07828125 66.87675781 11.5471875 66.44492188 11 66 C11 64.68 11 63.36 11 62 C13.64 62.66 16.28 63.32 19 64 C16.69213336 62.04718976 14.98925619 60.99679972 12.0625 60.125 C7.51816967 58.45565417 4.9075155 55.815031 2.75 51.5 C2.00374574 49.01248581 1.43869507 46.55905457 1 44 C2.2684375 43.319375 2.2684375 43.319375 3.5625 42.625 C6.25673058 40.29178683 6.25673058 40.29178683 6.109375 37.5078125 C5.83696613 34.97727749 5.48162705 32.49873838 5 30 C6.32 30.66 7.64 31.32 9 32 C10.13199353 31.0919838 11.25532363 30.17316174 12.375 29.25 C13.00148438 28.73953125 13.62796875 28.2290625 14.2734375 27.703125 C16.08312318 25.91800519 17.00117455 24.32050356 18 22 C17.34 21.34 16.68 20.68 16 20 C15.731875 18.906875 15.46375 17.81375 15.1875 16.6875 C13.26556957 10.71940023 9.37276421 8.18347974 4.31640625 4.84765625 C3.5076001 4.31277588 2.69879395 3.77789551 1.86547852 3.22680664 C1.24987061 2.82196045 0.6342627 2.41711426 0 2 C0.15146484 2.64026123 0.30292969 3.28052246 0.45898438 3.94018555 C1.14504955 6.85464319 1.82259963 9.7710168 2.5 12.6875 C2.73847656 13.69490234 2.97695312 14.70230469 3.22265625 15.74023438 C3.44824219 16.71669922 3.67382812 17.69316406 3.90625 18.69921875 C4.11572266 19.59471436 4.32519531 20.49020996 4.54101562 21.4128418 C4.99994512 23.99969065 5.08261971 26.37888974 5 29 C2.39365069 25.09047604 1.50674388 21.19568558 0.3125 16.6875 C0.07466797 15.84509766 -0.16316406 15.00269531 -0.40820312 14.13476562 C-1.66291627 9.42867146 -2.38563518 5.81527363 -1 1 C-0.67 0.67 -0.34 0.34 0 0 Z " fill="#F6BB14" transform="translate(72,64)"/>
<path d="M0 0 C20.46371263 17.53565665 36.94799621 42.3400229 40.05078125 69.64453125 C40.40727929 75.27195559 40.53178861 80.88179021 40.55078125 86.51953125 C40.55792648 87.56321869 40.55792648 87.56321869 40.56521606 88.62799072 C40.59014589 98.28053524 39.47948318 107.28840542 37.05078125 116.64453125 C36.86290039 117.37865234 36.67501953 118.11277344 36.48144531 118.86914062 C28.83971684 146.72495398 9.73372288 170.08411202 -14.94921875 184.64453125 C-41.84893918 199.6708402 -71.16193784 203.0373612 -101.07421875 196.14453125 C-130.5026592 187.76281837 -155.23571905 168.19409358 -170.12207031 141.54492188 C-179.22592182 124.38858228 -183.12719918 107.42041908 -183.13671875 88.01953125 C-183.14896484 86.72917969 -183.16121094 85.43882813 -183.17382812 84.109375 C-183.21543059 56.56854064 -173.17362424 32.16376246 -154.94921875 11.64453125 C-154.1603125 10.75507812 -153.37140625 9.865625 -152.55859375 8.94921875 C-112.72125407 -33.13062019 -44.49481424 -36.78424392 0 0 Z M-151.16796875 15.5234375 C-172.12894194 38.50708702 -179.09157843 67.53328987 -178.10595703 97.90429688 C-177.77510257 103.68858116 -176.61478412 109.09264669 -174.94921875 114.64453125 C-174.54896484 116.10246094 -174.54896484 116.10246094 -174.140625 117.58984375 C-166.0632746 144.51434508 -147.64819425 167.42014308 -122.99609375 180.83203125 C-115.23088422 184.9141594 -107.40847581 188.24753037 -98.94921875 190.64453125 C-98.22347656 190.85722656 -97.49773437 191.06992188 -96.75 191.2890625 C-70.51854176 198.45246662 -40.8259117 192.94032602 -17.44921875 179.76953125 C7.91847065 164.41928017 25.47715596 140.14836908 33.05078125 111.64453125 C34.79646683 103.99887989 35.37537922 96.66228927 35.30078125 88.83203125 C35.29256348 87.77741699 35.2843457 86.72280273 35.27587891 85.63623047 C34.84667901 55.62454321 22.96731654 29.86746849 1.71484375 8.89086914 C-17.26153221 -9.12768025 -43.65674419 -19.85416785 -69.76171875 -19.60546875 C-71.34364014 -19.59314209 -71.34364014 -19.59314209 -72.95751953 -19.58056641 C-103.67072862 -19.14133398 -130.11691544 -6.64664364 -151.16796875 15.5234375 Z " fill="#0A56A1" transform="translate(183.94921875,25.35546875)"/>
<path d="M0 0 C0.66 0.33 1.32 0.66 2 1 C2.34375 3.58203125 2.34375 3.58203125 2.5 6.8125 C2.6982693 10.88197748 3.1867405 13.41333285 5 17 C5.58222478 19.64926203 6.10255263 22.26785838 6.5625 24.9375 C6.81361935 26.34248059 7.06491734 27.74742926 7.31640625 29.15234375 C7.54199219 30.42207031 7.76757812 31.69179687 8 33 C8.32749215 34.66782427 8.65789948 36.33511078 9 38 C6.03 40.475 6.03 40.475 3 43 C3.28875 43.721875 3.5775 44.44375 3.875 45.1875 C4.58497949 46.96244873 5.25725291 48.75338352 5.875 50.5625 C6.85203494 53.08282923 6.85203494 53.08282923 8.875 54.75 C11.05728522 57.06065494 11.49727052 58.26540449 12.5 61.1875 C14.83094778 66.85235317 19.12525887 69.377929 24.01171875 72.80859375 C29.21034616 76.62092052 33.34958966 80.39835863 34.9375 86.75 C36.11468052 90.35078746 36.53287916 90.74208152 39.6875 92.5 C43.79551307 94.22343406 46.66555707 94.28427939 51 93 C54.08687846 91.51592382 56.35204726 90.4059352 57.828125 87.203125 C58.28633125 85.82850625 58.73923877 84.45211264 59.1875 83.07421875 C61.54555657 77.05437242 66.31393022 73.73855161 71.5625 70.3125 C76.98805864 66.5557785 78.91496781 62.94593057 80.90234375 56.734375 C82.1264635 53.68496636 83.61326435 52.2094079 86 50 C87.21869929 47.49552484 87.21869929 47.49552484 88 45 C88.33 44.01 88.66 43.02 89 42 C87.989375 41.29875 86.97875 40.5975 85.9375 39.875 C84.21484375 38.6796875 84.21484375 38.6796875 83 37 C83.234375 34.234375 83.234375 34.234375 84 31 C84.20238281 29.91460937 84.40476562 28.82921875 84.61328125 27.7109375 C84.84402344 26.61007813 85.07476562 25.50921875 85.3125 24.375 C85.53550781 23.26898438 85.75851563 22.16296875 85.98828125 21.0234375 C87.09592487 17.7133365 88.36293263 16.22927344 91 14 C91.66386719 14.61488281 92.32773438 15.22976562 93.01171875 15.86328125 C94.33623047 17.07564453 94.33623047 17.07564453 95.6875 18.3125 C96.55761719 19.11300781 97.42773438 19.91351563 98.32421875 20.73828125 C100.78170312 22.81548337 103.19503316 24.43831576 106 26 C105.68804687 26.84433594 105.37609375 27.68867187 105.0546875 28.55859375 C103.62940739 33.20922996 103.2503534 37.83430343 102.7578125 42.66015625 C101.90168089 46.43331362 100.66280495 48.23671185 98 51 C95.75 52.3125 95.75 52.3125 94 53 C95.65 53 97.3 53 99 53 C98 56 98 56 96 57 C93.95944995 57.07065617 91.91665743 57.08421976 89.875 57.0625 C88.77929688 57.05347656 87.68359375 57.04445312 86.5546875 57.03515625 C85.71164063 57.02355469 84.86859375 57.01195312 84 57 C84 58.32 84 59.64 84 61 C85.0828125 61.3403125 85.0828125 61.3403125 86.1875 61.6875 C90.64793636 63.76903697 93.30210504 66.95315756 96 71 C96.265625 73.41015625 96.265625 73.41015625 96.25 76.0625 C96.25773437 77.37927734 96.25773437 77.37927734 96.265625 78.72265625 C96 81 96 81 94 83 C93.34 83.0825 92.68 83.165 92 83.25 C91.34 83.4975 90.68 83.745 90 84 C88.8049517 86.57174316 88.8049517 86.57174316 88 90 C87.46289025 91.79303802 86.92099408 93.58464733 86.375 95.375 C85.91576347 96.91639786 85.45712238 98.45797384 85 100 C83.95199219 100.05607422 83.95199219 100.05607422 82.8828125 100.11328125 C81.97273438 100.17902344 81.06265625 100.24476563 80.125 100.3125 C79.22007812 100.37050781 78.31515625 100.42851562 77.3828125 100.48828125 C74.63778399 100.7882039 74.63778399 100.7882039 73 104 C68.38174213 105.66257283 62.57366702 106.06063231 58 104.17578125 C56.29185937 103.18550144 54.64283026 102.09522018 53 101 C51.02 100.01 51.02 100.01 49 99 C48.34 102.3 47.68 105.6 47 109 C45 107 45 107 44.875 103.375 C44.91625 102.26125 44.9575 101.1475 45 100 C43.68 99.34 42.36 98.68 41 98 C40.505 99.485 40.505 99.485 40 101 C31.34066995 105.97450875 22.32446116 104.22199925 13 102 C17.4281704 98.96152137 22.70098329 99.96817903 27.80078125 100.25390625 C31.57074306 100.36614679 33.51945972 100.3811693 36.53125 97.9921875 C37.25828125 97.00605469 37.25828125 97.00605469 38 96 C36.94679565 96.48218994 36.94679565 96.48218994 35.87231445 96.97412109 C32.77631271 98.07989239 30.3211005 98.31319691 27.04296875 98.4140625 C25.93115234 98.45273438 24.81933594 98.49140625 23.67382812 98.53125 C22.52333984 98.5621875 21.37285156 98.593125 20.1875 98.625 C19.01767578 98.66367188 17.84785156 98.70234375 16.64257812 98.7421875 C13.76187436 98.8362513 10.88117346 98.92189877 8 99 C7.71322388 97.98788452 7.71322388 97.98788452 7.4206543 96.95532227 C7.16195557 96.06385498 6.90325684 95.1723877 6.63671875 94.25390625 C6.38365967 93.3729126 6.13060059 92.49191895 5.86987305 91.58422852 C5.0578832 89.17196005 4.08330703 87.13464299 2.8125 84.9375 C0.5774618 80.67453139 0.09270672 76.7360709 1 72 C2.75 69.1875 2.75 69.1875 5 67 C5.7425 66.236875 6.485 65.47375 7.25 64.6875 C7.8275 64.130625 8.405 63.57375 9 63 C7.515 62.505 7.515 62.505 6 62 C6.33 61.34 6.66 60.68 7 60 C6.14277344 59.92523438 5.28554687 59.85046875 4.40234375 59.7734375 C-2.16785391 59.0179018 -6.89547599 58.30867891 -11.73046875 53.6328125 C-14.39995877 50.19943764 -15.25566393 47.34518601 -15.4140625 43.015625 C-15.45273437 42.08105469 -15.49140625 41.14648438 -15.53125 40.18359375 C-15.5621875 39.21550781 -15.593125 38.24742188 -15.625 37.25 C-15.66367187 36.26644531 -15.70234375 35.28289062 -15.7421875 34.26953125 C-15.83628426 31.84653963 -15.92192328 29.42355204 -16 27 C-14.02 26.01 -12.04 25.02 -10 24 C-10.99 24 -11.98 24 -13 24 C-11.53148512 20.57090242 -9.58158999 18.47590159 -6.9375 15.875 C-3.03745566 11.64468164 -2.11524332 8.66116533 -2.1328125 2.96875 C-2.08898437 2.3190625 -2.04515625 1.669375 -2 1 C-1.34 0.67 -0.68 0.34 0 0 Z " fill="#F2F6F9" transform="translate(67,65)"/>
<path d="M0 0 C0.85207031 0.78117187 1.70414063 1.56234375 2.58203125 2.3671875 C3.50628906 3.21023437 4.43054688 4.05328125 5.3828125 4.921875 C25.10128352 23.74033282 36.91388944 49.88443747 37.80078125 77.08984375 C38.03150363 88.24610436 37.80759575 98.61530583 34.58203125 109.3671875 C34.31519531 110.33914062 34.04835937 111.31109375 33.7734375 112.3125 C28.56176156 129.68475312 18.93036155 144.26374348 6.58203125 157.3671875 C6.0303125 157.98335937 5.47859375 158.59953125 4.91015625 159.234375 C-10.78581296 176.09588648 -37.14566874 187.52119672 -59.93359375 188.47216797 C-70.55333111 188.7740355 -81.0354174 188.85899982 -91.41796875 186.3671875 C-92.56910156 186.12226563 -93.72023438 185.87734375 -94.90625 185.625 C-104.90087464 183.27942869 -113.49354032 179.35322686 -122.41796875 174.3671875 C-123.41828125 173.8103125 -124.41859375 173.2534375 -125.44921875 172.6796875 C-148.49467824 158.90538988 -165.96253291 134.75241869 -172.80737305 108.87353516 C-174.85394296 100.47286073 -175.77919804 92.38563444 -175.73046875 83.7421875 C-175.72309692 82.17513062 -175.72309692 82.17513062 -175.71557617 80.57641602 C-175.26711651 50.60321209 -163.24480762 24.50159265 -142.08203125 3.61352539 C-103.54893379 -32.97462616 -40.18521319 -34.82316825 0 0 Z M-139.41796875 9.3671875 C-140.16691406 10.04136719 -140.91585937 10.71554688 -141.6875 11.41015625 C-150.62927415 19.75685611 -158.31673922 30.7872453 -162.41796875 42.3671875 C-162.83691406 43.5428125 -163.25585938 44.7184375 -163.6875 45.9296875 C-165.00186603 49.72140005 -166.29544209 53.51362971 -167.41796875 57.3671875 C-167.70486572 58.34860718 -167.70486572 58.34860718 -167.99755859 59.34985352 C-172.35946647 76.26444972 -170.82837688 96.82502012 -165.41796875 113.3671875 C-165.20897949 114.0178418 -164.99999023 114.66849609 -164.78466797 115.33886719 C-156.30311149 140.81530275 -137.10652506 161.1562283 -113.41796875 173.3671875 C-110.91185013 174.49226844 -108.37041183 175.48073859 -105.79296875 176.4296875 C-105.10001709 176.68645264 -104.40706543 176.94321777 -103.69311523 177.20776367 C-76.55677253 186.99948399 -49.14002653 184.47458561 -23.01953125 172.85546875 C1.20754847 160.18658036 19.65114299 138.67978443 27.91870117 112.63842773 C30.92834851 102.3334041 32.10364348 92.79588499 32.01953125 82.0546875 C32.01447067 81.03263214 32.01447067 81.03263214 32.00930786 79.9899292 C31.934422 69.54113122 31.24847785 60.2092713 27.58203125 50.3671875 C27.33533691 49.6752832 27.08864258 48.98337891 26.83447266 48.27050781 C21.65811381 33.90126613 14.18270168 22.41807946 3.58203125 11.3671875 C2.73640625 10.4803125 1.89078125 9.5934375 1.01953125 8.6796875 C-0.18703125 7.535 -0.18703125 7.535 -1.41796875 6.3671875 C-1.92972656 5.86058594 -2.44148437 5.35398437 -2.96875 4.83203125 C-20.21131498 -11.37671827 -44.27868782 -19.26860575 -67.60546875 -19.0703125 C-68.87487305 -19.06201416 -70.14427734 -19.05371582 -71.45214844 -19.04516602 C-97.93339793 -18.57168478 -120.26483105 -8.96284015 -139.41796875 9.3671875 Z " fill="#C6D6E8" transform="translate(181.41796875,30.6328125)"/>
<path d="M0 0 C3.14621069 3.05139338 4.91989683 5.23773026 5.125 9.75 C5.08375 10.4925 5.0425 11.235 5 12 C5.66 12 6.32 12 7 12 C7 10.02 7 8.04 7 6 C13.35244627 11.77495116 18.63628818 19.08538396 22 27 C22 27.66 22 28.32 22 29 C21.34 29 20.68 29 20 29 C20 29.66 20 30.32 20 31 C20.66 31.33 21.32 31.66 22 32 C21.525625 32.886875 21.05125 33.77375 20.5625 34.6875 C18.53607302 39.29644321 18.5480313 43.93990201 18.40625 48.9140625 C17.85156942 53.12750152 16.17343085 55.73964835 13.3125 58.8125 C9.82364143 60.60407602 6.89238853 60.19461943 3 60 C3 59.67 3 59.34 3 59 C3.61488281 58.82984375 4.22976562 58.6596875 4.86328125 58.484375 C5.67152344 58.24203125 6.47976562 57.9996875 7.3125 57.75 C8.51326172 57.40195313 8.51326172 57.40195313 9.73828125 57.046875 C12.60887884 55.71817007 13.49199831 54.79543 15 52 C15.74762019 49.17418028 16.1958789 46.32675287 16.625 43.4375 C17.9180622 35.2458134 17.9180622 35.2458134 19 32 C18.41992188 31.62488281 17.83984375 31.24976562 17.2421875 30.86328125 C12.57747188 27.80735369 8.20354396 24.66462807 4 21 C0.84824472 25.1545865 0.19922359 29.3186704 -0.5703125 34.34765625 C-1 37 -1 37 -2 40.375 C-2.28709992 42.99429443 -2.28709992 42.99429443 -0.72265625 44.46875 C1.11362567 46.06982474 1.11362567 46.06982474 4 48 C3.525625 48.9075 3.05125 49.815 2.5625 50.75 C0.96451947 53.73721942 0.96451947 53.73721942 0.5625 56.125 C0 58 0 58 -1.8125 59.625 C-4.11897039 62.12916786 -4.60045473 63.57439523 -5.625 66.75 C-8.00800313 73.19645069 -12.60621873 76.07724999 -18 80 C-19.76601435 81.59940922 -21.36339417 83.26420594 -23 85 C-23.556875 85.45375 -24.11375 85.9075 -24.6875 86.375 C-26.28558488 88.12252532 -26.28558488 88.12252532 -26.875 91.4375 C-28.18223412 95.57707473 -29.4066631 96.68999771 -33 99 C-33.61875 99.433125 -34.2375 99.86625 -34.875 100.3125 C-38.89040052 101.61160017 -42.34136141 100.69584838 -46.16015625 99.09375 C-51.54725551 96.1997729 -51.54725551 96.1997729 -52.703125 93.13671875 C-52.94664897 91.77351391 -53.18208334 90.4088436 -53.41015625 89.04296875 C-55.32961292 82.3947844 -63.30151872 78.2521387 -68.765625 74.7734375 C-72.34602445 71.93165192 -73.75028826 68.61885084 -75.4375 64.4375 C-76.97051811 61.06486017 -78.39302379 59.5228802 -81 57 C-82.6994119 53.6011762 -83 51.89635934 -83 48 C-81.25 46.296875 -81.25 46.296875 -79 44.75 C-77.88625 43.96882813 -77.88625 43.96882813 -76.75 43.171875 C-76.1725 42.78515625 -75.595 42.3984375 -75 42 C-75.3125 44.375 -75.3125 44.375 -76 47 C-76.99 47.66 -77.98 48.32 -79 49 C-77.88176209 55.52305449 -76.2319935 59.69813868 -71 64 C-68.67126625 64.68255989 -66.33817209 65.35050775 -64 66 C-62.0625 68.125 -62.0625 68.125 -61 70 C-63.97 69.01 -66.94 68.02 -70 67 C-69.36025976 69.79886355 -68.61019645 71.55435091 -66.26171875 73.26953125 C-64.85540466 74.10378537 -63.44372545 74.92904897 -62.02734375 75.74609375 C-59.25768999 77.4591166 -57.20084248 79.61575399 -55 82 C-54.236875 82.763125 -53.47375 83.52625 -52.6875 84.3125 C-52.130625 84.869375 -51.57375 85.42625 -51 86 C-50.505 84.515 -50.505 84.515 -50 83 C-49.34 83 -48.68 83 -48 83 C-47.21197481 78.42803406 -46.5509415 73.84853921 -45.9375 69.25 C-45.84662109 68.57839844 -45.75574219 67.90679687 -45.66210938 67.21484375 C-45.17020311 63.61979476 -45.17020311 63.61979476 -45 60 C-44.01 60.33 -43.02 60.66 -42 61 C-42.44953032 69.60308032 -43.86101998 77.65932321 -46 86 C-46.99 86 -47.98 86 -49 86 C-49.04125 87.27875 -49.0825 88.5575 -49.125 89.875 C-49.14820313 90.59429687 -49.17140625 91.31359375 -49.1953125 92.0546875 C-49.18331689 94.23863645 -49.18331689 94.23863645 -47 96 C-45.01178687 96.39764263 -43.01055661 96.73775349 -41 97 C-41 96.01 -41 95.02 -41 94 C-41.639375 93.773125 -42.27875 93.54625 -42.9375 93.3125 C-45 92 -45 92 -45.8125 89.4375 C-45.874375 88.633125 -45.93625 87.82875 -46 87 C-44.10114904 85.10114904 -41.42752097 85.87632494 -38.91015625 85.8671875 C-37 86 -37 86 -35 87 C-35.25 89.375 -35.25 89.375 -36 92 C-38.0625 93.3125 -38.0625 93.3125 -40 94 C-40 94.99 -40 95.98 -40 97 C-34.98464948 96.67039784 -34.98464948 96.67039784 -31 94 C-30.75746187 91.78927023 -30.75746187 91.78927023 -30.875 89.375 C-30.89304688 88.55773437 -30.91109375 87.74046875 -30.9296875 86.8984375 C-30.95289063 86.27195312 -30.97609375 85.64546875 -31 85 C-31.99 85.33 -32.98 85.66 -34 86 C-37.38925141 76.47781747 -38.90149342 66.1008895 -36.25 56.19921875 C-34.75189775 53.42477281 -33.84865253 52.4085255 -31 51 C-25.35770256 50.10829408 -19.66506444 50.54578548 -14 51 C-14.99 51.99 -14.99 51.99 -16 53 C-16.99 53 -17.98 53 -19 53 C-19.0825 53.598125 -19.165 54.19625 -19.25 54.8125 C-20.25036997 57.73024575 -21.29808749 58.53950675 -24 60 C-27.25 60.1875 -27.25 60.1875 -30 60 C-29.67 59.01 -29.34 58.02 -29 57 C-29.33 56.34 -29.66 55.68 -30 55 C-34.22525268 59.80496339 -34.22525268 59.80496339 -34.8125 65.9375 C-34.544375 66.948125 -34.27625 67.95875 -34 69 C-33.01 66.36 -32.02 63.72 -31 61 C-30.67 61 -30.34 61 -30 61 C-30.01160156 61.94101563 -30.02320313 62.88203125 -30.03515625 63.8515625 C-30.04417969 65.09679687 -30.05320313 66.34203125 -30.0625 67.625 C-30.07410156 68.85476562 -30.08570313 70.08453125 -30.09765625 71.3515625 C-30.00863924 74.67723791 -29.63686087 77.74047588 -29 81 C-29.99 79.68 -30.98 78.36 -32 77 C-32.495 78.98 -32.495 78.98 -33 81 C-31.68 81.66 -30.36 82.32 -29 83 C-29 84.32 -29 85.64 -29 87 C-26.35734481 84.43284924 -23.97196667 81.9643901 -21.6875 79.0625 C-19.10194601 75.84713158 -15.98317193 73.68186952 -12.57421875 71.39453125 C-11.79498047 70.70423828 -11.79498047 70.70423828 -11 70 C-11 69.01 -11 68.02 -11 67 C-12.98 67.66 -14.96 68.32 -17 69 C-15.53705883 65.13717781 -13.77529498 64.14057294 -10.125 62.375 C-4.91918714 59.45613383 -3.32002439 56.56411255 -1.5234375 50.9765625 C-1.35070312 50.32429688 -1.17796875 49.67203125 -1 49 C-1.66 48.525625 -2.32 48.05125 -3 47.5625 C-5.51280257 44.3429717 -5.5088283 42.60620775 -5.33203125 38.625 C-4.82769596 34.63778456 -3.84860802 30.8237635 -2.796875 26.94921875 C-2.0669794 24.24788944 -1.4495471 21.55030397 -0.875 18.8125 C0 15 0 15 1 14 C1.07179964 12.48071962 1.08392007 10.95832518 1.0625 9.4375 C1.05347656 8.61121094 1.04445313 7.78492187 1.03515625 6.93359375 C1.02355469 6.29550781 1.01195312 5.65742187 1 5 C-7.93409442 8.88774714 -14.51858653 12.73670789 -21.109375 20.05859375 C-21.73328125 20.69925781 -22.3571875 21.33992188 -23 22 C-23.66 22 -24.32 22 -25 22 C-25 21.01 -25 20.02 -25 19 C-30.22577406 17.92935361 -35.25559625 17.850374 -40.5625 17.875 C-41.39974609 17.87113281 -42.23699219 17.86726563 -43.09960938 17.86328125 C-47.19589002 17.86976784 -51.00501048 17.9706162 -55 19 C-55.33 19.99 -55.66 20.98 -56 22 C-58.81317851 20.69390891 -61.09139514 19.24596889 -63.4609375 17.25 C-64.09773438 16.7240625 -64.73453125 16.198125 -65.390625 15.65625 C-66.70894256 14.55592196 -68.02408049 13.45177265 -69.3359375 12.34375 C-73.08911384 9.25645978 -76.18230694 7.19323667 -81 6 C-81.66 6.66 -82.32 7.32 -83 8 C-83.625 6.125 -83.625 6.125 -84 4 C-83.34 3.34 -82.68 2.68 -82 2 C-75.31547217 2.52132366 -67.78172991 7.10941979 -63.203125 11.8671875 C-62.74421875 12.42664063 -62.2853125 12.98609375 -61.8125 13.5625 C-60.884375 14.366875 -59.95625 15.17125 -59 16 C-57.057339 15.85903426 -57.057339 15.85903426 -54.984375 15.1640625 C-49.7426348 13.82069131 -44.82512878 13.73837622 -39.4375 13.8125 C-38.54353516 13.81314453 -37.64957031 13.81378906 -36.72851562 13.81445312 C-32.60559092 13.84159747 -28.76759517 14.00879349 -24.71875 14.80078125 C-20.92273373 15.3592646 -20.92273373 15.3592646 -17.91015625 13.0859375 C-16.97042969 12.19132812 -16.03070313 11.29671875 -15.0625 10.375 C-10.37582744 6.08811708 -5.73489428 2.75159069 0 0 Z " fill="#12569E" transform="translate(153,59)"/>
<path d="M0 0 C3 1 3 1 5 4 C5.30479988 7.74903849 5.37862788 11.47822799 5.4609375 15.23828125 C6.26986348 20.88317776 8.56884147 23.91932927 13.0625 27.3125 C17.72004098 29.76330213 22.8316484 29.81307951 28 30 C25.73900455 32.34795681 23.42654213 34.48002914 20.875 36.5 C18.21765774 38.8107324 17.24344204 39.85308981 16 43 C15.87634312 50.66672653 18.85439087 56.12527619 22.50390625 62.66796875 C24.05243951 66.11679086 24.31108023 68.27269324 24 72 C10.78269546 64.40004989 3.4318965 50.08172396 -1 36 C-3.7621791 24.86541274 -5.31331553 10.62663106 0 0 Z " fill="#0754A1" transform="translate(47,94)"/>
<path d="M0 0 C0.969375 0.86625 1.93875 1.7325 2.9375 2.625 C7.03550142 6.15196844 11.45085539 9.09102317 16 12 C15.68804687 12.84433594 15.37609375 13.68867187 15.0546875 14.55859375 C13.62940739 19.20922996 13.2503534 23.83430343 12.7578125 28.66015625 C11.90168089 32.43331362 10.66280495 34.23671185 8 37 C5.75 38.3125 5.75 38.3125 4 39 C5.65 39 7.3 39 9 39 C8 42 8 42 6 43 C3.95944995 43.07065617 1.91665743 43.08421976 -0.125 43.0625 C-1.22070312 43.05347656 -2.31640625 43.04445312 -3.4453125 43.03515625 C-4.28835937 43.02355469 -5.13140625 43.01195312 -6 43 C-6 44.32 -6 45.64 -6 47 C-4.9171875 47.3403125 -4.9171875 47.3403125 -3.8125 47.6875 C0.64793636 49.76903697 3.30210504 52.95315756 6 57 C6.265625 59.41015625 6.265625 59.41015625 6.25 62.0625 C6.25515625 62.94035156 6.2603125 63.81820312 6.265625 64.72265625 C6 67 6 67 4 69 C1.875 69.625 1.875 69.625 0 70 C0.04640625 69.26394531 0.0928125 68.52789062 0.140625 67.76953125 C0.42698766 61.68590797 0.42698766 61.68590797 -1.5625 56.0625 C-4.54951308 53.5350274 -7.52710541 51.80323373 -11 50 C-9.80554553 43.70196734 -8.22347477 40.75140912 -4 36 C-2.73152315 33.41501488 -2.73152315 33.41501488 -2 31 C-1.67 30.01 -1.34 29.02 -1 28 C-2.010625 27.29875 -3.02125 26.5975 -4.0625 25.875 C-5.78515625 24.6796875 -5.78515625 24.6796875 -7 23 C-6.76953125 20.234375 -6.76953125 20.234375 -6 17 C-5.78601563 15.91460937 -5.57203125 14.82921875 -5.3515625 13.7109375 C-5.11179688 12.61007813 -4.87203125 11.50921875 -4.625 10.375 C-4.39039063 9.26898438 -4.15578125 8.16296875 -3.9140625 7.0234375 C-3.01820124 4.06020411 -2.01793152 2.31103889 0 0 Z " fill="#F2F6F9" transform="translate(157,79)"/>
<path d="M0 0 C4.80702605 4.80702605 4.14765032 15.06271254 4.3125 21.5625 C3.99262237 38.19613686 -3.3872577 55.31696343 -15.13671875 67.15234375 C-16.70235765 68.50203246 -18.3421001 69.76539369 -20 71 C-20.34762879 66.10422783 -19.45609832 63.45720545 -17 59.25 C-14.04831765 53.63273216 -12.87461984 49.28820668 -14 43 C-15.70697998 38.1991188 -19.02516205 36.56347418 -23.35546875 34.30859375 C-23.89816406 33.87675781 -24.44085938 33.44492188 -25 33 C-25 31.68 -25 30.36 -25 29 C-24.20335937 28.96261719 -23.40671875 28.92523438 -22.5859375 28.88671875 C-15.79229515 28.46521539 -10.59452178 27.97477665 -5.1875 23.5 C-1.97387526 19.44068453 -2.66264737 13.74550348 -2.48242188 8.8046875 C-2.2994604 5.06260747 -2.12315648 3.18473471 0 0 Z " fill="#0B57A2" transform="translate(176,93)"/>
<path d="M0 0 C0.763125 0.70125 1.52625 1.4025 2.3125 2.125 C6.02019203 5.25613705 10.18725006 7.31341255 14.51171875 9.47265625 C17.14348253 11.0880717 18.48585162 12.3211221 20 15 C20 16.32 20 17.64 20 19 C20.61875 18.2265625 20.61875 18.2265625 21.25 17.4375 C21.8275 16.963125 22.405 16.48875 23 16 C25.1875 16.3125 25.1875 16.3125 27 17 C22.13043478 23.43478261 22.13043478 23.43478261 19 25 C17.116041 24.77426247 15.23256361 24.54235951 13.35400391 24.27539062 C9.09912431 23.77762002 4.841598 23.81558515 0.5625 23.8125 C-0.77264648 23.79413086 -0.77264648 23.79413086 -2.13476562 23.77539062 C-7.4427084 23.7637589 -12.02778238 24.28577964 -17.10961914 25.86206055 C-19 26 -19 26 -20.75170898 24.67504883 C-22 23 -22 23 -22 21 C-21.34 21 -20.68 21 -20 21 C-20.165 20.154375 -20.33 19.30875 -20.5 18.4375 C-19.82891852 13.82381482 -17.90071324 12.51616655 -14.3671875 9.66796875 C-11.36352373 7.55152579 -8.26124151 5.7897214 -4.98046875 4.140625 C-2.96023027 2.97709514 -1.56353421 1.71643503 0 0 Z " fill="#F7F9FB" transform="translate(113,50)"/>
<path d="M0 0 C2.475 0.495 2.475 0.495 5 1 C5 3.64 5 6.28 5 9 C5.33 9 5.66 9 6 9 C6.33 6.36 6.66 3.72 7 1 C11.75108933 1 12.50471102 2.04244779 16 5 C18.79748841 5.93249614 20.54320881 6.13476152 23.4375 6.125 C24.19933594 6.12757813 24.96117187 6.13015625 25.74609375 6.1328125 C27.97181115 6.07401939 27.97181115 6.07401939 29.95703125 5.49609375 C32.44109586 4.89288877 34.69710973 4.90390934 37.25 4.9375 C38.14203125 4.94652344 39.0340625 4.95554688 39.953125 4.96484375 C40.62859375 4.97644531 41.3040625 4.98804688 42 5 C38.81154603 8.70117018 35.35726627 10.42275994 30.875 12.125 C29.86215942 12.51292725 29.86215942 12.51292725 28.82885742 12.90869141 C12.58844395 18.9733829 -6.28078081 19.41936464 -22.35546875 12.5703125 C-28.25287114 9.79099742 -28.25287114 9.79099742 -31 8 C-31.33 7.01 -31.66 6.02 -32 5 C-28.46469847 3.23234923 -23.85142324 3.5343726 -20.04296875 4.4921875 C-13.29401556 6.16974757 -7.01916079 5.32974852 -1 2 C-0.67 1.34 -0.34 0.68 0 0 Z " fill="#0654A0" transform="translate(108,163)"/>
<path d="M0 0 C0.33 1.32 0.66 2.64 1 4 C-0.32 4.99 -1.64 5.98 -3 7 C-1.88176209 13.52305449 -0.2319935 17.69813868 5 22 C7.32873375 22.68255989 9.66182791 23.35050775 12 24 C13.9375 26.125 13.9375 26.125 15 28 C12.03 27.01 9.06 26.02 6 25 C6.63974024 27.79886355 7.38980355 29.55435091 9.73828125 31.26953125 C11.14459534 32.10378537 12.55627455 32.92904897 13.97265625 33.74609375 C16.74231001 35.4591166 18.79915752 37.61575399 21 40 C21.763125 40.763125 22.52625 41.52625 23.3125 42.3125 C23.869375 42.869375 24.42625 43.42625 25 44 C25.33 43.01 25.66 42.02 26 41 C26.66 41 27.32 41 28 41 C28.78802519 36.42803406 29.4490585 31.84853921 30.0625 27.25 C30.15337891 26.57839844 30.24425781 25.90679687 30.33789062 25.21484375 C30.82979689 21.61979476 30.82979689 21.61979476 31 18 C31.99 18.33 32.98 18.66 34 19 C33.55046968 27.60308032 32.13898002 35.65932321 30 44 C29.01 44 28.02 44 27 44 C26.95875 45.27875 26.9175 46.5575 26.875 47.875 C26.85179687 48.59429687 26.82859375 49.31359375 26.8046875 50.0546875 C26.81668311 52.23863645 26.81668311 52.23863645 29 54 C30.98821313 54.39764263 32.98944339 54.73775349 35 55 C35 54.01 35 53.02 35 52 C34.360625 51.773125 33.72125 51.54625 33.0625 51.3125 C31 50 31 50 30.1875 47.4375 C30.125625 46.633125 30.06375 45.82875 30 45 C31.89885096 43.10114904 34.57247903 43.87632494 37.08984375 43.8671875 C39 44 39 44 41 45 C40.75 47.375 40.75 47.375 40 50 C37.9375 51.3125 37.9375 51.3125 36 52 C36 52.99 36 53.98 36 55 C39.33054374 55.13478487 39.33054374 55.13478487 43 54 C44.66259642 52.0090934 45.84004643 50.00335623 47.0546875 47.71484375 C47.36664063 47.14894531 47.67859375 46.58304688 48 46 C48.33 46 48.66 46 49 46 C48.63265306 52.36734694 48.63265306 52.36734694 45.6875 55.3125 C44.800625 55.869375 43.91375 56.42625 43 57 C42.38125 57.433125 41.7625 57.86625 41.125 58.3125 C37.10959948 59.61160017 33.65863859 58.69584838 29.83984375 57.09375 C24.45274449 54.1997729 24.45274449 54.1997729 23.296875 51.13671875 C23.05335103 49.77351391 22.81791666 48.4088436 22.58984375 47.04296875 C20.67038708 40.3947844 12.69848128 36.2521387 7.234375 32.7734375 C3.65397555 29.93165192 2.24971174 26.61885084 0.5625 22.4375 C-0.97051811 19.06486017 -2.39302379 17.5228802 -5 15 C-6.6994119 11.6011762 -7 9.89635934 -7 6 C-5.46875 4.296875 -5.46875 4.296875 -3.5 2.75 C-2.8503125 2.22921875 -2.200625 1.7084375 -1.53125 1.171875 C-0.77328125 0.59179688 -0.77328125 0.59179688 0 0 Z " fill="#1156A0" transform="translate(77,101)"/>
<path d="M0 0 C0.33 0 0.66 0 1 0 C2.65 7.26 4.3 14.52 6 22 C6 17.93008366 4.84972134 13.84418843 4.06640625 9.85351562 C3.48900566 6.85378207 3 4.06270995 3 1 C6.74217391 2.33128665 9.57380269 3.97931791 12.6875 6.4375 C13.45449219 7.03433594 14.22148438 7.63117188 15.01171875 8.24609375 C18.82287625 11.60799889 19.79773167 15.19092668 21 20 C21 23.99897642 19.64683965 25.06701552 17 28 C12.56756757 32 12.56756757 32 9 32 C9.33 34.31 9.66 36.62 10 39 C6.50701642 35.98137222 5.34042482 33.739807 4.375 29.25 C4.1378125 28.19554688 3.900625 27.14109375 3.65625 26.0546875 C3.4396875 25.04664062 3.223125 24.03859375 3 23 C1.88042246 17.86881974 1.88042246 17.86881974 0 13 C-0.07092842 10.7927077 -0.08415025 8.58332548 -0.0625 6.375 C-0.05347656 5.18648438 -0.04445313 3.99796875 -0.03515625 2.7734375 C-0.02355469 1.85820313 -0.01195313 0.94296875 0 0 Z " fill="#18579D" transform="translate(69,65)"/>
<path d="M0 0 C-0.30166293 2.8155207 -0.91312316 3.91312316 -2.9375 5.9375 C-7.92660394 9.29750877 -13.2869206 12.0956402 -19 14 C-20.10636395 16.39068734 -20.10636395 16.39068734 -21 19 C-21.66 19.99 -22.32 20.98 -23 22 C-29.93 18.04 -29.93 18.04 -37 14 C-37 13.34 -37 12.68 -37 12 C-26.68566881 3.89588264 -12.97404692 -0.25948094 0 0 Z " fill="#0A56A2" transform="translate(110,45)"/>
<path d="M0 0 C3.40918784 2.12127244 5.78269305 4.12675063 7 8 C7.43268132 11.96624543 7.35545061 14.28909879 5.5625 17.875 C2.44751703 20.45815661 0.25769584 21.13953708 -3.7421875 21.41015625 C-7.34851315 20.75502789 -8.81614349 18.6240035 -10.90625 15.76171875 C-13.05270024 12.30440069 -13.40223137 10.10275997 -13 6 C-9.24647283 0.36970925 -6.73139654 -0.57045733 0 0 Z " fill="#0D56A2" transform="translate(38,141)"/>
<path d="M0 0 C3.24153854 2.32297609 4.73854088 5.26176248 6.0625 9 C5.97851115 13.03146497 4.50886252 14.91768319 2 18 C-1.22859847 19.61429923 -4.50993653 19.59570657 -8 19 C-11.02508145 17.26397895 -13.41790069 15.16419863 -15 12 C-15.39447548 7.81855989 -15.45035186 5.69053952 -13.125 2.125 C-9.11394997 -1.88605003 -5.27040179 -1.47462019 0 0 Z " fill="#0E56A2" transform="translate(53,161)"/>
<path d="M0 0 C10.54285714 1.99142857 10.54285714 1.99142857 15 5 C16 7.5 16 7.5 16 10 C15.01 11.485 15.01 11.485 14 13 C14.185625 13.825 14.37125 14.65 14.5625 15.5 C14.706875 16.325 14.85125 17.15 15 18 C13.78515625 19.6640625 13.78515625 19.6640625 12 21 C5.8798095 21.5653188 -0.35935753 19.1202415 -6 17 C-5.65066406 16.10796875 -5.30132812 15.2159375 -4.94140625 14.296875 C-4.48636719 13.12640625 -4.03132813 11.9559375 -3.5625 10.75 C-3.11003906 9.58984375 -2.65757813 8.4296875 -2.19140625 7.234375 C-1.29849367 4.81033692 -0.54205635 2.51713525 0 0 Z " fill="#185CA5" transform="translate(78,183)"/>
<path d="M0 0 C1.85463477 0 3.71006788 -0.03463746 5.5625 -0.125 C8 0 8 0 10 2 C10.046875 4.86328125 10.046875 4.86328125 9.75 8.3125 C9.66234375 9.44300781 9.5746875 10.57351562 9.484375 11.73828125 C9.03011268 14.79722512 8.2814478 17.20077182 7 20 C4.91656149 19.52129086 2.83325311 19.04201531 0.75 18.5625 C-0.41015625 18.29566406 -1.5703125 18.02882812 -2.765625 17.75390625 C-5.18349761 17.19032 -7.59443304 16.61330049 -10 16 C-9.41029674 10.45678937 -8.29366159 5.11409714 -6 0 C-3.47064411 -1.26467795 -2.65809097 -0.7249339 0 0 Z " fill="#125AA4" transform="translate(196,123)"/>
<path d="M0 0 C-0.66 0.66 -1.32 1.32 -2 2 C-2.99 2 -3.98 2 -5 2 C-5.0825 2.598125 -5.165 3.19625 -5.25 3.8125 C-6.25036997 6.73024575 -7.29808749 7.53950675 -10 9 C-13.25 9.1875 -13.25 9.1875 -16 9 C-15.67 8.01 -15.34 7.02 -15 6 C-15.33 5.34 -15.66 4.68 -16 4 C-20.22525268 8.80496339 -20.22525268 8.80496339 -20.8125 14.9375 C-20.4103125 16.4534375 -20.4103125 16.4534375 -20 18 C-19.01 15.36 -18.02 12.72 -17 10 C-16.67 10 -16.34 10 -16 10 C-16.01160156 10.94101563 -16.02320312 11.88203125 -16.03515625 12.8515625 C-16.04417969 14.09679687 -16.05320312 15.34203125 -16.0625 16.625 C-16.07410156 17.85476562 -16.08570312 19.08453125 -16.09765625 20.3515625 C-16.00863924 23.67723791 -15.63686087 26.74047588 -15 30 C-15.99 28.68 -16.98 27.36 -18 26 C-18.33 27.32 -18.66 28.64 -19 30 C-17.68 30.66 -16.36 31.32 -15 32 C-15 33.32 -15 34.64 -15 36 C-12.35734481 33.43284924 -9.97196667 30.9643901 -7.6875 28.0625 C-5.14098739 24.90774394 -2.11177141 22.75443036 1.23046875 20.4921875 C3.19977217 18.8315387 4.01380155 17.35676141 5 15 C5.33 16.98 5.66 18.96 6 21 C5.00419922 21.77923828 5.00419922 21.77923828 3.98828125 22.57421875 C-1.28327754 26.73759584 -6.11459524 30.90086155 -10.6875 35.8125 C-12 37 -12 37 -14 37 C-14.66 38.32 -15.32 39.64 -16 41 C-16.33 38.69 -16.66 36.38 -17 34 C-18.485 34.495 -18.485 34.495 -20 35 C-23.38925141 25.47781747 -24.90149342 15.1008895 -22.25 5.19921875 C-17.91233419 -2.83402417 -7.80020368 -0.62540609 0 0 Z " fill="#185898" transform="translate(139,110)"/>
<path d="M0 0 C6.35244627 5.77495116 11.63628818 13.08538396 15 21 C15 21.66 15 22.32 15 23 C14.34 23 13.68 23 13 23 C13 23.66 13 24.32 13 25 C13.66 25.33 14.32 25.66 15 26 C14.525625 26.886875 14.05125 27.77375 13.5625 28.6875 C11.53607302 33.29644321 11.5480313 37.93990201 11.40625 42.9140625 C10.85156942 47.12750152 9.17343085 49.73964835 6.3125 52.8125 C2.82364143 54.60407602 -0.10761147 54.19461943 -4 54 C-4 53.67 -4 53.34 -4 53 C-3.38511719 52.82984375 -2.77023438 52.6596875 -2.13671875 52.484375 C-1.32847656 52.24203125 -0.52023438 51.9996875 0.3125 51.75 C1.51326172 51.40195313 1.51326172 51.40195313 2.73828125 51.046875 C5.60887884 49.71817007 6.49199831 48.79543 8 46 C8.74762019 43.17418028 9.1958789 40.32675287 9.625 37.4375 C10.9180622 29.2458134 10.9180622 29.2458134 12 26 C11.41992188 25.62488281 10.83984375 25.24976562 10.2421875 24.86328125 C6.52456717 22.42781051 2.88769434 20.00867152 -0.5 17.125 C-2.58013969 14.8920586 -2.58013969 14.8920586 -4 15 C-3.67 10.38 -3.34 5.76 -3 1 C-2.67 1 -2.34 1 -2 1 C-2 2.65 -2 4.3 -2 6 C-1.34 6 -0.68 6 0 6 C0 4.02 0 2.04 0 0 Z " fill="#C7D6E8" transform="translate(160,65)"/>
<path d="M0 0 C12.54825775 1.10378193 24.77085509 4.32814132 35 12 C31.47072234 14.90646395 27.94769379 17.68287538 24 20 C21 19 21 19 19.2890625 16.203125 C16.45765015 12.24108041 13.67905165 10.81132742 9.375 8.75 C2.17951128 5.17951128 2.17951128 5.17951128 0 3 C0 2.01 0 1.02 0 0 Z " fill="#0855A1" transform="translate(116,45)"/>
<path d="M0 0 C4.17437899 1.39145966 7.19196096 2.50446237 10.875 4.625 C11.65617187 5.07101563 12.43734375 5.51703125 13.2421875 5.9765625 C14.11230469 6.48316406 14.11230469 6.48316406 15 7 C15.125 9.875 15.125 9.875 15 13 C14.34 13.66 13.68 14.32 13 15 C11.68 15 10.36 15 9 15 C9.33 15.66 9.66 16.32 10 17 C10.04022391 19.3329866 10.04320247 21.66706666 10 24 C7.525 23.01 7.525 23.01 5 22 C4.9175 20.88625 4.835 19.7725 4.75 18.625 C4.42126213 14.94246056 4.42126213 14.94246056 1.9375 13.5625 C1.298125 13.376875 0.65875 13.19125 0 13 C-0.66 14.65 -1.32 16.3 -2 18 C-4.475 17.01 -4.475 17.01 -7 16 C-4.69 10.72 -2.38 5.44 0 0 Z " fill="#1058A3" transform="translate(145,23)"/>
<path d="M0 0 C2.31 0.33 4.62 0.66 7 1 C8.98 6.94 10.96 12.88 13 19 C11.35 19 9.7 19 8 19 C7.67 18.01 7.34 17.02 7 16 C3.37 15.34 -0.26 14.68 -4 14 C-4.33 15.32 -4.66 16.64 -5 18 C-6.32 17.67 -7.64 17.34 -9 17 C-7.68925635 12.53817564 -5.92933989 9.00381243 -3.375 5.125 C-2.74335937 4.15820312 -2.11171875 3.19140625 -1.4609375 2.1953125 C-0.73777344 1.10863281 -0.73777344 1.10863281 0 0 Z " fill="#1058A3" transform="translate(102,189)"/>
<path d="M0 0 C2.97911363 2.56342336 3.27952874 3.53876581 3.6875 7.3125 C4.3475 7.6425 5.0075 7.9725 5.6875 8.3125 C5.1493629 14.00301363 4.5474867 19.66115884 3.6875 25.3125 C3.06875 25.43625 2.45 25.56 1.8125 25.6875 C-0.50370832 26.18447356 -0.50370832 26.18447356 -2.3125 28.3125 C-2.22871094 27.43207031 -2.14492187 26.55164063 -2.05859375 25.64453125 C-1.95675781 24.48308594 -1.85492188 23.32164062 -1.75 22.125 C-1.64558594 20.97644531 -1.54117188 19.82789063 -1.43359375 18.64453125 C-1.32374595 15.62194508 -1.67529359 13.24150761 -2.3125 10.3125 C-1.9825 9.9825 -1.6525 9.6525 -1.3125 9.3125 C-2.8903125 8.9721875 -2.8903125 8.9721875 -4.5 8.625 C-8.4722906 7.51889469 -10.60849637 5.42620115 -13.3125 2.3125 C-10.8375 3.3025 -10.8375 3.3025 -8.3125 4.3125 C-7.6525 3.3225 -6.9925 2.3325 -6.3125 1.3125 C-9.6125 0.9825 -12.9125 0.6525 -16.3125 0.3125 C-16.3125 -0.0175 -16.3125 -0.3475 -16.3125 -0.6875 C-4.92580327 -2.50937148 -4.92580327 -2.50937148 0 0 Z " fill="#C1A334" transform="translate(103.3125,110.6875)"/>
<path d="M0 0 C1.33469248 0.66394141 2.66751108 1.33164717 4 2 C5.1653125 2.58394531 6.330625 3.16789062 7.53125 3.76953125 C8.85459276 4.44969245 10.17749808 5.13070532 11.5 5.8125 C12.16386719 6.14314453 12.82773438 6.47378906 13.51171875 6.81445312 C19.07580595 9.70755635 22.41992189 13.19482425 25 19 C24.01 19 23.02 19 22 19 C21.505 20.485 21.505 20.485 21 22 C20.34 22 19.68 22 19 22 C18.649375 20.93265625 18.29875 19.8653125 17.9375 18.765625 C16.0965104 14.47430416 13.07227496 12.75275818 9 10.75 C1.35048232 6.79983923 1.35048232 6.79983923 -1 4 C-2.2065625 5.0828125 -2.2065625 5.0828125 -3.4375 6.1875 C-6.01807792 8.35739213 -8.65047608 9.97936496 -11.625 11.5625 C-14.94784556 13.35817916 -17.6938547 14.9251396 -20 18 C-20.79681318 20.64184541 -20.79681318 20.64184541 -21 23 C-21.99 22.67 -22.98 22.34 -24 22 C-22.72580591 16.0537609 -19.87412851 13.2851269 -15 10 C-12.4666275 8.6741228 -9.90055071 7.44949637 -7.3125 6.234375 C-4.20984483 4.57822798 -2.27570707 2.65499158 0 0 Z " fill="#E8EEF5" transform="translate(114,47)"/>
<path d="M0 0 C1.32 0.66 2.64 1.32 4 2 C3.401875 2.680625 2.80375 3.36125 2.1875 4.0625 C-0.23587643 7.31674834 -1.5252401 10.23936225 -3 14 C-1.68 14 -0.36 14 1 14 C2.32 11.36 3.64 8.72 5 6 C5.66 6.33 6.32 6.66 7 7 C6.46274105 10.37705625 5.88935377 13.696686 5 17 C5.99 17 6.98 17 8 17 C9.65 13.37 11.3 9.74 13 6 C13.99 6.66 14.98 7.32 16 8 C14.35433477 13.68502535 11.70967216 18.76681636 9 24 C5.17949217 22.5183074 1.58893084 20.80409242 -2.03515625 18.90234375 C-4.00920876 17.99577093 -5.88113417 17.45775052 -8 17 C-6.3341708 10.83643195 -3.12194714 5.51740344 0 0 Z " fill="#1157A2" transform="translate(32,61)"/>
<path d="M0 0 C1.04414062 0.57814453 1.04414062 0.57814453 2.109375 1.16796875 C-3.890625 4.16796875 -3.890625 4.16796875 -9.890625 7.16796875 C-8.900625 8.65296875 -8.900625 8.65296875 -7.890625 10.16796875 C-5.250625 8.84796875 -2.610625 7.52796875 0.109375 6.16796875 C0.109375 7.48796875 0.109375 8.80796875 0.109375 10.16796875 C-1.870625 11.15796875 -3.850625 12.14796875 -5.890625 13.16796875 C-5.890625 14.15796875 -5.890625 15.14796875 -5.890625 16.16796875 C-0.73597766 15.68472056 2.92487819 12.98186114 7.109375 10.16796875 C7.109375 11.81796875 7.109375 13.46796875 7.109375 15.16796875 C-0.810625 19.12796875 -0.810625 19.12796875 -8.890625 23.16796875 C-9.7878125 20.84765625 -9.7878125 20.84765625 -10.703125 18.48046875 C-11.8775542 15.51084064 -13.02085933 12.95689933 -14.703125 10.23046875 C-15.095 9.54984375 -15.486875 8.86921875 -15.890625 8.16796875 C-14.54803185 4.1401893 -12.86445038 3.7582527 -9.140625 1.85546875 C-8.09390625 1.30246094 -7.0471875 0.74945312 -5.96875 0.1796875 C-2.890625 -0.83203125 -2.890625 -0.83203125 0 0 Z " fill="#1259A3" transform="translate(76.890625,25.83203125)"/>
<path d="M0 0 C0.33 1.32 0.66 2.64 1 4 C0.32904297 4.56267578 0.32904297 4.56267578 -0.35546875 5.13671875 C-5.181557 9.22191499 -9.71814695 13.37106049 -13.6875 18.3125 C-14.8321875 19.6428125 -14.8321875 19.6428125 -16 21 C-16.66 21 -17.32 21 -18 21 C-18.28875 20.195625 -18.5775 19.39125 -18.875 18.5625 C-19.73262568 15.8673532 -19.73262568 15.8673532 -22 15 C-22 13.35 -22 11.7 -22 10 C-21.01 10.99 -20.02 11.98 -19 13 C-19 11.35 -19 9.7 -19 8 C-6.51480638 1.48063781 -6.51480638 1.48063781 0 0 Z " fill="#F3F6F7" transform="translate(142,125)"/>
<path d="M0 0 C6.68452783 0.52132366 14.21827009 5.10941979 18.796875 9.8671875 C19.25578125 10.42664063 19.7146875 10.98609375 20.1875 11.5625 C21.115625 12.366875 22.04375 13.17125 23 14 C24.92589128 13.85618117 24.92589128 13.85618117 26.984375 13.16015625 C32.39291597 11.77070093 37.50626237 11.7744696 43.0625 11.875 C44.50399414 11.88853516 44.50399414 11.88853516 45.97460938 11.90234375 C48.31667805 11.92564792 50.65819792 11.95835942 53 12 C52.360625 12.309375 51.72125 12.61875 51.0625 12.9375 C49.06389179 13.8345163 49.06389179 13.8345163 48 15 C45.41242474 15.21267742 42.84206806 15.3767855 40.25 15.5 C35.76138639 15.71797224 31.38978041 15.963044 27 17 C26.67 17.99 26.34 18.98 26 20 C23.18682149 18.69390891 20.90860486 17.24596889 18.5390625 15.25 C17.90226562 14.7240625 17.26546875 14.198125 16.609375 13.65625 C15.29105744 12.55592196 13.97591951 11.45177265 12.6640625 10.34375 C8.91088616 7.25645978 5.81769306 5.19323667 1 4 C0.34 4.66 -0.32 5.32 -1 6 C-1.625 4.125 -1.625 4.125 -2 2 C-1.34 1.34 -0.68 0.68 0 0 Z " fill="#185A9B" transform="translate(71,61)"/>
<path d="M0 0 C11.52164009 0.96355353 11.52164009 0.96355353 17 2 C17 3.32 17 4.64 17 6 C12.71 5.01 8.42 4.02 4 3 C4.33 4.32 4.66 5.64 5 7 C7.64 7.66 10.28 8.32 13 9 C12.67 9.66 12.34 10.32 12 11 C8.7 11 5.4 11 2 11 C2 12.32 2 13.64 2 15 C6.29 15.66 10.58 16.32 15 17 C14.67 17.99 14.34 18.98 14 20 C11.18596699 19.71949194 8.37432747 19.42618696 5.5625 19.125 C4.35883789 19.00705078 4.35883789 19.00705078 3.13085938 18.88671875 C1.07829006 18.66154237 -0.96293009 18.33777413 -3 18 C-4.66285211 14.67429578 -2.98079852 11.31639055 -2.0625 7.875 C-1.86720703 7.12089844 -1.67191406 6.36679687 -1.47070312 5.58984375 C-0.98676642 3.72491694 -0.49419231 1.86223541 0 0 Z " fill="#135AA4" transform="translate(121,18)"/>
<path d="M0 0 C4.84759649 1.66636129 10.32624301 4.32624301 14 8 C14.61444107 13.28419321 13.20384448 15.85384831 10 20 C9.34 20.66 8.68 21.32 8 22 C1.71511666 21.87173707 -2.72644952 19.24066254 -8 16 C-7.34 14.35 -6.68 12.7 -6 11 C-5.33613281 11.433125 -4.67226562 11.86625 -3.98828125 12.3125 C-3.10527344 12.869375 -2.22226563 13.42625 -1.3125 14 C-0.44238281 14.556875 0.42773438 15.11375 1.32421875 15.6875 C4.16973337 17.08325608 5.8788594 17.26993648 9 17 C9 14.69 9 12.38 9 10 C3.798474 6.76340806 3.798474 6.76340806 -2 5 C-1.34 3.35 -0.68 1.7 0 0 Z " fill="#1158A3" transform="translate(184,142)"/>
<path d="M0 0 C1.96152461 3.92304922 1.29966336 7.92403447 0 12 C-3.01149177 16.04132834 -6.43647221 19.43647221 -10 23 C-10.33 23.66 -10.66 24.32 -11 25 C-9.68 24.67 -8.36 24.34 -7 24 C-9.83430453 27.2542015 -11.68607774 28.5206753 -16 29 C-16.33 28.34 -16.66 27.68 -17 27 C-15.68 27 -14.36 27 -13 27 C-13 26.34 -13 25.68 -13 25 C-13.99 25 -14.98 25 -16 25 C-13.37907494 15.04048476 -6.96328658 7.3167529 0 0 Z " fill="#0A56A1" transform="translate(65,64)"/>
<path d="M0 0 C5.66572832 3.55755034 10.61267878 6.75321109 12.6875 13.4375 C13.22543476 16.2842698 13.35263604 17.44794997 11.77734375 19.9140625 C10.125 21.5625 10.125 21.5625 7 24 C6.01 23.67 5.02 23.34 4 23 C3.3046875 21.22265625 3.3046875 21.22265625 2.875 19.0625 C2.40943487 16.81226851 2.03133241 15.06266481 1 13 C0.77049681 10.795636 0.58924067 8.58607827 0.4375 6.375 C0.35371094 5.18648438 0.26992187 3.99796875 0.18359375 2.7734375 C0.12300781 1.85820313 0.06242187 0.94296875 0 0 Z " fill="#F6F8FB" transform="translate(75,70)"/>
<path d="M0 0 C0 0.99 0 1.98 0 3 C-4.455 3.495 -4.455 3.495 -9 4 C-9 4.99 -9 5.98 -9 7 C-8.09507813 6.96519531 -8.09507813 6.96519531 -7.171875 6.9296875 C-5.97304687 6.90261719 -5.97304687 6.90261719 -4.75 6.875 C-3.96109375 6.85179687 -3.1721875 6.82859375 -2.359375 6.8046875 C0.20731941 7.0171622 1.7916067 7.71345895 4 9 C4 11.31 4 13.62 4 16 C-5.41002278 20.59225513 -5.41002278 20.59225513 -10 20 C-10.33 19.01 -10.66 18.02 -11 17 C-7.7 16.34 -4.4 15.68 -1 15 C-1 14.01 -1 13.02 -1 12 C-1.77085938 11.95101563 -2.54171875 11.90203125 -3.3359375 11.8515625 C-4.33882812 11.77679688 -5.34171875 11.70203125 -6.375 11.625 C-7.87160156 11.52058594 -7.87160156 11.52058594 -9.3984375 11.4140625 C-12 11 -12 11 -14 9 C-14 6.0625 -14 6.0625 -13 3 C-8.71417 -0.06130715 -5.1708804 -0.31025282 0 0 Z " fill="#0852A0" transform="translate(97,19)"/>
<path d="M0 0 C13.8102653 3.1225416 13.8102653 3.1225416 19 8 C19 8.99 19 9.98 19 11 C20.32 11 21.64 11 23 11 C22.67 12.65 22.34 14.3 22 16 C21.34 16 20.68 16 20 16 C19.67 17.32 19.34 18.64 19 20 C12.55049327 14.72807175 12.55049327 14.72807175 10.0625 11.4375 C7.59291538 8.5189 4.96375285 7.07759959 1.609375 5.30859375 C1.07828125 4.87675781 0.5471875 4.44492188 0 4 C0 2.68 0 1.36 0 0 Z " fill="#F0F3F6" transform="translate(83,126)"/>
<path d="M0 0 C2 3 2 3 2 5 C-1.465 6.485 -1.465 6.485 -5 8 C-5.16677282 11.41656024 -5.16677282 11.41656024 -5 15 C-4.34 15.66 -3.68 16.32 -3 17 C2.05453752 16.86038502 2.05453752 16.86038502 5.9375 13.9375 C6.288125 13.298125 6.63875 12.65875 7 12 C7.99 12.33 8.98 12.66 10 13 C9.69095593 15.88441135 8.98382135 17.0176954 7 19.1875 C3.0555019 21.57063427 -0.38813902 22.47622477 -5 22 C-8.65960966 19.56026022 -9.73565702 17.75129056 -11.1875 13.625 C-10.95679498 9.16470286 -9.71956694 7.64797264 -6.703125 4.51171875 C-4.62328173 2.66561934 -2.48644204 1.24322102 0 0 Z " fill="#125AA4" transform="translate(164,170)"/>
<path d="M0 0 C1.47162518 4.70190874 0.31210631 8.49284259 -0.75 13.1875 C-0.92015625 14.01958984 -1.0903125 14.85167969 -1.265625 15.70898438 C-1.52859375 16.89524414 -1.52859375 16.89524414 -1.796875 18.10546875 C-1.95510742 18.82887451 -2.11333984 19.55228027 -2.27636719 20.29760742 C-2.51516602 20.85939697 -2.75396484 21.42118652 -3 22 C-3.99 22.33 -4.98 22.66 -6 23 C-8.5625 21.125 -8.5625 21.125 -11 18 C-11.54317938 14.41262847 -11.19330392 11.42116949 -10 8 C-7.97029773 5.48090251 -5.70495965 3.74818353 -3 2 C-2.01 1.34 -1.02 0.68 0 0 Z " fill="#F5F8FA" transform="translate(149,69)"/>
<path d="M0 0 C3.86665297 2.08204391 6.72595332 4.20992219 9 8 C9 8.66 9 9.32 9 10 C7.68 10.33 6.36 10.66 5 11 C4.525625 10.195625 4.05125 9.39125 3.5625 8.5625 C2.23099846 6.15246512 2.23099846 6.15246512 1 5 C-3.17176749 4.62427011 -3.17176749 4.62427011 -6.9375 6.1875 C-8.20544855 8.00030988 -8.20544855 8.00030988 -8 10.4375 C-6.70241619 13.76255851 -4.87906348 14.96358925 -2 17 C-1.34 17.66 -0.68 18.32 0 19 C-1.98 19.99 -1.98 19.99 -4 21 C-5.12894876 20.06725891 -6.25300876 19.12859878 -7.375 18.1875 C-8.00148437 17.66542969 -8.62796875 17.14335938 -9.2734375 16.60546875 C-11 15 -11 15 -13 12 C-12.92123738 7.74681842 -12.38218623 5.52831626 -9.875 2.0625 C-6.20182575 -0.57260327 -4.43890027 -0.70087899 0 0 Z " fill="#1359A3" transform="translate(176,42)"/>
<path d="M0 0 C0.66 1.32 1.32 2.64 2 4 C1.01 4.70125 0.02 5.4025 -1 6.125 C-3.59765431 8.27541665 -3.94920901 8.67620742 -4.5 12.1875 C-4.25414188 15.12747383 -4.25414188 15.12747383 -2 17 C0.8715965 17.66790364 0.8715965 17.66790364 4 17 C6.05254178 15.16604059 7.39139231 13.27097556 9 11 C9.99 11.66 10.98 12.32 12 13 C12 13.66 12 14.32 12 15 C11.34 15 10.68 15 10 15 C9.7525 15.598125 9.505 16.19625 9.25 16.8125 C7.72595895 19.47957184 6.73254065 20.56182071 4 22 C1.24239416 22.47094915 -1.24799463 22.52553696 -4 22 C-7.5260192 19.28767754 -8.8343972 17.20653468 -9.4375 12.8125 C-8.85754802 7.75863274 -6.66125634 5.37619502 -3 2 C-2.01 1.34 -1.02 0.68 0 0 Z " fill="#0B55A1" transform="translate(55,36)"/>
<path d="M0 0 C-0.95478241 9.58152232 -2.0168212 18.79192145 -5 28 C-6.703125 28.74609375 -6.703125 28.74609375 -9 29 C-11.359375 27.34765625 -11.359375 27.34765625 -13.75 25.0625 C-14.54921875 24.31097656 -15.3484375 23.55945313 -16.171875 22.78515625 C-16.77515625 22.19605469 -17.3784375 21.60695313 -18 21 C-16.16280899 9.1730829 -16.16280899 9.1730829 -11.125 5.4375 C-9.76952921 4.59282243 -8.39548775 3.77678517 -7 3 C-5.576875 2.071875 -5.576875 2.071875 -4.125 1.125 C-2 0 -2 0 0 0 Z M-3 3 C-4.47981874 4.14499107 -5.95883682 5.291017 -7.4375 6.4375 C-8.26121094 7.07558594 -9.08492187 7.71367188 -9.93359375 8.37109375 C-13.04125731 10.82080208 -13.30202666 11.79765328 -13.875 15.75 C-14.29282234 19.97666657 -14.30873946 20.60418018 -11.5625 24.125 C-10.716875 24.74375 -9.87125 25.3625 -9 26 C-8.01 25.67 -7.02 25.34 -6 25 C-5.19594091 23.25459773 -5.19594091 23.25459773 -4.796875 21.10546875 C-4.53390625 19.91920898 -4.53390625 19.91920898 -4.265625 18.70898438 C-4.09546875 17.87689453 -3.9253125 17.04480469 -3.75 16.1875 C-3.564375 15.36701172 -3.37875 14.54652344 -3.1875 13.70117188 C-2.33796718 9.73346745 -1.76561051 6.94393004 -3 3 Z " fill="#2661A1" transform="translate(152,66)"/>
<path d="M0 0 C10.54285714 1.99142857 10.54285714 1.99142857 15 5 C15.875 7.6875 15.875 7.6875 16 10 C14.35 10.33 12.7 10.66 11 11 C11.33 9.35 11.66 7.7 12 6 C7.545 5.01 7.545 5.01 3 4 C3.33 5.32 3.66 6.64 4 8 C6.99615946 9.3045656 6.99615946 9.3045656 10 10 C9.67 10.99 9.34 11.98 9 13 C6.36 12.34 3.72 11.68 1 11 C1 12.98 1 14.96 1 17 C-0.8125 17.625 -0.8125 17.625 -3 18 C-3.99 17.34 -4.98 16.68 -6 16 C-5.73445313 15.43152344 -5.46890625 14.86304688 -5.1953125 14.27734375 C-3.04115794 9.56807886 -1.28111201 5.01768869 0 0 Z " fill="#1259A3" transform="translate(78,183)"/>
<path d="M0 0 C-1.17744583 2.89009431 -2.17164478 4.14303731 -4.625 6.1875 C-7.44622158 9.52842029 -7.78135899 11.07103591 -7.57421875 15.328125 C-6.59468648 19.88594864 -4.45824507 23.87169695 -2.3125 27.984375 C-1.00997995 30.97706989 -0.7145087 32.78822284 -1 36 C0.485 35.505 0.485 35.505 2 35 C3.64053097 34.87514263 5.28502813 34.79892596 6.9296875 34.75390625 C7.89003906 34.72103516 8.85039063 34.68816406 9.83984375 34.65429688 C11.85536119 34.5933385 13.87099209 34.53601772 15.88671875 34.48242188 C16.84964844 34.44826172 17.81257813 34.41410156 18.8046875 34.37890625 C20.11928955 34.34132202 20.11928955 34.34132202 21.46044922 34.30297852 C24.24762447 33.97045742 26.44830203 33.14525704 29 32 C29 32.99 29 33.98 29 35 C26.9786147 36.97073555 25.61772962 37.90750572 22.80859375 38.328125 C21.63490234 38.28945312 21.63490234 38.28945312 20.4375 38.25 C19.12845703 38.21326172 19.12845703 38.21326172 17.79296875 38.17578125 C14.93568011 37.99595189 12.09793841 37.72889888 9.25 37.4375 C5.29266357 37.03334649 1.90523905 37.05007699 -2 38 C-2.20625 36.741875 -2.4125 35.48375 -2.625 34.1875 C-3.48780427 30.13358876 -4.9717425 27.15451407 -7.125 23.625 C-9.8287662 18.84656171 -11.01900356 15.038069 -10.734375 9.52734375 C-9.43430985 5.05318336 -4.95819485 0 0 0 Z " fill="#4D7DB6" transform="translate(76,128)"/>
<path d="M0 0 C1.66067137 4.86925247 2.26299506 9.87159632 2 15 C1.01 15.33 0.02 15.66 -1 16 C-1.33 12.37 -1.66 8.74 -2 5 C-3.65 5 -5.3 5 -7 5 C-6.34 8.3 -5.68 11.6 -5 15 C-9 13 -9 13 -10.25 9.875 C-10.4975 8.92625 -10.745 7.9775 -11 7 C-12.98 7.33 -14.96 7.66 -17 8 C-17.33 6.35 -17.66 4.7 -18 3 C-15.37700199 2.30391966 -12.7520793 1.61784618 -10.125 0.9375 C-9.00544922 0.63875977 -9.00544922 0.63875977 -7.86328125 0.33398438 C-2.2265625 -1.11328125 -2.2265625 -1.11328125 0 0 Z " fill="#1359A3" transform="translate(36,123)"/>
<path d="M0 0 C2.7666501 2.01890683 3.84010853 3.18055623 4.5 6.5625 C4 9 4 9 2.375 10.8125 C-0.6652969 12.33264845 -2.64041709 12.42888292 -6 12 C-7.875 10.875 -7.875 10.875 -9 9 C-9.4375 6 -9.4375 6 -9 3 C-6.31164707 0.01294119 -3.93697301 -0.68897028 0 0 Z " fill="#F3F6FA" transform="translate(38,145)"/>
<path d="M0 0 C0.66 0 1.32 0 2 0 C2.375 2.125 2.375 2.125 2 5 C0.20659643 7.23913252 -1.83452663 9.12454539 -4 11 C-1.02819057 12.89865603 1.51460083 14.35455571 5 15 C5 16.65 5 18.3 5 20 C1.76475205 18.99861373 -1.0877657 17.95163931 -4.0625 16.3125 C-7.36224131 14.8381475 -8.63211996 14.87737332 -12 16 C-12.66 16.33 -13.32 16.66 -14 17 C-14 15.02 -14 13.04 -14 11 C-13.175 10.855625 -12.35 10.71125 -11.5 10.5625 C-7.00153978 8.55425883 -4.80555014 5.67193564 -1.734375 1.8984375 C-1.16203125 1.27195312 -0.5896875 0.64546875 0 0 Z " fill="#0A54A1" transform="translate(202,83)"/>
<path d="M0 0 C2.375 1.6875 2.375 1.6875 4 4 C3.93019221 6.86211941 3.37347914 8.42995288 1.8125 10.8125 C-0.88924432 12.58260835 -2.84673574 12.39415803 -6 12 C-7.875 10.875 -7.875 10.875 -9 9 C-9.4375 6 -9.4375 6 -9 3 C-6.31164707 0.01294119 -3.93697301 -0.68897028 0 0 Z " fill="#F6F8FB" transform="translate(51,164)"/>
<path d="M0 0 C0.66 0.20625 1.32 0.4125 2 0.625 C3.85463477 0.625 5.71006788 0.59036254 7.5625 0.5 C10 0.625 10 0.625 12 2.625 C12.31537716 6.96143601 12.44897847 8.95153229 10 12.625 C9.34 10.315 8.68 8.005 8 5.625 C7.01 5.955 6.02 6.285 5 6.625 C3.77479736 9.63347418 3.77479736 9.63347418 3 12.625 C2.34 12.295 1.68 11.965 1 11.625 C1 9.315 1 7.005 1 4.625 C-2.11332248 5.29368314 -2.11332248 5.29368314 -3.1875 7.6875 C-3.455625 8.326875 -3.72375 8.96625 -4 9.625 C-4.66 9.625 -5.32 9.625 -6 9.625 C-5.51171875 3.5703125 -5.51171875 3.5703125 -5 1.625 C-2 -0.375 -2 -0.375 0 0 Z " fill="#0E56A2" transform="translate(194,122.375)"/>
<path d="M0 0 C5.71995912 5.19996283 10.9780938 11.83971978 14 19 C14 19.99 14 20.98 14 22 C8.74915041 21.28843627 5.65383794 17.54209069 2.0859375 13.921875 C-0.81327019 9.86081254 -0.82178317 6.9046778 -0.3515625 2.0546875 C-0.23554688 1.37664062 -0.11953125 0.69859375 0 0 Z " fill="#0E57A2" transform="translate(160,65)"/>
<path d="M0 0 C5.1588796 2.79725916 10.17342499 5.658525 15 9 C14.67 10.32 14.34 11.64 14 13 C13.34 13 12.68 13 12 13 C11 12 10 11 9 10 C8.34 10 7.68 10 7 10 C5.71993203 11.78398614 4.52339649 13.62853906 3.375 15.5 C2.74335937 16.5209375 2.11171875 17.541875 1.4609375 18.59375 C0.97882812 19.3878125 0.49671875 20.181875 0 21 C-1.32 20.34 -2.64 19.68 -4 19 C-2.6744419 15.37723685 -1.05653045 12.36494652 1.125 9.1875 C1.93324219 8.00220703 1.93324219 8.00220703 2.7578125 6.79296875 C3.16773437 6.20128906 3.57765625 5.60960937 4 5 C1.69 4.34 -0.62 3.68 -3 3 C-2.01 2.01 -1.02 1.02 0 0 Z " fill="#0F57A2" transform="translate(62,172)"/>
<path d="M0 0 C1.65 0 3.3 0 5 0 C6.17154293 2.28929053 7.33738074 4.58118362 8.5 6.875 C8.83386719 7.52597656 9.16773438 8.17695312 9.51171875 8.84765625 C12 13.7734375 12 13.7734375 12 16 C11.01 16.33 10.02 16.66 9 17 C8.34 15.35 7.68 13.7 7 12 C3.2397015 12.58107632 0.46964968 13.65199496 -2.8125 15.5625 C-3.99779297 16.24505859 -3.99779297 16.24505859 -5.20703125 16.94140625 C-5.79871094 17.29074219 -6.39039063 17.64007813 -7 18 C-7.66 16.02 -8.32 14.04 -9 12 C-7.95199219 11.58427734 -7.95199219 11.58427734 -6.8828125 11.16015625 C-5.97273437 10.79792969 -5.06265625 10.43570313 -4.125 10.0625 C-3.22007812 9.70285156 -2.31515625 9.34320313 -1.3828125 8.97265625 C0.96137667 8.05098738 0.96137667 8.05098738 3 7 C1.60240095 3.45481116 1.60240095 3.45481116 0 0 Z " fill="#1058A3" transform="translate(190,64)"/>
<path d="M0 0 C1.91015625 0.1328125 1.91015625 0.1328125 3.91015625 1.1328125 C3.66015625 3.5078125 3.66015625 3.5078125 2.91015625 6.1328125 C0.84765625 7.4453125 0.84765625 7.4453125 -1.08984375 8.1328125 C-1.08984375 9.1228125 -1.08984375 10.1128125 -1.08984375 11.1328125 C2.24069999 11.26759737 2.24069999 11.26759737 5.91015625 10.1328125 C7.57275267 8.1419059 8.75020268 6.13616873 9.96484375 3.84765625 C10.27679688 3.28175781 10.58875 2.71585938 10.91015625 2.1328125 C11.24015625 2.1328125 11.57015625 2.1328125 11.91015625 2.1328125 C11.54280931 8.50015944 11.54280931 8.50015944 8.59765625 11.4453125 C7.71078125 12.0021875 6.82390625 12.5590625 5.91015625 13.1328125 C5.22953125 13.5659375 4.54890625 13.9990625 3.84765625 14.4453125 C1.48059527 15.28523736 0.24121873 14.96533481 -2.08984375 14.1328125 C-1.09984375 13.8028125 -0.10984375 13.4728125 0.91015625 13.1328125 C-0.40984375 12.4728125 -1.72984375 11.8128125 -3.08984375 11.1328125 C-2.75984375 10.1428125 -2.42984375 9.1528125 -2.08984375 8.1328125 C-2.72921875 7.9059375 -3.36859375 7.6790625 -4.02734375 7.4453125 C-6.08984375 6.1328125 -6.08984375 6.1328125 -6.90234375 3.5703125 C-6.96421875 2.7659375 -7.02609375 1.9615625 -7.08984375 1.1328125 C-5.19099279 -0.76603846 -2.51736472 0.00913744 0 0 Z " fill="#0B539D" transform="translate(114.08984375,144.8671875)"/>
<path d="M0 0 C-0.33 1.32 -0.66 2.64 -1 4 C-3.97 3.505 -3.97 3.505 -7 3 C-6.67 7.95 -6.34 12.9 -6 18 C-7.65 18 -9.3 18 -11 18 C-11 13.38 -11 8.76 -11 4 C-13.64 4.33 -16.28 4.66 -19 5 C-18.67 3.68 -18.34 2.36 -18 1 C-11.97403427 -0.0712828 -6.11090483 -0.09945415 0 0 Z " fill="#1058A3" transform="translate(118,17)"/>
<path d="M0 0 C0.99 0.99 1.98 1.98 3 3 C1.51460715 8.28139679 -2.08672304 12.28054101 -6 16 C-6.66 16 -7.32 16 -8 16 C-9.17086935 14.56150337 -10.33941807 13.12101046 -11.4921875 11.66796875 C-13.97938181 8.91659058 -16.92258186 7.05161209 -20 5 C-19.34 3.68 -18.68 2.36 -18 1 C-14.22345045 2.70152232 -11.65890044 5.02594546 -8.68359375 7.85546875 C-7.85021484 8.42201172 -7.85021484 8.42201172 -7 9 C-3.54491619 7.8483054 -2.89296376 7.01153326 -1 4 C-0.29485154 1.85266073 -0.29485154 1.85266073 0 0 Z " fill="#1058A3" transform="translate(186,165)"/>
<path d="M0 0 C0.99 0.33 1.98 0.66 3 1 C2.88382356 2.37577361 2.75654223 3.75061045 2.625 5.125 C2.55539063 5.89070313 2.48578125 6.65640625 2.4140625 7.4453125 C2 10 2 10 0 16 C-8.415 14.02 -8.415 14.02 -17 12 C-17 10.35 -17 8.7 -17 7 C-16.12988281 7.2165625 -16.12988281 7.2165625 -15.2421875 7.4375 C-10.73340325 8.50889428 -6.66945753 9.23945936 -2 9 C-1.34 6.03 -0.68 3.06 0 0 Z " fill="#1159A3" transform="translate(36,87)"/>
<path d="M0 0 C0 4.62 0 9.24 0 14 C6.16709155 13.03633744 6.16709155 13.03633744 12 11 C12 12.65 12 14.3 12 16 C6.72 16.66 1.44 17.32 -4 18 C-4.66 12.06 -5.32 6.12 -6 0 C-3 -1 -3 -1 0 0 Z " fill="#0A53A0" transform="translate(122,190)"/>
<path d="M0 0 C1.32 4.29 2.64 8.58 4 13 C8.95 11.515 8.95 11.515 14 10 C14 11.32 14 12.64 14 14 C12.23141309 14.67260351 10.46003984 15.33788395 8.6875 16 C7.70136719 16.37125 6.71523437 16.7425 5.69921875 17.125 C3 18 3 18 0 18 C-0.83698386 15.54285453 -1.66972424 13.08441143 -2.5 10.625 C-2.73847656 9.92632812 -2.97695312 9.22765625 -3.22265625 8.5078125 C-5 3.2265625 -5 3.2265625 -5 1 C-3 0 -3 0 0 0 Z " fill="#1058A2" transform="translate(137,186)"/>
<path d="M0 0 C3.37462715 0.54723683 5.08235 1.0549 8 3 C7.125 6.875 7.125 6.875 6 8 C6.99 8.66 7.98 9.32 9 10 C8.01 10 7.02 10 6 10 C6.33 10.66 6.66 11.32 7 12 C7.04022391 14.3329866 7.04320247 16.66706666 7 19 C4.525 18.01 4.525 18.01 2 17 C1.87625 15.906875 1.7525 14.81375 1.625 13.6875 C1.24535199 9.92618198 1.24535199 9.92618198 -1 7 C-1 4.57202689 -0.49914315 2.37092995 0 0 Z " fill="#1359A3" transform="translate(148,28)"/>
<path d="M0 0 C1.5121867 3.02437339 1.17263369 5.66241534 1 9 C0.69578125 9.56847656 0.3915625 10.13695313 0.078125 10.72265625 C-1.77134374 14.62932391 -2.1249293 18.99657412 -2.76757812 23.24414062 C-3.43176469 27.19623414 -3.99625603 29.35656321 -7 32 C-6.43617776 25.00634512 -5.37639601 18.23899157 -3.9375 11.375 C-3.75123047 10.46621094 -3.56496094 9.55742188 -3.37304688 8.62109375 C-2.91982704 6.4130997 -2.46210307 4.20614876 -2 2 C-2.68707031 2.433125 -3.37414062 2.86625 -4.08203125 3.3125 C-5.43361328 4.1478125 -5.43361328 4.1478125 -6.8125 5 C-8.15248047 5.8353125 -8.15248047 5.8353125 -9.51953125 6.6875 C-12 8 -12 8 -15 8 C-11.19655564 3.56264825 -5.95673618 0 0 0 Z " fill="#DFB121" transform="translate(154,64)"/>
<path d="M0 0 C2.49361571 1.20381448 4.68143083 2.45428722 7 4 C9.60245498 4.14221065 12.09117684 4.18802932 14.6875 4.125 C15.38939453 4.11597656 16.09128906 4.10695312 16.81445312 4.09765625 C18.54311525 4.07413704 20.27160145 4.03826713 22 4 C19.55558532 8.76660863 19.55558532 8.76660863 17.09375 9.80078125 C14.88416691 10.01102143 12.72036099 10.16849006 10.5 10.1875 C9.7471875 10.20167969 8.994375 10.21585938 8.21875 10.23046875 C5.71409567 9.97030219 4.12327973 9.34002543 2 8 C1.375 6.0625 1.375 6.0625 1 4 C0.34 3.01 -0.32 2.02 -1 1 C-0.67 0.67 -0.34 0.34 0 0 Z " fill="#E5ECF4" transform="translate(121,160)"/>
<path d="M0 0 C1.55907264 0.02653741 3.11789956 0.07416901 4.67578125 0.140625 C5.47306641 0.15867187 6.27035156 0.17671875 7.09179688 0.1953125 C9.05780574 0.24240253 11.02319619 0.31414601 12.98828125 0.390625 C12.32828125 1.050625 11.66828125 1.710625 10.98828125 2.390625 C9.99828125 2.390625 9.00828125 2.390625 7.98828125 2.390625 C7.90578125 2.98875 7.82328125 3.586875 7.73828125 4.203125 C6.73791128 7.12087075 5.69019376 7.93013175 2.98828125 9.390625 C-0.26171875 9.578125 -0.26171875 9.578125 -3.01171875 9.390625 C-2.68171875 7.410625 -2.35171875 5.430625 -2.01171875 3.390625 C-3.66171875 3.720625 -5.31171875 4.050625 -7.01171875 4.390625 C-5.28944225 0.8195374 -3.79017889 0.10573277 0 0 Z " fill="#6B7C70" transform="translate(126.01171875,109.609375)"/>
<path d="M0 0 C5.51747 1.40907695 9.07040587 4.08426913 13.375 7.625 C14.01566406 8.140625 14.65632813 8.65625 15.31640625 9.1875 C16.88375659 10.45073759 18.44274858 11.72433377 20 13 C19.01 13.33 18.02 13.66 17 14 C16.26676204 16.01508358 16.26676204 16.01508358 16 18 C15.731875 17.01 15.46375 16.02 15.1875 15 C12.63474915 8.86839258 5.75792541 4.87896271 0 2 C0.15146484 2.64026123 0.30292969 3.28052246 0.45898438 3.94018555 C1.14504955 6.85464319 1.82259963 9.7710168 2.5 12.6875 C2.73847656 13.69490234 2.97695312 14.70230469 3.22265625 15.74023438 C3.44824219 16.71669922 3.67382812 17.69316406 3.90625 18.69921875 C4.11572266 19.59471436 4.32519531 20.49020996 4.54101562 21.4128418 C4.99994512 23.99969065 5.08261971 26.37888974 5 29 C2.39365069 25.09047604 1.50674388 21.19568558 0.3125 16.6875 C0.07466797 15.84509766 -0.16316406 15.00269531 -0.40820312 14.13476562 C-1.66291627 9.42867146 -2.38563518 5.81527363 -1 1 C-0.67 0.67 -0.34 0.34 0 0 Z " fill="#E0B221" transform="translate(72,64)"/>
<path d="M0 0 C2 3 2 3 2.01953125 4.87890625 C0.43821121 8.16877898 -2.40799318 9.87816997 -5.3125 11.9375 C-9.56387054 14.98360935 -12.74919847 17.84165205 -16 22 C-16.66 22 -17.32 22 -18 22 C-18.66 23.32 -19.32 24.64 -20 26 C-20.33 23.69 -20.66 21.38 -21 19 C-21.99 19.33 -22.98 19.66 -24 20 C-24.33 18.02 -24.66 16.04 -25 14 C-22.5625 14.6875 -22.5625 14.6875 -20 16 C-19.1875 18.625 -19.1875 18.625 -19 21 C-16.35734481 18.43284924 -13.97196667 15.9643901 -11.6875 13.0625 C-9.12640584 9.87954272 -6.05647043 7.74434311 -2.671875 5.4921875 C-0.70203062 3.73405537 -0.37535159 2.57226238 0 0 Z " fill="#1859A4" transform="translate(143,125)"/>
<path d="M0 0 C2.31 0.33 4.62 0.66 7 1 C8.26264601 5.29299643 7.62950412 7.87831311 6 12 C3.69 11.67 1.38 11.34 -1 11 C-1 9.35 -1 7.7 -1 6 C-1.99 6 -2.98 6 -4 6 C-2.68 4.02 -1.36 2.04 0 0 Z " fill="#1D60A7" transform="translate(102,189)"/>
<path d="M0 0 C2.6875 2.25 2.6875 2.25 3.5625 4.5 C3.60375 5.0775 3.645 5.655 3.6875 6.25 C-0.1875 4.375 -0.1875 4.375 -1.3125 3.25 C-2.3025 4.735 -2.3025 4.735 -3.3125 6.25 C-2.9825 6.91 -2.6525 7.57 -2.3125 8.25 C-4.97605234 8.64169887 -6.70474373 8.65564529 -8.98046875 7.13671875 C-10.4635888 5.88610683 -11.89204352 4.57135486 -13.3125 3.25 C-12.6525 2.92 -11.9925 2.59 -11.3125 2.25 C-10.3225 2.91 -9.3325 3.57 -8.3125 4.25 C-7.6525 3.26 -6.9925 2.27 -6.3125 1.25 C-9.6125 0.92 -12.9125 0.59 -16.3125 0.25 C-16.3125 -0.08 -16.3125 -0.41 -16.3125 -0.75 C-4.88157895 -2.57894737 -4.88157895 -2.57894737 0 0 Z " fill="#1F5A96" transform="translate(103.3125,110.75)"/>
<path d="M0 0 C2 1.375 2 1.375 4 3 C4 3.66 4 4.32 4 5 C3.41992188 5.30292969 2.83984375 5.60585938 2.2421875 5.91796875 C-2.66195836 8.54807998 -6.85823175 11.28302849 -11 15 C-14 11.25 -14 11.25 -14 9 C-12.80375 8.443125 -11.6075 7.88625 -10.375 7.3125 C-6.3792825 5.32886089 -3.30815324 2.97733792 0 0 Z " fill="#135AA4" transform="translate(188,56)"/>
<path d="M0 0 C0.49628906 0.38671875 0.99257813 0.7734375 1.50390625 1.171875 C5.84883147 4.50270951 10.18629161 7.39257462 15 10 C14.01 11.65 13.02 13.3 12 15 C7.21224044 11.46386286 2.53548584 7.85516296 -2 4 C-1.34 2.68 -0.68 1.36 0 0 Z " fill="#1057A2" transform="translate(39,52)"/>
<path d="M0 0 C0 0.99 0 1.98 0 3 C-4.455 3.495 -4.455 3.495 -9 4 C-9 4.99 -9 5.98 -9 7 C-6.03 7 -3.06 7 0 7 C0 7.33 0 7.66 0 8 C-2.31 8.33 -4.62 8.66 -7 9 C-7 9.66 -7 10.32 -7 11 C-9.375 11.125 -9.375 11.125 -12 11 C-12.66 10.34 -13.32 9.68 -14 9 C-14 6.0625 -14 6.0625 -13 3 C-8.71417 -0.06130715 -5.1708804 -0.31025282 0 0 Z " fill="#2465A9" transform="translate(97,19)"/>
<path d="M0 0 C0.33 0 0.66 0 1 0 C1.08132187 2.56314499 1.14064175 5.12368418 1.1875 7.6875 C1.22520508 8.7693457 1.22520508 8.7693457 1.26367188 9.87304688 C1.32685008 14.48505598 0.85019825 17.34314187 -2 21 C-4.6875 23.3125 -4.6875 23.3125 -7 25 C-7.33 24.34 -7.66 23.68 -8 23 C-7.360625 22.236875 -6.72125 21.47375 -6.0625 20.6875 C-2.31726442 15.80734454 -2.69030679 10.87670624 -2.37890625 4.93359375 C-2 2 -2 2 0 0 Z " fill="#EBF1F7" transform="translate(173,96)"/>
<path d="M0 0 C0.66 0 1.32 0 2 0 C3.52491998 3.04983996 3.23562548 5.6423369 3 9 C1.9375 10.9375 1.9375 10.9375 0 12 C-3.6875 12.1875 -3.6875 12.1875 -7 12 C-7 11.01 -7 10.02 -7 9 C-6.38125 8.54625 -5.7625 8.0925 -5.125 7.625 C-2.56131225 5.66453289 -2.02818841 4.00547381 -1 1 C-0.67 0.67 -0.34 0.34 0 0 Z " fill="#F3F5F8" transform="translate(120,144)"/>
<path d="M0 0 C-0.28361142 2.70939422 -0.5766105 5.41722661 -0.875 8.125 C-0.99294922 9.26582031 -0.99294922 9.26582031 -1.11328125 10.4296875 C-1.60973665 14.85959721 -2.40400079 18.80211971 -4 23 C-4.33 23 -4.66 23 -5 23 C-4.50873071 16.63440427 -4.00344253 10.30735307 -3 4 C-3.48210937 4.3609375 -3.96421875 4.721875 -4.4609375 5.09375 C-5.09257812 5.5578125 -5.72421875 6.021875 -6.375 6.5 C-7.00148437 6.9640625 -7.62796875 7.428125 -8.2734375 7.90625 C-10 9 -10 9 -12 9 C-10.6015209 5.5912072 -9.14993067 4.12606165 -6 2.25 C-5.29875 1.82203125 -4.5975 1.3940625 -3.875 0.953125 C-2 0 -2 0 0 0 Z " fill="#10539E" transform="translate(152,66)"/>
<path d="M0 0 C1.65 0.33 3.3 0.66 5 1 C4.525625 2.051875 4.05125 3.10375 3.5625 4.1875 C1.69623215 9.04847671 1.55472956 13.78336739 1.40625 18.94921875 C0.84820855 23.13989543 -0.84132383 25.75549596 -3.6875 28.8125 C-7.17635857 30.60407602 -10.10761147 30.19461943 -14 30 C-14 29.67 -14 29.34 -14 29 C-13.38511719 28.82984375 -12.77023438 28.6596875 -12.13671875 28.484375 C-11.32847656 28.24203125 -10.52023438 27.9996875 -9.6875 27.75 C-8.88699219 27.51796875 -8.08648437 27.2859375 -7.26171875 27.046875 C-4.39112116 25.71817007 -3.50800169 24.79543 -2 22 C-1.25237981 19.17418028 -0.8041211 16.32675287 -0.375 13.4375 C0.9180622 5.2458134 0.9180622 5.2458134 2 2 C1.34 1.34 0.68 0.68 0 0 Z " fill="#366CAE" transform="translate(170,89)"/>
<path d="M0 0 C3.05523448 3.05523448 3.36734375 7.19749498 4.23632812 11.32617188 C5.40311105 16.22085043 7.09765007 18.84765125 11 22 C12.93547777 22.97510428 12.93547777 22.97510428 14.8125 23.3125 C16.3903125 23.6528125 16.3903125 23.6528125 18 24 C18 24.33 18 24.66 18 25 C14.00171201 25.31986304 11.47238587 25.22229924 7.8125 23.5 C2.1243922 18.44390418 0.84590431 13.50186387 0.25 6 C0.15003811 4.00076213 0.06100017 2.00080569 0 0 Z " fill="#2260A7" transform="translate(53,96)"/>
<path d="M0 0 C0.99 0 1.98 0 3 0 C3.268125 0.94875 3.53625 1.8975 3.8125 2.875 C4.74986588 6.25267273 4.74986588 6.25267273 8 8 C8 8.99 8 9.98 8 11 C2.6 11.36 2.6 11.36 0.125 9.875 C-1.49030526 7.18282457 -1.26199727 5.07846795 -1 2 C-0.67 1.34 -0.34 0.68 0 0 Z " fill="#EFF2F6" transform="translate(104,145)"/>
<path d="M0 0 C3.87398572 3.22832144 4.93503794 6.11892388 6 11 C6 14.99897642 4.64683965 16.06701552 2 19 C-0.5625 21.375 -0.5625 21.375 -3 23 C-3.99 22.67 -4.98 22.34 -6 22 C-3.9130365 18.86955476 -3.18533361 18.54440417 0 17 C1.73936304 15.77111396 1.73936304 15.77111396 3 14 C2.9114185 9.19002475 1.34752252 4.49968264 -2 1 C-1.34 0.67 -0.68 0.34 0 0 Z " fill="#1A59A0" transform="translate(84,74)"/>
<path d="M0 0 C0.66 0 1.32 0 2 0 C-0.15359425 5.48187627 -4.5874131 7.82425425 -9.5625 10.5 C-12.89698338 12.31981788 -15.68200003 13.90933338 -18 17 C-18.79681318 19.64184541 -18.79681318 19.64184541 -19 22 C-19.99 21.67 -20.98 21.34 -22 21 C-20.72617965 15.05550503 -17.87458843 12.28234148 -13 9 C-10.44375582 7.66378145 -7.8764609 6.43037574 -5.234375 5.2734375 C-2.73353106 3.84813134 -1.65732326 2.3105036 0 0 Z " fill="#215EA6" transform="translate(112,48)"/>
<path d="M0 0 C6.93 0 13.86 0 21 0 C19.02 0.99 19.02 0.99 17 2 C16.67 2.33 16.34 2.66 16 3 C13.13732433 3.07325168 10.299281 3.09238205 7.4375 3.0625 C6.63119141 3.05798828 5.82488281 3.05347656 4.99414062 3.04882812 C2.99606244 3.03700518 0.99802217 3.01906914 -1 3 C-0.67 2.01 -0.34 1.02 0 0 Z " fill="#4471A0" transform="translate(103,73)"/>
<path d="M0 0 C4.47832188 1.53542464 8.80427026 3.60854052 11 8 C11.12005453 9.49649362 11.17531451 10.99874793 11.1875 12.5 C11.20167969 13.2940625 11.21585938 14.088125 11.23046875 14.90625 C11 17 11 17 9 19 C8.97421875 18.40832031 8.9484375 17.81664062 8.921875 17.20703125 C8.54459418 11.95082343 7.98941268 8.76777864 4 5 C1.38142305 3.21037181 1.38142305 3.21037181 -1 2 C-0.67 1.34 -0.34 0.68 0 0 Z " fill="#1356A2" transform="translate(149,128)"/>
<path d="M0 0 C3.40312738 1.05875074 6.01353231 2.00902154 9 4 C9.375 7 9.375 7 9 10 C8.01 10.66 7.02 11.32 6 12 C4.68 11.34 3.36 10.68 2 10 C2.66 9.34 3.32 8.68 4 8 C4 7.01 4 6.02 4 5 C1.55503957 3.28288757 1.55503957 3.28288757 -1 2 C-0.67 1.34 -0.34 0.68 0 0 Z " fill="#0954A1" transform="translate(151,26)"/>
<path d="M0 0 C3.3 0 6.6 0 10 0 C10.33 0.99 10.66 1.98 11 3 C10.01 3.66 9.02 4.32 8 5 C8.33 5.66 8.66 6.32 9 7 C8.01 7.33 7.02 7.66 6 8 C2.8125 6.3125 2.8125 6.3125 0 4 C0 2.68 0 1.36 0 0 Z " fill="#0D56A1" transform="translate(151,122)"/>
<path d="M0 0 C0.99 0.33 1.98 0.66 3 1 C2.56367091 7.88940671 1.91610155 14.35751464 0 21 C-0.99 21 -1.98 21 -3 21 C-2.7834375 19.90300781 -2.566875 18.80601562 -2.34375 17.67578125 C-2.06225708 16.22140116 -1.78102059 14.76697143 -1.5 13.3125 C-1.35691406 12.59126953 -1.21382813 11.87003906 -1.06640625 11.12695312 C-0.34428113 7.36158641 0.1824976 3.85526187 0 0 Z " fill="#275E96" transform="translate(108,119)"/>
<path d="M0 0 C0.46148437 0.30292969 0.92296875 0.60585938 1.3984375 0.91796875 C6.05193718 3.90687664 10.7632543 6.40593484 15.80078125 8.69140625 C18.28761215 10.17113689 19.51085837 11.53241596 21 14 C21.1875 16.75 21.1875 16.75 21 19 C20.34 19 19.68 19 19 19 C18.65066406 17.93136719 18.30132812 16.86273438 17.94140625 15.76171875 C16.03031863 11.30326243 13.17337886 9.85072045 8.9375 7.8125 C2.34587257 4.54001358 2.34587257 4.54001358 0.56640625 1.76171875 C0.37949219 1.18035156 0.19257812 0.59898438 0 0 Z " fill="#3169AC" transform="translate(114,50)"/>
<path d="M0 0 C2.49361571 1.20381448 4.68143083 2.45428722 7 4 C9.60245498 4.14221065 12.09117684 4.18802932 14.6875 4.125 C15.38939453 4.11597656 16.09128906 4.10695312 16.81445312 4.09765625 C18.54311525 4.07413704 20.27160145 4.03826713 22 4 C16.70932285 6.73425752 10.97599411 8.09501646 5 7 C2.61265485 5.55648898 0.99512654 3.99512654 -1 2 C-0.67 1.34 -0.34 0.68 0 0 Z " fill="#3B72B0" transform="translate(121,160)"/>
<path d="M0 0 C0.99 0.33 1.98 0.66 3 1 C2.67 3.97 2.34 6.94 2 10 C0.35 10 -1.3 10 -3 10 C-2.25 2.25 -2.25 2.25 0 0 Z " fill="#EBF0F6" transform="translate(200,127)"/>
<path d="M0 0 C0.99 0.33 1.98 0.66 3 1 C-0.58665431 5.78220575 -0.58665431 5.78220575 -4.3828125 6.3671875 C-8.67032013 6.37998603 -12.84045768 6.10921128 -17 5 C-17 4.67 -17 4.34 -17 4 C-16.02417969 3.87882813 -15.04835938 3.75765625 -14.04296875 3.6328125 C-12.77066406 3.46523437 -11.49835938 3.29765625 -10.1875 3.125 C-8.92292969 2.96257812 -7.65835938 2.80015625 -6.35546875 2.6328125 C-2.88300683 2.20431547 -2.88300683 2.20431547 0 0 Z " fill="#014A9C" transform="translate(103,160)"/>
<path d="M0 0 C3.73487777 0.4979837 5.81237635 0.87491756 9 3 C8.67 4.32 8.34 5.64 8 7 C2.25 6.125 2.25 6.125 0 5 C0 3.35 0 1.7 0 0 Z " fill="#EDF2F7" transform="translate(79,194)"/>
<path d="M0 0 C3.37462715 0.54723683 5.08235 1.0549 8 3 C7.67 4.32 7.34 5.64 7 7 C1.25 6.125 1.25 6.125 -1 5 C-0.67 3.35 -0.34 1.7 0 0 Z " fill="#ECF1F7" transform="translate(148,28)"/>
<path d="M0 0 C0.69738281 0.05671875 1.39476563 0.1134375 2.11328125 0.171875 C3.82639312 0.31267872 5.53834611 0.46745972 7.25 0.625 C7.58 1.615 7.91 2.605 8.25 3.625 C1.29958914 3.89118595 -4.98514355 3.2370509 -11.75 1.625 C-7.96332311 -0.93198285 -4.3377666 -0.40999684 0 0 Z " fill="#D8E2EE" transform="translate(91.75,165.375)"/>
<path d="M0 0 C4.455 0.99 4.455 0.99 9 2 C8.67 3.32 8.34 4.64 8 6 C5.69 5.67 3.38 5.34 1 5 C0.67 3.35 0.34 1.7 0 0 Z " fill="#ECF1F7" transform="translate(81,187)"/>
<path d="M0 0 C5.52586878 1.28508576 7.61605248 3.54743747 11 8 C12.31543863 9.35099103 13.64175118 10.69205669 15 12 C11.30140804 12 10.77226857 11.20155611 8.125 8.75 C5.15967536 6.05275822 2.16090347 3.46945584 -1 1 C-0.67 0.67 -0.34 0.34 0 0 Z " fill="#205DA6" transform="translate(85,132)"/>
<path d="M0 0 C-1.14421668 2.80853185 -2.20379854 4.18341869 -4.5 6.25 C-7.73220026 9.80542029 -8.12918999 12.32929176 -9 17 C-9.33 17 -9.66 17 -10 17 C-10.50080263 13.54307074 -10.66932815 10.4415455 -10 7 C-7.56492848 3.83663083 -4.22307984 0 0 0 Z " fill="#0F54A1" transform="translate(76,128)"/>
<path d="M0 0 C0.33 0 0.66 0 1 0 C0.98839844 0.94101563 0.97679688 1.88203125 0.96484375 2.8515625 C0.95582031 4.09679687 0.94679688 5.34203125 0.9375 6.625 C0.92589844 7.85476562 0.91429688 9.08453125 0.90234375 10.3515625 C0.99136076 13.67723791 1.36313913 16.74047588 2 20 C-0.5625 18 -0.5625 18 -3 15 C-2.91480338 9.71780963 -1.5691186 5.02117954 0 0 Z " fill="#537285" transform="translate(122,120)"/>
<path d="M0 0 C6.4 0.49230769 6.4 0.49230769 9.4375 3.0625 C10.2109375 4.0215625 10.2109375 4.0215625 11 5 C5.97745369 5.2954439 3.10457614 4.98514628 -1 2 C-0.67 1.34 -0.34 0.68 0 0 Z " fill="#EDF2F7" transform="translate(159,125)"/>
<path d="M0 0 C-0.25 1.875 -0.25 1.875 -1 4 C-4.17973464 6.35535899 -7.15124621 6.17494335 -11 6 C-7.57865372 2.33427184 -5.14341528 0 0 0 Z " fill="#E1E9F2" transform="translate(65,126)"/>
<path d="M0 0 C0.99 0.33 1.98 0.66 3 1 C3.18451025 10.41002278 3.18451025 10.41002278 2 15 C1.01 15 0.02 15 -1 15 C-1.042721 13.33388095 -1.04063832 11.66617115 -1 10 C-0.67 9.67 -0.34 9.34 0 9 C0.07179964 7.48071962 0.08392007 5.95832518 0.0625 4.4375 C0.05347656 3.61121094 0.04445312 2.78492187 0.03515625 1.93359375 C0.02355469 1.29550781 0.01195312 0.65742187 0 0 Z " fill="#074F9D" transform="translate(154,64)"/>
<path d="M0 0 C5.28 0 10.56 0 16 0 C15.34 0.66 14.68 1.32 14 2 C13.01 2 12.02 2 11 2 C10.87625 2.61875 10.7525 3.2375 10.625 3.875 C10 6 10 6 8 8 C7.01 7.67 6.02 7.34 5 7 C6.65 5.35 8.3 3.7 10 2 C7.03 2 4.06 2 1 2 C0.67 1.34 0.34 0.68 0 0 Z " fill="#15549C" transform="translate(123,110)"/>
<path d="M0 0 C0.99 0 1.98 0 3 0 C3 2.31 3 4.62 3 7 C1.35 7.33 -0.3 7.66 -2 8 C-1.125 1.125 -1.125 1.125 0 0 Z " fill="#EFF3F8" transform="translate(192,127)"/>
<path d="M0 0 C1.32 0.66 2.64 1.32 4 2 C3.401875 2.7425 2.80375 3.485 2.1875 4.25 C0.41826778 6.47417764 -1.30860915 8.71662235 -3 11 C-3.66 10.34 -4.32 9.68 -5 9 C-3.35 6.03 -1.7 3.06 0 0 Z " fill="#2864A9" transform="translate(32,61)"/>
<path d="M0 0 C3.63 0.33 7.26 0.66 11 1 C11 2.32 11 3.64 11 5 C5.06 3.515 5.06 3.515 -1 2 C-0.67 1.34 -0.34 0.68 0 0 Z " fill="#0C52A0" transform="translate(127,19)"/>
<path d="M0 0 C1.98 0 3.96 0 6 0 C5.88590407 1.45922693 5.75834456 2.91740598 5.625 4.375 C5.55539063 5.18710938 5.48578125 5.99921875 5.4140625 6.8359375 C5 9 5 9 3 11 C2 9 2 9 2.0625 5.5 C2.40412812 1.94121534 2.40412812 1.94121534 0 0 Z " fill="#E0E8F1" transform="translate(110,163)"/>
<path d="M0 0 C1.5 1.25 1.5 1.25 3 3 C3 4.32 3 5.64 3 7 C1.02 7 -0.96 7 -3 7 C-1.125 1.125 -1.125 1.125 0 0 Z " fill="#F2F5F9" transform="translate(104,193)"/>
<path d="M0 0 C2.475 0.99 2.475 0.99 5 2 C5.33 1.34 5.66 0.68 6 0 C6.66 0.33 7.32 0.66 8 1 C7.67 1.66 7.34 2.32 7 3 C7.99 3.33 8.98 3.66 10 4 C10.33 4.66 10.66 5.32 11 6 C8.35556973 6.3888868 6.61173798 6.39540909 4.33203125 4.921875 C2.83068266 3.68085526 1.40974295 2.34417351 0 1 C0 0.67 0 0.34 0 0 Z " fill="#607680" transform="translate(90,113)"/>
<path d="M0 0 C0.33 0 0.66 0 1 0 C1.48828125 2.01822917 1.9765625 4.03645833 2.46484375 6.0546875 C2.94846992 8.0585657 2.94846992 8.0585657 4 10 C4.13415472 12.6723621 4.04318541 15.32250488 4 18 C0.15839684 12.23759526 -0.23538321 6.70842135 0 0 Z " fill="#0D509D" transform="translate(75,77)"/>
<path d="M0 0 C1.32 0.66 2.64 1.32 4 2 C3.67 3.65 3.34 5.3 3 7 C1.68 7 0.36 7 -1 7 C-1.04254356 5.00045254 -1.04080783 2.99958364 -1 1 C-0.67 0.67 -0.34 0.34 0 0 Z " fill="#044E9E" transform="translate(90,187)"/>
<path d="M0 0 C1.21693876 2.43387753 1.31959896 4.41838846 1.5625 7.125 C1.64628906 8.03507812 1.73007813 8.94515625 1.81640625 9.8828125 C1.87699219 10.58148438 1.93757813 11.28015625 2 12 C-1.2542015 9.16569547 -2.5206753 7.31392226 -3 3 C-2.34 3 -1.68 3 -1 3 C-0.67 2.01 -0.34 1.02 0 0 Z " fill="#336595" transform="translate(77,92)"/>
<path d="M0 0 C4.875 1.875 4.875 1.875 6 3 C6.04080783 4.99958364 6.04254356 7.00045254 6 9 C5.34 7.68 4.68 6.36 4 5 C3.01 5.33 2.02 5.66 1 6 C0.67 4.02 0.34 2.04 0 0 Z " fill="#245E9A" transform="translate(118,139)"/>
<path d="M0 0 C0.66 0.33 1.32 0.66 2 1 C2.375 3.25 2.375 3.25 2 6 C-1 8.3125 -1 8.3125 -4 10 C-3.52449439 8.51965236 -3.04448784 7.04074979 -2.5625 5.5625 C-2.29566406 4.73878906 -2.02882812 3.91507812 -1.75390625 3.06640625 C-1 1 -1 1 0 0 Z " fill="#054FA0" transform="translate(152,110)"/>
<path d="M0 0 C0.33 0.99 0.66 1.98 1 3 C0.34 3 -0.32 3 -1 3 C-1.33 3.66 -1.66 4.32 -2 5 C-2.33 4.34 -2.66 3.68 -3 3 C-5.35599235 2.53248212 -5.35599235 2.53248212 -8.0625 2.375 C-8.98160156 2.30023438 -9.90070313 2.22546875 -10.84765625 2.1484375 C-11.55792969 2.09945312 -12.26820312 2.05046875 -13 2 C-13 1.67 -13 1.34 -13 1 C-8.61414671 0.29826347 -4.44209357 -0.10834375 0 0 Z " fill="#31638F" transform="translate(100,109)"/>
<path d="M0 0 C0.66 0.66 1.32 1.32 2 2 C0.74057614 3.19959375 -0.53295286 4.38439443 -1.8125 5.5625 C-2.87404297 6.55443359 -2.87404297 6.55443359 -3.95703125 7.56640625 C-4.63121094 8.03949219 -5.30539063 8.51257813 -6 9 C-6.99 8.67 -7.98 8.34 -9 8 C-6.9130365 4.86955476 -6.18533361 4.54440417 -3 3 C-1.29078411 1.4587688 -1.29078411 1.4587688 0 0 Z " fill="#3D6A9B" transform="translate(87,88)"/>
<path d="M0 0 C2.56616632 3.84924948 2.55097676 6.4349304 3 11 C2.01 10.67 1.02 10.34 0 10 C-0.19412181 8.52168779 -0.38012131 7.04230684 -0.5625 5.5625 C-0.66691406 4.73878906 -0.77132812 3.91507812 -0.87890625 3.06640625 C-0.91886719 2.38449219 -0.95882812 1.70257813 -1 1 C-0.67 0.67 -0.34 0.34 0 0 Z " fill="#1C5BA2" transform="translate(73,84)"/>
<path d="M0 0 C0 1.65 0 3.3 0 5 C-2.64 5 -5.28 5 -8 5 C-8.33 4.34 -8.66 3.68 -9 3 C-7.68825887 2.4980125 -6.37558403 1.99846423 -5.0625 1.5 C-4.33160156 1.2215625 -3.60070312 0.943125 -2.84765625 0.65625 C-1 0 -1 0 0 0 Z " fill="#1558A3" transform="translate(134,201)"/>
<path d="M0 0 C2.31 0 4.62 0 7 0 C7 0.99 7 1.98 7 3 C4.36 3.33 1.72 3.66 -1 4 C-0.67 2.68 -0.34 1.36 0 0 Z " fill="#0F55A1" transform="translate(90,19)"/>
<path d="M0 0 C5.94 0.99 5.94 0.99 12 2 C11 4 11 4 9.375 4.875 C5.54351691 5.076657 3.19413763 3.02704888 0 1 C0 0.67 0 0.34 0 0 Z " fill="#5786BC" transform="translate(104,155)"/>
<path d="M0 0 C-1.0625 1.5 -1.0625 1.5 -3 3 C-6.6875 3.1875 -6.6875 3.1875 -10 3 C-10 2.34 -10 1.68 -10 1 C-8.71073008 0.63720544 -7.41846728 0.28503302 -6.125 -0.0625 C-5.40570313 -0.25972656 -4.68640625 -0.45695312 -3.9453125 -0.66015625 C-2 -1 -2 -1 0 0 Z " fill="#F6F8FB" transform="translate(166,119)"/>
<path d="M0 0 C0.99 0.33 1.98 0.66 3 1 C0.78631706 3.21368294 -0.93016625 4.86552921 -4.11328125 5.265625 C-6.07746787 5.25166986 -8.0402625 5.13286356 -10 5 C-10 4.67 -10 4.34 -10 4 C-9.36191406 3.79503906 -8.72382813 3.59007813 -8.06640625 3.37890625 C-7.24011719 3.10949219 -6.41382813 2.84007813 -5.5625 2.5625 C-4.73878906 2.29566406 -3.91507813 2.02882813 -3.06640625 1.75390625 C-1.03780412 1.17844506 -1.03780412 1.17844506 0 0 Z " fill="#0D509F" transform="translate(166,114)"/>
<path d="M0 0 C1.32 0.66 2.64 1.32 4 2 C3.34 3.98 2.68 5.96 2 8 C1.01 8 0.02 8 -1 8 C-0.67 5.36 -0.34 2.72 0 0 Z " fill="#2E6397" transform="translate(152,77)"/>
<path d="M0 0 C0 3.93169105 -1.39419615 5.16427228 -4 8 C-4.66 8 -5.32 8 -6 8 C-6.66 9.32 -7.32 10.64 -8 12 C-7.58388059 7.1452735 -5.54108048 5.19560921 -2 2 C-1.34 1.34 -0.68 0.68 0 0 Z " fill="#3269AB" transform="translate(131,139)"/>
<path d="M0 0 C0.33 0.66 0.66 1.32 1 2 C0.04882866 3.1725131 -0.91117009 4.33787015 -1.875 5.5 C-2.40867187 6.1496875 -2.94234375 6.799375 -3.4921875 7.46875 C-3.98976562 7.9740625 -4.48734375 8.479375 -5 9 C-5.66 9 -6.32 9 -7 9 C-5.44499019 5.18315774 -2.96404505 2.80804268 0 0 Z " fill="#215CA5" transform="translate(65,79)"/>
<path d="M0 0 C0.66 0.99 1.32 1.98 2 3 C1.34 4.32 0.68 5.64 0 7 C-0.66 7 -1.32 7 -2 7 C-2.33 7.99 -2.66 8.98 -3 10 C-3.36923077 4.58461538 -3.36923077 4.58461538 -1.5 1.625 C-1.005 1.08875 -0.51 0.5525 0 0 Z " fill="#3A6694" transform="translate(139,73)"/>
<path d="M0 0 C2 3 2 3 2 5 C0.02 5.33 -1.96 5.66 -4 6 C-3.6875 4.125 -3.6875 4.125 -3 2 C-2.01 1.34 -1.02 0.68 0 0 Z " fill="#1C5EA6" transform="translate(164,170)"/>
<path d="M0 0 C0.33 0 0.66 0 1 0 C1.33 2.64 1.66 5.28 2 8 C0.68 8.33 -0.64 8.66 -2 9 C-1.34 6.03 -0.68 3.06 0 0 Z " fill="#306CAD" transform="translate(86,147)"/>
<path d="M0 0 C1.98 0 3.96 0 6 0 C3.16569547 3.2542015 1.31392226 4.5206753 -3 5 C-3.33 4.34 -3.66 3.68 -4 3 C-2.68 3 -1.36 3 0 3 C0 2.01 0 1.02 0 0 Z " fill="#82A2CB" transform="translate(52,88)"/>
<path d="M0 0 C0.66 1.32 1.32 2.64 2 4 C-0.475 5.485 -0.475 5.485 -3 7 C-3.33 5.68 -3.66 4.36 -4 3 C-2.68 2.01 -1.36 1.02 0 0 Z " fill="#1E5EA6" transform="translate(55,36)"/>
<path d="M0 0 C0.99 0.33 1.98 0.66 3 1 C1.35 2.65 -0.3 4.3 -2 6 C-2.66 5.34 -3.32 4.68 -4 4 C-2.68 2.68 -1.36 1.36 0 0 Z " fill="#2663A8" transform="translate(103,160)"/>
<path d="M0 0 C0.66 0.33 1.32 0.66 2 1 C-0.40436026 4.60654039 -1.94679607 4.85452932 -6 6 C-4.98545548 3.4636387 -4.3146444 2.20648539 -2 0.6875 C-1.34 0.460625 -0.68 0.23375 0 0 Z " fill="#195598" transform="translate(142,122)"/>
<path d="M0 0 C0.66 0 1.32 0 2 0 C1.47731534 2.76276177 0.89130413 5.3260876 0 8 C-0.99 7.67 -1.98 7.34 -3 7 C-2.690625 6.401875 -2.38125 5.80375 -2.0625 5.1875 C-0.89790296 2.91043228 -0.89790296 2.91043228 0 0 Z " fill="#11559B" transform="translate(137,80)"/>
<path d="M0 0 C2.475 0.99 2.475 0.99 5 2 C2.06279492 3.52299523 -0.9168649 4.80100302 -4 6 C-4 4 -4 4 -2 1.875 C-1.34 1.25625 -0.68 0.6375 0 0 Z " fill="#1C5EA6" transform="translate(74,25)"/>
<path d="M0 0 C2.64 0 5.28 0 8 0 C7 2 7 2 5.15234375 2.6328125 C4.42144531 2.79523437 3.69054687 2.95765625 2.9375 3.125 C1.83728516 3.37636719 1.83728516 3.37636719 0.71484375 3.6328125 C0.14894531 3.75398438 -0.41695313 3.87515625 -1 4 C-0.67 2.68 -0.34 1.36 0 0 Z " fill="#0B509F" transform="translate(100,18)"/>
<path d="M0 0 C2 3 2 3 1.8125 5.0625 C1 7 1 7 -2 9 C-2 5.20442119 -1.49821059 3.37097383 0 0 Z " fill="#2C67AA" transform="translate(143,125)"/>
<path d="M0 0 C0.66 0 1.32 0 2 0 C2.33 1.98 2.66 3.96 3 6 C1.68 6 0.36 6 -1 6 C-0.67 4.02 -0.34 2.04 0 0 Z " fill="#2965A9" transform="translate(160,99)"/>
<path d="M0 0 C0.66 0.33 1.32 0.66 2 1 C2 1.66 2 2.32 2 3 C0.1875 4.6875 0.1875 4.6875 -2 6 C-2.99 5.67 -3.98 5.34 -5 5 C-3.35 3.35 -1.7 1.7 0 0 Z " fill="#DEE7F1" transform="translate(144,61)"/>
<path d="M0 0 C0.99 0.99 1.98 1.98 3 3 C2.34 4.32 1.68 5.64 1 7 C0.01 6.67 -0.98 6.34 -2 6 C-1.34 4.02 -0.68 2.04 0 0 Z " fill="#1C5DA6" transform="translate(186,165)"/>
<path d="M0 0 C3.24208567 0.35049575 4.61527704 0.56221181 6.8125 3.0625 C7.204375 3.701875 7.59625 4.34125 8 5 C4.5625 4.1875 4.5625 4.1875 1 3 C0.67 2.01 0.34 1.02 0 0 Z " fill="#316394" transform="translate(84,124)"/>
<path d="M0 0 C0.99 0.33 1.98 0.66 3 1 C1.37660195 2.70884005 -0.29319053 4.37446717 -2 6 C-2.66 6 -3.32 6 -4 6 C-2.84826645 3.53199953 -1.95216435 1.95216435 0 0 Z " fill="#E4EBF3" transform="translate(58,83)"/>
<path d="M0 0 C0.99 0.33 1.98 0.66 3 1 C0.82575883 3.50037734 -0.73045798 4.43628586 -4 5 C-2.25 1.125 -2.25 1.125 0 0 Z " fill="#05509F" transform="translate(76,41)"/>
<path d="M0 0 C1.85776765 3.13498292 2.20140476 5.37471432 2 9 C1.34 8.67 0.68 8.34 0 8 C-0.6875 4.5 -0.6875 4.5 -1 1 C-0.67 0.67 -0.34 0.34 0 0 Z " fill="#014C9F" transform="translate(118,131)"/>
<path d="M0 0 C0.99 0.33 1.98 0.66 3 1 C2.67 2.98 2.34 4.96 2 7 C1.34 6.67 0.68 6.34 0 6 C0 4.02 0 2.04 0 0 Z " fill="#074E9E" transform="translate(36,87)"/>
<path d="M0 0 C0.33 0.99 0.66 1.98 1 3 C-2.75 6 -2.75 6 -5 6 C-3.63016497 2.83884224 -3.0109362 2.0072908 0 0 Z " fill="#1F5B9D" transform="translate(145,69)"/>
<path d="M0 0 C1.98 0.66 3.96 1.32 6 2 C5.67 2.99 5.34 3.98 5 5 C2.69 4.01 0.38 3.02 -2 2 C-1.34 1.34 -0.68 0.68 0 0 Z " fill="#DBE4EF" transform="translate(73,59)"/>
<path d="M0 0 C2.64 0 5.28 0 8 0 C8 0.33 8 0.66 8 1 C5.69 1 3.38 1 1 1 C1.33 1.99 1.66 2.98 2 4 C1.01 4.66 0.02 5.32 -1 6 C-0.67 4.02 -0.34 2.04 0 0 Z " fill="#BBCCE1" transform="translate(85,35)"/>
<path d="M0 0 C1.98 0.66 3.96 1.32 6 2 C5.01 3.485 5.01 3.485 4 5 C2.35 4.01 0.7 3.02 -1 2 C-0.67 1.34 -0.34 0.68 0 0 Z " fill="#014E9E" transform="translate(151,26)"/>
</svg>
