<?xml version="1.0" encoding="UTF-8"?>
<svg version="1.1" xmlns="http://www.w3.org/2000/svg" width="960" height="1689">
<path d="M0 0 C1.31877136 -0.00855011 1.31877136 -0.00855011 2.66418457 -0.01727295 C4.51634543 -0.02666042 6.36852253 -0.03323182 8.22070312 -0.03710938 C10.99640585 -0.04675393 13.77134722 -0.0778125 16.546875 -0.109375 C31.27947575 -0.19763846 45.15776865 1.44502937 59.28125 5.828125 C60.51258667 6.20662598 60.51258667 6.20662598 61.76879883 6.59277344 C99.8798211 18.72999572 136.07139564 44.17433409 156.53125 79.203125 C165.54265228 78.54629749 165.54265228 78.54629749 174.53125 77.640625 C205.71347039 74.53741848 240.14050982 83.7470975 264.90625 103.203125 C266.45986005 104.52252248 268.00166757 105.85594592 269.53125 107.203125 C270.36011719 107.90050781 271.18898438 108.59789063 272.04296875 109.31640625 C292.70579065 127.13136602 304.62046614 151.50203612 307.3503418 178.45483398 C307.78033158 184.98708095 307.77152166 191.53430697 307.78125 198.078125 C307.78525314 199.24399139 307.78525314 199.24399139 307.78933716 200.43341064 C307.80682115 211.10635644 307.29029262 221.31012676 305.08984375 231.7890625 C304.26571409 236.14695099 304.26571409 236.14695099 305.53125 240.203125 C308.12320626 241.8645629 310.91749724 242.90920787 313.78125 244.015625 C326.49310819 249.30208001 337.1002528 256.155507 347.53125 265.203125 C348.335625 265.88503906 349.14 266.56695312 349.96875 267.26953125 C368.65527661 283.39928648 387.50729349 309.8761828 389.53125 335.203125 C389.85361699 344.53408511 389.72046508 353.87045518 389.53125 363.203125 C390.98144531 363.93015625 390.98144531 363.93015625 392.4609375 364.671875 C400.52991769 368.79465852 407.75077434 373.10817537 414.53125 379.203125 C415.4284375 379.97849609 415.4284375 379.97849609 416.34375 380.76953125 C431.50675502 394.77425117 440.92637469 415.12557232 441.78295898 435.68774414 C441.87572192 439.58819502 441.86414217 443.48498538 441.8125 447.38598633 C441.78086963 449.79458942 441.77146273 452.2025361 441.765625 454.61132812 C441.75646905 456.16407045 441.74609782 457.71680619 441.734375 459.26953125 C441.73012512 459.97896378 441.72587524 460.6883963 441.72149658 461.41932678 C441.66394113 465.44431705 441.28653941 469.25119929 440.53125 473.203125 C440.16367277 476.10698512 440.24550896 478.20284409 440.53125 481.203125 C444.03665757 485.18329092 448.16233403 488.49014012 452.21875 491.890625 C474.35725075 510.76368966 492.92784478 535.49844929 496.53125 565.203125 C496.64365855 567.94981085 496.71823027 570.67135558 496.734375 573.41796875 C496.74007507 574.191371 496.74577515 574.96477325 496.75164795 575.76161194 C496.76104862 577.39452775 496.76761218 579.02746211 496.77148438 580.66040039 C496.78110081 583.10273487 496.81213341 585.54419369 496.84375 587.98632812 C496.93833354 601.76853897 495.38352859 614.82810007 490.34375 627.765625 C490.04186768 628.55735107 489.73998535 629.34907715 489.42895508 630.16479492 C482.2406675 648.49760013 471.38298491 664.27046931 457.53125 678.203125 C457.06493164 678.67347168 456.59861328 679.14381836 456.11816406 679.62841797 C430.70258353 704.89572642 396.56719989 717.60839362 361.07693481 717.52539062 C360.23685883 717.52216797 359.39678284 717.51894531 358.53125 717.515625 C357.6741745 717.51546387 356.817099 717.51530273 355.93405151 717.51513672 C342.92889977 717.49811884 330.30958564 716.8052588 317.53125 714.203125 C316.92990234 715.00363281 316.92990234 715.00363281 316.31640625 715.8203125 C310.25411268 723.76590362 303.69411345 731.22875795 296.53125 738.203125 C296.08136719 738.698125 295.63148438 739.193125 295.16796875 739.703125 C278.91297847 757.12782922 254.03970621 768.58107619 231.46875 775.015625 C230.51766357 775.28971191 230.51766357 775.28971191 229.54736328 775.56933594 C215.65889703 779.25883274 201.77276235 780.72418658 187.44458008 780.64916992 C184.96547367 780.64061369 182.48864991 780.66966374 180.00976562 780.70117188 C165.16964802 780.76815068 151.72662429 778.0660277 138.03125 772.203125 C137.22945312 771.873125 136.42765625 771.543125 135.6015625 771.203125 C130.19937727 768.96532659 124.87730765 766.57915062 119.53125 764.203125 C119.20125 823.603125 118.87125 883.003125 118.53125 944.203125 C133.38125 936.613125 148.23125 929.023125 163.53125 921.203125 C180.61993186 912.73717252 197.75619738 905.07945119 215.53125 898.203125 C216.55653809 897.80496582 217.58182617 897.40680664 218.63818359 896.99658203 C244.49859912 887.05668017 271.17242679 879.60199461 298.53125 875.203125 C299.6744873 875.00831543 299.6744873 875.00831543 300.84082031 874.80957031 C342.38309646 867.9276248 395.05465304 873.07448086 430.38574219 897.484375 C434.21478057 900.25594618 437.91713813 903.15709958 441.53125 906.203125 C442.07304398 906.5736348 442.61483795 906.94414459 443.17304993 907.32588196 C445.38657712 910.38531967 444.92123494 913.80385051 444.87182617 917.43823242 C444.87226425 918.27747757 444.87270233 919.11672272 444.87315369 919.98139954 C444.87106247 922.75736701 444.84771586 925.53273169 444.82421875 928.30859375 C444.81862398 930.23244395 444.81435332 932.15629842 444.81135559 934.08015442 C444.79989747 939.1453734 444.77042193 944.21033458 444.73724365 949.27545166 C444.70656363 954.44336459 444.69285468 959.61131914 444.67773438 964.77929688 C444.6455532 974.92068622 444.59434512 985.06188418 444.53125 995.203125 C443.24876463 994.24139326 441.96629741 993.27963731 440.68383789 992.31787109 C439.96966202 991.78229584 439.25548615 991.24672058 438.51966858 990.69491577 C437.04237238 989.58658936 435.5658918 988.47717563 434.08984375 987.3671875 C413.47571834 972.40960847 389.23800917 965.18977323 364.53125 960.203125 C363.65130371 960.02378418 362.77135742 959.84444336 361.86474609 959.65966797 C336.12456925 954.67785784 308.01909992 955.42016746 282.53125 961.203125 C281.57992187 961.40679688 280.62859375 961.61046875 279.6484375 961.8203125 C239.93264544 970.39892359 203.2629228 988.41161039 167.8125 1007.765625 C134.6146821 1025.87499428 98.43657511 1039.32873594 61.71875 1048.203125 C60.85910645 1048.41106689 59.99946289 1048.61900879 59.11376953 1048.83325195 C55.18604322 1049.73992528 51.5925122 1050.46673634 47.53125 1050.203125 C46.3568108 1041.86255688 46.39427214 1033.56655263 46.41099548 1025.16307068 C46.41055901 1023.53013167 46.4096827 1021.89719272 46.40840632 1020.26425415 C46.40617635 1015.79235921 46.41016211 1011.32048833 46.41518438 1006.84859645 C46.41951023 1002.02048869 46.41804094 997.19238223 46.4172821 992.36427307 C46.41675822 984.00429908 46.41989085 975.64433291 46.42551994 967.28436089 C46.43365332 955.19730301 46.43625205 943.11024891 46.43750793 931.0231886 C46.43969556 911.41185992 46.44634782 891.8005354 46.45581055 872.18920898 C46.46499214 853.14070659 46.47206932 834.09220533 46.47631836 815.04370117 C46.47671244 813.28193355 46.47671244 813.28193355 46.47711449 811.48457467 C46.47841955 805.59228631 46.47968325 799.69999795 46.48092639 793.80770957 C46.49129 744.93951184 46.50890047 696.07131862 46.53125 647.203125 C47.78963373 648.13027529 49.0456829 649.06059456 50.30078125 649.9921875 C51.00050049 650.50990723 51.70021973 651.02762695 52.42114258 651.56103516 C54.45623575 653.14474876 56.337918 654.81577061 58.21875 656.578125 C88.21777955 683.03075765 134.13262504 689.7404365 172.53125 688.203125 C192.68020715 686.80351623 212.49112477 681.24141917 230.53125 672.203125 C231.19995117 671.86941895 231.86865234 671.53571289 232.55761719 671.19189453 C258.30005069 658.10096996 274.24496263 638.28812983 283.53125 611.203125 C286.53125 611.203125 286.53125 611.203125 288.0390625 612.671875 C288.83957031 613.67734375 288.83957031 613.67734375 289.65625 614.703125 C300.8768665 627.92992242 315.99769809 636.71723077 333.53125 638.203125 C352.43191946 639.27346678 369.96664594 633.75307649 384.359375 621.31640625 C396.86088334 609.15216882 403.35032483 593.64527736 403.90625 576.203125 C403.46333471 561.10374014 398.66928105 548.05522937 389.53125 536.203125 C389.03109375 535.51347656 388.5309375 534.82382812 388.015625 534.11328125 C378.53424957 522.02213329 362.98062299 515.89947623 348.53125 512.203125 C350.31904265 507.49840749 352.62266738 503.15776773 354.99609375 498.7265625 C358.75165743 490.10692271 360.0193431 481.99593724 359.90625 472.640625 C359.92365234 471.19526367 359.92365234 471.19526367 359.94140625 469.72070312 C359.88217332 455.08029652 353.87587443 443.01931116 343.87890625 432.48828125 C330.75516393 419.71392309 315.01122421 415.88311957 297.53125 412.203125 C297.8096875 411.50832031 298.088125 410.81351562 298.375 410.09765625 C298.7565625 409.14246094 299.138125 408.18726563 299.53125 407.203125 C299.9334375 406.19636719 300.335625 405.18960937 300.75 404.15234375 C308.05195366 385.56352878 309.3117539 369.53243515 301.99609375 350.51171875 C293.18443475 330.6091183 276.50701459 317.04475167 256.53125 309.203125 C244.75703351 304.961047 233.1568568 303.04458752 220.69799805 302.63208008 C218.97140381 302.55818904 217.24938896 302.38909822 215.53125 302.203125 C215.20125 301.543125 214.87125 300.883125 214.53125 300.203125 C215.82487583 297.9324312 217.17111668 295.76593952 218.59375 293.578125 C231.85466068 272.32550542 235.42829666 245.76868269 230.50366211 221.20703125 C224.61040176 197.76799679 208.91421389 177.66301464 188.46875 165.31054688 C167.76870896 153.478971 143.40892404 151.24330348 120.53125 157.203125 C116.74478639 158.40499033 113.06446434 159.81208328 109.38671875 161.3125 C106.53125 162.203125 106.53125 162.203125 104.28515625 162.2890625 C101.33639045 160.46332332 101.07779327 157.26061551 100.28125 154.078125 C96.65005734 141.21324537 90.49269627 130.15831581 81.53125 120.203125 C80.95246094 119.53152344 80.37367188 118.85992187 79.77734375 118.16796875 C64.78720265 101.88278306 42.31597842 93.2973351 20.53125 92.203125 C19.57089844 92.15027344 18.61054688 92.09742187 17.62109375 92.04296875 C-6.69008934 91.35008497 -29.09420163 100.28187668 -47.34375 116.078125 C-58.85598781 127.05019916 -66.16345308 140.70827388 -70.64453125 155.875 C-71.46875 158.203125 -71.46875 158.203125 -73.46875 160.203125 C-75.7890625 160.03125 -75.7890625 160.03125 -78.59375 159.453125 C-80.07875 159.15341797 -80.07875 159.15341797 -81.59375 158.84765625 C-83.94235582 158.32113456 -86.26718778 157.7551001 -88.59375 157.140625 C-112.21812764 151.42504976 -135.6289012 156.1642052 -156.21875 168.453125 C-176.21754466 181.93579587 -189.18285627 201.85125247 -194.15234375 225.44921875 C-198.30093856 249.28218065 -192.66219853 273.50887263 -178.91015625 293.46484375 C-178.45511719 294.07972656 -178.00007813 294.69460938 -177.53125 295.328125 C-175.46875 298.203125 -175.46875 298.203125 -175.46875 301.203125 C-176.22792725 301.26781982 -176.98710449 301.33251465 -177.76928711 301.39916992 C-204.34643601 303.74178765 -226.26346925 307.75482518 -246.46875 326.203125 C-247.19707031 326.86183594 -247.92539063 327.52054687 -248.67578125 328.19921875 C-262.16172033 341.01472874 -268.66697465 356.58263309 -269.43359375 374.96875 C-269.77609841 390.70233251 -264.95410451 403.21926796 -257.078125 416.4296875 C-255.46875 419.203125 -255.46875 419.203125 -255.46875 420.203125 C-256.30946045 420.24276367 -257.1501709 420.28240234 -258.01635742 420.32324219 C-261.2024366 420.48152952 -264.38727042 420.65494083 -267.57202148 420.83789062 C-268.93792117 420.9134095 -270.30414763 420.98327803 -271.6706543 421.046875 C-290.29486292 421.92363068 -306.157191 427.06689587 -319.17675781 440.72265625 C-326.41961471 449.02210527 -329.03365532 459.26725974 -328.77734375 470.0625 C-327.15811958 486.54169287 -320.39772355 500.81695498 -309.46875 513.203125 C-303.46875 520.04388933 -303.46875 520.04388933 -303.46875 522.203125 C-304.52449219 522.40615234 -304.52449219 522.40615234 -305.6015625 522.61328125 C-317.97821243 525.31158482 -329.02578212 530.74057455 -338.46875 539.203125 C-339.28988281 539.91984375 -340.11101562 540.6365625 -340.95703125 541.375 C-353.08061042 552.6339233 -359.18184658 566.28971481 -360.80859375 582.61328125 C-361.27302734 597.90243516 -356.79658309 613.31075059 -346.17578125 624.66015625 C-331.06249986 638.32090259 -313.56831744 643.11227562 -293.62109375 642.54296875 C-275.86953906 641.62753714 -260.39520704 633.20651831 -246.9453125 622.109375 C-244.46875 620.203125 -244.46875 620.203125 -242.46875 620.203125 C-241.99566406 621.21890625 -241.52257812 622.2346875 -241.03515625 623.28125 C-236.67138976 632.44337211 -231.90881479 640.31434998 -225.46875 648.203125 C-225.00339844 648.8321875 -224.53804687 649.46125 -224.05859375 650.109375 C-215.87984287 660.71423853 -203.16888096 668.13352064 -191.46875 674.203125 C-189.74785156 675.11191406 -189.74785156 675.11191406 -187.9921875 676.0390625 C-149.02844517 695.84241669 -99.06673602 696.08457641 -58.06005859 683.08300781 C-36.83586469 675.87630018 -19.73724189 663.96032966 -3.3671875 648.85546875 C-1.46875 647.203125 -1.46875 647.203125 -0.46875 647.203125 C-0.46875 780.193125 -0.46875 913.183125 -0.46875 1050.203125 C-49.59023732 1050.203125 -107.07562851 1016.99730156 -148.42578125 994.0078125 C-205.03107682 962.80457193 -270.07876298 946.87877316 -333.46875 964.203125 C-357.49985351 971.16814985 -380.47854501 979.75631744 -399.078125 996.98828125 C-400.46875 998.203125 -400.46875 998.203125 -401.46875 998.203125 C-401.7243061 987.16337525 -401.91941193 976.12433569 -402.03868389 965.08222389 C-402.09594863 959.95397657 -402.17353081 954.82776134 -402.29858398 949.70068359 C-402.41864887 944.74677145 -402.48398523 939.79480543 -402.51239967 934.83955002 C-402.53263049 932.95514673 -402.57214126 931.07084288 -402.63178062 929.18727493 C-403.10199625 913.71251837 -403.10199625 913.71251837 -399.16201782 908.90057373 C-396.3839157 906.31665857 -393.66258843 904.24285395 -390.46875 902.203125 C-389.40673874 901.47960846 -388.34472748 900.75609192 -387.25053406 900.01065063 C-358.49067015 880.8901473 -322.52565765 872.98072894 -288.40625 872.953125 C-287.65442444 872.95245026 -286.90259888 872.95177551 -286.12799072 872.95108032 C-272.72051207 872.9700882 -259.69472596 873.89087538 -246.46875 876.203125 C-245.52515625 876.36409668 -244.5815625 876.52506836 -243.609375 876.69091797 C-199.96484487 884.36557268 -158.77144225 901.88174853 -119.09375 921.015625 C-118.16325333 921.46317642 -118.16325333 921.46317642 -117.21395874 921.91976929 C-102.46759616 929.03206904 -88.0152946 936.67905021 -73.46875 944.203125 C-73.96375 855.103125 -73.96375 855.103125 -74.46875 764.203125 C-81.39875 768.163125 -81.39875 768.163125 -88.46875 772.203125 C-91.82028171 773.85507668 -95.10500146 775.4285754 -98.53125 776.890625 C-99.40612061 777.26509766 -100.28099121 777.63957031 -101.18237305 778.02539062 C-133.81052889 791.44768519 -172.1757475 790.8047486 -204.69775391 777.27587891 C-209.41906954 775.15339316 -213.96581629 772.75252668 -218.46875 770.203125 C-219.05237305 769.87554199 -219.63599609 769.54795898 -220.23730469 769.21044922 C-228.3130247 764.61895628 -235.43804292 759.25043736 -242.46875 753.203125 C-243.12617188 752.66816406 -243.78359375 752.13320313 -244.4609375 751.58203125 C-255.92126436 742.18456322 -265.30835191 729.09766303 -272.46875 716.203125 C-277.22250994 717.24391766 -281.9655441 718.31193868 -286.6953125 719.45703125 C-287.5821875 719.67166016 -288.4690625 719.88628906 -289.3828125 720.10742188 C-291.19837837 720.5482329 -293.01348031 720.99095893 -294.828125 721.43554688 C-295.71242188 721.64888672 -296.59671875 721.86222656 -297.5078125 722.08203125 C-298.29365723 722.2735376 -299.07950195 722.46504395 -299.88916016 722.66235352 C-308.18414161 724.40126928 -316.41424508 724.44603967 -324.84375 724.453125 C-325.56217072 724.45379974 -326.28059143 724.45447449 -327.02078247 724.45516968 C-337.80863893 724.43905874 -347.97944044 723.93563421 -358.46875 721.203125 C-359.48001953 720.95369141 -359.48001953 720.95369141 -360.51171875 720.69921875 C-381.937135 715.35276553 -400.66583228 705.49132034 -417.46875 691.203125 C-418.60570312 690.26726562 -418.60570312 690.26726562 -419.765625 689.3125 C-425.78914786 684.20289095 -430.65831852 678.45066213 -435.46875 672.203125 C-436.13777344 671.34976563 -436.80679687 670.49640625 -437.49609375 669.6171875 C-446.55528484 657.66981865 -453.70946012 644.4195404 -458.46875 630.203125 C-458.71141602 629.52443359 -458.95408203 628.84574219 -459.20410156 628.14648438 C-463.63920714 615.30279258 -463.97094875 602.39860405 -464.03125 588.953125 C-464.0400116 588.10485138 -464.04877319 587.25657776 -464.05780029 586.38259888 C-464.30451639 551.52195171 -449.23766167 519.41372089 -425.02294922 494.75244141 C-407.41832454 477.203125 -407.41832454 477.203125 -402.46875 477.203125 C-402.6853125 476.25695312 -402.901875 475.31078125 -403.125 474.3359375 C-408.62902182 448.84311048 -404.57482371 425.10344362 -390.56884766 402.85791016 C-387.56361984 398.33739658 -384.08795784 394.23765177 -380.46875 390.203125 C-379.89511719 389.55859375 -379.32148438 388.9140625 -378.73046875 388.25 C-371.55335253 380.64465489 -362.559886 375.08067179 -353.5859375 369.84375 C-351.11064262 367.92562482 -350.92209971 367.21810729 -350.46875 364.203125 C-351.01162487 361.40303358 -351.62095924 358.70547391 -352.34375 355.953125 C-358.58635501 331.71459658 -356.65974196 308.49476145 -344.25 286.63671875 C-340.4412735 280.3197737 -335.81832114 275.26822854 -330.46875 270.203125 C-329.73011719 269.46964844 -328.99148438 268.73617188 -328.23046875 267.98046875 C-312.4287004 252.98756605 -293.31734596 247.83454028 -272.46875 244.203125 C-272.81808594 243.06875 -273.16742188 241.934375 -273.52734375 240.765625 C-273.98731792 239.24489409 -274.44693423 237.7240549 -274.90625 236.203125 C-275.13634766 235.45933594 -275.36644531 234.71554688 -275.60351562 233.94921875 C-275.82587891 233.20800781 -276.04824219 232.46679688 -276.27734375 231.703125 C-276.48157959 231.0328125 -276.68581543 230.3625 -276.89624023 229.671875 C-278.33805575 223.45454515 -278.63426318 217.24363632 -278.671875 210.890625 C-278.67757507 210.1186377 -278.68327515 209.34665039 -278.68914795 208.55126953 C-278.6985354 206.92433005 -278.70510681 205.2973721 -278.70898438 203.67041016 C-278.71861613 201.2369469 -278.7496684 198.80435698 -278.78125 196.37109375 C-278.87866237 182.31960454 -277.33521895 169.12761613 -271.78125 156.078125 C-271.25797119 154.81730103 -271.25797119 154.81730103 -270.72412109 153.53100586 C-260.55419482 129.60405089 -244.21714529 110.32763937 -222.46875 96.203125 C-221.52902344 95.57921875 -220.58929688 94.9553125 -219.62109375 94.3125 C-213.61627286 90.56265404 -207.30050394 87.67436765 -200.78125 84.953125 C-200.0166748 84.6236084 -199.25209961 84.2940918 -198.46435547 83.95458984 C-183.41588596 77.9247153 -167.86195578 77.79145276 -151.90625 78.015625 C-150.00847434 78.0307215 -148.11068686 78.04440099 -146.21289062 78.05664062 C-141.63121028 78.08920146 -137.05011672 78.14069984 -132.46875 78.203125 C-132.17234619 77.42606201 -131.87594238 76.64899902 -131.57055664 75.84838867 C-119.67755399 47.29516826 -80.91221525 22.48734098 -53.765625 11.19140625 C-36.52953679 4.38199849 -18.55882124 0.09631343 0 0 Z " fill="#E53132" transform="translate(463.46875,-0.203125)"/>
<path d="M0 0 C33.89136877 19.99896085 69.58533944 35.19091536 108.13085938 43.47558594 C109.02353516 43.67055664 109.91621094 43.86552734 110.8359375 44.06640625 C127.6659516 47.49161013 144.56148746 48.01164007 161.68725586 47.97875977 C165.11604661 47.97559959 168.54397121 47.99916168 171.97265625 48.02441406 C190.34044662 48.07769539 208.22569764 46.38803905 226.13085938 42.16308594 C227.18877686 41.91373291 228.24669434 41.66437988 229.33666992 41.4074707 C267.35502956 32.0460284 302.31038779 15.78416797 335.81185913 -4.25479126 C353.5227009 -14.83462106 371.42566387 -24.22798976 390.81835938 -31.33691406 C392.0275 -31.79453125 393.23664062 -32.25214844 394.48242188 -32.72363281 C402.57799258 -35.62012933 410.82752487 -37.63212732 419.19335938 -39.58691406 C420.29953613 -39.84553223 421.40571289 -40.10415039 422.54541016 -40.37060547 C423.61259277 -40.61214355 424.67977539 -40.85368164 425.77929688 -41.10253906 C426.72595215 -41.3168457 427.67260742 -41.53115234 428.64794922 -41.75195312 C435.69434315 -43.05205784 442.65892528 -43.49456869 449.81445312 -43.50488281 C450.64687027 -43.50821121 451.47928741 -43.51153961 452.33692932 -43.51496887 C454.09074356 -43.51999882 455.84456723 -43.52237842 457.59838867 -43.5222168 C460.21810674 -43.52438285 462.83738852 -43.54252443 465.45703125 -43.56152344 C479.85652132 -43.61091785 494.45687076 -43.1028239 508.38085938 -39.08691406 C509.16493164 -38.8685791 509.94900391 -38.65024414 510.75683594 -38.42529297 C513.11865881 -37.75327208 515.46943643 -37.05261332 517.81835938 -36.33691406 C518.51751465 -36.12583008 519.21666992 -35.91474609 519.93701172 -35.69726562 C537.41529165 -30.29178377 555.212696 -22.43996538 569.81835938 -11.33691406 C570.68203125 -10.68078125 571.54570313 -10.02464844 572.43554688 -9.34863281 C574.94110941 -7.38759223 577.39485148 -5.39886465 579.81835938 -3.33691406 C580.54307434 -2.93452515 581.26778931 -2.53213623 582.01446533 -2.11755371 C585.55128378 0.20777812 588.26815425 2.44236377 589.32436562 6.70541382 C590.12232369 13.11067183 589.84868356 19.56894454 589.69726562 26.00683594 C589.68046502 28.10287741 589.66766071 30.1989544 589.65867615 32.29504395 C589.62442619 37.79344457 589.53611963 43.28968164 589.43634033 48.78723145 C589.34402408 54.40440607 589.30311526 60.02193274 589.2578125 65.63964844 C589.16149097 76.64840794 589.0080272 87.65556655 588.81835938 98.66308594 C585.74598353 97.19584057 583.68217361 95.74672752 581.31445312 93.28417969 C580.6619458 92.61467285 580.00943848 91.94516602 579.3371582 91.25537109 C578.65032959 90.54429199 577.96350098 89.83321289 577.25585938 89.10058594 C571.06320712 82.80389656 564.82235799 77.05391869 557.81835938 71.66308594 C556.8515625 70.87933594 555.88476562 70.09558594 554.88867188 69.28808594 C521.44291501 42.3907787 484.82628095 32.20256975 442.26586914 36.43286133 C401.92908147 41.09635168 365.69380992 56.85303902 330.58007812 76.59667969 C289.43840462 99.66548599 245.59871013 114.97813592 198.81835938 121.66308594 C197.9252002 121.79440918 197.03204102 121.92573242 196.11181641 122.06103516 C170.31277116 125.68703935 142.42446503 125.23689103 116.81835938 120.66308594 C115.86316406 120.49679687 114.90796875 120.33050781 113.92382812 120.15917969 C72.16187468 112.69181053 34.34563056 95.45741955 -3.08837891 76.16503906 C-52.71290899 50.63406366 -115.07538264 22.82707801 -171.80664062 39.66308594 C-199.83710279 48.66632783 -223.50150366 66.26742142 -244.67089844 86.24511719 C-247.02433631 88.45403237 -249.41275192 90.62317789 -251.80664062 92.78808594 C-252.97066406 93.84382813 -252.97066406 93.84382813 -254.15820312 94.92089844 C-256.18164062 96.66308594 -256.18164062 96.66308594 -259.18164062 98.66308594 C-259.46043876 86.59758544 -259.67327673 74.53285841 -259.80338669 62.46478558 C-259.86585519 56.86004571 -259.95048647 51.25751888 -260.08691406 45.65405273 C-260.21790141 40.23976441 -260.28917156 34.82759542 -260.32016754 29.41184425 C-260.34223618 27.35240128 -260.38533614 25.2930665 -260.45040131 23.23453331 C-260.96471722 6.27862739 -260.96471722 6.27862739 -256.5584259 0.97865295 C-253.69113345 -1.89077788 -250.57074163 -4.12004933 -247.18164062 -6.33691406 C-245.96497095 -7.28118066 -244.74971177 -8.22727377 -243.53710938 -9.17675781 C-163.7943663 -61.97805625 -78.28643555 -46.28302114 0 0 Z " fill="#E53132" transform="translate(321.181640625,1144.3369140625)"/>
<path d="M0 0 C2.44913608 2.04082605 2.44913608 2.04082605 5.10882568 3.66073608 C8.66112636 6.18808727 11.80847851 8.59174777 13.05243683 12.94479752 C13.92099473 18.75833476 13.64456979 24.62072203 13.47445679 30.47691345 C13.45578195 32.36973316 13.44155847 34.26260154 13.43157959 36.15548706 C13.3935804 41.11337627 13.29552011 46.06828829 13.18453979 51.02500916 C13.08183857 56.09255197 13.03648539 61.16058079 12.98617554 66.22886658 C12.87925284 76.15529771 12.70881348 86.07952895 12.49789429 96.0042572 C8.59053954 94.17324162 5.59582736 91.64321835 2.37289429 88.8167572 C-3.03772435 84.17467524 -8.48724407 79.85310218 -14.50210571 76.0042572 C-15.08379517 75.62946228 -15.66548462 75.25466736 -16.26480103 74.86851501 C-33.06517818 64.16347429 -51.05145386 57.19225485 -70.50210571 53.0042572 C-71.23703247 52.84054626 -71.97195923 52.67683533 -72.72915649 52.50816345 C-97.04181436 47.31860385 -124.16898511 48.68667939 -148.50210571 53.0042572 C-149.45053345 53.17054626 -150.39896118 53.33683533 -151.37612915 53.50816345 C-182.68717664 59.20299863 -210.99111122 72.60797759 -238.83804321 87.5745697 C-280.5262723 109.94684514 -323.39544928 128.0997935 -370.43960571 135.3167572 C-371.48036255 135.47652039 -372.52111938 135.63628357 -373.59341431 135.80088806 C-388.87403982 137.96148299 -404.3405122 138.24238464 -419.75210571 138.2542572 C-420.95750504 138.25526932 -420.95750504 138.25526932 -422.18725586 138.25630188 C-435.1893926 138.23908477 -447.70918133 137.45895242 -460.50210571 135.0042572 C-461.89598511 134.75482361 -461.89598511 134.75482361 -463.31802368 134.50035095 C-490.80967452 129.55267841 -517.20586026 120.70917068 -542.37710571 108.6917572 C-543.84993392 107.99458321 -545.32283612 107.29756551 -546.79580688 106.60069275 C-556.49203491 101.99671286 -566.10067138 97.22928584 -575.68252563 92.3926239 C-636.47731173 61.71503045 -704.08136534 35.7489718 -772.2237854 57.88853455 C-793.89542084 65.32488004 -812.46279563 75.82662117 -828.97866821 91.7542572 C-831.17578023 93.71329207 -832.88301598 94.78252438 -835.50210571 96.0042572 C-835.75766182 84.96450746 -835.95276764 73.9254679 -836.0720396 62.88335609 C-836.12930434 57.75510877 -836.20688652 52.62889354 -836.3319397 47.5018158 C-836.45200459 42.54790365 -836.51734094 37.59593763 -836.54575539 32.64068222 C-836.5659862 30.75627893 -836.60549697 28.87197508 -836.66513634 26.98840714 C-837.13607628 11.48981335 -837.13607628 11.48981335 -833.13522339 6.66572571 C-830.37651243 4.11449528 -827.66100758 2.02930422 -824.50210571 0.0042572 C-823.29758255 -0.84613129 -823.29758255 -0.84613129 -822.06872559 -1.71369934 C-820.0539504 -3.12112084 -817.9986122 -4.38086017 -815.87710571 -5.6207428 C-815.10987183 -6.07674866 -814.34263794 -6.53275452 -813.55215454 -7.00257874 C-789.16910038 -21.24706051 -760.95607426 -31.12800562 -732.50991821 -31.16371155 C-731.5651059 -31.16703995 -730.62029358 -31.17036835 -729.64685059 -31.17379761 C-727.6516671 -31.17883901 -725.65647525 -31.1812068 -723.6612854 -31.18104553 C-720.67057611 -31.18321132 -717.68024891 -31.20133966 -714.68960571 -31.22035217 C-698.83718182 -31.26860179 -683.34749616 -30.47091514 -667.93960571 -26.4332428 C-666.93840698 -26.1742218 -665.93720825 -25.91520081 -664.90567017 -25.64833069 C-636.5182802 -18.04847004 -610.58953431 -5.4921222 -585.42788696 9.5120697 C-571.1685627 17.98853792 -556.45261773 25.88409003 -541.48794556 33.05064392 C-540.12792602 33.7037342 -538.77162866 34.36461675 -537.41860962 35.03208923 C-471.45568813 67.42948017 -396.38685148 70.43961699 -326.50210571 50.0042572 C-325.68290649 49.76481384 -324.86370728 49.52537048 -324.01968384 49.27867126 C-294.93286841 40.58794454 -267.5062168 26.56796288 -241.57095337 11.00865173 C-172.14003656 -30.61409384 -70.11226599 -57.90083542 0 0 Z " fill="#E53132" transform="translate(897.5021057128906,1019.9957427978516)"/>
<path d="M0 0 C108.72705078 0 108.72705078 0 126.44140625 16.3125 C139.71035321 30.67887867 139.3642881 50.53530503 139.31567383 68.99072266 C139.31250233 71.49816 139.33613288 74.00442482 139.36132812 76.51171875 C139.42419941 92.69244636 138.50053221 109.77451125 126.91015625 122.15234375 C117.9406652 130.82835452 108.22031868 134.23432658 96 136 C97.57587891 136.36351562 97.57587891 136.36351562 99.18359375 136.734375 C111.95002568 139.74951657 124.62097516 142.94376809 132.3125 154.5 C138.70639429 166.4889246 138.49040317 179.94587103 138.66015625 193.171875 C138.69447481 194.9888177 138.73026495 196.80573314 138.7674408 198.62261963 C138.8617902 203.36628376 138.94158922 208.11005862 139.01654053 212.85406494 C139.137219 220.45809097 139.27194155 228.06177242 139.42269707 235.66526031 C139.4715664 238.30060319 139.50896652 240.93593261 139.54542542 243.57147217 C139.91838068 265.63796822 145.97450726 284.15631998 162 300 C176.42929231 313.3157016 194.29076525 318.77122633 213.68359375 319.31640625 C214.96548584 319.35451416 216.24737793 319.39262207 217.56811523 319.43188477 C219.97846069 319.49653931 219.97846069 319.49653931 222.4375 319.5625 C227.573125 319.706875 232.70875 319.85125 238 320 C238 336.17 238 352.34 238 369 C207.85616386 379.04794538 166.21256507 367.60691919 138.75 354.125 C126.67464184 347.98316021 116.69777885 340.35948424 107 331 C106.319375 330.3709375 105.63875 329.741875 104.9375 329.09375 C87.56724385 312.65404329 80.4407475 289.13307548 79.68408203 265.86205101 C79.59662469 262.35122841 79.53126215 258.84048184 79.47927856 255.32896042 C79.43641772 252.4507598 79.38246389 249.57293953 79.32592773 246.69497681 C79.18784008 239.55529556 79.06794219 232.41533264 78.94787598 225.27532959 C78.84528273 219.21455605 78.73544995 213.15399513 78.61624146 207.09352493 C78.56381749 204.28160537 78.52177359 201.46966021 78.48022461 198.65756226 C78.82080129 181.53547005 78.82080129 181.53547005 73 166 C71.17981218 164.6177939 71.17981218 164.6177939 69.125 163.75 C68.46757812 163.43546875 67.81015625 163.1209375 67.1328125 162.796875 C64.57601485 161.77698149 64.57601485 161.77698149 60 161 C59.67 206.87 59.34 252.74 59 300 C39.53 300 20.06 300 0 300 C0 201 0 102 0 0 Z M59 39 C59 65.73 59 92.46 59 120 C65.68321401 120 71.85141807 119.85340238 77 115.1875 C79.08925775 110.61724868 79.13540931 105.66284579 79.20874023 100.70678711 C79.22803085 99.48209213 79.24732147 98.25739716 79.26719666 96.99559021 C79.32513907 91.44134122 79.37442063 85.88723139 79.4050293 80.33276367 C79.42289341 77.40035648 79.45781209 74.46890175 79.50756836 71.53686523 C79.56777931 67.98312278 79.59850208 64.43026767 79.60820198 60.87603951 C79.62088831 58.87229214 79.66291879 56.8687998 79.70542908 54.86546326 C79.89819788 48.67003219 79.89819788 48.67003219 77.72756958 43.0696106 C71.83595621 37.94962241 66.9962831 39 59 39 Z " fill="#E53132" transform="translate(329,1318)"/>
<path d="M0 0 C10.20147264 9.30856475 16.2382922 25.29775533 17.22594833 38.85603142 C17.39331558 43.02447206 17.50437254 47.1903283 17.58935547 51.36108398 C17.6270163 52.92162807 17.66500078 54.48216437 17.70329094 56.04269314 C18.05613302 71.18814816 18.12090061 86.3330503 18.10698175 101.48195195 C18.10436112 105.261523 18.10682147 109.04109225 18.10836792 112.82066345 C18.11016222 119.15396574 18.10785668 125.48725618 18.10302734 131.82055664 C18.09758776 139.03526098 18.0993565 146.24993702 18.10485375 153.46464068 C18.10946179 159.776656 18.10999876 166.08866305 18.10741508 172.40067953 C18.10589398 176.11914018 18.10553817 179.83758775 18.10895157 183.55604744 C18.12055579 198.5306282 18.04170246 213.50501805 17.70024085 228.47617996 C17.66859063 229.93144911 17.64130269 231.38682135 17.61891007 232.84226239 C17.33050178 250.69393243 13.19785433 267.79535282 0.97265625 281.37890625 C-15.78749091 296.70097526 -39.35403815 298.27313601 -61.02734375 297.37890625 C-77.54202051 296.15559686 -93.5930041 292.08372808 -105.02734375 279.37890625 C-105.83171875 278.53328125 -106.63609375 277.68765625 -107.46484375 276.81640625 C-117.06712569 264.85884761 -120.03980812 249.60750106 -120.62451172 234.6730957 C-120.66352034 233.76484952 -120.70252895 232.85660334 -120.74271965 231.92083454 C-121.14260413 221.81792302 -121.17166006 211.71870513 -121.16015625 201.609375 C-121.16126104 199.54697653 -121.1626945 197.48457821 -121.16442871 195.42218018 C-121.16730975 189.93629193 -121.1630632 184.45043411 -121.15631866 178.96455002 C-121.15232107 175.54701488 -121.14982126 172.12948133 -121.14764404 168.71194458 C-121.12537603 138.2667288 -121.01430534 107.82246402 -120.67946625 77.3789711 C-120.65253937 74.83488906 -120.62885478 72.29079535 -120.60601807 69.74667358 C-120.56963419 65.77194768 -120.5234331 61.79745363 -120.46940613 57.82292938 C-120.45121831 56.39522542 -120.43590694 54.96748087 -120.42396545 53.539711 C-120.25372814 34.11309356 -117.54873878 15.95160176 -103.9296875 1.08984375 C-78.91415222 -22.4697609 -25.79386013 -20.62514827 0 0 Z M-57.02734375 30.37890625 C-60.08073584 32.74896322 -60.94673657 33.83453739 -61.52232838 37.72171307 C-61.54040173 39.07800355 -61.53637712 40.43469546 -61.51509094 41.79093933 C-61.51921421 42.54034218 -61.52333747 43.28974502 -61.52758569 44.06185704 C-61.53652232 46.57570716 -61.51684657 49.08851668 -61.49731445 51.60229492 C-61.49782327 53.40466437 -61.50007907 55.20703405 -61.50395203 57.00939941 C-61.50938301 61.91372529 -61.48991475 66.81767487 -61.46585107 71.72193313 C-61.44452903 76.87388029 -61.44514773 82.02582639 -61.44316101 87.17781067 C-61.4367042 95.8527368 -61.41544567 104.52752246 -61.3840332 113.20239258 C-61.34402501 124.26412238 -61.32638229 135.32575986 -61.31672382 146.38755322 C-61.30834285 155.95906368 -61.29111996 165.5305554 -61.27168632 175.10204911 C-61.26766298 177.13971346 -61.26391972 179.17737839 -61.26046395 181.21504378 C-61.23765882 194.60367135 -61.18074876 207.99108609 -61.02734375 221.37890625 C-61.01999568 222.08525223 -61.01264762 222.79159822 -61.00507689 223.51934862 C-60.9587171 227.76975684 -60.87427785 232.01768891 -60.76245117 236.2668457 C-60.74926755 237.2523878 -60.73608393 238.2379299 -60.7225008 239.25333691 C-60.57440451 243.48037283 -60.37940416 245.80803014 -58.12007141 249.47160339 C-55.71856382 251.66032693 -54.73413377 252.03475459 -51.52734375 251.94140625 C-48.52630989 251.74922182 -47.19182581 251.48012598 -44.58984375 249.87890625 C-40.92343601 244.01265387 -40.73061568 237.35085698 -40.73973083 230.62995911 C-40.73308302 229.78543975 -40.72643521 228.94092039 -40.71958596 228.07080954 C-40.7000091 225.26047072 -40.69453016 222.45029182 -40.68920898 219.63989258 C-40.6783061 217.61729013 -40.66663356 215.59469171 -40.6542511 213.57209778 C-40.62382947 208.09308013 -40.60675074 202.61410433 -40.59403491 197.13501954 C-40.58593931 193.71170244 -40.57575881 190.28839727 -40.56501961 186.86508751 C-40.53233645 176.15275174 -40.50841722 165.44044509 -40.49620575 154.72806627 C-40.48192521 142.36284322 -40.43795301 129.99818839 -40.36870426 117.63315374 C-40.3169931 108.07035264 -40.29203848 98.50771364 -40.28738362 88.94477481 C-40.28398115 83.2340731 -40.26905277 77.52394742 -40.22610283 71.81339455 C-40.18644663 66.44756867 -40.17990504 61.08272356 -40.19900322 55.71679497 C-40.20027252 53.74670048 -40.18953484 51.77655667 -40.16598892 49.80660248 C-40.13569269 47.11885408 -40.14844694 44.43463872 -40.17210388 41.74690247 C-40.15307823 40.96538828 -40.13405258 40.1838741 -40.1144504 39.37867767 C-40.17789878 36.35655207 -40.39940581 34.05624728 -42.50221837 31.7879957 C-47.84049664 27.78967087 -51.33037572 26.24860442 -57.02734375 30.37890625 Z " fill="#E53132" transform="translate(300.02734375,1326.62109375)"/>
<path d="M0 0 C12.74023111 12.45711486 17.71773914 30.26641135 17.93275452 47.7046051 C17.93561264 49.51473912 17.9330883 51.32488727 17.92602539 53.13500977 C17.92617142 54.1311882 17.92631744 55.12736664 17.9264679 56.1537323 C17.92577634 59.41631315 17.91801969 62.67883549 17.91015625 65.94140625 C17.90828938 68.21540801 17.90686674 70.48941017 17.90586853 72.76341248 C17.90206457 78.72605515 17.89225252 84.68867317 17.88116455 90.65130615 C17.86909835 97.81755311 17.86453809 104.98380834 17.85871124 112.15006256 C17.84903954 123.01672548 17.82986814 133.88333438 17.8125 144.75 C-8.2575 144.75 -34.3275 144.75 -61.1875 144.75 C-60.8575 156.63 -60.5275 168.51 -60.1875 180.75 C-60.11300564 186.77552537 -60.05174661 192.79186929 -60.046875 198.81640625 C-60.03075347 201.73895647 -60.00920425 204.66146504 -59.98828125 207.58398438 C-59.95771085 212.01463455 -59.93524187 216.44496575 -59.93701172 220.87573242 C-59.9377956 224.57449528 -59.91468444 228.27241775 -59.8751297 231.97096062 C-59.86471913 233.35561284 -59.8631091 234.74036232 -59.87078094 236.12503242 C-59.88033858 238.02681779 -59.85653796 239.92868362 -59.83105469 241.83032227 C-59.82740906 242.90532486 -59.82376343 243.98032745 -59.82000732 245.08790588 C-59.43000062 247.94632112 -59.43000062 247.94632112 -56.86993408 249.59654236 C-53.40282337 251.08741416 -50.92754033 251.1580044 -47.1875 250.75 C-44.72563421 249.77896212 -44.72563421 249.77896212 -43.1875 247.75 C-42.2931572 243.62213404 -42.04698165 239.6398314 -41.99804688 235.42504883 C-41.98132935 234.19389847 -41.96461182 232.96274811 -41.9473877 231.69429016 C-41.93381226 230.37849472 -41.92023682 229.06269928 -41.90625 227.70703125 C-41.88818999 226.3327311 -41.86958601 224.958438 -41.85046387 223.58415222 C-41.78095937 218.5052131 -41.72118836 213.4261686 -41.66143799 208.34710693 C-41.6104739 204.04343296 -41.55566581 199.73984219 -41.49562073 195.43628502 C-41.46909183 193.42050534 -41.4482578 191.4047175 -41.4276123 189.38887024 C-41.41089478 188.16717636 -41.39417725 186.94548248 -41.37695312 185.68676758 C-41.35816101 184.07177116 -41.35816101 184.07177116 -41.33898926 182.42414856 C-41.1875 179.75 -41.1875 179.75 -40.1875 176.75 C-21.0475 176.75 -1.9075 176.75 17.8125 176.75 C17.87580136 184.79396123 17.93585869 192.83699496 17.96775055 200.88098907 C17.98344635 204.62869673 18.00433804 208.3761934 18.03881836 212.1237793 C18.49798533 263.41335073 18.49798533 263.41335073 0.4375 282.5 C-14.9526665 297.05009191 -37.45830397 298.10354196 -57.578125 297.90234375 C-75.01211305 297.1664936 -91.18046155 292.98744668 -104.24609375 280.8984375 C-119.74519434 263.74651532 -120.33956354 242.54659018 -120.33276367 220.73706055 C-120.33575958 218.81581558 -120.3391631 216.89457122 -120.34294128 214.97332764 C-120.35174094 209.77692843 -120.35411768 204.58054571 -120.35475707 199.38413978 C-120.3554698 196.13194913 -120.35760831 192.87976263 -120.36025429 189.62757301 C-120.36949393 178.26579143 -120.37359085 166.90402154 -120.37280273 155.54223633 C-120.37220212 144.97677249 -120.38275433 134.41135974 -120.3985464 123.84590882 C-120.41165037 114.7525832 -120.41698544 105.65927423 -120.41634732 96.56593925 C-120.41609321 91.14475283 -120.41889686 85.72361187 -120.42952538 80.30243492 C-120.43925471 75.20111168 -120.43925257 70.0998769 -120.43200874 64.99855042 C-120.43096894 63.13504722 -120.43328956 61.27153838 -120.4393692 59.40804482 C-120.50618609 37.49454965 -117.86182365 17.49491868 -102.625 0.5 C-77.37853287 -23.23557817 -26.19479743 -18.49044524 0 0 Z M-57.9375 30.4609375 C-60.56327768 35.26939288 -60.38404368 40.52731657 -60.50390625 45.890625 C-60.52473267 46.68260788 -60.54555908 47.47459076 -60.5670166 48.29057312 C-60.63283401 50.86028844 -60.69177028 53.43010239 -60.75 56 C-60.79287424 57.76245149 -60.83576167 59.52490266 -60.87866211 61.28735352 C-61.19486483 74.77921317 -61.27132747 88.25377662 -61.1875 101.75 C-54.2575 101.75 -47.3275 101.75 -40.1875 101.75 C-40.27345869 94.11679884 -40.36743953 86.48377374 -40.47502708 78.8508482 C-40.52468999 75.30547074 -40.57101894 71.76011884 -40.609375 68.21459961 C-40.65375991 64.12596029 -40.71328144 60.03765668 -40.7734375 55.94921875 C-40.78498871 54.69356613 -40.79653992 53.43791351 -40.80844116 52.14421082 C-40.90155403 41.29353889 -40.90155403 41.29353889 -43.1875 30.75 C-46.38495142 28.61836572 -47.47507916 28.43024436 -51.1875 28.375 C-52.05375 28.34664062 -52.92 28.31828125 -53.8125 28.2890625 C-56.29961089 28.54583188 -56.29961089 28.54583188 -57.9375 30.4609375 Z " fill="#E53132" transform="translate(599.1875,1326.25)"/>
<path d="M0 0 C11.41012383 10.06421134 16.96718117 24.71490164 18.32885742 39.59326172 C18.51827793 43.41758334 18.62060385 47.23412879 18.6875 51.0625 C18.72166016 52.29548828 18.75582031 53.52847656 18.79101562 54.79882812 C19.12600116 68.53323491 19 82.25825944 19 96 C-1.13 96 -21.26 96 -42 96 C-42.02578125 91.49859375 -42.0515625 86.9971875 -42.078125 82.359375 C-42.10980368 78.7685486 -42.14545379 75.17781048 -42.18379211 71.58705139 C-42.22316362 67.79743598 -42.25554675 64.00805658 -42.27099609 60.21826172 C-42.2861484 56.56752365 -42.32056696 52.91742766 -42.36830902 49.2669754 C-42.38313784 47.87479485 -42.39104188 46.48252263 -42.39188385 45.09026337 C-42.39425034 43.13916835 -42.42359555 41.18816264 -42.45410156 39.23730469 C-42.46298401 38.1269989 -42.47186646 37.01669312 -42.48101807 35.8727417 C-43.11725436 32.3509572 -44.22606452 31.18937588 -47 29 C-50.37880511 27.66626114 -51.72957783 27.90455688 -55.1875 29.125 C-58.44219095 31.29479397 -59.0651399 32.26055958 -60 36 C-61.26727885 42.76503269 -61.1837767 49.50923332 -61.1875 56.375 C-61.20586914 58.14617187 -61.20586914 58.14617187 -61.22460938 59.953125 C-61.26239821 82.57604282 -48.20679852 95.41776028 -33.625 111.16015625 C-29.70561257 115.40032687 -25.85573597 119.70202908 -22 124 C-20.50028872 125.66692647 -19.00028679 127.33359149 -17.5 129 C-16.7575 129.82628906 -16.015 130.65257812 -15.25 131.50390625 C-13.75517311 133.16222983 -12.2551942 134.81592441 -10.75 136.46484375 C-3.66900959 144.24655717 3.03176467 152.2917004 9.375 160.6875 C10.00148438 161.51636719 10.62796875 162.34523438 11.2734375 163.19921875 C14.85547344 169.00989695 16.48898463 175.0282153 17.1640625 181.76953125 C17.28281235 182.90622002 17.28281235 182.90622002 17.40396118 184.06587219 C18.39052929 194.69286529 18.37203909 205.36848389 18.37060547 216.0324707 C18.37500545 219.69203351 18.41153635 223.3504126 18.44921875 227.00976562 C18.53915527 245.64085134 17.29630582 263.77796036 3.9375 278.25 C-14.22455375 294.65443565 -37.21437142 298.06712383 -61 297 C-77.56862106 295.66842311 -95.77225446 290.6258888 -107.0625 277.625 C-111.8853592 271.09080367 -115.33072365 264.67145684 -118 257 C-118.23460937 256.32582031 -118.46921875 255.65164063 -118.7109375 254.95703125 C-121.89668205 244.13011681 -121.14517707 231.89432931 -121.09765625 220.7265625 C-121.09664917 219.58082764 -121.09564209 218.43509277 -121.09460449 217.25463867 C-121.08944018 213.04474868 -121.07547996 208.83487315 -121.0625 204.625 C-121.041875 195.17875 -121.02125 185.7325 -121 176 C-101.53 176 -82.06 176 -62 176 C-61.625 202.5625 -61.625 202.5625 -61.52197266 210.84985352 C-61.37624818 230.60049293 -61.37624818 230.60049293 -58 250 C-56.41753293 250.08153933 -54.83383727 250.13943557 -53.25 250.1875 C-51.92742187 250.23970703 -51.92742187 250.23970703 -50.578125 250.29296875 C-47.49506897 249.94262147 -46.21484036 249.14001467 -44 247 C-43.07554645 244.22663936 -42.86432612 242.52143105 -42.83886719 239.65551758 C-42.82925964 238.78063187 -42.8196521 237.90574615 -42.80975342 237.00434875 C-42.80550354 236.06060898 -42.80125366 235.1168692 -42.796875 234.14453125 C-42.79117493 233.16892746 -42.78547485 232.19332367 -42.77960205 231.18815613 C-42.77015225 229.12113529 -42.76361815 227.05409939 -42.75976562 224.98706055 C-42.75009079 221.84201303 -42.71907969 218.69762766 -42.6875 215.55273438 C-42.68096657 213.54167054 -42.67571744 211.53060203 -42.671875 209.51953125 C-42.6533548 208.11910332 -42.6533548 208.11910332 -42.63446045 206.69038391 C-42.66458556 197.75004828 -45.18623121 191.30849633 -50.875 184.4375 C-51.35332275 183.84453125 -51.83164551 183.2515625 -52.32446289 182.640625 C-57.52031954 176.25190614 -62.94387875 170.05632247 -68.37255859 163.86572266 C-71.02293309 160.82729453 -73.6344384 157.75588385 -76.25 154.6875 C-79.67408223 150.67625766 -83.13727995 146.71343503 -86.6875 142.8125 C-90.50112984 138.60790451 -94.11115589 134.26846303 -97.67578125 129.8515625 C-99.27488488 127.88963704 -100.89889612 125.94783587 -102.54296875 124.0234375 C-107.96618573 117.67310476 -112.84342845 111.25470579 -117 104 C-117.54398438 103.16210938 -118.08796875 102.32421875 -118.6484375 101.4609375 C-120.69720852 96.21466257 -120.58072486 91.0885412 -120.6875 85.5 C-120.71948486 84.27909668 -120.75146973 83.05819336 -120.78442383 81.80029297 C-120.87721491 77.8670517 -120.94265151 73.93386718 -121 70 C-121.02213138 68.6604817 -121.0442668 67.32096347 -121.06640625 65.98144531 C-121.12785417 62.0294085 -121.16084151 58.07743268 -121.1875 54.125 C-121.20063232 52.92166016 -121.21376465 51.71832031 -121.22729492 50.47851562 C-121.24353659 32.39778562 -118.18951844 16.90032804 -106 3 C-79.90728406 -22.39922183 -28.0443644 -21.33622168 0 0 Z " fill="#E53132" transform="translate(749,1327)"/>
<path d="M0 0 C36.63 0 73.26 0 111 0 C111 13.86 111 27.72 111 42 C94.17 42 77.34 42 60 42 C60 64.44 60 86.88 60 110 C76.5 110 93 110 110 110 C110 124.19 110 138.38 110 153 C93.5 153 77 153 60 153 C60 201.51 60 250.02 60 300 C40.2 300 20.4 300 0 300 C0 201 0 102 0 0 Z " fill="#E53232" transform="translate(62,1318)"/>
<path d="M0 0 C45.21 0 90.42 0 137 0 C137 14.19 137 28.38 137 43 C123.8 43 110.6 43 97 43 C97 127.81 97 212.62 97 300 C77.53 300 58.06 300 38 300 C38 215.19 38 130.38 38 43 C25.46 43 12.92 43 0 43 C0 28.81 0 14.62 0 0 Z " fill="#E53132" transform="translate(773,1318)"/>
</svg>
