<?xml version="1.0" encoding="UTF-8"?>
<svg version="1.1" xmlns="http://www.w3.org/2000/svg" width="960" height="1896">
<path d="M0 0 C0.70350586 0.16097168 1.40701172 0.32194336 2.13183594 0.48779297 C17.70668755 4.13125826 32.15411289 11.14832127 44 22 C44.7425 22.65097656 45.485 23.30195312 46.25 23.97265625 C71.73626489 47.64479465 79.43424464 86.77682653 81 120 C82.36415751 166.1389059 78.10880054 211.61902189 73.42553711 257.44555664 C66.63588207 324.01364993 71.01895574 381.25947356 114.4765625 434.81982422 C142.52255212 469.30320004 142.52255212 469.30320004 182 487 C189.08494139 487.82748048 189.08494139 487.82748048 195.47851562 485.32641602 C203.15617103 478.2427233 205.83425923 464.99611605 208.95172119 455.23364258 C229.64532426 390.65518156 260.61174644 339.24733128 320 304 C320.6305127 303.62536621 321.26102539 303.25073242 321.91064453 302.86474609 C337.52705487 293.73982961 354.7387744 287.35982889 371.75 281.375 C372.72001953 281.03210938 373.69003906 280.68921875 374.68945312 280.3359375 C376.04200195 279.871875 376.04200195 279.871875 377.421875 279.3984375 C378.21174805 279.12692871 379.00162109 278.85541992 379.81542969 278.57568359 C382 278 382 278 386 278 C396.0117635 295.86385061 403.26267872 314.23401743 409.5625 333.6875 C409.81427002 334.45916504 410.06604004 335.23083008 410.32543945 336.02587891 C411.49579931 339.77490499 412.30290589 343.06222337 412 347 C403.63286846 351.24323628 395.22624766 355.3575912 386.68774414 359.24609375 C383.1576464 360.87773897 380.00407289 362.47844659 377 365 C384.8229487 365.55105047 391.79286783 363.50060065 399.3125 361.5 C401.82863989 360.84073826 404.34553364 360.18434493 406.86328125 359.53125 C407.96969971 359.23798828 409.07611816 358.94472656 410.21606445 358.64257812 C413 358 413 358 416 358 C427.93009335 412.11480457 432.66930261 466.62808053 432 522 C431.34217529 522.01981934 430.68435059 522.03963867 430.0065918 522.06005859 C374.21888439 523.81631132 321.47925826 537.20310756 278 574 C277.38962891 574.51030762 276.77925781 575.02061523 276.15039062 575.54638672 C264.55132404 585.26843819 253.59838116 595.37098531 244.18359375 607.26953125 C242.75897314 609.05094415 241.29378927 610.80087036 239.78515625 612.51171875 C207.95962412 648.78541177 186.98071761 696.18985072 177 743 C176.80792969 743.89203125 176.61585938 744.7840625 176.41796875 745.703125 C174.2166719 756.39033721 173.71850758 766.97617221 173.625 777.875 C173.61090088 779.06343506 173.59680176 780.25187012 173.58227539 781.47631836 C173.65846361 795.36475587 175.68990467 809.87970655 185.8125 820.125 C186.862685 821.09681299 187.92068055 822.06064993 189 823 C188.00512267 824.60734868 187.00368514 826.21063645 186 827.8125 C185.443125 828.70582031 184.88625 829.59914063 184.3125 830.51953125 C182.39428153 833.48916008 180.30924168 836.31941753 178.2109375 839.1640625 C174.08266918 844.80771668 170.30956675 850.62202628 166.625 856.5625 C165.98159668 857.59592529 165.33819336 858.62935059 164.67529297 859.6940918 C155.17675796 874.26872197 155.17675796 874.26872197 148 890 C179.17469721 890.88929406 206.63543579 881.91126367 232.9921875 865.49609375 C236.42532098 863.78844424 239.17815202 863.19448457 243 863 C246.01157575 864.92228239 247.59314208 866.37587613 248.48046875 869.91796875 C249.32517832 882.45163235 240.77968631 893.09384327 233 902 C212.11528029 924.11549509 182.59284463 931.58542112 153.74389648 936.73266602 C137.56861416 939.49534961 137.56861416 939.49534961 125.07421875 949.1796875 C117.96226982 961.23120823 118.88974966 975.61448332 122.01953125 988.82421875 C124.11454502 995.61006016 127.25924788 999.84605491 133 1004 C135.74094597 1005.41012122 135.74094597 1005.41012122 138.8125 1006.625 C139.40015137 1006.87096924 139.98780273 1007.11693848 140.59326172 1007.37036133 C143.61036878 1008.62881157 146.63951824 1009.8556625 149.67431641 1011.07080078 C180.08663977 1023.24915264 207.33867478 1039.20261787 231 1062 C231.66080566 1062.63357422 232.32161133 1063.26714844 233.00244141 1063.91992188 C242.48691895 1073.06064926 251.23423017 1082.35359419 259 1093 C259.64066406 1093.86882812 260.28132813 1094.73765625 260.94140625 1095.6328125 C262.68286737 1098.0560537 264.35552122 1100.51001091 266 1103 C266.5878125 1103.88945313 267.175625 1104.77890625 267.78125 1105.6953125 C302.6445179 1160.41921252 314.38043227 1226.37208785 301.05102539 1289.81201172 C292.96250506 1326.09671286 276.95386475 1358.87988548 254 1388 C253.57170898 1388.54688477 253.14341797 1389.09376953 252.70214844 1389.65722656 C240.8835992 1404.60011297 227.06688445 1418.60249203 211.63867188 1429.80566406 C209.99679738 1431.00233421 208.38083212 1432.22858707 206.765625 1433.4609375 C156.87073079 1470.94861498 91.60160369 1485.39014965 30.2265625 1476.96484375 C-16.48615 1469.96010552 -59.74027388 1450.52463303 -95 1419 C-95.79494873 1418.289646 -95.79494873 1418.289646 -96.60595703 1417.56494141 C-100.11050831 1414.41814861 -103.56721185 1411.22489403 -107 1408 C-107.65613281 1407.38640625 -108.31226563 1406.7728125 -108.98828125 1406.140625 C-114.14007791 1401.1664765 -118.52894867 1395.58105192 -123 1390 C-123.66 1389.20722656 -124.32 1388.41445312 -125 1387.59765625 C-154.13899891 1352.29011927 -172.13914647 1306.47784607 -176 1261 C-176.16435547 1259.16888672 -176.16435547 1259.16888672 -176.33203125 1257.30078125 C-180.56334347 1203.30923737 -167.37683139 1145.08505824 -135 1101 C-134.55688477 1100.38608398 -134.11376953 1099.77216797 -133.65722656 1099.13964844 C-127.8916739 1091.16338954 -121.95716358 1083.54621367 -115.21484375 1076.3671875 C-113.31487069 1074.33652847 -111.52753551 1072.26158882 -109.75 1070.125 C-98.70413543 1057.51216395 -85.04761405 1045.99412029 -70.69140625 1037.34765625 C-62.26471621 1032.60549404 -62.26471621 1032.60549404 -57.8125 1024.375 C-57.53261201 1022.58472548 -57.26115758 1020.79310258 -57 1019 C-53.50805283 1009.09746326 -46.63555736 1003.92122904 -37.45117188 999.44042969 C-31.5631618 996.9829269 -25.47798093 995.73654675 -19.25 994.4375 C-16.58388531 993.85021583 -13.92087592 993.24938628 -11.2578125 992.6484375 C-9.99743164 992.36581055 -8.73705078 992.08318359 -7.43847656 991.79199219 C20.94239431 985.25496115 46.91008422 969.68131766 62.83251953 944.87255859 C93.57296511 895.56699239 111.23242341 828.19969502 98.375 770.5625 C93.21235837 749.22927013 82.96864823 729.80548171 69 713 C68.52127441 712.41976074 68.04254883 711.83952148 67.54931641 711.24169922 C58.79026027 700.6731802 49.48421151 690.88398975 39 682 C38.07960938 681.20207031 37.15921875 680.40414062 36.2109375 679.58203125 C20.744315 666.23644724 4.11806448 654.33937156 -12.3515625 642.27783203 C-29.96595217 629.3726406 -47.43341929 616.30557292 -64.28222656 602.40917969 C-65.8949699 601.08616171 -67.51846255 599.77825696 -69.1484375 598.4765625 C-73.99609381 594.5851562 -78.57408789 590.62918138 -82.85546875 586.1171875 C-84.77169548 584.22539354 -86.73991977 582.4841626 -88.78125 580.73046875 C-92.86944104 577.17765291 -96.62316214 573.39934019 -100.3125 569.4375 C-100.95912598 568.74422607 -101.60575195 568.05095215 -102.27197266 567.33666992 C-133.94055611 532.98530392 -154.04757717 491.2158839 -161 445 C-161.12987305 444.14986328 -161.25974609 443.29972656 -161.39355469 442.42382812 C-170.41709925 380.09312537 -151.52248815 323.9540165 -114.70800781 274.25585938 C-109.27532423 266.99217616 -103.55583956 259.96821178 -97.82104492 252.94335938 C-93.18762372 247.25791194 -88.65968146 241.50651559 -84.24462891 235.64941406 C-83.39337573 234.52131158 -82.53871739 233.39577272 -81.68115234 232.27246094 C-56.65688633 199.44105616 -40.49060771 163.61408769 -45.77416992 121.57788086 C-49.00090356 99.59253012 -59.11990206 78.70715391 -77 65 C-85.80577342 58.80899019 -94.89612544 54.51120122 -105 51 C-106.07765625 50.61972656 -107.1553125 50.23945312 -108.265625 49.84765625 C-121.38325949 45.80559446 -135.38617034 45.19013034 -149 44 C-143.03431211 28.14803276 -124.9512554 17.05707651 -110.24902344 10.20458984 C-77.51167036 -4.40487378 -35.00590214 -8.61039166 0 0 Z " fill="#001C58" transform="translate(403,27)"/>
<path d="M0 0 C0.70350586 0.16097168 1.40701172 0.32194336 2.13183594 0.48779297 C17.70668755 4.13125826 32.15411289 11.14832127 44 22 C44.7425 22.65097656 45.485 23.30195312 46.25 23.97265625 C71.73626489 47.64479465 79.43424464 86.77682653 81 120 C82.36415751 166.1389059 78.10880054 211.61902189 73.42553711 257.44555664 C66.63588207 324.01364993 71.01895574 381.25947356 114.4765625 434.81982422 C142.52255212 469.30320004 142.52255212 469.30320004 182 487 C189.08494139 487.82748048 189.08494139 487.82748048 195.47851562 485.32641602 C203.15617103 478.2427233 205.83425923 464.99611605 208.95172119 455.23364258 C229.64532426 390.65518156 260.61174644 339.24733128 320 304 C320.6305127 303.62536621 321.26102539 303.25073242 321.91064453 302.86474609 C337.52705487 293.73982961 354.7387744 287.35982889 371.75 281.375 C372.72001953 281.03210938 373.69003906 280.68921875 374.68945312 280.3359375 C376.04200195 279.871875 376.04200195 279.871875 377.421875 279.3984375 C378.21174805 279.12692871 379.00162109 278.85541992 379.81542969 278.57568359 C382 278 382 278 386 278 C396.0117635 295.86385061 403.26267872 314.23401743 409.5625 333.6875 C409.81427002 334.45916504 410.06604004 335.23083008 410.32543945 336.02587891 C411.49579931 339.77490499 412.30290589 343.06222337 412 347 C403.63286846 351.24323628 395.22624766 355.3575912 386.68774414 359.24609375 C383.1576464 360.87773897 380.00407289 362.47844659 377 365 C384.8229487 365.55105047 391.79286783 363.50060065 399.3125 361.5 C401.82863989 360.84073826 404.34553364 360.18434493 406.86328125 359.53125 C407.96969971 359.23798828 409.07611816 358.94472656 410.21606445 358.64257812 C413 358 413 358 416 358 C427.93009335 412.11480457 432.66930261 466.62808053 432 522 C431.34217529 522.01981934 430.68435059 522.03963867 430.0065918 522.06005859 C374.21888439 523.81631132 321.47925826 537.20310756 278 574 C277.38962891 574.51030762 276.77925781 575.02061523 276.15039062 575.54638672 C264.55132404 585.26843819 253.59838116 595.37098531 244.18359375 607.26953125 C242.75897314 609.05094415 241.29378927 610.80087036 239.78515625 612.51171875 C207.95962412 648.78541177 186.98071761 696.18985072 177 743 C176.80792969 743.89203125 176.61585938 744.7840625 176.41796875 745.703125 C174.2166719 756.39033721 173.71850758 766.97617221 173.625 777.875 C173.61090088 779.06343506 173.59680176 780.25187012 173.58227539 781.47631836 C173.65846361 795.36475587 175.68990467 809.87970655 185.8125 820.125 C186.862685 821.09681299 187.92068055 822.06064993 189 823 C188.00512267 824.60734868 187.00368514 826.21063645 186 827.8125 C185.443125 828.70582031 184.88625 829.59914063 184.3125 830.51953125 C182.39428153 833.48916008 180.30924168 836.31941753 178.2109375 839.1640625 C174.08266918 844.80771668 170.30956675 850.62202628 166.625 856.5625 C165.98159668 857.59592529 165.33819336 858.62935059 164.67529297 859.6940918 C155.17675796 874.26872197 155.17675796 874.26872197 148 890 C179.17469721 890.88929406 206.63543579 881.91126367 232.9921875 865.49609375 C236.42532098 863.78844424 239.17815202 863.19448457 243 863 C246.01157575 864.92228239 247.59314208 866.37587613 248.48046875 869.91796875 C249.32517832 882.45163235 240.77968631 893.09384327 233 902 C212.11528029 924.11549509 182.59284463 931.58542112 153.74389648 936.73266602 C137.56861416 939.49534961 137.56861416 939.49534961 125.07421875 949.1796875 C117.96226982 961.23120823 118.88974966 975.61448332 122.01953125 988.82421875 C124.11454502 995.61006016 127.25924788 999.84605491 133 1004 C135.74094597 1005.41012122 135.74094597 1005.41012122 138.8125 1006.625 C139.40015137 1006.87096924 139.98780273 1007.11693848 140.59326172 1007.37036133 C143.61036878 1008.62881157 146.63951824 1009.8556625 149.67431641 1011.07080078 C180.08663977 1023.24915264 207.33867478 1039.20261787 231 1062 C231.66080566 1062.63357422 232.32161133 1063.26714844 233.00244141 1063.91992188 C242.48691895 1073.06064926 251.23423017 1082.35359419 259 1093 C259.64066406 1093.86882812 260.28132813 1094.73765625 260.94140625 1095.6328125 C262.68286737 1098.0560537 264.35552122 1100.51001091 266 1103 C266.5878125 1103.88945313 267.175625 1104.77890625 267.78125 1105.6953125 C302.6445179 1160.41921252 314.38043227 1226.37208785 301.05102539 1289.81201172 C292.96250506 1326.09671286 276.95386475 1358.87988548 254 1388 C253.57170898 1388.54688477 253.14341797 1389.09376953 252.70214844 1389.65722656 C240.8835992 1404.60011297 227.06688445 1418.60249203 211.63867188 1429.80566406 C209.99679738 1431.00233421 208.38083212 1432.22858707 206.765625 1433.4609375 C156.87073079 1470.94861498 91.60160369 1485.39014965 30.2265625 1476.96484375 C-16.48615 1469.96010552 -59.74027388 1450.52463303 -95 1419 C-95.79494873 1418.289646 -95.79494873 1418.289646 -96.60595703 1417.56494141 C-100.11050831 1414.41814861 -103.56721185 1411.22489403 -107 1408 C-107.65613281 1407.38640625 -108.31226563 1406.7728125 -108.98828125 1406.140625 C-114.14007791 1401.1664765 -118.52894867 1395.58105192 -123 1390 C-123.66 1389.20722656 -124.32 1388.41445312 -125 1387.59765625 C-154.13899891 1352.29011927 -172.13914647 1306.47784607 -176 1261 C-176.16435547 1259.16888672 -176.16435547 1259.16888672 -176.33203125 1257.30078125 C-180.56334347 1203.30923737 -167.37683139 1145.08505824 -135 1101 C-134.55688477 1100.38608398 -134.11376953 1099.77216797 -133.65722656 1099.13964844 C-127.8916739 1091.16338954 -121.95716358 1083.54621367 -115.21484375 1076.3671875 C-113.31487069 1074.33652847 -111.52753551 1072.26158882 -109.75 1070.125 C-98.70413543 1057.51216395 -85.04761405 1045.99412029 -70.69140625 1037.34765625 C-62.26471621 1032.60549404 -62.26471621 1032.60549404 -57.8125 1024.375 C-57.53261201 1022.58472548 -57.26115758 1020.79310258 -57 1019 C-53.50805283 1009.09746326 -46.63555736 1003.92122904 -37.45117188 999.44042969 C-31.5631618 996.9829269 -25.47798093 995.73654675 -19.25 994.4375 C-16.58388531 993.85021583 -13.92087592 993.24938628 -11.2578125 992.6484375 C-9.99743164 992.36581055 -8.73705078 992.08318359 -7.43847656 991.79199219 C20.94239431 985.25496115 46.91008422 969.68131766 62.83251953 944.87255859 C93.57296511 895.56699239 111.23242341 828.19969502 98.375 770.5625 C93.21235837 749.22927013 82.96864823 729.80548171 69 713 C68.52127441 712.41976074 68.04254883 711.83952148 67.54931641 711.24169922 C58.79026027 700.6731802 49.48421151 690.88398975 39 682 C38.07960938 681.20207031 37.15921875 680.40414062 36.2109375 679.58203125 C20.744315 666.23644724 4.11806448 654.33937156 -12.3515625 642.27783203 C-29.96595217 629.3726406 -47.43341929 616.30557292 -64.28222656 602.40917969 C-65.8949699 601.08616171 -67.51846255 599.77825696 -69.1484375 598.4765625 C-73.99609381 594.5851562 -78.57408789 590.62918138 -82.85546875 586.1171875 C-84.77169548 584.22539354 -86.73991977 582.4841626 -88.78125 580.73046875 C-92.86944104 577.17765291 -96.62316214 573.39934019 -100.3125 569.4375 C-100.95912598 568.74422607 -101.60575195 568.05095215 -102.27197266 567.33666992 C-133.94055611 532.98530392 -154.04757717 491.2158839 -161 445 C-161.12987305 444.14986328 -161.25974609 443.29972656 -161.39355469 442.42382812 C-170.41709925 380.09312537 -151.52248815 323.9540165 -114.70800781 274.25585938 C-109.27532423 266.99217616 -103.55583956 259.96821178 -97.82104492 252.94335938 C-93.18762372 247.25791194 -88.65968146 241.50651559 -84.24462891 235.64941406 C-83.39337573 234.52131158 -82.53871739 233.39577272 -81.68115234 232.27246094 C-56.65688633 199.44105616 -40.49060771 163.61408769 -45.77416992 121.57788086 C-49.00090356 99.59253012 -59.11990206 78.70715391 -77 65 C-85.80577342 58.80899019 -94.89612544 54.51120122 -105 51 C-106.07765625 50.61972656 -107.1553125 50.23945312 -108.265625 49.84765625 C-121.38325949 45.80559446 -135.38617034 45.19013034 -149 44 C-143.03431211 28.14803276 -124.9512554 17.05707651 -110.24902344 10.20458984 C-77.51167036 -4.40487378 -35.00590214 -8.61039166 0 0 Z M-129 33 C-129.66 33.99 -130.32 34.98 -131 36 C-130.37246826 36.11480713 -129.74493652 36.22961426 -129.09838867 36.34790039 C-104.24266079 40.98217264 -81.18280927 47.5042336 -63 66 C-62.22011719 66.79277344 -61.44023437 67.58554688 -60.63671875 68.40234375 C-39.00614859 91.41436209 -35.12604071 120.646427 -35.87255859 151.00634766 C-36.7189815 170.88917845 -44.56912921 189.73104922 -54 207 C-54.54140625 208.00933594 -55.0828125 209.01867187 -55.640625 210.05859375 C-63.47916991 224.08045685 -73.42257124 236.77667304 -83.54296875 249.20019531 C-86.37985239 252.70446913 -89.15168702 256.25989245 -91.93041992 259.81030273 C-94.16754963 262.66794432 -96.41076468 265.51985654 -98.67578125 268.35546875 C-109.31236277 281.70280613 -119.57618105 295.3293683 -127.98681641 310.20849609 C-128.98085609 311.96614988 -129.99610561 313.71175429 -131.01171875 315.45703125 C-140.82979555 332.71675853 -147.34091086 351.52514818 -151 371 C-151.16226074 371.84256348 -151.32452148 372.68512695 -151.49169922 373.55322266 C-157.9791944 408.65532508 -155.04373245 448.34862184 -143 482 C-142.72172363 482.79728516 -142.44344727 483.59457031 -142.15673828 484.41601562 C-130.31897936 518.09184684 -110.62949749 545.48546715 -86 571 C-85.21496094 571.8146875 -84.42992187 572.629375 -83.62109375 573.46875 C-79.27812981 577.8882045 -74.70462408 581.97190864 -70 586 C-68.99288348 586.88212099 -67.986424 587.76499245 -66.98046875 588.6484375 C-58.7133435 595.87112869 -50.14296104 602.6008714 -41.37597656 609.20361328 C-38.82287208 611.13391977 -36.28158923 613.07904957 -33.7421875 615.02734375 C-25.65691854 621.22636591 -17.56687577 627.39707698 -9.24536133 633.27636719 C3.77983814 642.48234898 16.56376371 652.01249165 29 662 C29.97453125 662.77988281 30.9490625 663.55976562 31.953125 664.36328125 C37.33838101 668.71811817 42.55047008 673.22052705 47.66796875 677.88671875 C49.75034736 679.77376537 51.86503064 681.61058233 54 683.4375 C62.53461536 690.90743497 70.02073735 699.07246262 77 708 C77.72960937 708.91265625 78.45921875 709.8253125 79.2109375 710.765625 C100.93100947 738.65877006 110.47995795 769.94481872 110.25 805.0625 C110.24656586 805.92127747 110.24313171 806.78005493 110.23959351 807.66485596 C110.10902202 835.55142552 106.8017016 862.41739218 98 889 C97.75024414 889.76554199 97.50048828 890.53108398 97.24316406 891.31982422 C83.93601211 931.78692218 65.0192438 969.61959212 25.6784668 989.91333008 C14.33546646 995.45984026 2.43640038 999.09482337 -9.87890625 1001.77734375 C-10.56378113 1001.9271167 -11.24865601 1002.07688965 -11.95428467 1002.23120117 C-15.35186803 1002.96784667 -18.7521446 1003.67571779 -22.16455078 1004.34033203 C-31.30551245 1006.22934714 -39.87944428 1008.77715343 -45.9375 1016.3125 C-51.217336 1024.92499845 -51.38195927 1033.05491229 -51 1043 C-51.59683594 1043.27328125 -52.19367188 1043.5465625 -52.80859375 1043.828125 C-78.51489744 1057.57481146 -95.15284166 1102.00392752 -103.12109375 1127.69921875 C-106.53811601 1137.68195677 -106.53811601 1137.68195677 -108 1148 C-107.1646875 1148.22042969 -107.1646875 1148.22042969 -106.3125 1148.4453125 C-100.22054972 1150.23585194 -95.84129209 1152.92381674 -91 1157 C-90.17435547 1156.26910156 -90.17435547 1156.26910156 -89.33203125 1155.5234375 C-74.92319326 1143.23683147 -58.50211345 1133.21670763 -42 1124 C-41.2982666 1123.60393555 -40.5965332 1123.20787109 -39.87353516 1122.79980469 C-0.07685693 1100.50218421 44.93781209 1086.36034766 90 1080 C91.10118164 1079.82339844 92.20236328 1079.64679688 93.33691406 1079.46484375 C106.26891288 1077.56656869 119.20055994 1077.60486767 132.25 1077.625 C133.44843536 1077.62487915 134.64687073 1077.6247583 135.88162231 1077.62463379 C153.56625662 1077.65006675 170.67041983 1078.17271205 188 1082 C188.73347656 1082.15484863 189.46695312 1082.30969727 190.22265625 1082.46923828 C194.56669735 1083.41400445 198.76865981 1084.64362791 203 1086 C204.60806134 1086.48571542 206.21613519 1086.97138939 207.82421875 1087.45703125 C225.29101246 1092.87056328 241.90939417 1099.87380207 256.48046875 1111.06640625 C258.82220241 1112.9901701 258.82220241 1112.9901701 261 1114 C259.04450889 1108.69801023 256.09257435 1104.63862612 252.75 1100.125 C252.12810791 1099.28437012 251.50621582 1098.44374023 250.86547852 1097.57763672 C245.27900549 1090.15385042 239.21472408 1083.35019355 232.70263672 1076.73339844 C231.02661617 1075.02709704 229.37347378 1073.30096831 227.72265625 1071.5703125 C204.12776167 1047.09043095 173.70107596 1029.47810707 141.9375 1017.875 C130.66819805 1013.70759991 121.51785346 1009.22597773 116 998 C110.01349696 982.88937335 108.32800763 965.53911872 114 950 C118.30077517 941.13048859 125.18260837 936.02556558 134 932 C136.33372686 931.28381544 138.69147873 930.64341268 141.0625 930.0625 C142.08754639 929.81101196 142.08754639 929.81101196 143.13330078 929.55444336 C148.84525825 928.19042231 154.59935659 927.11718731 160.375 926.0625 C185.28006483 921.46377186 206.34695811 913.89427409 225 896 C225.69867187 895.35289062 226.39734375 894.70578125 227.1171875 894.0390625 C232.36732935 889.03406346 237.61529026 883.4511989 241 877 C240.82528164 874.23995165 240.82528164 874.23995165 240 872 C236.87020855 872.59322844 235.10831051 873.52011505 232.6875 875.5625 C211.98616867 891.39070771 185.327402 898.11405252 159.6875 898.375 C158.61395264 898.38917969 157.54040527 898.40335938 156.43432617 898.41796875 C148.91825471 898.37169821 142.20130933 897.12529398 135 895 C146.98798852 870.42127494 160.7075468 846.99856584 177 825 C176.54109375 824.28457031 176.0821875 823.56914063 175.609375 822.83203125 C166.22416141 807.59091758 164.76386865 793.10654863 164.75 775.625 C164.74932526 774.86233826 164.74865051 774.09967651 164.74795532 773.31390381 C164.76396824 761.92617466 165.33475793 751.09767627 168 740 C168.33277543 738.4780271 168.6647736 736.95588411 168.99609375 735.43359375 C173.88853397 713.83499288 181.32038824 692.89868535 191 673 C191.3388623 672.29343262 191.67772461 671.58686523 192.02685547 670.85888672 C204.97626477 643.91728991 221.25342689 619.44941675 241 597 C241.85980469 596.01644531 242.71960938 595.03289063 243.60546875 594.01953125 C285.95122793 546.66984189 345.49855046 517.56846282 408.89453125 513.59765625 C413.59487103 513.33954745 418.29502284 513.14944615 423 513 C423.4380516 484.36153446 422.18758405 455.90491198 419 427.4375 C418.91641235 426.69063934 418.83282471 425.94377869 418.7467041 425.17428589 C417.34120038 412.78815549 415.34739267 400.55378599 413 388.3125 C412.835 387.44044922 412.67 386.56839844 412.5 385.66992188 C411.43440222 380.08802103 410.25771433 374.54180377 409 369 C408.22398437 369.12117188 407.44796875 369.24234375 406.6484375 369.3671875 C404.35100617 369.72359093 402.05274912 370.07469269 399.75390625 370.421875 C397.38349382 370.78693331 395.01571868 371.1699809 392.65234375 371.578125 C383.05215402 373.15008589 373.69359615 373.19782849 364 373 C363.3828125 370.6484375 363.3828125 370.6484375 363 368 C364.61394244 365.9556729 366.00037827 364.61496827 368 363 C368.9276416 362.22499146 368.9276416 362.22499146 369.87402344 361.43432617 C375.68439902 356.74314024 381.775814 353.15539439 388.375 349.6875 C390.32087933 348.65080282 392.26621691 347.61308796 394.2109375 346.57421875 C395.05962402 346.12651123 395.90831055 345.67880371 396.78271484 345.2175293 C399.17595005 343.94462257 399.17595005 343.94462257 402 342 C400.12565394 333.85535957 397.78277102 326.06011841 394.8125 318.25 C394.42030273 317.21738037 394.02810547 316.18476074 393.62402344 315.12084961 C391.19685444 308.84155058 388.65755448 302.63571349 385.75 296.5625 C385.44553955 295.90088867 385.1410791 295.23927734 384.82739258 294.55761719 C383.86326071 292.52954477 383.86326071 292.52954477 382 290 C378.20586959 288.75075217 375.83464991 289.07139826 372.140625 290.44921875 C371.20226807 290.79654053 370.26391113 291.1438623 369.29711914 291.50170898 C368.29156982 291.89302002 367.28602051 292.28433105 366.25 292.6875 C365.1973999 293.09105713 364.1447998 293.49461426 363.06030273 293.91040039 C304.53552093 316.84643175 258.61740828 355.98791445 233.16210938 414.21972656 C227.73603513 427.20126723 223.00638223 440.47874906 218.93139648 453.94189453 C208.45228257 488.34854746 208.45228257 488.34854746 198 495 C186.13191396 498.95602868 173.00918948 495.30103783 162.16308594 490.12304688 C153.61035674 485.81696943 146.1472525 480.36755223 139 474 C138.46455566 473.52481934 137.92911133 473.04963867 137.37744141 472.56005859 C131.5030381 467.32282156 125.75518201 462.06704314 120.70703125 456.01171875 C119.47581637 454.56074469 118.19552901 453.15091879 116.88671875 451.76953125 C104.94240868 439.16056235 94.42042439 424.93844447 85.98095703 409.75488281 C85.01015974 408.01817526 84.00324215 406.30181996 82.99609375 404.5859375 C72.19143614 385.79900967 66.31701137 365.30299038 63 344 C62.72397949 342.27003784 62.72397949 342.27003784 62.44238281 340.50512695 C61.05031503 331.08261464 60.6019222 321.81452737 60.625 312.3125 C60.62481873 311.14205643 60.62481873 311.14205643 60.62463379 309.94796753 C60.66740433 290.09472678 62.63026776 270.42824228 64.71496582 250.70263672 C64.99670195 248.03127145 65.27403524 245.35948731 65.54980469 242.6875 C66.39225926 234.52967518 67.24847778 226.37340342 68.12109375 218.21875 C68.89423484 211.00038378 68.89423484 211.00038378 69.66015625 203.78125 C69.78596069 202.59305664 69.78596069 202.59305664 69.91430664 201.38085938 C71.73823314 182.56458814 72.18681882 163.69728611 72.18530273 144.80078125 C72.18750948 141.73684173 72.20583801 138.6732525 72.22460938 135.609375 C72.27447354 118.07580177 70.96634103 101.10716246 67 84 C66.72414063 82.77925781 66.44828125 81.55851562 66.1640625 80.30078125 C60.25008388 56.1141251 47.62267785 33.33735269 26 20 C18.76620638 15.78836376 11.48991941 12.60049571 3.5 10.1875 C2.8611084 9.99260986 2.2222168 9.79771973 1.56396484 9.59692383 C-10.9273915 6.08479402 -23.62337934 5.6240341 -36.5 5.6875 C-37.68337448 5.69073273 -37.68337448 5.69073273 -38.89065552 5.69403076 C-71.2225044 5.83532309 -103.46162281 11.88677481 -129 33 Z " fill="#FBFBFC" transform="translate(403,27)"/>
<path d="M0 0 C1.06708694 -0.00570007 2.13417389 -0.01140015 3.2335968 -0.01727295 C5.48848495 -0.02667983 7.74338657 -0.03323968 9.99829102 -0.03710938 C13.3708658 -0.04671853 16.74280468 -0.0777438 20.11523438 -0.109375 C39.1364369 -0.20404087 57.44051986 1.6150057 75.86328125 6.453125 C77.03922852 6.75613525 78.21517578 7.05914551 79.42675781 7.37133789 C95.72422908 11.66768162 110.9250432 17.15718915 125.73828125 25.203125 C126.79402344 25.75613281 127.84976562 26.30914063 128.9375 26.87890625 C151.02065671 38.97412542 162.86104568 56.94390548 170.01806641 80.69677734 C182.67814012 124.75383388 185.18658863 181.52566339 165.73828125 224.203125 C162.54020601 226.23826379 159.73995474 226.28277967 156.0546875 226.24609375 C154.84147827 226.23678833 154.84147827 226.23678833 153.60375977 226.22729492 C152.98815186 226.21931885 152.37254395 226.21134277 151.73828125 226.203125 C151.79048828 224.46289062 151.79048828 224.46289062 151.84375 222.6875 C152.19814495 206.00766885 149.5392029 191.62184921 137.69921875 178.98046875 C126.5092792 168.83819286 110.9152309 166.63519029 96.61328125 163.640625 C93.85981582 163.05998194 91.10723389 162.47536677 88.35546875 161.88671875 C87.69569031 161.74599945 87.03591187 161.60528015 86.35614014 161.46029663 C82.42686027 160.60919286 78.55316416 159.64004748 74.68359375 158.55078125 C57.83039789 153.83664437 38.99494359 154.33436839 23.55078125 162.890625 C10.52459093 171.33548096 2.34389411 182.92211163 -5.26171875 196.203125 C-10.66969031 195.58441074 -15.56618013 194.3243721 -20.734375 192.640625 C-21.55353394 192.3777771 -22.37269287 192.1149292 -23.2166748 191.84411621 C-25.92186662 190.97180407 -28.62336052 190.0887589 -31.32421875 189.203125 C-32.26200165 188.89689209 -33.19978455 188.59065918 -34.16598511 188.27514648 C-93.22556403 168.93708179 -151.50386446 145.70318476 -206.26171875 116.203125 C-206.04515625 115.21054688 -205.82859375 114.21796875 -205.60546875 113.1953125 C-203.49755044 103.09007228 -201.74697019 92.82925257 -204.0859375 82.59765625 C-204.26171875 79.203125 -204.26171875 79.203125 -202.296875 76.71875 C-201.31589844 75.97109375 -200.33492188 75.2234375 -199.32421875 74.453125 C-198.51428467 73.82651978 -198.51428467 73.82651978 -197.68798828 73.18725586 C-195.90155666 71.82584041 -194.08763579 70.51102437 -192.26171875 69.203125 C-191.34447021 68.53724365 -191.34447021 68.53724365 -190.40869141 67.85791016 C-172.97327281 55.28354975 -154.44279902 44.85542574 -135.26171875 35.203125 C-134.15111084 34.63682373 -134.15111084 34.63682373 -133.01806641 34.05908203 C-113.98101465 24.40221208 -93.53518378 17.29664178 -72.91015625 11.89746094 C-71.08759152 11.41964253 -69.26737933 10.93278897 -67.44921875 10.43847656 C-51.87841955 6.20568874 -36.26934695 3.24135135 -20.26171875 1.203125 C-19.61384903 1.11650604 -18.96597931 1.02988708 -18.29847717 0.94064331 C-12.1914399 0.18114008 -6.14983985 0.02613356 0 0 Z " fill="#001C58" transform="translate(521.26171875,1117.796875)"/>
<path d="M0 0 C3.47295722 1.3382037 6.77655522 2.84568128 10.0859375 4.546875 C71.55425515 35.8725533 136.50569524 59.6084421 202 81 C201.97381592 81.70906494 201.94763184 82.41812988 201.9206543 83.14868164 C201.23190831 104.65673666 202.94826221 121.39045641 218.25 137.8125 C229.72319133 148.68388264 245.13173918 152.09808473 260.1875 155.125 C261.46326904 155.38361816 262.73903809 155.64223633 264.0534668 155.90869141 C287.17827612 160.4987069 311.99489296 164.45208955 333 151 C346.50343931 140.79588969 353.96755581 127.56607167 360 112 C363.63 111.67 367.26 111.34 371 111 C368.99845291 117.53925647 366.5091463 123.34206757 363.1875 129.3125 C362.71175537 130.1698877 362.23601074 131.02727539 361.74584961 131.91064453 C345.07638824 161.30654186 321.70300215 187.62157899 294 207 C293.37319336 207.4448877 292.74638672 207.88977539 292.10058594 208.34814453 C257.74799009 232.60075227 213.35491868 252.0455913 170.57421875 245.05078125 C164.33469433 243.89933003 158.16868307 242.47906537 152 241 C150.27871988 240.61165082 148.55736986 240.2236113 146.8359375 239.8359375 C135.5861425 237.19545978 125.35353099 233.09114929 115 228 C114.3507959 227.68691895 113.7015918 227.37383789 113.03271484 227.05126953 C92.656339 217.13857986 75.35826145 202.4794644 59 187 C58.319375 186.36191406 57.63875 185.72382812 56.9375 185.06640625 C51.81169118 180.1185769 47.41808679 174.57692923 43 169 C42.19304687 167.98679687 41.38609375 166.97359375 40.5546875 165.9296875 C12.93660738 130.89206805 -6.20751942 89.10437688 -15.25 45.4375 C-15.518125 44.21353516 -15.78625 42.98957031 -16.0625 41.72851562 C-19.34131802 26.01193639 -19.34131802 26.01193639 -18 19 C-15.65530081 16.27527407 -13.26727205 14.49585949 -10 13 C-9.34 13 -8.68 13 -8 13 C-7.73445313 12.43796875 -7.46890625 11.8759375 -7.1953125 11.296875 C-5.90668966 8.82069778 -4.43869639 6.56155118 -2.875 4.25 C-2.33617187 3.45078125 -1.79734375 2.6515625 -1.2421875 1.828125 C-0.83226562 1.22484375 -0.42234375 0.6215625 0 0 Z " fill="#001C58" transform="translate(309,1247)"/>
<path d="M0 0 C23.61865281 -0.65448874 47.66282874 0.05417053 66 17 C66.74507813 17.64324219 67.49015625 18.28648438 68.2578125 18.94921875 C89.75579416 38.66177482 93.7173265 71.55492725 95 99 C95.23302822 105.39436261 95.29455016 111.78933867 95.3125 118.1875 C95.31511841 119.09762848 95.31773682 120.00775696 95.32043457 120.94546509 C95.33249586 161.01779675 90.73460923 201.20209984 86.20793152 240.98658752 C84.7047757 254.25472586 83.83381063 267.46572845 83.4375 280.8125 C83.3941496 282.19857616 83.35053114 283.58464396 83.30664062 284.97070312 C83.20180703 288.31373004 83.09963877 291.65681491 83 295 C76.68488836 294.52791047 70.80364676 293.67739154 64.75 291.8125 C64.02256592 291.59110352 63.29513184 291.36970703 62.5456543 291.14160156 C41.13458694 284.43998188 21.11168724 273.18926779 10 253 C9.59007812 252.27683594 9.18015625 251.55367187 8.7578125 250.80859375 C4.56866903 242.99599407 3.65484668 235.49221156 3.75 226.75 C3.75966797 225.81470459 3.76933594 224.87940918 3.77929688 223.91577148 C4.07213961 207.06120781 9.62019961 192.69024845 15.94140625 177.2109375 C20.11993309 166.94788913 23.05974603 156.9155096 25 146 C25.22558594 144.78957031 25.45117188 143.57914063 25.68359375 142.33203125 C28.93729054 121.39617532 27.59564911 99.78199574 24 79 C25.03278076 78.60603027 25.03278076 78.60603027 26.08642578 78.20410156 C26.9886084 77.8531543 27.89079102 77.50220703 28.8203125 77.140625 C29.71508301 76.79547852 30.60985352 76.45033203 31.53173828 76.09472656 C37.7925669 73.31791593 40.43805018 68.00300007 43 62 C46.21561019 52.35316944 44.22964104 40.98638021 40 32 C38.52469133 29.51662505 36.9806287 27.1660699 35.26953125 24.83984375 C34 23 34 23 33 20 C30.58073335 18.27195239 29.411618 17.94980268 26.4375 18.3125 C24.61098388 18.82767121 22.80039058 19.39986981 21 20 C15.38124276 20.3684431 11.84288621 20.19190228 7 17 C3.06644065 12.95405324 0.08709813 8.03101491 -0.078125 2.28125 C-0.05234375 1.5284375 -0.0265625 0.775625 0 0 Z " fill="#FDFDFE" transform="translate(360,53)"/>
<path d="M0 0 C0.65355469 0.59748047 0.65355469 0.59748047 1.3203125 1.20703125 C4.30336446 3.86078527 6.52827574 5.82199085 10.3125 7.25 C13 9 13 9 13.61645508 10.89257812 C13.74947021 11.68083984 13.88248535 12.46910156 14.01953125 13.28125 C14.1786499 14.18133789 14.33776855 15.08142578 14.50170898 16.00878906 C14.74836304 17.48943848 14.74836304 17.48943848 15 19 C15.3811147 21.13051274 15.76400198 23.26070897 16.1484375 25.390625 C16.34663086 26.504375 16.54482422 27.618125 16.74902344 28.765625 C19.34033394 43.48246274 19.34033394 43.48246274 23.30126953 57.87011719 C24.20240262 60.61696731 25.06450035 63.37566012 25.93359375 66.1328125 C30.43715459 80.21582047 35.55605992 93.6970465 42 107 C42.65271666 108.38393877 43.3050725 109.76804778 43.95703125 111.15234375 C54.67367762 133.5603735 68.98251046 154.18599434 85.72265625 172.5 C87.22679418 174.15119772 88.71425955 175.81775691 90.18359375 177.5 C113.84168939 204.48962782 146.82314094 225.27900955 181 236 C162.40818528 243.00843278 126.72026605 225.6922254 109.96337891 218.34570312 C96.22077378 212.1050342 83.25860828 204.79992951 71 196 C69.9790625 195.27296875 68.958125 194.5459375 67.90625 193.796875 C51.10312899 181.50406542 35.80048064 167.44458143 23 151 C22.21238281 150.02933594 21.42476563 149.05867188 20.61328125 148.05859375 C13.55660236 139.20728067 7.66836374 129.7886173 2 120 C1.62601074 119.35804687 1.25202148 118.71609375 0.86669922 118.0546875 C-5.21964571 107.49416284 -9.70062109 96.38626722 -14 85 C-14.27005859 84.29294922 -14.54011719 83.58589844 -14.81835938 82.85742188 C-22.17080132 63.52182261 -22.36603197 43.92826873 -14.07470703 24.87353516 C-4.96490304 4.96490304 -4.96490304 4.96490304 0 0 Z " fill="#021E59" transform="translate(263,1259)"/>
<path d="M0 0 C0.35449219 0.80179688 0.70898438 1.60359375 1.07421875 2.4296875 C8.19040525 17.62696715 18.65386141 30.53100106 29.17578125 43.5 C32.63289159 47.76497751 35.96300641 52.12147455 39.30078125 56.48046875 C44.29447598 63.00048807 49.33518691 69.48366863 54.40039062 75.94824219 C55.8055686 77.75061028 57.19436759 79.56400176 58.578125 81.3828125 C62.68920893 86.6582244 66.52471145 90.5244919 72.34765625 93.87890625 C72.89292969 94.24886719 73.43820312 94.61882812 74 95 C74 95.66 74 96.32 74 97 C72.58227539 98.23339844 72.58227539 98.23339844 70.59765625 99.609375 C69.87586182 100.11436523 69.15406738 100.61935547 68.41040039 101.13964844 C67.63559326 101.67106445 66.86078613 102.20248047 66.0625 102.75 C64.89738892 103.55872559 64.89738892 103.55872559 63.70874023 104.38378906 C61.47707748 105.92930716 59.23912317 107.46532008 57 109 C55.4840625 110.051875 55.4840625 110.051875 53.9375 111.125 C48.27403846 115 48.27403846 115 46 115 C45.79246094 114.47792969 45.58492187 113.95585938 45.37109375 113.41796875 C40.94282587 102.83829946 34.29290999 93.80159397 27.34228516 84.74853516 C25.8528096 82.80826161 24.36955712 80.86331899 22.88671875 78.91796875 C18.60960561 73.3114227 14.32308934 67.7121758 10.015625 62.12890625 C9.32811157 61.23739868 9.32811157 61.23739868 8.62670898 60.32788086 C7.39413722 58.73078109 6.16001401 57.134879 4.92578125 55.5390625 C3.55820043 53.73596405 2.25531992 51.88297988 1 50 C3.05703748 57.85654103 5.39847321 65.60122464 7.86647797 73.33772087 C8.71867186 76.0128183 9.56293208 78.69039974 10.40776443 81.36782932 C11.97280605 86.32747682 13.54104039 91.28605753 15.12255859 96.24047852 C16.2306373 99.71280218 17.32872687 103.1881459 18.42023468 106.66571236 C18.8359891 107.98377435 19.25544588 109.30067455 19.67870331 110.61634636 C20.26755977 112.44817716 20.84259936 114.2844322 21.41699219 116.12084961 C21.74769714 117.16244736 22.0784021 118.2040451 22.41912842 119.27720642 C23.01281663 122.06007703 23.04887829 123.39131209 22 126 C19.35175762 129.55857569 17.06307222 131.34298236 12.75 132.1875 C2.8437504 132.65845285 -5.35405722 122.35355766 -12.2890625 116.24609375 C-17.08449722 112.03017886 -22.03360518 108.01189251 -27 104 C-35.0856242 97.43191231 -43.06533847 90.74887745 -51 84 C-35.09910243 119.04777461 -35.09910243 119.04777461 -13 150 C-15.4335567 151.3410005 -17.87135301 152.67294856 -20.3125 154 C-21.00279297 154.3815625 -21.69308594 154.763125 -22.40429688 155.15625 C-27.66015625 158 -27.66015625 158 -31 158 C-31.31710937 157.06542969 -31.63421875 156.13085938 -31.9609375 155.16796875 C-35.57683857 144.85511479 -40.23174886 135.40670044 -45.46191406 125.82763672 C-47.79862544 121.53179686 -50.09444814 117.21428062 -52.39624023 112.8996582 C-54.63873716 108.69828417 -56.89521617 104.50445594 -59.15132141 100.31037903 C-61.29389285 96.32395369 -63.41798435 92.32808674 -65.53515625 88.328125 C-75.39038244 68.84068936 -75.39038244 68.84068936 -90 53 C-86.20918469 48.77199237 -81.05796991 46.71243642 -76.0625 44.1875 C-75.06025391 43.65962891 -74.05800781 43.13175781 -73.02539062 42.58789062 C-72.05923828 42.09869141 -71.09308594 41.60949219 -70.09765625 41.10546875 C-69.21601807 40.65324951 -68.33437988 40.20103027 -67.42602539 39.73510742 C-65 39 -65 39 -62.82324219 39.76171875 C-54.94230512 45.11417092 -47.87042286 51.80811592 -40.69238281 58.05761719 C-36.11254187 62.04441853 -31.49727871 65.98549685 -26.85302734 69.89697266 C-24.02023856 72.28472067 -21.19916893 74.68467884 -18.39453125 77.10546875 C-17.78617432 77.63003662 -17.17781738 78.15460449 -16.55102539 78.69506836 C-15.40148638 79.68753331 -14.25338575 80.68166841 -13.10717773 81.67797852 C-8.53542408 85.62246583 -3.78908969 89.32377267 1 93 C0.55684448 91.67838867 0.55684448 91.67838867 0.10473633 90.33007812 C-5.78387794 72.75837319 -11.6296526 55.1727935 -17.37588501 37.55395508 C-17.95884188 35.76733057 -18.54280683 33.98103467 -19.1277771 32.19506836 C-19.94754836 29.69090397 -20.76341869 27.18550357 -21.578125 24.6796875 C-21.82442154 23.92924164 -22.07071808 23.17879578 -22.32447815 22.40560913 C-24 17.22908705 -24 17.22908705 -24 15 C-22.25963506 13.69921177 -20.45418109 12.48511105 -18.625 11.3125 C-13.63854423 8.08075675 -8.77152096 4.7372838 -3.9609375 1.25 C-2 0 -2 0 0 0 Z " fill="#001B57" transform="translate(847,1452)"/>
<path d="M0 0 C4.08364114 1.2976551 7.94764816 2.8037513 11.8359375 4.6015625 C12.89941406 5.09140625 13.96289062 5.58125 15.05859375 6.0859375 C16.15300781 6.59382813 17.24742187 7.10171875 18.375 7.625 C19.49261719 8.140625 20.61023438 8.65625 21.76171875 9.1875 C24.50912202 10.45553228 27.2551527 11.7264468 30 13 C29.41557129 13.8494519 29.41557129 13.8494519 28.81933594 14.71606445 C25.6216225 19.42643624 22.7665426 24.08203636 20.25 29.1875 C19.76563477 30.16879883 19.76563477 30.16879883 19.27148438 31.16992188 C14.62795585 40.67560079 10.32489305 50.34641156 6 60 C6.57540527 60.15637939 7.15081055 60.31275879 7.74365234 60.47387695 C14.94264337 62.52187806 21.74479123 65.25735034 28.625 68.1875 C29.72457031 68.65091797 30.82414062 69.11433594 31.95703125 69.59179688 C34.63998883 70.72330507 37.32088144 71.85943902 40 73 C43.10860481 67.02619344 45.6878944 60.98655572 48.0625 54.6875 C48.41320557 53.75977783 48.76391113 52.83205566 49.12524414 51.8762207 C52.43672291 43.00643845 55.10823167 34.45274434 56 25 C62.9550982 27.01913147 69.80030913 29.26599857 76.625 31.6875 C77.53378906 32.00783203 78.44257813 32.32816406 79.37890625 32.65820312 C81.58667793 33.43673314 83.79368537 34.21735244 86 35 C86 38.52012799 85.33167763 39.21602715 83.29541016 41.98339844 C79.75706312 47.1303914 77.50626924 52.45447983 75.2734375 58.265625 C74.63914322 59.88455658 74.63914322 59.88455658 73.99203491 61.53619385 C69.41830158 73.3104049 65.1411158 85.19318401 60.92041016 97.09765625 C59.61039052 100.7911907 58.2920429 104.48167746 56.97265625 108.171875 C56.11930818 110.56753617 55.26642636 112.96336348 54.4140625 115.359375 C54.0286026 116.43878357 53.6431427 117.51819214 53.2460022 118.63031006 C47.78348251 133.49752365 47.78348251 133.49752365 45 149 C38.86009351 147.91938208 33.16013743 145.67240419 27.3125 143.5625 C26.15943359 143.15451172 25.00636719 142.74652344 23.81835938 142.32617188 C22.71943359 141.93107422 21.62050781 141.53597656 20.48828125 141.12890625 C19.48321533 140.76869385 18.47814941 140.40848145 17.44262695 140.03735352 C15 139 15 139 13 137 C13.754021 136.30495361 14.50804199 135.60990723 15.28491211 134.89379883 C22.99370717 126.67759994 26.59729582 114.36933431 30.2277832 103.86401367 C30.95154227 101.77190929 31.69059053 99.68564481 32.43164062 97.59960938 C35.00595375 90.95620234 35.00595375 90.95620234 36 84 C35.01080566 83.58113525 34.02161133 83.16227051 33.00244141 82.73071289 C29.33826636 81.1789534 25.67444993 79.62634878 22.01074219 78.07348633 C20.42392618 77.40105437 18.83701254 76.72885276 17.25 76.05688477 C14.97109789 75.09191215 12.69254624 74.12611624 10.4140625 73.16015625 C9.70255035 72.85908463 8.99103821 72.558013 8.25796509 72.24781799 C3.22774341 70.11387171 3.22774341 70.11387171 1 69 C0.72454346 69.87076172 0.44908691 70.74152344 0.1652832 71.63867188 C-0.9336885 74.80872057 -2.20523119 77.75305334 -3.64453125 80.78125 C-4.15459717 81.86422363 -4.66466309 82.94719727 -5.19018555 84.06298828 C-5.9932312 85.76430908 -5.9932312 85.76430908 -6.8125 87.5 C-15.16754252 104.57017397 -15.16754252 104.57017397 -19 123 C-23.49334213 122.43467077 -26.99446384 121.2655976 -31.0546875 119.27734375 C-32.16328125 118.73916016 -33.271875 118.20097656 -34.4140625 117.64648438 C-35.55617188 117.08251953 -36.69828125 116.51855469 -37.875 115.9375 C-39.0403125 115.36966797 -40.205625 114.80183594 -41.40625 114.21679688 C-44.2742724 112.81804825 -47.13861866 111.41227112 -50 110 C-50 109.34 -50 108.68 -50 108 C-49.10023437 107.28972656 -48.20046875 106.57945313 -47.2734375 105.84765625 C-43.59770846 102.88061809 -41.72734533 99.6180631 -39.625 95.4375 C-39.21419189 94.63940918 -38.80338379 93.84131836 -38.38012695 93.01904297 C-32.09964211 80.54421601 -26.63086309 67.66197527 -21.02941895 54.87286377 C-18.79978678 49.79141677 -16.52829864 44.73096811 -14.22265625 39.68359375 C-13.6292729 38.3800639 -13.03592889 37.07651613 -12.44262695 35.77294922 C-11.35613251 33.38685707 -10.26120351 31.00530581 -9.16088867 28.62548828 C-4.96399727 19.38668454 -1.51186971 10.0700652 0 0 Z " fill="#001B57" transform="translate(151,1673)"/>
<path d="M0 0 C0.0227449 0.71705612 0.04548981 1.43411224 0.06892395 2.17289734 C0.60916871 12.45336223 2.85984644 22.10307058 5.26171875 32.08203125 C5.69488356 33.90828842 6.12747424 35.73468185 6.55952454 37.561203 C7.46348539 41.37253441 8.3745531 45.1820758 9.29077148 48.99047852 C10.45313773 53.82466023 11.59729061 58.66293356 12.73599529 63.50273609 C13.62505915 67.27194714 14.52413128 71.03871905 15.42603493 74.80487633 C15.85121778 76.58558219 16.27339936 78.36700792 16.69226646 80.14920998 C19.660811 92.74657619 22.91801791 105.48109965 29 117 C25.35833961 118.1593876 21.71104258 119.29997391 18.0625 120.4375 C16.53012695 120.92573242 16.53012695 120.92573242 14.96679688 121.42382812 C8.92916375 123.29491571 3.30687995 124.53306728 -3 125 C-2.96193237 124.1325415 -2.96193237 124.1325415 -2.9230957 123.24755859 C-2.75125038 116.13947492 -3.77578065 109.57596289 -5.1875 102.625 C-5.40946045 101.49900391 -5.6314209 100.37300781 -5.86010742 99.21289062 C-7.65466793 90.28613481 -9.77044266 81.46168164 -12.08203125 72.65625 C-13 69 -13 69 -13 67 C-24.55 69.97 -36.1 72.94 -48 76 C-44.20641153 104.73299493 -44.20641153 104.73299493 -35 132 C-35 132.66 -35 133.32 -35 134 C-39.20653967 134.84256281 -43.41549056 135.67241313 -47.625 136.5 C-48.81480469 136.73847656 -50.00460937 136.97695312 -51.23046875 137.22265625 C-52.96103516 137.56103516 -52.96103516 137.56103516 -54.7265625 137.90625 C-56.31331787 138.22045898 -56.31331787 138.22045898 -57.93212891 138.54101562 C-61.00392403 139.00058707 -63.89912996 139.081281 -67 139 C-66.96519531 138.32839844 -66.93039062 137.65679688 -66.89453125 136.96484375 C-66.70077914 129.81446822 -67.23969553 122.9289378 -68.171875 115.84765625 C-68.3019545 114.85854248 -68.432034 113.86942871 -68.5660553 112.8503418 C-70.19997551 100.92953249 -72.43496188 89.1216793 -74.70629883 77.30859375 C-75.44167489 73.47825433 -76.16386609 69.6455875 -76.88476562 65.8125 C-80.57576 43.14250877 -80.57576 43.14250877 -89 22 C-78.43450162 19.16535409 -67.73345601 17.08458367 -57 15 C-56.98582031 15.97453125 -56.97164062 16.9490625 -56.95703125 17.953125 C-56.55962131 31.64315544 -54.06977774 44.84347569 -51.44311523 58.26123047 C-51 61 -51 61 -51 65 C-50.18660156 64.75765625 -49.37320313 64.5153125 -48.53515625 64.265625 C-41.683103 62.26164992 -34.81867984 60.40644229 -27.875 58.75 C-27.15320557 58.57500977 -26.43141113 58.40001953 -25.68774414 58.21972656 C-22.33088303 57.4328571 -19.47154312 57 -16 57 C-17.07520721 52.5813154 -18.16167957 48.16547147 -19.25 43.75 C-19.70052734 41.89761719 -19.70052734 41.89761719 -20.16015625 40.0078125 C-22.83133836 29.20941675 -25.70789018 18.82820396 -31 9 C-26.90769763 7.7146509 -22.81426166 6.43299892 -18.71972656 5.15478516 C-17.32650381 4.71928126 -15.93359792 4.28276237 -14.54101562 3.84521484 C-12.54118643 3.21706337 -10.54025223 2.59255136 -8.5390625 1.96875 C-7.33459473 1.59169922 -6.13012695 1.21464844 -4.88916016 0.82617188 C-2 0 -2 0 0 0 Z " fill="#001B57" transform="translate(671,1538)"/>
<path d="M0 0 C6.1186036 5.66673068 9.13513991 12.96831125 9.98828125 21.1640625 C10.29610697 30.85247213 7.15385468 38.73904748 1.21484375 46.31640625 C-0.25 47.875 -0.25 47.875 -3.25 49.875 C-1.91580804 52.96572695 -0.63994558 54.63425016 2.1015625 56.57421875 C3.11959961 57.29834961 3.11959961 57.29834961 4.15820312 58.03710938 C4.88974609 58.54048828 5.62128906 59.04386719 6.375 59.5625 C7.12974609 60.08779297 7.88449219 60.61308594 8.66210938 61.15429688 C26.85896141 73.839803 26.85896141 73.839803 47.75 79.875 C47.42677 85.20829496 44.59455365 88.45155365 40.75 91.875 C35.52892943 95.46055449 30.06002759 97.90439128 23.64453125 97.55078125 C12.55752026 94.9623158 2.52870716 87.81400622 -6.25 80.875 C-7.39362635 79.99621697 -8.53821183 79.11868114 -9.68359375 78.2421875 C-30.52300203 62.20234576 -30.52300203 62.20234576 -31.25 56.875 C-30.65832031 56.5346875 -30.06664062 56.194375 -29.45703125 55.84375 C-22.71716306 51.70967098 -18.76504493 47.42013479 -16.25 39.875 C-15.29701758 29.61091066 -17.03585699 21.55835701 -23.5 13.4375 C-28.15406079 8.52543157 -32.58426457 7.17119283 -39.1875 6.4375 C-44.00014448 6.60015399 -48.03960198 8.69183066 -52.25 10.875 C-51.65942543 17.93747496 -49.19542216 24.30048881 -46.83984375 30.9453125 C-46.38912904 32.23004481 -45.93890803 33.51495042 -45.489151 34.80001831 C-44.54402211 37.49618819 -43.59463016 40.19080351 -42.6418457 42.88427734 C-41.44451525 46.2693623 -40.25511524 49.65716019 -39.06855679 53.04603386 C-34.75261389 65.36867871 -30.39694546 77.67639063 -25.78125 89.890625 C-25.47062119 90.7179715 -25.15999237 91.54531799 -24.83995056 92.3977356 C-22.75759016 97.83803486 -20.35768658 102.89802369 -17.37890625 107.9140625 C-16.25 109.875 -16.25 109.875 -15.25 112.875 C-19.26675821 114.36539916 -23.28904463 115.84028618 -27.3125 117.3125 C-28.44623047 117.73337891 -29.57996094 118.15425781 -30.74804688 118.58789062 C-36.26069468 120.59687306 -41.38413582 122.4067525 -47.25 122.875 C-47.28520752 122.13781738 -47.32041504 121.40063477 -47.35668945 120.64111328 C-47.82309025 113.26200728 -49.14672571 106.76170096 -51.4375 99.75 C-51.95002319 98.13786621 -51.95002319 98.13786621 -52.47290039 96.49316406 C-53.48030658 93.34823886 -54.50226896 90.20873631 -55.53149414 87.07092285 C-56.30999906 84.69162876 -57.08212293 82.31032005 -57.85351562 79.92871094 C-65.96276368 54.66130343 -65.96276368 54.66130343 -75.25 29.8125 C-75.57476318 29.00071289 -75.89952637 28.18892578 -76.23413086 27.35253906 C-78.60022125 21.73693709 -81.7330261 16.84052753 -85.25 11.875 C-76.99020517 8.5252297 -68.67647169 5.31819163 -60.35375977 2.12890625 C-58.82037318 1.54071321 -57.28749833 0.95118442 -55.75512695 0.36035156 C-53.51103825 -0.50487382 -51.26546694 -1.36614461 -49.01953125 -2.2265625 C-48.3433223 -2.48805084 -47.66711334 -2.74953918 -46.97041321 -3.01895142 C-30.99788302 -9.11331289 -14.15898084 -11.17953049 0 0 Z " fill="#001B57" transform="translate(789.25,1700.125)"/>
<path d="M0 0 C10.76531185 8.50146551 15.98619009 21.03732608 17.55224609 34.32055664 C19.55218271 56.36355987 10.37636096 77.77892484 -3.40625 94.6171875 C-11.45126861 103.9818377 -23.38857135 112.68758447 -36.07421875 113.8059082 C-51.96476971 114.26583997 -64.97203324 112.1752604 -77.51171875 101.55859375 C-87.09371354 92.48257888 -92.52378246 81.22917326 -93.26953125 68.03515625 C-93.55894608 43.91725343 -84.93761415 22.51236134 -68.40625 4.87890625 C-48.7566932 -14.01616006 -22.28589768 -14.7870512 0 0 Z M-48.17578125 18.44921875 C-60.41754873 36.46458579 -73.97829456 61.17290896 -72.06640625 83.62890625 C-70.85506343 89.0274892 -68.43805982 94.1003573 -64.06640625 97.62890625 C-58.91416756 100.56923557 -53.92156704 102.4521122 -47.99609375 101.2265625 C-33.38055042 96.69988612 -25.72370369 83.4887651 -18.9296875 70.66015625 C-16.88439265 66.69194698 -14.9520606 62.67507989 -13.06640625 58.62890625 C-12.63086426 57.69981445 -12.63086426 57.69981445 -12.18652344 56.75195312 C-6.24208001 43.93060456 -0.79119153 29.30346193 -4.79296875 15.0390625 C-7.33613715 9.48751197 -11.02589507 6.70691216 -16.37890625 3.87890625 C-30.07153357 -0.76266233 -40.29394909 7.91091723 -48.17578125 18.44921875 Z " fill="#001B57" transform="translate(205.06640625,1515.37109375)"/>
<path d="M0 0 C0.00386719 1.08087891 0.00386719 1.08087891 0.0078125 2.18359375 C0.54867645 17.20158278 4.99868192 31.64814287 8.9082489 46.07321167 C9.59100725 48.59292863 10.26947415 51.11377417 10.94750977 53.63476562 C11.83567495 56.93628262 12.74211263 60.23200402 13.65991211 63.52539062 C18.0033299 79.38663817 20.69795968 95.21283946 12.375 110.375 C5.11688475 121.26217287 -5.62995604 127.41393081 -18.15234375 130.49609375 C-29.03285085 132.42145097 -40.52872976 131.16904446 -49.9375 125.125 C-53.2805922 122.67179565 -56.25116041 120.1203044 -59 117 C-59.48082031 116.47277344 -59.96164062 115.94554687 -60.45703125 115.40234375 C-71.78592618 101.89371208 -73.58157908 80.33719086 -77.34326172 63.71020508 C-78.16889633 60.07448636 -79.0059893 56.44153432 -79.84375 52.80859375 C-80.08661743 51.71655136 -80.32948486 50.62450897 -80.57971191 49.49937439 C-82.72256726 40.2250444 -85.14073479 30.6409729 -91 23 C-91 22.34 -91 21.68 -91 21 C-86.33844921 20.11879301 -81.67540256 19.24618747 -77.01074219 18.3815918 C-75.42338433 18.08611452 -73.83646494 17.78827168 -72.25 17.48803711 C-69.97246038 17.05743977 -67.69349073 16.63531301 -65.4140625 16.21484375 C-64.70255035 16.07843979 -63.99103821 15.94203583 -63.25796509 15.80149841 C-58.22774341 14.88612829 -58.22774341 14.88612829 -56 16 C-56.08701172 17.40572266 -56.08701172 17.40572266 -56.17578125 18.83984375 C-56.71041131 31.58535981 -54.36282109 43.35463914 -51.5199585 55.73071289 C-50.92966227 58.30697934 -50.34700155 60.88492765 -49.76416016 63.46289062 C-48.6025595 68.58530721 -47.42088996 73.70280551 -46.22695923 78.81777954 C-45.74597527 80.88190561 -45.26836208 82.94682031 -44.79428101 85.01254272 C-44.11539517 87.95819214 -43.41932312 90.89928628 -42.71875 93.83984375 C-42.51977615 94.71513733 -42.32080231 95.59043091 -42.11579895 96.49224854 C-40.14500577 104.6164826 -37.42059392 113.38719838 -30 118 C-26.01224997 119.99387501 -21.33485449 119.51410673 -17 119 C-12.66524934 117.36211376 -9.83594469 115.07105413 -7 111.4375 C-3.71297852 100.13836366 -7.40670678 88.95055703 -10.375 78 C-10.82798393 76.29101425 -11.28003559 74.58178114 -11.73120117 72.87231445 C-12.90143099 68.4567914 -14.09193462 64.04698827 -15.28741455 59.63824463 C-15.98964019 57.0383557 -16.68360572 54.43641406 -17.37451172 51.83349609 C-18.46528408 47.72459071 -19.56805511 43.61912181 -20.68170166 39.51635742 C-21.09703724 37.98297141 -21.50950755 36.44880598 -21.91888428 34.91381836 C-23.98961174 27.17883515 -26.15272765 19.86369785 -30.07104492 12.8137207 C-31 11 -31 11 -31 9 C-30.30438965 8.79842285 -29.6087793 8.5968457 -28.89208984 8.38916016 C-25.71936868 7.46900231 -22.54718106 6.54701802 -19.375 5.625 C-18.28058594 5.30789063 -17.18617188 4.99078125 -16.05859375 4.6640625 C-14.99511719 4.3546875 -13.93164062 4.0453125 -12.8359375 3.7265625 C-11.86188965 3.44377441 -10.8878418 3.16098633 -9.88427734 2.86962891 C-7.81147673 2.24466566 -5.75028251 1.58071729 -3.69775391 0.89208984 C-1 0 -1 0 0 0 Z " fill="#001B57" transform="translate(696,1714)"/>
<path d="M0 0 C10.61263792 8.50228545 14.94023195 20.11746896 17.66796875 33.07421875 C19.38614624 56.69915926 13.32800633 78.85310169 -1.83203125 97.26171875 C-10.6460232 106.73676009 -22.34274481 112.42871194 -35.27246094 112.98242188 C-50.80286902 113.19069735 -63.72727099 108.33125523 -75.33203125 97.94921875 C-87.40838908 85.17710367 -88.68042921 69.17410686 -88.38671875 52.53515625 C-87.70277163 34.41903634 -80.13532026 15.29086761 -67.08203125 2.51171875 C-47.27936056 -14.39649501 -21.28753631 -15.21679425 0 0 Z M-44.14453125 8.19921875 C-60.24775019 28.00873411 -65.9276677 58.62831506 -64.08203125 83.51171875 C-63.03353544 88.76018922 -61.24795098 92.75798293 -57.33203125 96.44921875 C-50.94206585 100.5043891 -46.02209853 102.19157976 -38.3984375 101.07421875 C-31.61179898 99.4261986 -27.0084037 93.98977987 -23.08203125 88.51171875 C-14.29346449 73.94725986 -9.83573508 57.17779195 -7.08203125 40.51171875 C-6.88480469 39.33029297 -6.88480469 39.33029297 -6.68359375 38.125 C-5.28747354 28.52195693 -5.2781854 17.8739034 -10.40625 9.296875 C-14.62948056 4.05386174 -19.25768773 1.63077962 -25.89453125 0.57421875 C-33.50833393 0.06054391 -38.83403367 2.86801747 -44.14453125 8.19921875 Z " fill="#001B57" transform="translate(316.08203125,1733.48828125)"/>
<path d="M0 0 C-0.16102707 0.57668427 -0.32205414 1.15336853 -0.48796082 1.74752808 C-2.76928348 11.78311792 -0.09717772 23.28969319 1.08203125 33.3671875 C1.29931628 35.25225778 1.51632703 37.13735969 1.733078 39.02249146 C2.18741716 42.96157916 2.64608648 46.90013331 3.10766602 50.83837891 C3.69522156 55.85570712 4.27039488 60.8743655 4.84209156 65.89352226 C5.28692081 69.7840812 5.73919221 73.67374892 6.1935482 77.56320572 C6.40846803 79.41186405 6.62095875 81.26080663 6.8308506 83.11004257 C8.19307256 95.07230281 9.8867386 106.60942996 14 118 C9.96833734 121.22533013 7.28087704 122.44531872 2.125 122.53125 C-4.01683118 120.9957922 -8.22637092 115.95692247 -12.3125 111.4375 C-12.88154053 110.81689697 -13.45058105 110.19629395 -14.03686523 109.55688477 C-18.09382239 105.09658093 -21.9240481 100.4848133 -25.69140625 95.77734375 C-28.35279565 92.57557071 -31.15463665 89.53766575 -34 86.5 C-38.45178464 81.7465888 -42.62565618 76.851486 -46.703125 71.76953125 C-50.15347882 67.60915564 -53.83108663 63.67580624 -57.51953125 59.7265625 C-59.79527558 57.22503566 -61.90142085 54.64981372 -64 52 C-63.60841966 67.05833349 -63.10797532 82.095525 -62.0625 97.125 C-61.98789551 98.24165039 -61.91329102 99.35830078 -61.83642578 100.50878906 C-61.16830886 109.60009779 -60.4028873 118.49278175 -57 127 C-67.395 127.495 -67.395 127.495 -78 128 C-77.47916667 124.45182292 -76.95833333 120.90364583 -76.4375 117.35546875 C-75.2573005 107.33498064 -76.19073977 97.15328667 -76.8046875 87.12109375 C-76.88973275 85.7002097 -76.97461909 84.27931613 -77.05935669 82.8584137 C-77.23705318 79.89236759 -77.41723599 76.92648544 -77.59912109 73.96069336 C-77.78304914 70.95796671 -77.96338884 67.95506211 -78.14013672 64.9519043 C-79.09736576 35.57090132 -79.09736576 35.57090132 -85 7 C-68.50781026 4.9521087 -68.50781026 4.9521087 -63.11816406 8.09863281 C-59.8444797 11.02004688 -57.47238688 14.57978228 -55.13085938 18.26464844 C-53.46644662 20.81876024 -51.52401069 23.10733659 -49.5625 25.4375 C-48.83933594 26.32566406 -48.11617187 27.21382812 -47.37109375 28.12890625 C-43.66000185 32.62256777 -39.85117814 37.03110656 -36.05078125 41.44921875 C-26.84823575 52.14896898 -17.81267526 62.97584425 -9 74 C-9.61934249 64.16642538 -10.71756391 54.42986371 -11.99194336 44.6628418 C-12.31052668 42.20273799 -12.61534773 39.74116894 -12.91992188 37.27929688 C-14.44434847 25.33035723 -16.23763577 13.15280791 -21 2 C-13.94546999 0.79556805 -7.16562789 -0.28100502 0 0 Z " fill="#001B57" transform="translate(572,1562)"/>
<path d="M0 0 C6.80378121 5.92037454 10.26389226 14.3609817 10.91796875 23.25390625 C11.10806042 35.11879447 8.29487855 44.39607154 0.12109375 53.2109375 C-11.05940684 63.54762673 -23.81086216 64.83142877 -38.28515625 64.4921875 C-39.59425284 62.33602841 -40.2875304 60.92111807 -40.2734375 58.375 C-39.28515625 56.4921875 -39.28515625 56.4921875 -36.703125 55.296875 C-35.63707031 54.99007813 -34.57101562 54.68328125 -33.47265625 54.3671875 C-26.93859094 52.86398914 -26.93859094 52.86398914 -22.16796875 48.6796875 C-21.87664063 47.9578125 -21.5853125 47.2359375 -21.28515625 46.4921875 C-20.93195312 45.7084375 -20.57875 44.9246875 -20.21484375 44.1171875 C-16.03144164 33.70516448 -15.96589092 23.89938285 -20.28515625 13.4921875 C-23.70572398 7.01754145 -28.21986564 3.56503921 -35.03515625 1.1796875 C-38.39653489 0.46824769 -41.62052474 0.42105993 -45.05078125 0.44921875 C-46.03336914 0.45542236 -47.01595703 0.46162598 -48.02832031 0.46801758 C-49.1454541 0.47998169 -49.1454541 0.47998169 -50.28515625 0.4921875 C-49.30274342 11.1689281 -48.31210943 21.84487234 -47.31138134 32.51991272 C-46.84680004 37.47841511 -46.38490429 42.43713525 -45.92944336 47.39648438 C-45.48862634 52.19524125 -45.04036687 56.99325308 -44.58724403 61.79086304 C-44.41684792 63.60834804 -44.24899756 65.42607384 -44.0839138 67.24404907 C-42.3670453 88.35583525 -42.3670453 88.35583525 -36.28515625 108.4921875 C-38.82513825 109.7621785 -40.9031682 109.80434962 -43.73828125 110.02734375 C-44.83269531 110.11435547 -45.92710937 110.20136719 -47.0546875 110.29101562 C-48.20324219 110.37802734 -49.35179687 110.46503906 -50.53515625 110.5546875 C-52.23478516 110.69100586 -52.23478516 110.69100586 -53.96875 110.83007812 C-59.09192655 111.22948169 -64.14361595 111.54142315 -69.28515625 111.4921875 C-69.2678093 110.83774658 -69.25046234 110.18330566 -69.23258972 109.5090332 C-68.77361388 89.09880396 -70.27907505 69.17240703 -72.35522461 48.89257812 C-72.68176173 45.65943318 -72.99123116 42.42474224 -73.3007021 39.18992615 C-73.60520506 36.02508874 -73.91881386 32.86120483 -74.23525047 29.69754028 C-74.38311747 28.21167469 -74.52865221 26.72557472 -74.67159462 25.23922729 C-75.69990016 14.63718708 -77.15329249 4.38298389 -81.28515625 -5.5078125 C-76.64467824 -6.06110174 -72.00396513 -6.61236332 -67.36303711 -7.16186523 C-65.78908007 -7.34850236 -64.21518504 -7.53566329 -62.64135742 -7.72338867 C-16.5988629 -13.21335225 -16.5988629 -13.21335225 0 0 Z " fill="#001B57" transform="translate(594.28515625,1751.5078125)"/>
<path d="M0 0 C3.07774701 2.67877981 5.49996633 5.7863122 8 9 C9.21623047 10.53914063 9.21623047 10.53914063 10.45703125 12.109375 C11.8134864 13.82975714 13.1660663 15.55280676 14.51098633 17.28222656 C18.25577845 22.093408 22.10936936 26.80627209 26 31.5 C30.2366114 36.6146122 34.42071162 41.75898478 38.5 47 C43.77402928 53.77262301 49.2238847 60.39352508 54.69921875 67.00390625 C56.69685927 69.41603291 58.68256947 71.83611251 60.64453125 74.27734375 C66.45752185 81.49654332 72.03101728 88.1408642 80 93 C77.38109351 96.12773585 74.36516223 97.338185 70.65234375 98.91796875 C70.03984268 99.18007645 69.42734161 99.44218414 68.79627991 99.7122345 C67.50586677 100.262687 66.21395247 100.80963201 64.9206543 101.35327148 C62.93758902 102.18746256 60.95976856 103.03321467 58.98242188 103.88085938 C49.29527235 108 49.29527235 108 47 108 C46.7834375 106.1746875 46.7834375 106.1746875 46.5625 104.3125 C43.99779286 92.86996046 33.49113772 82.67971072 26 74 C18.46327087 76.09782021 11.25354482 78.7683905 4 81.6875 C1.95956418 82.50697765 -0.08204473 83.32354244 -2.125 84.13671875 C-3.01445313 84.49467529 -3.90390625 84.85263184 -4.8203125 85.22143555 C-7 86 -7 86 -9 86 C-8.71974928 90.47995648 -8.42373256 94.95874098 -8.125 99.4375 C-8.04636719 100.69755859 -7.96773437 101.95761719 -7.88671875 103.25585938 C-7.13376318 115.53759293 -7.13376318 115.53759293 -3 127 C-5.95670218 128.00486895 -8.91561577 129.00306024 -11.875 130 C-12.71675781 130.28617188 -13.55851563 130.57234375 -14.42578125 130.8671875 C-15.23144531 131.13789062 -16.03710938 131.40859375 -16.8671875 131.6875 C-17.98262939 132.06455078 -17.98262939 132.06455078 -19.12060547 132.44921875 C-21 133 -21 133 -23 133 C-22.83769394 132.12666016 -22.67538788 131.25332031 -22.50816345 130.35351562 C-22.04282973 127.28264558 -21.87176582 124.44404955 -21.86938477 121.34375 C-21.86768784 120.25457275 -21.86599091 119.16539551 -21.86424255 118.04321289 C-21.86908157 116.87395264 -21.87392059 115.70469238 -21.87890625 114.5 C-21.88177139 113.26822021 -21.88463654 112.03644043 -21.8875885 110.76733398 C-21.95036856 98.09646767 -22.33720744 85.44054974 -22.79956055 72.77880859 C-22.93845665 68.97379299 -23.0703996 65.16858396 -23.20117188 61.36328125 C-23.4108847 55.33470787 -23.63553885 49.30686864 -23.87225342 43.27929688 C-23.95497896 41.15570504 -24.03510341 39.03200962 -24.11212158 36.90820312 C-24.21329101 34.14671021 -24.32549561 31.38590791 -24.44140625 28.625 C-24.48164162 27.4491333 -24.48164162 27.4491333 -24.52268982 26.24951172 C-24.88334343 18.13322189 -24.88334343 18.13322189 -28.625 11.1875 C-29.07875 10.795625 -29.5325 10.40375 -30 10 C-30 9.34 -30 8.68 -30 8 C-27.65028386 6.69964229 -25.29575663 5.40970531 -22.9375 4.125 C-22.28072266 3.76019531 -21.62394531 3.39539062 -20.94726562 3.01953125 C-14.20964002 -0.63139888 -7.37147658 -3.85650609 0 0 Z M-12 22 C-11.8795185 26.81577346 -11.75519754 31.63142904 -11.62768555 36.44702148 C-11.58502582 38.07687861 -11.54332131 39.70676108 -11.50268555 41.33666992 C-11.22163035 52.5754081 -10.73221162 63.78143994 -10 75 C3.60087096 70.26967154 3.60087096 70.26967154 17 65 C17 60.87504733 16.90075778 60.36822227 14.61328125 57.3046875 C14.0929834 56.59707275 13.57268555 55.88945801 13.03662109 55.16040039 C12.46766113 54.40621826 11.89870117 53.65203613 11.3125 52.875 C10.12331892 51.26720733 8.93452865 49.65912555 7.74609375 48.05078125 C7.12976074 47.22271973 6.51342773 46.3946582 5.87841797 45.54150391 C4.01188907 43.01608593 2.17478679 40.47200628 0.34765625 37.91796875 C-0.2347583 37.10408691 -0.81717285 36.29020508 -1.41723633 35.45166016 C-2.53660103 33.88566974 -3.65496449 32.31896304 -4.7722168 30.75146484 C-5.28308838 30.04070801 -5.79395996 29.32995117 -6.3203125 28.59765625 C-6.76648926 27.97383057 -7.21266602 27.35000488 -7.67236328 26.70727539 C-9.0047209 24.99392916 -10.43329654 23.49924738 -12 22 Z " fill="#001B57" transform="translate(729,1520)"/>
<path d="M0 0 C0.84921776 0.04102089 0.84921776 0.04102089 1.71559143 0.08287048 C17.12070972 0.81621807 32.51830269 1.26706688 47.9375 1.5625 C50.09701013 1.6058754 52.25651539 1.64949427 54.41601562 1.69335938 C59.61062247 1.79880333 64.80529014 1.89931903 70 2 C70.99 8.6 71.98 15.2 73 22 C70.42838542 20.76302083 67.85677083 19.52604167 65.28515625 18.2890625 C57.24163184 15.13286386 48.99613091 14.50438696 40.4375 13.875 C38.78137695 13.74544922 38.78137695 13.74544922 37.09179688 13.61328125 C34.39491733 13.40313479 31.69773286 13.19883752 29 13 C29.00523682 13.8156543 29.01047363 14.63130859 29.01586914 15.47167969 C29.03312271 18.55810271 29.04555146 21.64450079 29.05493164 24.73095703 C29.06231093 26.6995611 29.07503058 28.66814286 29.08789062 30.63671875 C29.10779903 38.4806314 28.80895594 46.19681283 28 54 C29.05501709 53.99476318 30.11003418 53.98952637 31.19702148 53.98413086 C35.0975663 53.96608099 38.9981074 53.95456805 42.89868164 53.94506836 C44.58944316 53.9400281 46.28020029 53.93319595 47.97094727 53.92456055 C50.39600707 53.91248143 52.82100944 53.90676877 55.24609375 53.90234375 C56.38672523 53.89460182 56.38672523 53.89460182 57.55039978 53.88670349 C59.3673257 53.88650762 61.18413127 53.93802723 63 54 C64 55 64 55 64.09765625 57.06640625 C64.08605469 57.89011719 64.07445312 58.71382812 64.0625 59.5625 C64.05347656 60.38878906 64.04445313 61.21507812 64.03515625 62.06640625 C64.02355469 62.70449219 64.01195312 63.34257813 64 64 C61.6006585 65.19967075 60.09153116 65.129195 57.4140625 65.1328125 C56.48207031 65.13410156 55.55007813 65.13539062 54.58984375 65.13671875 C53.61144531 65.13285156 52.63304687 65.12898438 51.625 65.125 C50.21541016 65.13080078 50.21541016 65.13080078 48.77734375 65.13671875 C41.80942488 65.12721272 34.93409058 64.67064679 28 64 C27.97494385 65.20011719 27.9498877 66.40023438 27.92407227 67.63671875 C27.82943466 72.11712118 27.72935475 76.59738879 27.62768555 81.07763672 C27.58454872 83.01152376 27.54286004 84.94544369 27.50268555 86.87939453 C27.4444644 89.66969691 27.3809233 92.45983693 27.31640625 95.25 C27.29133751 96.533302 27.29133751 96.533302 27.26576233 97.8425293 C27.14127422 102.96209877 26.71826979 107.92865741 26 113 C50.8125721 112.52795438 50.8125721 112.52795438 73 103 C73.73089844 102.4534375 74.46179688 101.906875 75.21484375 101.34375 C75.80394531 100.9003125 76.39304687 100.456875 77 100 C76.88252836 101.77134867 76.75547702 103.54206179 76.625 105.3125 C76.55539062 106.29863281 76.48578125 107.28476563 76.4140625 108.30078125 C76.05707635 111.49008209 75.55709765 114.57801395 74.97412109 117.73120117 C74.79223236 118.718759 74.61034363 119.70631683 74.42294312 120.72380066 C74.28337189 121.47494644 74.14380066 122.22609222 74 123 C66.3229272 123.02339536 58.6458582 123.04105129 50.96875763 123.05181217 C47.40217307 123.0569825 43.83561328 123.06397072 40.26904297 123.07543945 C9.93261987 123.17053406 9.93261987 123.17053406 -3 122 C-2.51171875 119.42838542 -2.0234375 116.85677083 -1.53515625 114.28515625 C0.00314104 104.84203201 0.36696455 95.37142742 0.75390625 85.828125 C0.81954364 84.25786541 0.88537881 82.68761407 0.95140076 81.11737061 C1.08866184 77.83613888 1.22372764 74.55482637 1.35717773 71.2734375 C1.52690949 67.10355203 1.70181234 62.93390319 1.87835789 58.7643013 C2.01506137 55.52297089 2.14911216 52.28153476 2.2823925 49.04006195 C2.34580956 47.50451225 2.40998153 45.96899351 2.47497749 44.43350983 C3.96595915 21.91979534 3.96595915 21.91979534 0 0 Z " fill="#001B58" transform="translate(407,1567)"/>
<path d="M0 0 C-0.45228625 2.39711711 -0.9116008 4.79252818 -1.375 7.1875 C-1.56449219 8.19780273 -1.56449219 8.19780273 -1.7578125 9.22851562 C-2.49646777 13.0141239 -3.42623223 16.47612869 -5 20 C-5.639375 19.34 -6.27875 18.68 -6.9375 18 C-7.95649708 16.99812892 -8.977629 15.99842788 -10 15 C-10.64324219 14.34902344 -11.28648437 13.69804688 -11.94921875 13.02734375 C-18.3856135 6.84516926 -24.78681777 3.61851315 -33.6875 2.5625 C-39.33806874 3.30880153 -43.45392112 4.41526915 -47.5 8.5625 C-49.52030126 13.19235706 -49.77355347 17.02482978 -49 22 C-44.62230724 31.70705787 -32.92437488 36.90419254 -24.0625 41.8125 C-12.20307248 48.56852952 -1.76573325 55.13922111 2.57421875 68.80859375 C4.66612943 79.57521661 2.9515833 89.33072362 -2.5625 98.625 C-8.69338948 107.25644882 -17.84511867 111.76227765 -28 114 C-42.58204637 116.14860055 -58.71977987 115.28712532 -71.12988281 106.49023438 C-73.10339104 105.01378998 -75.05971424 103.51975827 -77 102 C-76.38898199 98.68476035 -75.75886643 95.37344063 -75.125 92.0625 C-74.95097656 91.11697266 -74.77695312 90.17144531 -74.59765625 89.19726562 C-74.42363281 88.29814453 -74.24960937 87.39902344 -74.0703125 86.47265625 C-73.83465576 85.22367554 -73.83465576 85.22367554 -73.59423828 83.94946289 C-73.30009033 82.98447876 -73.30009033 82.98447876 -73 82 C-72.01 81.505 -72.01 81.505 -71 81 C-70.5875 81.71285156 -70.175 82.42570312 -69.75 83.16015625 C-64.05315296 92.60827534 -58.51726747 98.94951689 -47.80859375 102.41015625 C-41.08258073 103.82271253 -34.77922021 102.76321316 -29 99 C-23.89394196 94.70626938 -22.27525599 91.08286709 -21.6875 84.5 C-22.3060634 77.57208993 -25.53208122 74.19059176 -30.57910156 69.85498047 C-34.87460506 66.56360939 -39.61056169 64.10374164 -44.375 61.5625 C-57.54461597 54.53465084 -67.6809383 47.79765425 -73.375 33.5625 C-74.83760095 25.22567456 -74.8251732 16.71087129 -71 9 C-66.44048809 2.57776066 -61.49283029 -2.39679242 -54 -5 C-53.236875 -5.29519531 -52.47375 -5.59039063 -51.6875 -5.89453125 C-34.71543817 -11.56050921 -15.62945037 -7.81472519 0 0 Z " fill="#001B57" transform="translate(504,1753)"/>
<path d="M0 0 C2.21341019 0.77346029 3.69713979 1.69753816 5.56567383 3.10620117 C6.57863525 3.85752319 6.57863525 3.85752319 7.61206055 4.62402344 C8.34440918 5.17372803 9.07675781 5.72343262 9.83129883 6.28979492 C29.44252095 20.70957289 49.92710998 33.70340007 71.08129883 45.72729492 C70.47254128 50.33146118 69.23406927 54.29212817 67.51879883 58.60229492 C67.06375977 59.7547168 66.6087207 60.90713867 66.13989258 62.09448242 C65.61588867 63.39772461 65.61588867 63.39772461 65.08129883 64.72729492 C63.08129883 63.72729492 63.08129883 63.72729492 61.76879883 60.97729492 C57.0065729 51.80560054 47.14576053 46.0396501 38.08129883 41.72729492 C37.7712793 42.18241455 37.46125977 42.63753418 37.1418457 43.10644531 C30.4602522 52.90879036 23.73779863 62.68126244 16.95629883 72.41479492 C11.055798 80.88599817 5.15573508 89.35667723 -0.65844727 97.88745117 C-1.93962714 99.75784473 -3.23532428 101.61760781 -4.53198242 103.47729492 C-11.0090256 112.86078175 -17.29205641 122.84736062 -20.91870117 133.72729492 C-25.14611412 132.25043532 -28.45849046 130.12118338 -32.10620117 127.53979492 C-32.66847412 127.1441333 -33.23074707 126.74847168 -33.81005859 126.34082031 C-34.95806265 125.5325566 -36.10463845 124.72226036 -37.24975586 123.90991211 C-39.73480952 122.14899931 -42.23373564 120.40804009 -44.73120117 118.66479492 C-46.12728365 117.68598352 -47.52322159 116.70696569 -48.91870117 115.72729492 C-47.81144283 112.40551988 -47.20584037 111.9738781 -44.54370117 109.91479492 C-33.21144917 100.23013985 -25.12189704 86.48274228 -16.71704102 74.32397461 C-13.80097408 70.11337349 -10.8586888 65.92120996 -7.91870117 61.72729492 C-6.76628168 60.0802125 -5.61393824 58.43307686 -4.46166992 56.78588867 C-1.98969523 53.25400207 0.48772866 49.72600358 2.96801758 46.19995117 C3.60416992 45.29438477 4.24032227 44.38881836 4.89575195 43.45581055 C6.11311644 41.72306547 7.33179408 39.99124197 8.55200195 38.26049805 C11.20089643 34.48745375 13.79075946 30.73371538 16.08129883 26.72729492 C6.08959234 18.93878871 -3.27762037 13.56450189 -15.91870117 11.72729492 C-12.91507942 8.52989112 -9.74421497 5.64209506 -6.35620117 2.85229492 C-5.61241211 2.23612305 -4.86862305 1.61995117 -4.10229492 0.98510742 C-1.91870117 -0.27270508 -1.91870117 -0.27270508 0 0 Z " fill="#001B57" transform="translate(77.918701171875,1443.272705078125)"/>
<path d="M0 0 C7.91266113 1.90304508 15.77124039 3.99372022 23.625 6.125 C24.60936035 6.39070801 25.5937207 6.65641602 26.60791016 6.93017578 C27.99695557 7.30891846 27.99695557 7.30891846 29.4140625 7.6953125 C30.2488916 7.92234863 31.0837207 8.14938477 31.94384766 8.38330078 C34 9 34 9 36 10 C35.57566971 13.04103372 35.11716902 15.71741589 33.9375 18.5625 C32.45874381 22.4072661 32.71062897 25.13188692 34 29 C35.8871875 29.0928125 35.8871875 29.0928125 37.8125 29.1875 C38.52019531 29.22230469 39.22789062 29.25710938 39.95703125 29.29296875 C42.68646371 28.90155874 43.34952149 28.20063801 45 26 C45.96518649 23.96903012 46.85624756 21.90186425 47.6875 19.8125 C48.12449219 18.72582031 48.56148437 17.63914062 49.01171875 16.51953125 C49.33785156 15.68808594 49.66398438 14.85664062 50 14 C51.58367747 14.14204741 53.16693318 14.28880153 54.75 14.4375 C56.07257812 14.55931641 56.07257812 14.55931641 57.421875 14.68359375 C59.69350452 14.96238465 61.79851823 15.38790577 64 16 C63.24637681 23.53623188 63.24637681 23.53623188 61.9375 26 C60.37352307 29.33648413 60.7642937 32.34655235 61 36 C62.93889246 38.35639408 62.93889246 38.35639408 66.4375 38.375 C69.95441172 38.38480181 69.95441172 38.38480181 71.58984375 36.39453125 C73.32172756 33.453687 74.19191441 30.59299383 75.125 27.3125 C76.91107644 21.08892356 76.91107644 21.08892356 78 20 C79.62853535 20.06420749 81.25449212 20.2012064 82.875 20.375 C83.75929688 20.46523437 84.64359375 20.55546875 85.5546875 20.6484375 C88 21 88 21 91 22 C90.79503906 22.56847656 90.59007812 23.13695312 90.37890625 23.72265625 C88.73177282 28.44338795 87.2015328 32.96168012 87 38 C87.91666667 40.08333333 87.91666667 40.08333333 90 41 C92.95746492 41.58345476 92.95746492 41.58345476 96 41 C99.79071644 37.98649041 101.1314181 34.74606082 102.75 30.25 C103.17796875 29.07953125 103.6059375 27.9090625 104.046875 26.703125 C104.36140625 25.81109375 104.6759375 24.9190625 105 24 C113.00694114 24.5982929 121.00605711 25.2470635 129 26 C125.45765593 38.71076401 118.34097294 49.1222337 107.1875 56.25 C86.1139112 68.06637513 59.10747226 60.42283343 37 55.0625 C36.04029297 54.8341748 35.08058594 54.60584961 34.09179688 54.37060547 C21.86170254 51.24432521 12.22608803 45.96782586 5.17578125 35.21875 C0.69063507 27.31272962 -1.33753594 20.299536 -1.1875 11.25 C-1.18685547 10.49589844 -1.18621094 9.74179688 -1.18554688 8.96484375 C-1.15966633 5.72690047 -1.03027865 3.09083595 0 0 Z " fill="#031F5A" transform="translate(525,1332)"/>
<path d="M0 0 C3.37070918 0.61938464 6.54956761 1.43978315 9.796875 2.53125 C11.21129883 2.99893799 11.21129883 2.99893799 12.65429688 3.47607422 C13.67587891 3.81396973 14.69746094 4.15186523 15.75 4.5 C26.2586096 7.92239853 36.83625475 10.97988174 47.5 13.875 C48.2070105 14.06763428 48.914021 14.26026855 49.64245605 14.45874023 C58.98190771 16.99776215 58.98190771 16.99776215 68.40625 19.1953125 C72 20 72 20 73 21 C72.96148255 23.45622816 72.85466287 25.86459438 72.6875 28.3125 C72.63432617 29.32860352 72.63432617 29.32860352 72.58007812 30.36523438 C72.3414078 34.00940958 71.9638314 36.88191668 70 40 C69.01 38.63875 69.01 38.63875 68 37.25 C62.28432294 30.46760884 53.16637392 28.55879716 45 26 C44.87768509 27.00374161 44.75537018 28.00748322 44.62934875 29.04164124 C44.07176688 32.92314067 43.0617025 36.57584397 41.93041992 40.33374023 C41.72212051 41.03082596 41.51382111 41.72791168 41.29920959 42.44612122 C40.84911659 43.94994021 40.39671437 45.45306965 39.94222069 46.9555645 C39.21815032 49.34931809 38.50023807 51.74484588 37.7837677 54.1408844 C36.51537482 58.37905288 35.24164281 62.61559441 33.96612549 66.85162354 C31.93498813 73.59719041 29.9082882 80.34406899 27.8885746 87.09306526 C27.18945345 89.42444799 26.48580718 91.75442906 25.78178406 94.08433533 C19.80416794 113.23295496 19.80416794 113.23295496 17 133 C13.16468548 132.07048645 9.33215606 131.12994303 5.5 130.1875 C4.42234375 129.92646484 3.3446875 129.66542969 2.234375 129.39648438 C-3.68900825 127.93369766 -9.34176389 126.28664154 -15 124 C-14.5153125 123.1234375 -14.030625 122.246875 -13.53125 121.34375 C-9.3949494 113.62061473 -6.06010075 105.82935372 -3.34375 97.5 C-3.00754639 96.47982788 -2.67134277 95.45965576 -2.32495117 94.40856934 C2.17868631 80.58563012 6.2550046 66.63013934 10.35699463 52.68408203 C11.44714759 48.98118375 12.54217481 45.27972722 13.63671875 41.578125 C15.76242251 34.3867715 17.88298098 27.19391557 20 20 C18.43979133 19.34865075 16.87671421 18.70417036 15.3125 18.0625 C14.44238281 17.70285156 13.57226562 17.34320312 12.67578125 16.97265625 C4.87196053 14.13593894 -2.24921025 14.41640342 -10 17 C-8.51364884 12.78345644 -6.38750841 9.37521395 -3.875 5.6875 C-3.15054688 4.61886719 -2.42609375 3.55023437 -1.6796875 2.44921875 C-0.84824219 1.23685547 -0.84824219 1.23685547 0 0 Z " fill="#001B57" transform="translate(240,1531)"/>
<path d="M0 0 C1.50803925 0.35337806 3.01650465 0.70494248 4.52539062 1.0546875 C7.50983287 1.74982651 10.49083022 2.45746492 13.46948242 3.17700195 C16.53110567 3.91602028 19.59616216 4.63724486 22.6652832 5.34448242 C23.43315659 5.52211121 24.20102997 5.69973999 24.99217224 5.88275146 C26.44784978 6.21890866 27.9040084 6.55299225 29.36073303 6.88458252 C39.22093782 9.17296181 47.52365437 12.92050055 53.4765625 21.45703125 C58.88187023 30.73456235 60.6677622 41.04776467 58.42578125 51.67578125 C58.18408203 52.45501953 58.18408203 52.45501953 57.9375 53.25 C49.35672945 53.49911914 41.35576913 52.94882188 32.9375 51.25 C33.04578125 50.21552734 33.04578125 50.21552734 33.15625 49.16015625 C33.61349602 44.53054028 34.03426328 39.90073449 34.1875 35.25 C34.21328125 34.54875 34.2390625 33.8475 34.265625 33.125 C33.82883554 30.62906021 32.9311619 29.76853687 30.9375 28.25 C26.84267694 27.70347607 26.84267694 27.70347607 23.30932617 29.5090332 C21.69167549 31.5619727 21.37126378 32.90901459 20.98828125 35.48046875 C20.79975586 36.68413086 20.79975586 36.68413086 20.60742188 37.91210938 C20.43049805 39.16217773 20.43049805 39.16217773 20.25 40.4375 C20.05567383 41.7049707 20.05567383 41.7049707 19.85742188 42.99804688 C19.53977747 45.08038243 19.23717846 47.16500308 18.9375 49.25 C17.52047487 49.10769192 16.1038904 48.96099254 14.6875 48.8125 C13.89859375 48.73128906 13.1096875 48.65007812 12.296875 48.56640625 C10.11385361 48.27365007 8.0601818 47.82935581 5.9375 47.25 C5.77613558 42.81247846 5.89501127 38.94912579 6.9375 34.625 C7.78482251 31.05764941 8.45146837 27.93344001 7.9375 24.25 C5.92549381 21.41828758 4.81678233 20.40012137 1.375 19.8125 C-1.54725618 20.33700752 -2.22499824 20.96788534 -4.0625 23.25 C-4.83155991 25.45297806 -4.83155991 25.45297806 -5.23046875 27.91796875 C-5.40126953 28.81064453 -5.57207031 29.70332031 -5.74804688 30.62304688 C-5.91369141 31.55181641 -6.07933594 32.48058594 -6.25 33.4375 C-6.42724609 34.37787109 -6.60449219 35.31824219 -6.78710938 36.28710938 C-7.22270076 38.6063392 -7.64737885 40.92703408 -8.0625 43.25 C-9.64617747 43.10795259 -11.22943318 42.96119847 -12.8125 42.8125 C-13.69421875 42.73128906 -14.5759375 42.65007812 -15.484375 42.56640625 C-17.75600452 42.28761535 -19.86101823 41.86209423 -22.0625 41.25 C-21.8975 40.21875 -21.7325 39.1875 -21.5625 38.125 C-20.78959079 31.89692002 -20.57810884 25.50603495 -21.0625 19.25 C-22.84907757 17.03629949 -22.84907757 17.03629949 -25.2265625 17.0546875 C-26.44472656 17.08949219 -26.44472656 17.08949219 -27.6875 17.125 C-28.91339844 17.15207031 -28.91339844 17.15207031 -30.1640625 17.1796875 C-30.79054688 17.20289063 -31.41703125 17.22609375 -32.0625 17.25 C-33.4377869 21.3758607 -33.79481594 25.58946752 -34.3125 29.88867188 C-34.96027195 35.04554391 -34.96027195 35.04554391 -36.0625 37.25 C-41.42465666 36.46015696 -46.62420628 35.19260022 -51.875 33.875 C-52.72642578 33.66617187 -53.57785156 33.45734375 -54.45507812 33.2421875 C-60.08908853 31.83475763 -65.58187858 30.16908981 -71.0625 28.25 C-67.75924206 16.92928686 -59.09231299 7.31009376 -48.96484375 1.4609375 C-32.90215183 -6.77533952 -16.94720294 -4.14195724 0 0 Z " fill="#031F5A" transform="translate(601.0625,1290.75)"/>
<path d="M0 0 C0.70680908 0.13051758 1.41361816 0.26103516 2.1418457 0.39550781 C23.88962852 4.39260574 45.69191687 8.23905641 67.71142578 10.4050293 C70.64672931 10.69813124 73.18770056 11.06256685 76 12 C77.15316726 18.34241995 77.09507063 24.56688704 77 31 C74.52701485 29.85862224 72.47717688 28.62166076 70.2578125 27.015625 C66.49794359 24.68937517 63.14376911 23.7162149 58.875 22.75 C58.17246094 22.57726563 57.46992188 22.40453125 56.74609375 22.2265625 C53.37593938 21.42384142 50.4849271 21 47 21 C45.46608396 30.7453486 43.93576065 40.49125429 42.40980721 50.23785305 C41.70085683 54.76536576 40.99074918 59.29269015 40.27783203 63.81958008 C39.58766624 68.20229799 38.90075535 72.58551557 38.21593857 76.96907234 C37.95636675 78.62706101 37.69569471 80.28487788 37.43381119 81.94250298 C36.10928143 90.33098852 34.85415225 98.72132867 33.83154297 107.15258789 C33.74800127 107.82462218 33.66445957 108.49665648 33.57838631 109.18905544 C32.80793985 115.80144735 32.81032309 122.35077041 33 129 C25.35674046 128.60838423 17.86420056 127.77868296 10.3125 126.5625 C9.12744873 126.37917114 9.12744873 126.37917114 7.91845703 126.19213867 C2.24094161 125.24094161 2.24094161 125.24094161 0 123 C0.61141846 121.88753906 1.22283691 120.77507812 1.8527832 119.62890625 C4.22547129 114.85601422 5.34131742 110.14739955 6.35546875 104.9375 C6.56012253 103.92075195 6.76477631 102.90400391 6.97563171 101.85644531 C10.04496059 86.17682357 12.42944971 70.36642364 14.90606689 54.5848999 C15.5925835 50.21867905 16.28587657 45.85353427 16.97851562 41.48828125 C18.32545862 32.99319757 19.66517564 24.49699628 21 16 C19.73542969 15.83918945 18.47085937 15.67837891 17.16796875 15.51269531 C16.45664795 15.42223938 15.74532715 15.33178345 15.01245117 15.23858643 C6.66875472 14.24939834 0.5402958 15.2298521 -7 19 C-6.4253379 14.21357393 -5.01754357 10.46211213 -2.9375 6.125 C-2.38964844 4.97257812 -1.84179688 3.82015625 -1.27734375 2.6328125 C-0.85582031 1.76398438 -0.43429687 0.89515625 0 0 Z " fill="#001B57" transform="translate(323,1554)"/>
<path d="M0 0 C1.03761475 0.11537109 2.07522949 0.23074219 3.14428711 0.34960938 C10.82850846 1.20380123 18.51282697 2.05710049 26.19741821 2.90795898 C30.01503118 3.33072217 33.83259087 3.75396534 37.65014648 4.17724609 C39.59348415 4.39261137 41.53684358 4.60778029 43.48022461 4.82275391 C55.65913023 6.17017249 67.8324314 7.55355266 80 9 C80.495 18.405 80.495 18.405 81 28 C78.15314236 26.57657118 75.92719169 25.27651237 73.375 23.48828125 C68.75920474 20.57343652 64.34920566 19.83411243 59 19.1875 C57.39435898 18.97697708 55.78890137 18.76505228 54.18359375 18.55200195 C53.3939624 18.44781448 52.60433105 18.34362701 51.79077148 18.23628235 C51.19981689 18.15830917 50.6088623 18.080336 50 18 C49.89264778 19.01379227 49.89264778 19.01379227 49.78312683 20.04806519 C48.41129093 32.91246497 46.95030054 45.75469175 45.17578125 58.5703125 C45.02301727 59.68662048 44.8702533 60.80292847 44.71286011 61.95306396 C44.09317477 66.47870764 43.47287849 71.00404046 42.82592773 75.52587891 C40.51086078 91.78388318 39.53797102 107.57751871 40 124 C28.80635305 123.46683604 18.02153684 122.00735894 7 120 C7.26264648 119.3611084 7.52529297 118.7222168 7.79589844 118.06396484 C10.68666734 110.64857189 12.15186547 103.48825473 13.25 95.625 C13.4476525 94.2682364 13.64583704 92.91155023 13.84448242 91.55493164 C17.5254319 66.08065033 20.70736123 40.52683368 24 15 C20.64200162 14.94142911 17.28413657 14.90621329 13.92578125 14.875 C12.98126099 14.85824219 12.03674072 14.84148437 11.06359863 14.82421875 C3.93285585 14.77455961 -1.61009507 15.64791872 -8 19 C-7.38184878 14.44657625 -5.53090429 10.71386 -3.4375 6.6875 C-2.82388085 5.49476314 -2.21070994 4.3017956 -1.59790039 3.10864258 C-1.07059326 2.08279053 -0.54328613 1.05693848 0 0 Z " fill="#001B57" transform="translate(345,1736)"/>
<path d="M0 0 C5.79393283 3.02292148 8.01717768 9.05153305 10 15 C11.35953072 32.87725773 9.02605272 50.00624286 -2.5546875 64.33203125 C-6.41763531 68.54671712 -10.19608257 71.13104958 -16 71.625 C-20.04557119 71.37411186 -22.52367863 69.85991141 -25.35327148 67.01049805 C-30.81294634 60.34475714 -31.6386824 52.37416578 -31.4375 44.0625 C-31.42356201 43.09538086 -31.40962402 42.12826172 -31.39526367 41.13183594 C-31.22076113 34.39501475 -30.62838766 28.26769366 -28 22 C-27.67128906 21.16855469 -27.34257812 20.33710937 -27.00390625 19.48046875 C-23.8121586 12.29075345 -18.74797627 5.03342928 -12.03125 0.7421875 C-8.09492859 -0.69608379 -4.11531291 -0.52194212 0 0 Z " fill="#021D59" transform="translate(297,1186)"/>
<path d="M0 0 C0.495 0.99 0.495 0.99 1 2 C0.319375 2.66 -0.36125 3.32 -1.0625 4 C-22.7905319 25.80819505 -38.15505569 56.48654687 -45.60546875 86.15625 C-45.85506348 87.14874756 -46.1046582 88.14124512 -46.36181641 89.16381836 C-46.81288198 91.02984678 -47.23552153 92.90309503 -47.62255859 94.78344727 C-49.0388353 100.83517806 -51.19747003 103.65407839 -56.08129883 107.46948242 C-58.49894164 109.39799786 -60.11331379 111.55348218 -61.8125 114.125 C-62.35519531 114.93195313 -62.89789063 115.73890625 -63.45703125 116.5703125 C-65.01441738 119.02270281 -66.51913288 121.50075879 -68 124 C-73.11723176 120.80173015 -77.52692892 117.04165813 -82 113 C-80.66353869 105.73532485 -78.29858634 99.49733863 -75.1875 92.8125 C-74.70394043 91.7702124 -74.22038086 90.7279248 -73.72216797 89.65405273 C-65.40329048 72.08888223 -55.34030363 56.00283144 -43 41 C-42.48550293 40.37125977 -41.97100586 39.74251953 -41.44091797 39.09472656 C-31.65243386 27.20937581 -21.15342103 16.51214891 -9 7 C-8.11183594 6.30261719 -7.22367187 5.60523438 -6.30859375 4.88671875 C-4.21198308 3.2494594 -2.10984216 1.6201504 0 0 Z " fill="#05205B" transform="translate(330,1077)"/>
<path d="M0 0 C5.3816008 2.56229392 10.14285407 5.37870252 14 10 C15.47587417 14.82702909 15.42748588 19.35883661 15.25 24.375 C15.23271851 25.37643539 15.23271851 25.37643539 15.21508789 26.39810181 C14.97538182 38.24209954 11.97226467 46.2125003 5.3515625 55.84765625 C2.90970524 59.73627866 1.22948924 63.94591946 -0.5 68.1875 C-0.98823242 69.35575317 -0.98823242 69.35575317 -1.48632812 70.54760742 C-3.29963159 74.97355009 -4.77528233 79.3766908 -6 84 C-6.33 84 -6.66 84 -7 84 C-9.65615851 58.70163443 -8.28065889 32.69922037 -2 8 C-1.79117188 7.13890625 -1.58234375 6.2778125 -1.3671875 5.390625 C-0.92635405 3.59003768 -0.46647031 1.79411658 0 0 Z " fill="#07225C" transform="translate(243,1204)"/>
<path d="M0 0 C1.4375 1.86328125 1.4375 1.86328125 3 4.3125 C3.7734375 5.51326172 3.7734375 5.51326172 4.5625 6.73828125 C5.036875 7.48464844 5.51125 8.23101563 6 9 C6.99 10.485 6.99 10.485 8 12 C7.34 12.66 6.68 13.32 6 14 C5.01 14 4.02 14 3 14 C2.67 13.67 2.34 13.34 2 13 C2 13.99 2 14.98 2 16 C0.35 15.67 -1.3 15.34 -3 15 C-2.67 15.99 -2.34 16.98 -2 18 C-3.32 18 -4.64 18 -6 18 C-7.73828125 15.91796875 -7.73828125 15.91796875 -9.3125 13.1875 C-10.11107422 11.84751953 -10.11107422 11.84751953 -10.92578125 10.48046875 C-12 8 -12 8 -11 5 C-7.62537285 5.54723683 -5.91765 6.0549 -3 8 C-3.33 5.69 -3.66 3.38 -4 1 C-2 0 -2 0 0 0 Z " fill="#001A57" transform="translate(815,1673)"/>
<path d="M0 0 C0.66 0.33 1.32 0.66 2 1 C2 1.66 2 2.32 2 3 C1.34 3.66 0.68 4.32 0 5 C1.65 8.3 3.3 11.6 5 15 C3.35 15.66 1.7 16.32 0 17 C-0.67119549 15.5437455 -1.33681807 14.08492133 -2 12.625 C-2.37125 11.81289062 -2.7425 11.00078125 -3.125 10.1640625 C-4 8 -4 8 -4 6 C-5.98 6.99 -5.98 6.99 -8 8 C-8.33 7.01 -8.66 6.02 -9 5 C-7.54735962 4.1361871 -6.0876837 3.28419546 -4.625 2.4375 C-3.40683594 1.72400391 -3.40683594 1.72400391 -2.1640625 0.99609375 C-1.44992187 0.66738281 -0.73578125 0.33867188 0 0 Z " fill="#001A56" transform="translate(801,1680)"/>
</svg>
