<?xml version="1.0" encoding="UTF-8"?>
<svg version="1.1" xmlns="http://www.w3.org/2000/svg" width="500" height="500">
<path d="M0 0 C2.67835541 -0.17811431 5.31582104 -0.18433795 7.99998057 -0.14411008 C9.03159904 -0.14838221 10.06321751 -0.15265433 11.12609714 -0.15705591 C14.59973675 -0.16532369 18.0721819 -0.13773708 21.54571116 -0.11046445 C24.02888042 -0.10905481 26.51205178 -0.10984432 28.99521983 -0.11267698 C34.34993262 -0.11381736 39.70427015 -0.09959183 45.05888522 -0.07148778 C52.80072534 -0.03088064 60.5424181 -0.01783347 68.28435317 -0.01154783 C80.84453771 -0.00060022 93.40456003 0.0326865 105.96465647 0.07996523 C118.16679664 0.12584884 130.36889278 0.16124657 142.57110178 0.1825043 C143.3230365 0.18381791 144.07497121 0.18513153 144.84969183 0.18648496 C148.62186561 0.19301006 152.39403969 0.19932862 156.16621399 0.20554447 C187.46836812 0.25739198 218.77032069 0.34584105 250.07232249 0.4571625 C281.32232249 54.62382917 312.57232249 108.79049583 343.82232249 162.9571625 C344.44195872 164.03119326 345.06159495 165.10522402 345.70000803 166.21180117 C346.94107503 168.36299474 348.18212342 170.51419905 349.42315257 172.66541445 C352.33730593 177.71679249 355.25164067 182.7680656 358.16665232 187.81894839 C359.19905727 189.60783168 360.23140205 191.39674967 361.26372874 193.18567812 C362.55918197 195.43053886 363.85474819 197.6753344 365.15044749 199.92005312 C366.29615549 201.90552733 367.43760096 203.89347033 368.57378733 205.88440859 C369.48824206 207.45438642 370.43021288 209.00925094 371.41851389 210.53382266 C373.20690456 213.33148039 374.11217881 214.95546944 373.84502757 218.31824648 C373.0393634 221.59105034 371.93250741 223.92198567 370.22075999 226.8165375 C369.32647288 228.34601016 369.32647288 228.34601016 368.41411936 229.90638125 C367.76507639 230.99563906 367.11603343 232.08489687 366.44732249 233.2071625 C365.76730071 234.36413601 365.08828202 235.52169963 364.41021311 236.67981875 C363.00164925 239.08381398 361.58881608 241.48522023 360.17290843 243.88489687 C356.93215271 249.3855113 353.75565926 254.92319659 350.57232249 260.4571625 C349.32262357 262.62400284 348.07262259 264.790669 346.82232249 266.9571625 C346.20357249 268.0296625 345.58482249 269.1021625 344.94732249 270.2071625 C323.07232249 308.12382917 301.19732249 346.04049583 279.32232249 383.9571625 C278.70260569 385.03135439 278.08288889 386.10554629 277.4443928 387.21228945 C276.20421487 389.36189884 274.96398122 391.51147608 273.72368968 393.66101992 C270.79882019 398.73025462 267.87451416 403.79981186 264.9522053 408.8705231 C263.57425311 411.26142847 262.19598076 413.65214921 260.81768382 416.04285586 C259.84691266 417.72700213 258.87660374 419.41141481 257.90630686 421.09583437 C257.31656077 422.11870547 256.72681468 423.14157656 256.11919749 424.19544375 C255.60196116 425.09303408 255.08472483 425.99062441 254.55181468 426.91541445 C254.06358225 427.75419131 253.57534983 428.59296816 253.07232249 429.4571625 C252.75156591 430.32218481 252.43080933 431.18720711 252.10033286 432.07844222 C250.07232249 434.4571625 250.07232249 434.4571625 248.14464498 434.914325 C245.46628956 435.09243931 242.82882394 435.09866295 240.14466441 435.05843508 C239.11304594 435.06270721 238.08142747 435.06697933 237.01854783 435.07138091 C233.54490822 435.07964869 230.07246307 435.05206208 226.59893382 435.02478945 C224.11576455 435.02337981 221.6325932 435.02416932 219.14942515 435.02700198 C213.79471235 435.02814235 208.44037482 435.01391683 203.08575976 434.98581278 C195.34391964 434.94520564 187.60222688 434.93215847 179.8602918 434.92587283 C167.30010727 434.91492522 154.74008494 434.8816385 142.1799885 434.83435977 C129.97784833 434.78847616 117.77575219 434.75307842 105.57354319 434.7318207 C104.82160848 434.73050709 104.06967376 434.72919347 103.29495315 434.72784004 C99.52277937 434.72131493 95.75060528 434.71499638 91.97843099 434.70878053 C60.67627686 434.65693302 29.37432429 434.56848394 -1.92767751 434.4571625 C-2.3757073 433.67180117 -2.82373708 432.88643984 -3.28534353 432.07727969 C-4.98280315 429.10240903 -6.68078393 426.12783701 -8.37909353 423.15345156 C-9.10748554 421.87752514 -9.83568262 420.60148741 -10.56366384 419.32532656 C-15.30746739 411.00975651 -20.08798263 402.71745019 -24.92767751 394.4571625 C-29.98193706 385.82098304 -34.97373873 377.15111686 -39.92767751 368.4571625 C-45.46753684 358.73591744 -51.06142683 349.04821381 -56.71112478 339.39026797 C-62.86534493 328.86631625 -68.95137747 318.30336112 -75.03656423 307.73938906 C-78.16447899 302.31056308 -81.29626199 296.88396969 -84.42767751 291.4571625 C-85.6776963 289.29050667 -86.9276963 287.12384 -88.17767751 284.9571625 C-88.79642751 283.8846625 -89.41517751 282.8121625 -90.05267751 281.7071625 C-91.92767751 278.4571625 -93.80267751 275.2071625 -95.67767751 271.9571625 C-96.29731374 270.88313174 -96.91694997 269.80910098 -97.55536306 268.70252383 C-98.79643005 266.55133025 -100.03747845 264.40012595 -101.27850759 262.24891055 C-104.19266096 257.19753251 -107.10699569 252.1462594 -110.02200735 247.09537661 C-111.05441229 245.30649332 -112.08675708 243.51757533 -113.11908376 241.72864687 C-114.41453699 239.48378614 -115.71010321 237.2389906 -117.00580251 234.99427187 C-118.15151052 233.00879767 -119.29295598 231.02085467 -120.42914236 229.02991641 C-121.34359708 227.45993858 -122.2855679 225.90507406 -123.27386892 224.38050234 C-125.06225958 221.58284461 -125.96753383 219.95885556 -125.70038259 216.59607852 C-124.89471842 213.32327466 -123.78786243 210.99233932 -122.07611501 208.0977875 C-121.1818279 206.56831484 -121.1818279 206.56831484 -120.26947439 205.00794375 C-119.29590993 203.37405703 -119.29590993 203.37405703 -118.30267751 201.7071625 C-117.62265573 200.55018898 -116.94363704 199.39262537 -116.26556814 198.23450625 C-114.85700427 195.83051102 -113.4441711 193.42910477 -112.02826345 191.02942812 C-108.78750773 185.5288137 -105.61101428 179.99112841 -102.42767751 174.4571625 C-101.17797859 172.29032216 -99.92797762 170.123656 -98.67767751 167.9571625 C-98.05892751 166.8846625 -97.44017751 165.8121625 -96.80267751 164.7071625 C-74.92767751 126.79049583 -53.05267751 88.87382917 -31.17767751 50.9571625 C-30.55796072 49.8829706 -29.93824392 48.80877871 -29.29974782 47.70203555 C-28.0595699 45.55242616 -26.81933624 43.40284891 -25.5790447 41.25330508 C-22.65417521 36.18407038 -19.72986918 31.11451314 -16.80756032 26.0438019 C-15.42960814 23.65289653 -14.05133579 21.26217578 -12.67303884 18.87146914 C-11.70226769 17.18732287 -10.73195877 15.50291018 -9.76166189 13.81849062 C-9.17191579 12.79561953 -8.5821697 11.77274844 -7.97455251 10.71888125 C-7.45731618 9.82129092 -6.94007986 8.92370059 -6.4071697 7.99891055 C-5.91893728 7.16013369 -5.43070486 6.32135684 -4.92767751 5.4571625 C-4.60692093 4.59214019 -4.28616436 3.72711789 -3.95568788 2.83588278 C-1.92767751 0.4571625 -1.92767751 0.4571625 0 0 Z " fill="#FCB813" transform="translate(125.92767751216888,32.542837500572205)"/>
<path d="M0 0 C2.67835541 -0.17811431 5.31582104 -0.18433795 7.99998057 -0.14411008 C9.03159904 -0.14838221 10.06321751 -0.15265433 11.12609714 -0.15705591 C14.59973675 -0.16532369 18.0721819 -0.13773708 21.54571116 -0.11046445 C24.02888042 -0.10905481 26.51205178 -0.10984432 28.99521983 -0.11267698 C34.34993262 -0.11381736 39.70427015 -0.09959183 45.05888522 -0.07148778 C52.80072534 -0.03088064 60.5424181 -0.01783347 68.28435317 -0.01154783 C80.84453771 -0.00060022 93.40456003 0.0326865 105.96465647 0.07996523 C118.16679664 0.12584884 130.36889278 0.16124657 142.57110178 0.1825043 C143.3230365 0.18381791 144.07497121 0.18513153 144.84969183 0.18648496 C148.62186561 0.19301006 152.39403969 0.19932862 156.16621399 0.20554447 C187.46836812 0.25739198 218.77032069 0.34584105 250.07232249 0.4571625 C281.32232249 54.62382917 312.57232249 108.79049583 343.82232249 162.9571625 C344.44195872 164.03119326 345.06159495 165.10522402 345.70000803 166.21180117 C346.94107503 168.36299474 348.18212342 170.51419905 349.42315257 172.66541445 C352.33730593 177.71679249 355.25164067 182.7680656 358.16665232 187.81894839 C359.19905727 189.60783168 360.23140205 191.39674967 361.26372874 193.18567812 C362.55918197 195.43053886 363.85474819 197.6753344 365.15044749 199.92005312 C366.29615549 201.90552733 367.43760096 203.89347033 368.57378733 205.88440859 C369.48824206 207.45438642 370.43021288 209.00925094 371.41851389 210.53382266 C373.20690456 213.33148039 374.11217881 214.95546944 373.84502757 218.31824648 C373.0393634 221.59105034 371.93250741 223.92198567 370.22075999 226.8165375 C369.32647288 228.34601016 369.32647288 228.34601016 368.41411936 229.90638125 C367.76507639 230.99563906 367.11603343 232.08489687 366.44732249 233.2071625 C365.76730071 234.36413601 365.08828202 235.52169963 364.41021311 236.67981875 C363.00164925 239.08381398 361.58881608 241.48522023 360.17290843 243.88489687 C356.93215271 249.3855113 353.75565926 254.92319659 350.57232249 260.4571625 C349.32262357 262.62400284 348.07262259 264.790669 346.82232249 266.9571625 C346.20357249 268.0296625 345.58482249 269.1021625 344.94732249 270.2071625 C323.07232249 308.12382917 301.19732249 346.04049583 279.32232249 383.9571625 C278.70260569 385.03135439 278.08288889 386.10554629 277.4443928 387.21228945 C276.20421487 389.36189884 274.96398122 391.51147608 273.72368968 393.66101992 C270.79882019 398.73025462 267.87451416 403.79981186 264.9522053 408.8705231 C263.57425311 411.26142847 262.19598076 413.65214921 260.81768382 416.04285586 C259.84691266 417.72700213 258.87660374 419.41141481 257.90630686 421.09583437 C257.31656077 422.11870547 256.72681468 423.14157656 256.11919749 424.19544375 C255.60196116 425.09303408 255.08472483 425.99062441 254.55181468 426.91541445 C254.06358225 427.75419131 253.57534983 428.59296816 253.07232249 429.4571625 C252.75156591 430.32218481 252.43080933 431.18720711 252.10033286 432.07844222 C250.07232249 434.4571625 250.07232249 434.4571625 248.14464498 434.914325 C245.46628956 435.09243931 242.82882394 435.09866295 240.14466441 435.05843508 C239.11304594 435.06270721 238.08142747 435.06697933 237.01854783 435.07138091 C233.54490822 435.07964869 230.07246307 435.05206208 226.59893382 435.02478945 C224.11576455 435.02337981 221.6325932 435.02416932 219.14942515 435.02700198 C213.79471235 435.02814235 208.44037482 435.01391683 203.08575976 434.98581278 C195.34391964 434.94520564 187.60222688 434.93215847 179.8602918 434.92587283 C167.30010727 434.91492522 154.74008494 434.8816385 142.1799885 434.83435977 C129.97784833 434.78847616 117.77575219 434.75307842 105.57354319 434.7318207 C104.82160848 434.73050709 104.06967376 434.72919347 103.29495315 434.72784004 C99.52277937 434.72131493 95.75060528 434.71499638 91.97843099 434.70878053 C60.67627686 434.65693302 29.37432429 434.56848394 -1.92767751 434.4571625 C-2.3757073 433.67180117 -2.82373708 432.88643984 -3.28534353 432.07727969 C-4.98280315 429.10240903 -6.68078393 426.12783701 -8.37909353 423.15345156 C-9.10748554 421.87752514 -9.83568262 420.60148741 -10.56366384 419.32532656 C-15.30746739 411.00975651 -20.08798263 402.71745019 -24.92767751 394.4571625 C-29.98193706 385.82098304 -34.97373873 377.15111686 -39.92767751 368.4571625 C-45.46753684 358.73591744 -51.06142683 349.04821381 -56.71112478 339.39026797 C-62.86534493 328.86631625 -68.95137747 318.30336112 -75.03656423 307.73938906 C-78.16447899 302.31056308 -81.29626199 296.88396969 -84.42767751 291.4571625 C-85.6776963 289.29050667 -86.9276963 287.12384 -88.17767751 284.9571625 C-88.79642751 283.8846625 -89.41517751 282.8121625 -90.05267751 281.7071625 C-91.92767751 278.4571625 -93.80267751 275.2071625 -95.67767751 271.9571625 C-96.29731374 270.88313174 -96.91694997 269.80910098 -97.55536306 268.70252383 C-98.79643005 266.55133025 -100.03747845 264.40012595 -101.27850759 262.24891055 C-104.19266096 257.19753251 -107.10699569 252.1462594 -110.02200735 247.09537661 C-111.05441229 245.30649332 -112.08675708 243.51757533 -113.11908376 241.72864687 C-114.41453699 239.48378614 -115.71010321 237.2389906 -117.00580251 234.99427187 C-118.15151052 233.00879767 -119.29295598 231.02085467 -120.42914236 229.02991641 C-121.34359708 227.45993858 -122.2855679 225.90507406 -123.27386892 224.38050234 C-125.06225958 221.58284461 -125.96753383 219.95885556 -125.70038259 216.59607852 C-124.89471842 213.32327466 -123.78786243 210.99233932 -122.07611501 208.0977875 C-121.1818279 206.56831484 -121.1818279 206.56831484 -120.26947439 205.00794375 C-119.29590993 203.37405703 -119.29590993 203.37405703 -118.30267751 201.7071625 C-117.62265573 200.55018898 -116.94363704 199.39262537 -116.26556814 198.23450625 C-114.85700427 195.83051102 -113.4441711 193.42910477 -112.02826345 191.02942812 C-108.78750773 185.5288137 -105.61101428 179.99112841 -102.42767751 174.4571625 C-101.17797859 172.29032216 -99.92797762 170.123656 -98.67767751 167.9571625 C-98.05892751 166.8846625 -97.44017751 165.8121625 -96.80267751 164.7071625 C-74.92767751 126.79049583 -53.05267751 88.87382917 -31.17767751 50.9571625 C-30.55796072 49.8829706 -29.93824392 48.80877871 -29.29974782 47.70203555 C-28.0595699 45.55242616 -26.81933624 43.40284891 -25.5790447 41.25330508 C-22.65417521 36.18407038 -19.72986918 31.11451314 -16.80756032 26.0438019 C-15.42960814 23.65289653 -14.05133579 21.26217578 -12.67303884 18.87146914 C-11.70226769 17.18732287 -10.73195877 15.50291018 -9.76166189 13.81849062 C-9.17191579 12.79561953 -8.5821697 11.77274844 -7.97455251 10.71888125 C-7.45731618 9.82129092 -6.94007986 8.92370059 -6.4071697 7.99891055 C-5.91893728 7.16013369 -5.43070486 6.32135684 -4.92767751 5.4571625 C-4.60692093 4.59214019 -4.28616436 3.72711789 -3.95568788 2.83588278 C-1.92767751 0.4571625 -1.92767751 0.4571625 0 0 Z M11.93023264 49.16101992 C10.72432181 52.04033919 9.73156998 54.87056599 8.87049067 57.87011683 C7.76533589 61.4521763 6.0610866 64.22775349 4.04888499 67.3790375 C2.93048382 69.32104739 1.81327861 71.26374656 0.69732249 73.2071625 C-0.5708738 75.41030642 -1.83910397 77.61343085 -3.10736501 79.8165375 C-3.73868337 80.91417422 -4.37000173 82.01181094 -5.02045095 83.14270937 C-8.15132676 88.58366815 -11.28984293 94.02021498 -14.42767751 99.4571625 C-15.6777151 101.62380748 -16.92771508 103.79047416 -18.17767751 105.9571625 C-55.67767751 170.9571625 -55.67767751 170.9571625 -57.5568279 174.21204531 C-58.79566694 176.36089674 -60.03187073 178.51126977 -61.265324 180.66321719 C-64.18753734 185.75399806 -67.13453083 190.82483885 -70.17673147 195.84473574 C-71.61381358 198.21965974 -73.03593868 200.60337318 -74.45697439 202.98792422 C-75.46787767 204.67005582 -76.50029979 206.33919562 -77.53314626 208.00794375 C-78.44193532 209.53741641 -78.44193532 209.53741641 -79.36908376 211.0977875 C-79.91250417 211.99014102 -80.45592458 212.88249453 -81.01581228 213.80188906 C-82.24064968 217.36851065 -81.43094578 219.06747377 -79.92767751 222.4571625 C-78.57959534 224.92060529 -77.19950029 227.31214427 -75.74017751 229.7071625 C-74.83269346 231.22335165 -73.92652946 232.74033138 -73.02142751 234.25794375 C-72.52642751 235.08632754 -72.03142751 235.91471133 -71.52142751 236.76819766 C-68.54865461 241.78384115 -65.64828279 246.84134477 -62.74017751 251.8946625 C-62.10313894 253.00035586 -61.46610036 254.10604922 -60.80975759 255.24524844 C-59.50067095 257.51740331 -58.19183489 259.78970258 -56.88324392 262.06214297 C-53.73435698 267.5288623 -50.58084487 272.99291137 -47.42767751 278.4571625 C-46.17765401 280.62381561 -44.92765404 282.79048229 -43.67767751 284.9571625 C-43.05892751 286.0296625 -42.44017751 287.1021625 -41.80267751 288.2071625 C-6.17767751 349.9571625 -6.17767751 349.9571625 -4.29925954 353.21326602 C-3.06085981 355.35970709 -1.82225616 357.50603054 -0.58343923 359.65223086 C2.36287604 364.75718256 5.30698707 369.86337217 8.24401438 374.97367251 C9.64082056 377.40376802 11.03877527 379.83320185 12.43682444 382.26258242 C13.4303824 383.99020665 14.42226557 385.7187937 15.41411936 387.44739687 C16.01031077 388.48315859 16.60650218 389.51892031 17.22075999 390.58606875 C17.74846995 391.50460635 18.27617991 392.42314394 18.81988108 393.36951602 C19.90666919 395.37237109 19.90666919 395.37237109 21.07232249 396.4571625 C23.70444852 396.59267809 26.31172551 396.66292543 28.94584239 396.69181216 C29.78085294 396.7046612 30.61586349 396.71751024 31.47617739 396.73074865 C34.29650852 396.77246394 37.11687701 396.80660594 39.93731272 396.84046328 C41.95076868 396.86799041 43.9642218 396.89572554 45.97767222 396.9236542 C64.38879416 397.16924866 82.80115642 397.30870813 101.21352637 397.42010081 C113.59678948 397.49671905 125.97806316 397.60537927 138.36016428 397.79456484 C149.15726425 397.95951784 159.95297759 398.06462978 170.75131911 398.09733725 C176.46758036 398.11661931 182.18011663 398.16525533 187.89522707 398.28513873 C193.27857346 398.39695441 198.6564744 398.42806238 204.0408417 398.39828646 C206.0122977 398.40135786 207.98396264 398.43339755 209.95439112 398.49711382 C218.74416721 398.85495398 218.74416721 398.85495398 227.07232249 396.4571625 C231.43292779 392.33944966 233.84624884 386.98597232 236.1564424 381.53880441 C237.47443403 378.54323036 239.1116342 375.82389884 240.80279124 373.02356875 C241.95586204 371.02268548 243.10819708 369.02137803 244.25982249 367.0196625 C245.20619578 365.37731631 245.20619578 365.37731631 246.17168772 363.70179141 C248.13922705 360.28729543 250.10585283 356.87227461 252.07232249 353.4571625 C259.94851582 339.781373 267.84352533 326.11754964 275.80523264 312.49134219 C281.97151302 301.93095968 288.07728198 291.33589484 294.18120921 280.73938906 C297.30912398 275.31056307 300.44091815 269.88397615 303.57232249 264.4571625 C304.80801362 262.31524352 306.04369066 260.17331641 307.27935374 258.03138125 C309.57481707 254.05253818 311.87055663 250.07385477 314.16665232 246.09537661 C315.19905727 244.30649332 316.23140205 242.51757533 317.26372874 240.72864687 C318.55918197 238.48378614 319.85474819 236.2389906 321.15044749 233.99427187 C322.29583167 232.00935884 323.43605101 230.02145201 324.56988108 228.02991641 C325.48955795 226.45507812 326.44362338 224.8989643 327.45367014 223.38050234 C328.78923033 221.43510871 328.78923033 221.43510871 330.07232249 218.4571625 C329.01608985 214.289489 327.28657487 210.79286942 325.12310374 207.0977875 C324.53013499 206.07813906 323.93716624 205.05849062 323.32622874 204.00794375 C322.68556468 202.91868594 322.04490061 201.82942812 321.38482249 200.7071625 C320.7097561 199.54995278 320.03528787 198.39239393 319.36138499 197.23450625 C317.96216444 194.83145668 316.56039313 192.4299233 315.15679514 190.02942812 C311.93782865 184.51929405 308.7571722 178.98705892 305.57232249 173.4571625 C304.32378427 171.29300786 303.07508581 169.12894566 301.82622874 166.964975 C299.31162813 162.60650862 296.79877588 158.24704059 294.28716624 153.88685 C288.2648492 143.4351005 282.22562912 132.99416702 276.13482249 122.5821625 C270.71447751 113.31450167 265.37291864 104.00356721 260.05712473 94.67575991 C254.22079624 84.43712095 248.30657633 74.24561045 242.35357249 64.07435 C240.15425891 60.31545208 237.96696428 56.5499797 235.79107249 52.777475 C235.02210642 51.44438296 235.02210642 51.44438296 234.23760569 50.08435977 C233.27648789 48.41633689 232.31662127 46.74759224 231.35821116 45.07801211 C229.49556617 41.56357487 229.49556617 41.56357487 227.07232249 38.4571625 C224.447194 38.31056723 221.84656659 38.22910421 219.21898997 38.18886721 C218.38609611 38.17249034 217.55320226 38.15611347 216.69506919 38.13924032 C213.88176233 38.08574248 211.0683879 38.03993268 208.25493968 37.99451602 C206.24635164 37.95880907 204.23776608 37.92296294 202.22918284 37.88698733 C183.84956678 37.56924193 165.46823441 37.38381652 147.08655512 37.23516333 C134.72622035 37.13283303 122.36917144 36.98918772 110.01079905 36.74256289 C99.23232883 36.52750663 88.45616911 36.39035049 77.67559135 36.34654528 C71.96984323 36.32078075 66.27038996 36.25713772 60.56660807 36.10053599 C32.32085861 33.60321857 32.32085861 33.60321857 11.93023264 49.16101992 Z " fill="#231F20" transform="translate(125.92767751216888,32.542837500572205)"/>
<path d="M0 0 C2.55392514 1.27696257 2.78446429 2.2915514 3.96875 4.86328125 C4.56429687 6.13655273 4.56429687 6.13655273 5.171875 7.43554688 C5.61015625 8.38494141 6.0484375 9.33433594 6.5 10.3125 C11.49886758 20.96255992 16.71520453 31.48980259 22 42 C26.87780044 51.7103599 31.73695339 61.42211346 36.375 71.25 C41.83461512 82.81461606 47.59618419 94.22625242 53.33267212 105.65509033 C58.76259798 116.47686105 64.14666545 127.31038823 69.30566406 138.26464844 C71.51133374 142.9368353 73.78147427 147.56514904 76.13671875 152.1640625 C76.6567749 153.18290527 77.17683105 154.20174805 77.71264648 155.25146484 C78.71249754 157.20162694 79.72069509 159.14753996 80.73852539 161.08837891 C81.18059326 161.95124512 81.62266113 162.81411133 82.078125 163.703125 C82.47418945 164.46270508 82.87025391 165.22228516 83.27832031 166.00488281 C84 168 84 168 83 171 C80.73779297 172.57470703 80.73779297 172.57470703 77.7421875 174.2578125 C76.64938477 174.87865723 75.55658203 175.49950195 74.43066406 176.13916016 C73.24544917 176.80111834 72.06022768 177.46306471 70.875 178.125 C69.06674847 179.14848674 67.26037358 180.17523529 65.45397949 181.20199585 C64.2629451 181.87855748 63.07129603 182.55403822 61.87902832 183.22842407 C57.63051007 185.63221465 53.42205732 188.09129314 49.25 190.625 C43.33462863 194.20457545 37.39164355 197.73526482 31.4375 201.25 C30.51565918 201.79462891 29.59381836 202.33925781 28.64404297 202.90039062 C23.71309504 205.81246832 18.77848047 208.71816794 13.83984375 211.6171875 C12.84090088 212.20467773 11.84195801 212.79216797 10.81274414 213.39746094 C8.89513513 214.52511001 6.97640149 215.65084942 5.05639648 216.77441406 C4.18958252 217.28456055 3.32276855 217.79470703 2.4296875 218.3203125 C1.66897949 218.76648926 0.90827148 219.21266602 0.12451172 219.67236328 C-4.93334898 222.7445394 -4.93334898 222.7445394 -7.52734375 227.8515625 C-7.87539063 228.99141602 -7.87539063 228.99141602 -8.23046875 230.15429688 C-8.46378906 230.96962891 -8.69710937 231.78496094 -8.9375 232.625 C-9.19273437 233.47384766 -9.44796875 234.32269531 -9.7109375 235.19726562 C-10.4882767 237.79419732 -11.2461039 240.39617813 -12 243 C-12.42767762 244.45593727 -12.85601964 245.9116796 -13.28515625 247.3671875 C-13.89476066 249.43813901 -14.50275514 251.50948016 -15.10522461 253.58251953 C-16.65911585 258.91385668 -18.31349354 264.20926171 -20 269.5 C-22.14609143 276.23325091 -24.1949601 282.9872351 -26.16918945 289.77270508 C-27.62446372 294.76062088 -29.13583528 299.72873165 -30.6875 304.6875 C-30.88996338 305.33485107 -31.09242676 305.98220215 -31.30102539 306.64916992 C-32.49536712 310.44726624 -33.74070784 314.22212351 -35 318 C-50.84 318 -66.68 318 -83 318 C-87.07135191 305.78594426 -91.02574701 293.74677884 -94.47265625 281.375 C-96.86939972 272.86710647 -99.49380751 264.42714694 -102.08691406 255.97753906 C-103.66842694 250.82028478 -105.24045534 245.6601466 -106.8125 240.5 C-107.1024585 239.5507666 -107.39241699 238.6015332 -107.69116211 237.62353516 C-108.10120483 236.278479 -108.10120483 236.278479 -108.51953125 234.90625 C-108.91954346 233.636604 -108.91954346 233.636604 -109.32763672 232.34130859 C-110 230 -110 230 -110.62109375 226.1953125 C-112.76045837 221.23780469 -116.58611939 219.77746606 -121.25 217.375 C-123.18332793 216.32612659 -125.1155887 215.27528418 -127.046875 214.22265625 C-128.53670898 213.42239014 -128.53670898 213.42239014 -130.05664062 212.60595703 C-134.60686907 210.12325939 -139.05110976 207.47126514 -143.5 204.8125 C-145.32764057 203.7270485 -147.15578262 202.64244102 -148.984375 201.55859375 C-149.94150391 200.99124512 -150.89863281 200.42389648 -151.88476562 199.83935547 C-155.31873005 197.81180939 -158.75979731 195.79674375 -162.203125 193.78515625 C-175.55000927 185.98647414 -188.8597367 178.14450055 -202 170 C-200.5793859 165.35464084 -198.67553659 161.09985485 -196.47265625 156.78515625 C-196.12827515 156.10195816 -195.78389404 155.41876007 -195.42907715 154.71485901 C-194.69258159 153.25424119 -193.95438518 151.79447996 -193.21463013 150.33551025 C-191.25885818 146.47701408 -189.31670154 142.61168515 -187.375 138.74609375 C-186.99058243 137.98119629 -186.60616486 137.21629883 -186.21009827 136.42822266 C-183.25132082 130.5292536 -180.37833576 124.59358517 -177.5625 118.625 C-172.48008895 107.8704949 -167.14204109 97.2485554 -161.80450439 86.6192627 C-156.83232553 76.71370824 -151.93646363 66.78237309 -147.20239258 56.76025391 C-142.30585261 46.44437848 -137.15387053 36.25497851 -132.01147461 26.06005859 C-127.84087488 17.77711934 -123.81875402 9.45275789 -120 1 C-119.34 1 -118.68 1 -118 1 C-107.73054789 25.89306695 -97.8918105 50.95477767 -88 76 C-68.86 76.33 -49.72 76.66 -30 77 C-29.01 74.03 -28.02 71.06 -27 68 C-26.08115676 65.5707043 -25.14161621 63.14912991 -24.1809082 60.73608398 C-23.91712372 60.07152695 -23.65333923 59.40696991 -23.38156128 58.72227478 C-22.52365105 56.56260477 -21.6622575 54.40434347 -20.80078125 52.24609375 C-20.19950477 50.73446659 -19.59844943 49.22275145 -18.99760437 47.71095276 C-17.4265462 43.75969106 -15.85251448 39.80962071 -14.27783203 35.85980225 C-12.66712577 31.81806606 -11.05927393 27.77519474 -9.45117188 23.73242188 C-6.30355259 15.82050933 -3.15278677 7.90985478 0 0 Z " fill="#231F20" transform="translate(309,91)"/>
<path d="M0 0 C5.71640015 0.07700289 11.43244621 0.05024324 17.14922237 0.0381577 C26.74343367 0.03380488 36.33449153 0.10871692 45.92784786 0.23308873 C57.01045245 0.37597943 68.08857372 0.40212041 79.17193246 0.36398143 C89.85125346 0.32917797 100.52900964 0.36821421 111.20808315 0.44381452 C115.74563874 0.47516391 120.28227374 0.4823198 124.81991482 0.47019315 C130.16355278 0.45987691 135.50271519 0.51479772 140.845294 0.61972165 C142.80261734 0.64803773 144.76040103 0.65446942 146.71785259 0.63715291 C161.47447179 0.52742293 161.47447179 0.52742293 166.30126858 5.24107099 C168.49587805 8.43671678 169.95643948 11.88366811 171.44933224 15.45598912 C172.6742493 17.63121557 173.92240671 19.79367886 175.20323849 21.93645787 C176.47479069 24.17098615 177.74425606 26.40670298 179.01183224 28.64348912 C180.41698701 31.11416509 181.82384497 33.58387018 183.23058224 36.05364537 C183.58350842 36.67374486 183.93643459 37.29384435 184.3000555 37.93273473 C187.8471728 44.16236997 191.42612888 50.37349133 195.01183224 56.58098912 C195.62615108 57.64470738 196.24046993 58.70842565 196.8734045 59.80437779 C198.11225447 61.94908499 199.35126765 64.09369792 200.59044552 66.23821568 C203.71257831 71.64269562 206.8306975 77.04949019 209.94933224 82.45598912 C210.56743771 83.52720006 211.18554317 84.598411 211.82237911 85.70208287 C214.96155598 91.14244987 218.09932853 96.58361867 221.23448849 102.02630162 C227.25680569 112.47805141 233.2960612 122.91896356 239.38683224 133.33098912 C246.6319208 145.71949782 253.79591693 158.15774166 260.83702755 170.66350865 C261.80292561 172.33642538 262.80258409 173.99146634 263.86632442 175.60393834 C265.67223744 178.36259494 266.52281463 179.89657481 266.08605099 183.22161412 C263.66719842 188.00159008 261.00608993 192.60625383 258.26183224 197.20598912 C256.98513446 199.36966461 255.70911553 201.53374078 254.43370724 203.69817662 C253.77435177 204.81418248 253.1149963 205.93018834 252.43566036 207.08001256 C249.26007868 212.47725242 246.13556664 217.90362913 243.01183224 223.33098912 C241.75274876 225.51590288 240.49363401 227.70079862 239.23448849 229.88567662 C238.60945431 230.97074498 237.98442013 232.05581334 237.34044552 233.17376256 C234.21253075 238.60258855 231.08074776 244.02918193 227.94933224 249.45598912 C226.69931345 251.62264495 225.44931345 253.78931162 224.19933224 255.95598912 C221.69933224 260.28932246 219.19933224 264.62265579 216.69933224 268.95598912 C216.08050167 270.02865026 215.4616711 271.10131139 214.8240881 272.2064774 C213.57497706 274.37155983 212.32579094 276.53659894 211.0765295 278.70159459 C207.93730914 284.14214618 204.79942661 289.58346128 201.66417599 295.02630162 C195.57260495 305.59886565 189.46896662 316.16415764 183.32433224 326.70598912 C182.82345089 327.56595494 182.32256954 328.42592076 181.80650997 329.31194615 C180.74703315 331.12700206 179.64095574 332.91544978 178.4961462 334.67792821 C176.72796272 337.62764164 175.80572084 340.50834525 174.85053158 343.80518651 C172.44743626 350.71537629 169.56250153 356.2012104 163.44933224 360.45598912 C150.47828723 365.24024817 134.42344732 363.46867465 120.86313367 363.24649239 C115.15559467 363.17181682 109.44859957 363.20921481 103.74075985 363.22993016 C94.16069594 363.24704442 84.58442919 363.1751778 75.00524044 363.04949498 C63.94519125 362.90543398 52.8917008 362.9003928 41.83108121 362.97008961 C31.16701096 363.03424917 20.50531831 363.00207189 9.84139729 362.92554975 C5.31353807 362.8946078 0.78750431 362.89676532 -3.74035549 362.92583585 C-9.07600269 362.9555808 -14.40437721 362.90059241 -19.73870754 362.78127408 C-21.69031439 362.75092369 -23.642615 362.74909872 -25.59423542 362.77856374 C-39.92395302 362.96879348 -39.92395302 362.96879348 -44.29852033 358.78393412 C-47.43598752 354.69743841 -49.61579905 350.25346231 -51.63171828 345.53226316 C-52.95516693 342.54206389 -54.59245042 339.8211117 -56.28113651 337.02239537 C-57.43422608 335.02152291 -58.58656066 333.02021518 -59.73816776 331.01848912 C-61.03372056 328.76977962 -62.32929408 326.52108204 -63.62488651 324.27239537 C-64.27505741 323.14333776 -64.92522831 322.01428014 -65.59510136 320.85100865 C-68.74398827 315.38428937 -71.89745267 309.92021266 -75.05066776 304.45598912 C-78.81432142 297.93366473 -82.57711399 291.41085149 -86.33582401 284.88567662 C-92.35814105 274.43392713 -98.39736114 263.99299364 -104.48816776 253.58098912 C-109.90615428 244.31736077 -115.24597904 235.01079276 -120.55881596 225.6866715 C-126.52440104 215.21929846 -132.57256261 204.80221424 -138.66004276 194.40520787 C-139.15439823 193.54846471 -139.6487537 192.69172154 -140.15808964 191.80901647 C-141.03193711 190.33248387 -141.94033205 188.87531015 -142.89637089 187.45061803 C-144.72068167 184.66313816 -145.62851883 183.04866178 -145.18738651 179.69036412 C-142.76853395 174.91038817 -140.10742546 170.30572441 -137.36316776 165.70598912 C-136.08646998 163.54231364 -134.81045106 161.37823747 -133.53504276 159.21380162 C-132.87568729 158.09779576 -132.21633183 156.9817899 -131.53699589 155.83196568 C-128.36141421 150.43472583 -125.23690217 145.00834912 -122.11316776 139.58098912 C-120.85408428 137.39607537 -119.59496953 135.21117963 -118.33582401 133.02630162 C-117.71078983 131.94123326 -117.08575565 130.8561649 -116.44178104 129.73821568 C-113.31386628 124.3093897 -110.18208328 118.88279631 -107.05066776 113.45598912 C-105.80064897 111.2893333 -104.55064898 109.12266663 -103.30066776 106.95598912 C-95.80066776 93.95598912 -88.30066776 80.95598912 -80.80066776 67.95598912 C-79.87218021 66.34651402 -79.87218021 66.34651402 -78.92493534 64.70452428 C-77.67760228 62.54261029 -76.43004446 60.38082595 -75.18225956 58.21917272 C-72.01457944 52.73084328 -68.85110016 47.2401638 -65.69519901 41.74505162 C-65.05324589 40.6287235 -64.41129276 39.51239537 -63.74988651 38.36223912 C-62.55696319 36.28758987 -61.36538165 34.212168 -60.17566776 32.13567662 C-59.03614494 30.15526454 -57.84910608 28.20149861 -56.6181879 26.27656102 C-54.91303542 23.41651481 -54.02144844 20.71776848 -53.15783024 17.50883031 C-45.59158379 -5.33168505 -19.66044046 -0.32588387 0 0 Z M-46.55066776 23.45598912 C-47.70287236 25.48540125 -48.87758986 27.50239602 -50.08582401 29.49895787 C-51.26352125 31.54603386 -52.43924314 33.59424734 -53.61316776 35.64348912 C-54.5921789 37.34641694 -55.57119324 39.04934292 -56.5503931 40.75216222 C-57.55514075 42.49994373 -58.55906691 44.24819509 -59.56287479 45.99651647 C-62.71789406 51.48738149 -65.8846474 56.97146257 -69.05066776 62.45598912 C-70.30072888 64.62262053 -71.55072876 66.78928726 -72.80066776 68.95598912 C-110.30066776 133.95598912 -110.30066776 133.95598912 -112.17957401 137.21087193 C-113.41873702 139.36000486 -114.6557467 141.51038093 -115.89051151 143.66204381 C-118.8120859 148.74700388 -121.75411675 153.81639257 -124.77393436 158.84356236 C-126.19944027 161.21961855 -127.61268612 163.60285536 -129.025033 165.98675084 C-130.02755083 167.66723896 -131.04771053 169.33716267 -132.06824589 171.00677037 C-132.97220097 172.53624303 -132.97220097 172.53624303 -133.89441776 174.09661412 C-134.43260136 174.98896764 -134.97078495 175.88132115 -135.52527714 176.80071568 C-136.83451243 180.19101165 -136.52913854 181.97899407 -135.55066776 185.45598912 C-134.323926 188.16364842 -134.323926 188.16364842 -132.69910526 190.81536412 C-132.10291386 191.83501256 -131.50672245 192.854661 -130.89246464 193.90520787 C-130.24342167 194.99446568 -129.5943787 196.0837235 -128.92566776 197.20598912 C-128.24564598 198.36296264 -127.5666273 199.52052625 -126.88855839 200.67864537 C-125.47999452 203.0826406 -124.06716135 205.48404685 -122.6512537 207.8837235 C-119.41049798 213.38433792 -116.23400453 218.92202321 -113.05066776 224.45598912 C-111.80096884 226.62282946 -110.55096787 228.78949562 -109.30066776 230.95598912 C-101.80066776 243.95598912 -101.80066776 243.95598912 -99.92542362 247.2064774 C-98.67631258 249.37155983 -97.42712647 251.53659894 -96.17786503 253.70159459 C-93.03864467 259.14214618 -89.90076213 264.58346128 -86.76551151 270.02630162 C-80.15384177 281.50110034 -73.51805398 292.96094668 -66.83313847 304.39324498 C-63.74495724 309.67897893 -60.67257275 314.97325333 -57.62098026 320.28020787 C-57.12570835 321.14127645 -57.12570835 321.14127645 -56.62043095 322.01974034 C-55.03596583 324.77499607 -53.45363802 327.53143913 -51.87488651 330.2899735 C-50.74256087 332.26082536 -49.59087949 334.22074021 -48.4161005 336.16658521 C-46.55066776 339.45598912 -46.55066776 339.45598912 -45.11846256 342.8376019 C-42.21096886 349.17585355 -42.21096886 349.17585355 -36.72742558 353.20922256 C-31.09630885 354.47590994 -25.33019098 354.22547927 -19.59363651 354.13811803 C-17.65466614 354.15574731 -15.71573933 354.17890192 -13.77689457 354.20714879 C-8.52384263 354.26631041 -3.27411695 354.24349003 1.97899151 354.20222068 C7.48197132 354.16924972 12.98467101 354.19984714 18.48766232 354.22024083 C27.72833433 354.24387632 36.96765465 354.21276824 46.2081213 354.15081334 C56.88378653 354.08006127 67.5562245 354.10297961 78.23181152 354.17455661 C87.40597549 354.23359916 96.57916922 354.24185319 105.75346184 354.20785391 C111.22925292 354.18761091 116.70352818 354.18481025 122.17922115 354.22782826 C127.32879019 354.2654601 132.47421036 354.23922006 137.62333202 354.16420293 C139.5098256 354.14705077 141.39667005 354.15189055 143.28302288 354.18061757 C151.52914926 354.40476102 151.52914926 354.40476102 159.44933224 352.45598912 C163.41728973 348.52340363 165.26838839 344.60735852 167.44933224 339.45598912 C168.60159923 337.42661243 169.77632618 335.4096257 170.98448849 333.41302037 C172.16218573 331.36594438 173.33790761 329.31773091 174.51183224 327.26848912 C175.49084337 325.56556131 176.46985771 323.86263533 177.44905758 322.15981603 C178.45380523 320.41203452 179.45773138 318.66378316 180.46153927 316.91546178 C183.61655854 311.42459675 186.78331187 305.94051568 189.94933224 300.45598912 C191.19939335 298.28935772 192.44939324 296.12269098 193.69933224 293.95598912 C231.19933224 228.95598912 231.19933224 228.95598912 233.07823849 225.70110631 C234.3174015 223.55197338 235.55441118 221.40159732 236.78917599 219.24993443 C239.71075037 214.16497436 242.65278122 209.09558567 245.67259884 204.06841588 C247.09810474 201.6923597 248.5113506 199.30912288 249.92369747 196.9252274 C250.9262153 195.24473929 251.946375 193.57481558 252.96691036 191.90520787 C253.56954708 190.88555943 254.1721838 189.865911 254.79308224 188.81536412 C255.33126583 187.92301061 255.86944942 187.03065709 256.42394161 186.11126256 C257.73317691 182.72096659 257.42780301 180.93298418 256.44933224 177.45598912 C255.22259048 174.74832983 255.22259048 174.74832983 253.59776974 172.09661412 C253.00157833 171.07696568 252.40538692 170.05731725 251.79112911 169.00677037 C250.81756466 167.37288365 250.81756466 167.37288365 249.82433224 165.70598912 C249.14431046 164.54901561 248.46529177 163.39145199 247.78722286 162.23333287 C246.378659 159.82933764 244.96582583 157.42793139 243.54991817 155.02825475 C240.30916246 149.52764032 237.13266901 143.98995503 233.94933224 138.45598912 C232.69963332 136.28914878 231.44963234 134.12248262 230.19933224 131.95598912 C192.69933224 66.95598912 192.69933224 66.95598912 190.82237911 63.70232701 C189.57920924 61.54768288 188.33572249 59.39322155 187.09191036 57.23894811 C184.19950077 52.22844791 181.30997997 47.21636277 178.43236446 42.19735265 C177.4238491 40.43870163 176.41428454 38.68065704 175.40441036 36.922786 C174.14582706 34.73126682 172.88916237 32.53864408 171.63487911 30.344661 C171.05802364 29.34112584 170.48116817 28.33759068 169.88683224 27.30364537 C169.39054317 26.43747594 168.89425411 25.57130651 168.38292599 24.67888951 C167.74484005 23.61533238 167.10675411 22.55177526 166.44933224 21.45598912 C166.10032077 20.5749448 165.7513093 19.69390048 165.39172173 18.78615785 C163.75827177 15.31928828 162.28208241 13.06108758 159.44933224 10.45598912 C153.20518953 8.7387056 147.04345443 8.9292247 140.60582638 9.000911 C138.66701216 8.98272122 136.72823679 8.95988656 134.78952694 8.93276525 C129.53266341 8.87413097 124.27810469 8.8852682 119.0210669 8.91254544 C114.62974399 8.92883788 110.23884403 8.91061961 105.84755033 8.89230132 C95.48663576 8.84945026 85.12683902 8.86257497 74.76598263 8.91204381 C64.0830155 8.96221448 53.40291395 8.92525824 42.72020155 8.84411883 C33.54186774 8.7770821 24.36441851 8.76064958 15.18587297 8.785465 C9.7066483 8.79999051 4.22905072 8.79624297 -1.24999142 8.7452805 C-6.40354383 8.69984451 -11.55308812 8.71788216 -16.70637417 8.78436208 C-18.59451788 8.79832652 -20.48297573 8.79026244 -22.37090015 8.75827718 C-35.82923924 8.54896538 -41.11991307 10.61934271 -46.55066776 23.45598912 Z " fill="#F8F6F3" transform="translate(189.55066776275635,68.54401087760925)"/>
<path d="M0 0 C0.66 0 1.32 0 2 0 C2 14.85 2 29.7 2 45 C-12.19 45 -26.38 45 -41 45 C-34.25296443 37.1284585 -34.25296443 37.1284585 -31.625 34.34375 C-31.03904053 33.72105225 -30.45308105 33.09835449 -29.84936523 32.45678711 C-29.23907471 31.81104736 -28.62878418 31.16530762 -28 30.5 C-26.6782719 29.09515887 -25.35666023 27.6902082 -24.03515625 26.28515625 C-23.36758301 25.57633301 -22.70000977 24.86750977 -22.01220703 24.13720703 C-18.81559241 20.74201602 -15.62457746 17.34164327 -12.4375 13.9375 C-11.87869141 13.34324219 -11.31988281 12.74898437 -10.74414062 12.13671875 C-7.45394906 8.62084617 -4.31310635 5.0297486 -1.28149414 1.28735352 C-0.85860107 0.86252686 -0.43570801 0.4377002 0 0 Z " fill="#F8F8F8" transform="translate(308,228)"/>
<path d="M0 0 C3.34321955 1.11440652 4.06019619 1.97472343 6.25 4.625 C8.57375981 7.36859877 10.92880824 9.98671796 13.5 12.5 C15.85062317 14.80563186 18.05899376 17.17361961 20.203125 19.671875 C24.77411038 24.93044504 29.58460436 29.95328013 34.390625 34.99609375 C35.07125 35.71410156 35.751875 36.43210937 36.453125 37.171875 C37.06317383 37.8122168 37.67322266 38.45255859 38.30175781 39.11230469 C39.98104148 40.9789265 41.4935016 42.99133547 43 45 C28.81 45 14.62 45 0 45 C0 30.15 0 15.3 0 0 Z " fill="#F8F8F8" transform="translate(190,228)"/>
</svg>
